M48
; DRILL file {KiCad 9.0.6} date 2026-05-15T00:55:19+0100
; FORMAT={-:-/ absolute / metric / decimal}
; #@! TF.CreationDate,2026-05-15T00:55:19+01:00
; #@! TF.GenerationSoftware,Kicad,Pcbnew,9.0.6
; #@! TF.FileFunction,Plated,1,4,PTH
FMAT,2
METRIC
; #@! TA.AperFunction,Plated,PTH,ViaDrill
T1C0.300
; #@! TA.AperFunction,Plated,PTH,ComponentDrill
T2C0.600
; #@! TA.AperFunction,Plated,PTH,ComponentDrill
T3C0.700
; #@! TA.AperFunction,Plated,PTH,ComponentDrill
T4C1.000
; #@! TA.AperFunction,Plated,PTH,ComponentDrill
T5C1.500
; #@! TA.AperFunction,Plated,PTH,ComponentDrill
T6C1.700
%
G90
G05
T1
X578.0Y-310.5
X578.1Y-333.0
X578.3Y-319.4
X578.3Y-344.7
X578.5Y-357.0
X578.5Y-361.2
X578.8Y-367.5
X579.2Y-304.9
X580.8Y-315.25
X581.0Y-342.5
X583.5Y-362.9
X583.6Y-365.6
X584.5Y-332.6
X584.6Y-327.7
X584.6Y-366.6
X586.2Y-336.8
X587.1Y-315.25
X587.3Y-373.2
X587.7Y-305.0
X588.1Y-324.3
X588.5Y-328.8
X588.8Y-354.6
X589.6Y-310.1
X589.7Y-334.3
X589.7Y-365.1
X589.9Y-338.6
X590.9Y-348.4
X591.4Y-321.1
X591.9Y-325.4
X591.9Y-366.7
X592.4Y-331.2
X592.5Y-340.5
X592.5Y-355.9
X592.5Y-370.9
X593.3Y-363.9
X593.4Y-373.3
X593.6Y-343.9
X594.8Y-360.9
X595.0Y-355.25
X595.3Y-345.6
X595.45Y-314.8
X595.5Y-341.4
X596.8Y-346.7
X596.8Y-349.55
X597.0Y-304.8
X597.0Y-362.9
X597.15Y-356.325
X597.8Y-354.1
X598.0Y-363.9
X598.2Y-344.5
X598.7Y-349.8
X599.3Y-351.4
X599.5Y-365.0
X599.5Y-369.9
X600.05Y-316.2
X600.7Y-351.4
X600.9Y-358.1
X601.3Y-321.2
X601.3Y-327.7
X601.4Y-325.2
X601.4Y-342.5
X601.5Y-312.4
X601.5Y-337.8
X602.0Y-351.4
X602.2Y-330.6
X602.5Y-355.1
X603.1Y-345.7
X604.4Y-363.4
X604.5Y-372.0
X604.525Y-357.275
X604.55Y-362.3
X604.6Y-309.3
X604.85Y-360.5
X605.7Y-309.0
X605.74Y-356.46
X605.8Y-327.7
X605.8Y-361.1
X605.9Y-321.6
X605.9Y-325.1
X606.0Y-347.6
X606.05Y-345.7
X606.6Y-343.5
X606.7Y-335.3
X606.7Y-349.5
X606.7Y-356.45
X606.8Y-309.3
X607.05Y-363.8
X607.35Y-360.0
X607.4Y-347.5
X607.601Y-356.6
X607.7Y-304.9
X608.4Y-370.9
X608.4Y-372.6
X608.75Y-358.25
X609.3Y-342.0
X609.35Y-364.65
X609.4Y-362.3
X609.8Y-340.2
X611.1Y-325.2
X611.2Y-320.1
X611.3Y-327.8
X611.8Y-360.0
X612.2Y-311.95
X612.75Y-370.45
X613.7Y-351.9
X614.1Y-369.5
X614.3Y-370.4
X614.7Y-366.0
X614.8Y-354.0
X615.25Y-305.0
X615.992Y-357.7
X615.992Y-359.0
X616.1Y-323.5
X616.4Y-318.6
X616.692Y-357.2
X616.692Y-358.3
X616.9Y-360.0
X617.4Y-355.4
X618.9Y-355.8
X619.0Y-370.5
X619.1Y-334.9
X619.5Y-342.3
X619.6Y-360.4
X620.3Y-365.4
X620.4Y-373.4
X620.8Y-356.2
X620.9Y-326.9
X621.7Y-359.9
X621.792Y-357.25
X621.792Y-358.45
X622.3Y-323.3
X622.692Y-357.75
X622.692Y-359.0
X623.7Y-318.4
X624.0Y-367.2
X624.5Y-373.85
X625.3Y-341.8
X625.8Y-356.4
X625.8Y-359.7
X626.675Y-371.625
X626.9Y-328.8
X627.3Y-346.2
X627.5Y-333.5
X627.7Y-341.8
X627.7Y-348.5
X628.0Y-316.5
X628.4Y-323.1
X629.0Y-311.7
X629.3Y-358.0
T3
X582.18Y-360.33
X582.18Y-361.6
X583.45Y-360.33
X583.45Y-361.6
X584.72Y-360.33
X584.72Y-361.6
X585.99Y-360.33
X585.99Y-361.6
X587.26Y-360.33
X587.26Y-361.6
X588.53Y-360.33
X588.53Y-361.6
X589.8Y-360.33
X589.8Y-361.6
T4
X580.9Y-321.32
X580.9Y-323.86
X580.9Y-326.4
X580.9Y-328.94
X580.9Y-331.48
X580.9Y-334.02
X580.9Y-336.56
X580.9Y-339.1
X592.085Y-311.35
X594.625Y-311.35
X594.76Y-368.2
X597.3Y-368.2
X597.7Y-321.32
X597.7Y-323.86
X597.7Y-326.4
X597.7Y-328.94
X597.7Y-331.48
X597.7Y-334.02
X597.7Y-336.56
X597.7Y-339.1
X606.32Y-315.2
X606.32Y-332.0
X608.86Y-315.2
X608.86Y-332.0
X611.025Y-308.95
X611.4Y-315.2
X611.4Y-332.0
X613.565Y-308.95
X613.94Y-315.2
X613.94Y-332.0
X616.48Y-315.2
X616.48Y-332.0
X619.02Y-315.2
X619.02Y-332.0
X621.1Y-346.7
X621.56Y-315.2
X621.56Y-332.0
X623.64Y-346.7
X624.1Y-315.2
X624.1Y-332.0
T5
X583.21Y-308.21
X583.5Y-345.575
X583.5Y-350.375
X583.5Y-355.175
X614.9Y-339.1
X614.9Y-343.9
X614.9Y-348.7
X624.12Y-306.56
T6
X580.67Y-305.67
X580.67Y-310.75
X585.75Y-305.67
X585.75Y-310.75
X621.58Y-304.02
X621.58Y-309.1
X626.66Y-304.02
X626.66Y-309.1
T2
X624.117Y-353.78G85X625.217Y-353.78
G05
X624.117Y-362.42G85X625.217Y-362.42
G05
X628.467Y-353.78G85X629.267Y-353.78
G05
X628.467Y-362.42G85X629.267Y-362.42
G05
M30
