%TF.GenerationSoftware,KiCad,Pcbnew,9.0.6*%
%TF.CreationDate,2026-05-15T00:55:16+01:00*%
%TF.ProjectId,rf_controller,72665f63-6f6e-4747-926f-6c6c65722e6b,rev?*%
%TF.SameCoordinates,Original*%
%TF.FileFunction,Copper,L4,Bot*%
%TF.FilePolarity,Positive*%
%FSLAX46Y46*%
G04 Gerber Fmt 4.6, Leading zero omitted, Abs format (unit mm)*
G04 Created by KiCad (PCBNEW 9.0.6) date 2026-05-15 00:55:16*
%MOMM*%
%LPD*%
G01*
G04 APERTURE LIST*
%TA.AperFunction,ComponentPad*%
%ADD10R,1.700000X1.700000*%
%TD*%
%TA.AperFunction,ComponentPad*%
%ADD11C,1.700000*%
%TD*%
%TA.AperFunction,ComponentPad*%
%ADD12C,2.500000*%
%TD*%
%TA.AperFunction,ComponentPad*%
%ADD13C,2.050000*%
%TD*%
%TA.AperFunction,ComponentPad*%
%ADD14C,2.250000*%
%TD*%
%TA.AperFunction,ComponentPad*%
%ADD15R,1.000000X1.000000*%
%TD*%
%TA.AperFunction,ComponentPad*%
%ADD16C,1.000000*%
%TD*%
%TA.AperFunction,HeatsinkPad*%
%ADD17O,2.100000X1.000000*%
%TD*%
%TA.AperFunction,HeatsinkPad*%
%ADD18O,1.800000X1.000000*%
%TD*%
%TA.AperFunction,ViaPad*%
%ADD19C,0.600000*%
%TD*%
%TA.AperFunction,Conductor*%
%ADD20C,0.200000*%
%TD*%
G04 APERTURE END LIST*
D10*
%TO.P,L62-2,1,Pin_1*%
%TO.N,/L62_DIO3*%
X606320000Y-332000000D03*
D11*
%TO.P,L62-2,2,Pin_2*%
%TO.N,unconnected-(L62-2-Pin_2-Pad2)*%
X608860000Y-332000000D03*
%TO.P,L62-2,3,Pin_3*%
%TO.N,unconnected-(L62-2-Pin_3-Pad3)*%
X611400000Y-332000000D03*
%TO.P,L62-2,4,Pin_4*%
%TO.N,/L62_RST*%
X613940000Y-332000000D03*
%TO.P,L62-2,5,Pin_5*%
%TO.N,/SPI3_SCK*%
X616480000Y-332000000D03*
%TO.P,L62-2,6,Pin_6*%
%TO.N,/SPI3_MISO*%
X619020000Y-332000000D03*
%TO.P,L62-2,7,Pin_7*%
%TO.N,/SPI3_MOSI*%
X621560000Y-332000000D03*
%TO.P,L62-2,8,Pin_8*%
%TO.N,/L62_CS*%
X624100000Y-332000000D03*
%TD*%
D10*
%TO.P,J9-L80,1,Pin_1*%
%TO.N,+3V3*%
X594625000Y-311350000D03*
D11*
%TO.P,J9-L80,2,Pin_2*%
%TO.N,/L80_VCC*%
X592085000Y-311350000D03*
%TD*%
D12*
%TO.P,BOOT_SW,1,A*%
%TO.N,unconnected-(BOOT_SW1-A-Pad1)*%
X583500000Y-345575000D03*
%TO.P,BOOT_SW,2,B*%
%TO.N,+3V3*%
X583500000Y-350375000D03*
%TO.P,BOOT_SW,3,C*%
%TO.N,/BOOT0*%
X583500000Y-355175000D03*
%TD*%
D10*
%TO.P,L80-2,1,Pin_1*%
%TO.N,/L80_DIO3*%
X597700000Y-339100000D03*
D11*
%TO.P,L80-2,2,Pin_2*%
%TO.N,unconnected-(L80-2-Pin_2-Pad2)*%
X597700000Y-336560000D03*
%TO.P,L80-2,3,Pin_3*%
%TO.N,unconnected-(L80-2-Pin_3-Pad3)*%
X597700000Y-334020000D03*
%TO.P,L80-2,4,Pin_4*%
%TO.N,/L80_RST*%
X597700000Y-331480000D03*
%TO.P,L80-2,5,Pin_5*%
%TO.N,/SPI3_SCK*%
X597700000Y-328940000D03*
%TO.P,L80-2,6,Pin_6*%
%TO.N,/SPI3_MISO*%
X597700000Y-326400000D03*
%TO.P,L80-2,7,Pin_7*%
%TO.N,/SPI3_MOSI*%
X597700000Y-323860000D03*
%TO.P,L80-2,8,Pin_8*%
%TO.N,/L80_CS*%
X597700000Y-321320000D03*
%TD*%
D10*
%TO.P,J1-3V3,1,Pin_1*%
%TO.N,Net-(J1-3V3-Pin_1)*%
X621100000Y-346700000D03*
D11*
%TO.P,J1-3V3,2,Pin_2*%
%TO.N,+3V3*%
X623640000Y-346700000D03*
%TD*%
D13*
%TO.P,ANT_868,1,In*%
%TO.N,/L62_ANT*%
X624120000Y-306560000D03*
D14*
%TO.P,ANT_868,2,Ext*%
%TO.N,GND*%
X621580000Y-304020000D03*
X621580000Y-309100000D03*
X626660000Y-304020000D03*
X626660000Y-309100000D03*
%TD*%
D12*
%TO.P,PWR_SW,1,A*%
%TO.N,Net-(PWR_SW2-A)*%
X614900000Y-339100000D03*
%TO.P,PWR_SW,2,B*%
%TO.N,/USB_VBUS*%
X614900000Y-343900000D03*
%TO.P,PWR_SW,3,C*%
%TO.N,unconnected-(PWR_SW2-C-Pad3)*%
X614900000Y-348700000D03*
%TD*%
D10*
%TO.P,L62-1,1,Pin_1*%
%TO.N,/L62_ANT*%
X624100000Y-315200000D03*
D11*
%TO.P,L62-1,2,Pin_2*%
%TO.N,GND*%
X621560000Y-315200000D03*
%TO.P,L62-1,3,Pin_3*%
%TO.N,/L62_VCC*%
X619020000Y-315200000D03*
%TO.P,L62-1,4,Pin_4*%
%TO.N,/L62_RXSW*%
X616480000Y-315200000D03*
%TO.P,L62-1,5,Pin_5*%
%TO.N,/L62_TXSW*%
X613940000Y-315200000D03*
%TO.P,L62-1,6,Pin_6*%
%TO.N,/L62_BUSY*%
X611400000Y-315200000D03*
%TO.P,L62-1,7,Pin_7*%
%TO.N,/L62_DIO1*%
X608860000Y-315200000D03*
%TO.P,L62-1,8,Pin_8*%
%TO.N,/L62_DIO2*%
X606320000Y-315200000D03*
%TD*%
D13*
%TO.P,ANT_24,1,In*%
%TO.N,/L80_ANT*%
X583210000Y-308210000D03*
D14*
%TO.P,ANT_24,2,Ext*%
%TO.N,GND*%
X580670000Y-310750000D03*
X585750000Y-310750000D03*
X580670000Y-305670000D03*
X585750000Y-305670000D03*
%TD*%
D15*
%TO.P,SWD_INT,1,Pin_1*%
%TO.N,unconnected-(SWD_INT1-Pin_1-Pad1)*%
X589800000Y-361600000D03*
D16*
%TO.P,SWD_INT,2,Pin_2*%
%TO.N,unconnected-(SWD_INT1-Pin_2-Pad2)*%
X589800000Y-360330000D03*
%TO.P,SWD_INT,3,Pin_3*%
%TO.N,+3V3*%
X588530000Y-361600000D03*
%TO.P,SWD_INT,4,Pin_4*%
%TO.N,/SWDIO*%
X588530000Y-360330000D03*
%TO.P,SWD_INT,5,Pin_5*%
%TO.N,GND*%
X587260000Y-361600000D03*
%TO.P,SWD_INT,6,Pin_6*%
%TO.N,/SWCLK*%
X587260000Y-360330000D03*
%TO.P,SWD_INT,7,Pin_7*%
%TO.N,GND*%
X585990000Y-361600000D03*
%TO.P,SWD_INT,8,Pin_8*%
%TO.N,/SWO*%
X585990000Y-360330000D03*
%TO.P,SWD_INT,9,Pin_9*%
%TO.N,unconnected-(SWD_INT1-Pin_9-Pad9)*%
X584720000Y-361600000D03*
%TO.P,SWD_INT,10,Pin_10*%
%TO.N,unconnected-(SWD_INT1-Pin_10-Pad10)*%
X584720000Y-360330000D03*
%TO.P,SWD_INT,11,Pin_11*%
%TO.N,GND*%
X583450000Y-361600000D03*
%TO.P,SWD_INT,12,Pin_12*%
%TO.N,/NRST*%
X583450000Y-360330000D03*
%TO.P,SWD_INT,13,Pin_13*%
%TO.N,/VCP_RX*%
X582180000Y-361600000D03*
%TO.P,SWD_INT,14,Pin_14*%
%TO.N,/VCP_TX*%
X582180000Y-360330000D03*
%TD*%
D17*
%TO.P,J1,S1,SHIELD*%
%TO.N,GND*%
X624666968Y-362420000D03*
D18*
X628866968Y-362420000D03*
D17*
X624666968Y-353780000D03*
D18*
X628866968Y-353780000D03*
%TD*%
D10*
%TO.P,J8-L62,1,Pin_1*%
%TO.N,+3V3*%
X611025000Y-308950000D03*
D11*
%TO.P,J8-L62,2,Pin_2*%
%TO.N,/L62_VCC*%
X613565000Y-308950000D03*
%TD*%
D10*
%TO.P,L80-1,1,Pin_1*%
%TO.N,/L80_ANT*%
X580900000Y-321320000D03*
D11*
%TO.P,L80-1,2,Pin_2*%
%TO.N,GND*%
X580900000Y-323860000D03*
%TO.P,L80-1,3,Pin_3*%
%TO.N,/L80_VCC*%
X580900000Y-326400000D03*
%TO.P,L80-1,4,Pin_4*%
%TO.N,unconnected-(L80-1-Pin_4-Pad4)*%
X580900000Y-328940000D03*
%TO.P,L80-1,5,Pin_5*%
%TO.N,unconnected-(L80-1-Pin_5-Pad5)*%
X580900000Y-331480000D03*
%TO.P,L80-1,6,Pin_6*%
%TO.N,/L80_BUSY*%
X580900000Y-334020000D03*
%TO.P,L80-1,7,Pin_7*%
%TO.N,/L80_DIO1*%
X580900000Y-336560000D03*
%TO.P,L80-1,8,Pin_8*%
%TO.N,/L80_DIO2*%
X580900000Y-339100000D03*
%TD*%
D10*
%TO.P,J2-MCU,1,Pin_1*%
%TO.N,/VCC-MCU*%
X597300000Y-368200000D03*
D11*
%TO.P,J2-MCU,2,Pin_2*%
%TO.N,+3V3*%
X594760000Y-368200000D03*
%TD*%
D19*
%TO.N,GND*%
X626675000Y-371625000D03*
X602200000Y-330600000D03*
X590900000Y-348400000D03*
X580800000Y-315250000D03*
X591900000Y-325400000D03*
X629000000Y-311700000D03*
X627700000Y-348500000D03*
X615250000Y-305000000D03*
X583600000Y-365600000D03*
X597000000Y-304800000D03*
X611100000Y-325200000D03*
X607700000Y-304900000D03*
X611200000Y-320100000D03*
X601300000Y-327700000D03*
X625800000Y-356400000D03*
X628400000Y-323100000D03*
X627500000Y-333500000D03*
X619600000Y-360400000D03*
X625800000Y-359700000D03*
X598700000Y-349800000D03*
X602000000Y-351400000D03*
X599500000Y-365000000D03*
X598200000Y-344500000D03*
X587700000Y-305000000D03*
X625300000Y-341800000D03*
X578100000Y-333000000D03*
X624500000Y-373850000D03*
X594800000Y-360900000D03*
X620900000Y-326900000D03*
X599500000Y-369900000D03*
X616400000Y-318600000D03*
X578500000Y-357000000D03*
X589600000Y-310100000D03*
X588500000Y-328800000D03*
X605800000Y-327700000D03*
X622300000Y-323300000D03*
X599300000Y-351400000D03*
X578800000Y-367500000D03*
X591400000Y-321100000D03*
X593400000Y-373300000D03*
X604600000Y-309300000D03*
X608400000Y-370900000D03*
X578500000Y-361200000D03*
X586200000Y-336800000D03*
X627700000Y-341800000D03*
X614100000Y-369500000D03*
X604500000Y-372000000D03*
X608400000Y-372600000D03*
X595450000Y-314800000D03*
X623700000Y-318400000D03*
X619100000Y-334900000D03*
X584500000Y-332600000D03*
X592500000Y-340500000D03*
X584600000Y-327700000D03*
X578000000Y-310500000D03*
X591900000Y-366700000D03*
X612750000Y-370450000D03*
X583500000Y-362900000D03*
X588100000Y-324300000D03*
X581000000Y-342500000D03*
X616900000Y-360000000D03*
X609400000Y-362300000D03*
X606800000Y-309300000D03*
X616100000Y-323500000D03*
X606700000Y-335300000D03*
X626900000Y-328800000D03*
X597000000Y-362900000D03*
X620800000Y-356200000D03*
X605900000Y-321600000D03*
X589700000Y-334300000D03*
X611800000Y-360000000D03*
X601400000Y-342500000D03*
X587300000Y-373200000D03*
X579200000Y-304900000D03*
X613700000Y-351900000D03*
X619500000Y-342300000D03*
X578300000Y-319400000D03*
X589900000Y-338600000D03*
X601500000Y-312400000D03*
X601300000Y-321200000D03*
X611300000Y-327800000D03*
X587100000Y-315250000D03*
X597800000Y-354100000D03*
X628000000Y-316500000D03*
X601400000Y-325200000D03*
X620400000Y-373400000D03*
X606600000Y-343500000D03*
X624000000Y-367200000D03*
X605700000Y-309000000D03*
X584600000Y-366600000D03*
X627300000Y-346200000D03*
X578300000Y-344700000D03*
X600900000Y-358100000D03*
X592400000Y-331200000D03*
X593300000Y-363900000D03*
X629300000Y-358000000D03*
X618900000Y-355800000D03*
X621700000Y-359900000D03*
X600050000Y-316200000D03*
X612200000Y-311950000D03*
X619000000Y-370500000D03*
X605900000Y-325100000D03*
X617400000Y-355400000D03*
X601500000Y-337800000D03*
%TO.N,+3V3*%
X588800000Y-354600000D03*
X589700000Y-365100000D03*
X592500000Y-370900000D03*
X620300000Y-365400000D03*
%TO.N,/BOOT0*%
X603100000Y-345700000D03*
X595300000Y-345600000D03*
X593600000Y-343900000D03*
X606700000Y-349500000D03*
X606050000Y-345700000D03*
%TO.N,/VCC-MCU*%
X600700000Y-351400000D03*
X614700000Y-366000000D03*
X614300000Y-370400000D03*
X602500000Y-355100000D03*
X614800000Y-354000000D03*
X604400000Y-363400000D03*
%TO.N,/NRST*%
X592500000Y-355900000D03*
X598000000Y-363900000D03*
%TO.N,/L62_TXSW*%
X604850000Y-360500000D03*
%TO.N,/L62_BUSY*%
X607400000Y-347500000D03*
X607601000Y-356600000D03*
%TO.N,/L62_RXSW*%
X607350000Y-360000000D03*
%TO.N,/L62_DIO2*%
X605800000Y-361100000D03*
%TO.N,/L62_DIO3*%
X605740000Y-356460000D03*
%TO.N,/L62_RST*%
X608750000Y-358250000D03*
%TO.N,/SPI3_MISO*%
X609800000Y-340200000D03*
%TO.N,/SPI3_MOSI*%
X609300000Y-342000000D03*
%TO.N,/L80_BUSY*%
X606700000Y-356450000D03*
X606000000Y-347600000D03*
%TO.N,/L80_DIO2*%
X595000000Y-355250000D03*
X604550000Y-362300000D03*
%TO.N,/L80_DIO3*%
X607050000Y-363800000D03*
%TO.N,/L80_RST*%
X596800000Y-346700000D03*
X595500000Y-341400000D03*
X596800000Y-349550000D03*
%TO.N,/VCP_TX*%
X609350000Y-364650000D03*
%TO.N,/USB_D+*%
X615991968Y-357700000D03*
X615991968Y-359000000D03*
%TO.N,/SWO*%
X597150000Y-356325000D03*
X604525000Y-357275000D03*
%TO.N,/USB_D-*%
X616691968Y-358300000D03*
X616691968Y-357200000D03*
%TO.N,/CONN_D-*%
X622691968Y-359000000D03*
X622691968Y-357750000D03*
%TO.N,/CONN_D+*%
X621791968Y-357250000D03*
X621791968Y-358450000D03*
%TD*%
D20*
%TO.N,/BOOT0*%
X592400000Y-343900000D02*
X583500000Y-352800000D01*
X583500000Y-352800000D02*
X583500000Y-355175000D01*
X606700000Y-346350000D02*
X606700000Y-349500000D01*
X593600000Y-343900000D02*
X592400000Y-343900000D01*
X606050000Y-345700000D02*
X606700000Y-346350000D01*
X595400000Y-345700000D02*
X603100000Y-345700000D01*
X595300000Y-345600000D02*
X595400000Y-345700000D01*
%TO.N,/NRST*%
X592500000Y-361200000D02*
X592500000Y-355900000D01*
X598000000Y-363900000D02*
X595200000Y-363900000D01*
X595200000Y-363900000D02*
X592500000Y-361200000D01*
%TO.N,/L62_TXSW*%
X604850000Y-360125000D02*
X604850000Y-360500000D01*
X605450000Y-359525000D02*
X604850000Y-360125000D01*
X613940000Y-315200000D02*
X612789000Y-314049000D01*
X605450000Y-357200000D02*
X605450000Y-359525000D01*
X612789000Y-314049000D02*
X605843240Y-314049000D01*
X604100000Y-315792240D02*
X604100000Y-355850000D01*
X605843240Y-314049000D02*
X604100000Y-315792240D01*
X604100000Y-355850000D02*
X605450000Y-357200000D01*
%TO.N,/L62_BUSY*%
X607601000Y-356501000D02*
X607400000Y-356300000D01*
X607601000Y-356600000D02*
X607601000Y-356501000D01*
X607400000Y-356300000D02*
X607400000Y-347500000D01*
%TO.N,/L62_RXSW*%
X629900000Y-328620000D02*
X616480000Y-315200000D01*
X607350000Y-360000000D02*
X608700000Y-360000000D01*
X629900000Y-348800000D02*
X629900000Y-328620000D01*
X628500000Y-350200000D02*
X629900000Y-348800000D01*
X613600000Y-355100000D02*
X613600000Y-353900000D01*
X613600000Y-353900000D02*
X617300000Y-350200000D01*
X617300000Y-350200000D02*
X628500000Y-350200000D01*
X608700000Y-360000000D02*
X613600000Y-355100000D01*
%TO.N,/L62_DIO2*%
X607600000Y-316480000D02*
X606320000Y-315200000D01*
X607600000Y-333280000D02*
X607600000Y-316480000D01*
X605800000Y-361100000D02*
X606275000Y-360625000D01*
X608201000Y-357249000D02*
X608201000Y-333881000D01*
X606275000Y-360625000D02*
X606275000Y-359175000D01*
X608201000Y-333881000D02*
X607600000Y-333280000D01*
X606275000Y-359175000D02*
X608201000Y-357249000D01*
%TO.N,/L62_DIO3*%
X605100000Y-355450000D02*
X605100000Y-333220000D01*
X605738878Y-356458878D02*
X605738878Y-356088878D01*
X605740000Y-356460000D02*
X605738878Y-356458878D01*
X605738878Y-356088878D02*
X605100000Y-355450000D01*
X605100000Y-333220000D02*
X606320000Y-332000000D01*
%TO.N,/L62_RST*%
X608699000Y-337241000D02*
X613940000Y-332000000D01*
X608699000Y-358201000D02*
X608699000Y-337241000D01*
X608748000Y-358250000D02*
X608699000Y-358201000D01*
X608750000Y-358250000D02*
X608748000Y-358250000D01*
%TO.N,/SPI3_MISO*%
X609800000Y-340200000D02*
X609800000Y-339900000D01*
X611620000Y-339400000D02*
X619020000Y-332000000D01*
X610300000Y-339400000D02*
X611620000Y-339400000D01*
X609800000Y-339900000D02*
X610300000Y-339400000D01*
%TO.N,/SPI3_MOSI*%
X615500000Y-341300000D02*
X621560000Y-335240000D01*
X621560000Y-335240000D02*
X621560000Y-332000000D01*
X609300000Y-341800000D02*
X609800000Y-341300000D01*
X609300000Y-342000000D02*
X609300000Y-341800000D01*
X609800000Y-341300000D02*
X615500000Y-341300000D01*
%TO.N,/L80_BUSY*%
X606000000Y-355500000D02*
X606000000Y-347600000D01*
X606700000Y-356450000D02*
X606700000Y-356200000D01*
X606700000Y-356200000D02*
X606000000Y-355500000D01*
%TO.N,/L80_DIO2*%
X598600000Y-362300000D02*
X604550000Y-362300000D01*
X595000000Y-355250000D02*
X595000000Y-358700000D01*
X595000000Y-358700000D02*
X598600000Y-362300000D01*
%TO.N,/L80_DIO3*%
X594199000Y-358999000D02*
X594199000Y-344801000D01*
X606550000Y-364200000D02*
X599400000Y-364200000D01*
X599400000Y-364200000D02*
X594199000Y-358999000D01*
X606950000Y-363800000D02*
X606550000Y-364200000D01*
X594199000Y-344801000D02*
X597700000Y-341300000D01*
X597700000Y-341300000D02*
X597700000Y-339100000D01*
X607050000Y-363800000D02*
X606950000Y-363800000D01*
%TO.N,/L80_RST*%
X595500000Y-333680000D02*
X595500000Y-341400000D01*
X596800000Y-349550000D02*
X596800000Y-346700000D01*
X597700000Y-331480000D02*
X595500000Y-333680000D01*
%TO.N,/VCP_TX*%
X603900000Y-374200000D02*
X583800000Y-374200000D01*
X581100000Y-361100000D02*
X581870000Y-360330000D01*
X608600000Y-365200000D02*
X608600000Y-369500000D01*
X583800000Y-374200000D02*
X581100000Y-371500000D01*
X581870000Y-360330000D02*
X582180000Y-360330000D01*
X609150000Y-364650000D02*
X608600000Y-365200000D01*
X609350000Y-364650000D02*
X609150000Y-364650000D01*
X608600000Y-369500000D02*
X603900000Y-374200000D01*
X581100000Y-371500000D02*
X581100000Y-361100000D01*
%TO.N,/USB_D+*%
X615991968Y-359000000D02*
X615991968Y-357700000D01*
%TO.N,/SWO*%
X603575000Y-356325000D02*
X604525000Y-357275000D01*
X597150000Y-356325000D02*
X603575000Y-356325000D01*
%TO.N,/USB_D-*%
X616691968Y-357200000D02*
X616691968Y-358300000D01*
%TO.N,/CONN_D-*%
X622691968Y-359000000D02*
X622691968Y-357750000D01*
%TO.N,/CONN_D+*%
X621791968Y-357250000D02*
X621791968Y-358450000D01*
%TD*%
%TA.AperFunction,Conductor*%
%TO.N,GND*%
G36*
X595980484Y-346320185D02*
G01*
X596026239Y-346372989D01*
X596036183Y-346442147D01*
X596031159Y-346460411D01*
X596032031Y-346460676D01*
X596030261Y-346466510D01*
X595999500Y-346621153D01*
X595999500Y-346778846D01*
X596030261Y-346933489D01*
X596030264Y-346933501D01*
X596090602Y-347079172D01*
X596090609Y-347079185D01*
X596178602Y-347210874D01*
X596199480Y-347277551D01*
X596199500Y-347279765D01*
X596199500Y-348970234D01*
X596179815Y-349037273D01*
X596178602Y-349039125D01*
X596090609Y-349170814D01*
X596090602Y-349170827D01*
X596030264Y-349316498D01*
X596030261Y-349316510D01*
X595999500Y-349471153D01*
X595999500Y-349628846D01*
X596030261Y-349783489D01*
X596030264Y-349783501D01*
X596090602Y-349929172D01*
X596090609Y-349929185D01*
X596178210Y-350060288D01*
X596178213Y-350060292D01*
X596289707Y-350171786D01*
X596289711Y-350171789D01*
X596420814Y-350259390D01*
X596420827Y-350259397D01*
X596520060Y-350300500D01*
X596566503Y-350319737D01*
X596721153Y-350350499D01*
X596721156Y-350350500D01*
X596721158Y-350350500D01*
X596878844Y-350350500D01*
X596878845Y-350350499D01*
X597033497Y-350319737D01*
X597179179Y-350259394D01*
X597310289Y-350171789D01*
X597421789Y-350060289D01*
X597509394Y-349929179D01*
X597569737Y-349783497D01*
X597600500Y-349628842D01*
X597600500Y-349471158D01*
X597600500Y-349471155D01*
X597600499Y-349471153D01*
X597569738Y-349316510D01*
X597569737Y-349316503D01*
X597569735Y-349316498D01*
X597509397Y-349170827D01*
X597509390Y-349170814D01*
X597421398Y-349039125D01*
X597400520Y-348972447D01*
X597400500Y-348970234D01*
X597400500Y-347279765D01*
X597420185Y-347212726D01*
X597421398Y-347210874D01*
X597509390Y-347079185D01*
X597509390Y-347079184D01*
X597509394Y-347079179D01*
X597569737Y-346933497D01*
X597600500Y-346778842D01*
X597600500Y-346621158D01*
X597600500Y-346621155D01*
X597600499Y-346621153D01*
X597593617Y-346586555D01*
X597569737Y-346466503D01*
X597569732Y-346466492D01*
X597567969Y-346460676D01*
X597570720Y-346459841D01*
X597564497Y-346402641D01*
X597595691Y-346340122D01*
X597655734Y-346304392D01*
X597686555Y-346300500D01*
X602520234Y-346300500D01*
X602587273Y-346320185D01*
X602589125Y-346321398D01*
X602720814Y-346409390D01*
X602720827Y-346409397D01*
X602866498Y-346469735D01*
X602866503Y-346469737D01*
X602996982Y-346495691D01*
X603021153Y-346500499D01*
X603021156Y-346500500D01*
X603021158Y-346500500D01*
X603178844Y-346500500D01*
X603178845Y-346500499D01*
X603333497Y-346469737D01*
X603333509Y-346469731D01*
X603339324Y-346467969D01*
X603340158Y-346470720D01*
X603397359Y-346464497D01*
X603459878Y-346495691D01*
X603495608Y-346555734D01*
X603499500Y-346586555D01*
X603499500Y-354797809D01*
X603479815Y-354864848D01*
X603427011Y-354910603D01*
X603357853Y-354920547D01*
X603294297Y-354891522D01*
X603260939Y-354845261D01*
X603209397Y-354720827D01*
X603209390Y-354720814D01*
X603121789Y-354589711D01*
X603121786Y-354589707D01*
X603010292Y-354478213D01*
X603010288Y-354478210D01*
X602879185Y-354390609D01*
X602879172Y-354390602D01*
X602733501Y-354330264D01*
X602733489Y-354330261D01*
X602578845Y-354299500D01*
X602578842Y-354299500D01*
X602421158Y-354299500D01*
X602421155Y-354299500D01*
X602266510Y-354330261D01*
X602266498Y-354330264D01*
X602120827Y-354390602D01*
X602120814Y-354390609D01*
X601989711Y-354478210D01*
X601989707Y-354478213D01*
X601878213Y-354589707D01*
X601878210Y-354589711D01*
X601790609Y-354720814D01*
X601790602Y-354720827D01*
X601730264Y-354866498D01*
X601730261Y-354866510D01*
X601699500Y-355021153D01*
X601699500Y-355178846D01*
X601730261Y-355333489D01*
X601730264Y-355333501D01*
X601790602Y-355479172D01*
X601790609Y-355479185D01*
X601825638Y-355531609D01*
X601846516Y-355598287D01*
X601828031Y-355665667D01*
X601776053Y-355712357D01*
X601722536Y-355724500D01*
X597729766Y-355724500D01*
X597662727Y-355704815D01*
X597660875Y-355703602D01*
X597529185Y-355615609D01*
X597529172Y-355615602D01*
X597383501Y-355555264D01*
X597383489Y-355555261D01*
X597228845Y-355524500D01*
X597228842Y-355524500D01*
X597071158Y-355524500D01*
X597071155Y-355524500D01*
X596916510Y-355555261D01*
X596916498Y-355555264D01*
X596770827Y-355615602D01*
X596770814Y-355615609D01*
X596639711Y-355703210D01*
X596639707Y-355703213D01*
X596528213Y-355814707D01*
X596528210Y-355814711D01*
X596440609Y-355945814D01*
X596440602Y-355945827D01*
X596380264Y-356091498D01*
X596380261Y-356091510D01*
X596349500Y-356246153D01*
X596349500Y-356403846D01*
X596380261Y-356558489D01*
X596380264Y-356558501D01*
X596440602Y-356704172D01*
X596440609Y-356704185D01*
X596528210Y-356835288D01*
X596528213Y-356835292D01*
X596639707Y-356946786D01*
X596639711Y-356946789D01*
X596770814Y-357034390D01*
X596770827Y-357034397D01*
X596876603Y-357078210D01*
X596916503Y-357094737D01*
X597071153Y-357125499D01*
X597071156Y-357125500D01*
X597071158Y-357125500D01*
X597228844Y-357125500D01*
X597228845Y-357125499D01*
X597383497Y-357094737D01*
X597514182Y-357040606D01*
X597529172Y-357034397D01*
X597529172Y-357034396D01*
X597529179Y-357034394D01*
X597594708Y-356990609D01*
X597660875Y-356946398D01*
X597727553Y-356925520D01*
X597729766Y-356925500D01*
X603274903Y-356925500D01*
X603341942Y-356945185D01*
X603362584Y-356961819D01*
X603690425Y-357289660D01*
X603723910Y-357350983D01*
X603724361Y-357353149D01*
X603755261Y-357508491D01*
X603755264Y-357508501D01*
X603815602Y-357654172D01*
X603815609Y-357654185D01*
X603903210Y-357785288D01*
X603903213Y-357785292D01*
X604014707Y-357896786D01*
X604014711Y-357896789D01*
X604145814Y-357984390D01*
X604145827Y-357984397D01*
X604291498Y-358044735D01*
X604291503Y-358044737D01*
X604446153Y-358075499D01*
X604446156Y-358075500D01*
X604446158Y-358075500D01*
X604603844Y-358075500D01*
X604701308Y-358056113D01*
X604770900Y-358062340D01*
X604826077Y-358105203D01*
X604849322Y-358171093D01*
X604849500Y-358177730D01*
X604849500Y-359224902D01*
X604829815Y-359291941D01*
X604813181Y-359312583D01*
X604369481Y-359756282D01*
X604369479Y-359756285D01*
X604340095Y-359807179D01*
X604340085Y-359807198D01*
X604338320Y-359810256D01*
X604290423Y-359893215D01*
X604283178Y-359920247D01*
X604277457Y-359931615D01*
X604265322Y-359944589D01*
X604254381Y-359963539D01*
X604228211Y-359989711D01*
X604228208Y-359989714D01*
X604140609Y-360120814D01*
X604140602Y-360120827D01*
X604080264Y-360266498D01*
X604080261Y-360266510D01*
X604049500Y-360421153D01*
X604049500Y-360578846D01*
X604080261Y-360733489D01*
X604080264Y-360733501D01*
X604140602Y-360879172D01*
X604140609Y-360879185D01*
X604228210Y-361010288D01*
X604228213Y-361010292D01*
X604339707Y-361121786D01*
X604339711Y-361121789D01*
X604470814Y-361209390D01*
X604470827Y-361209397D01*
X604595262Y-361260939D01*
X604649666Y-361304779D01*
X604671731Y-361371074D01*
X604654452Y-361438773D01*
X604603315Y-361486384D01*
X604547810Y-361499500D01*
X604471155Y-361499500D01*
X604316510Y-361530261D01*
X604316498Y-361530264D01*
X604170827Y-361590602D01*
X604170814Y-361590609D01*
X604039125Y-361678602D01*
X603972447Y-361699480D01*
X603970234Y-361699500D01*
X598900097Y-361699500D01*
X598833058Y-361679815D01*
X598812416Y-361663181D01*
X595636819Y-358487584D01*
X595603334Y-358426261D01*
X595600500Y-358399903D01*
X595600500Y-355829765D01*
X595620185Y-355762726D01*
X595621398Y-355760874D01*
X595631150Y-355746280D01*
X595709394Y-355629179D01*
X595769737Y-355483497D01*
X595800500Y-355328842D01*
X595800500Y-355171158D01*
X595800500Y-355171155D01*
X595800499Y-355171153D01*
X595769738Y-355016510D01*
X595769737Y-355016503D01*
X595757874Y-354987863D01*
X595709397Y-354870827D01*
X595709390Y-354870814D01*
X595621789Y-354739711D01*
X595621786Y-354739707D01*
X595510292Y-354628213D01*
X595510288Y-354628210D01*
X595379185Y-354540609D01*
X595379172Y-354540602D01*
X595233501Y-354480264D01*
X595233489Y-354480261D01*
X595078845Y-354449500D01*
X595078842Y-354449500D01*
X594923500Y-354449500D01*
X594856461Y-354429815D01*
X594810706Y-354377011D01*
X594799500Y-354325500D01*
X594799500Y-351321153D01*
X599899500Y-351321153D01*
X599899500Y-351478846D01*
X599930261Y-351633489D01*
X599930264Y-351633501D01*
X599990602Y-351779172D01*
X599990609Y-351779185D01*
X600078210Y-351910288D01*
X600078213Y-351910292D01*
X600189707Y-352021786D01*
X600189711Y-352021789D01*
X600320814Y-352109390D01*
X600320827Y-352109397D01*
X600466498Y-352169735D01*
X600466503Y-352169737D01*
X600581508Y-352192613D01*
X600621153Y-352200499D01*
X600621156Y-352200500D01*
X600621158Y-352200500D01*
X600778844Y-352200500D01*
X600778845Y-352200499D01*
X600933497Y-352169737D01*
X601079179Y-352109394D01*
X601210289Y-352021789D01*
X601321789Y-351910289D01*
X601409394Y-351779179D01*
X601469737Y-351633497D01*
X601500500Y-351478842D01*
X601500500Y-351321158D01*
X601500500Y-351321155D01*
X601500499Y-351321153D01*
X601469738Y-351166510D01*
X601469737Y-351166503D01*
X601463264Y-351150876D01*
X601409397Y-351020827D01*
X601409390Y-351020814D01*
X601321789Y-350889711D01*
X601321786Y-350889707D01*
X601210292Y-350778213D01*
X601210288Y-350778210D01*
X601079185Y-350690609D01*
X601079172Y-350690602D01*
X600933501Y-350630264D01*
X600933489Y-350630261D01*
X600778845Y-350599500D01*
X600778842Y-350599500D01*
X600621158Y-350599500D01*
X600621155Y-350599500D01*
X600466510Y-350630261D01*
X600466498Y-350630264D01*
X600320827Y-350690602D01*
X600320814Y-350690609D01*
X600189711Y-350778210D01*
X600189707Y-350778213D01*
X600078213Y-350889707D01*
X600078210Y-350889711D01*
X599990609Y-351020814D01*
X599990602Y-351020827D01*
X599930264Y-351166498D01*
X599930261Y-351166510D01*
X599899500Y-351321153D01*
X594799500Y-351321153D01*
X594799500Y-346444720D01*
X594819185Y-346377681D01*
X594871989Y-346331926D01*
X594941147Y-346321982D01*
X594970952Y-346330159D01*
X595020968Y-346350876D01*
X595066503Y-346369737D01*
X595197605Y-346395815D01*
X595221153Y-346400499D01*
X595221156Y-346400500D01*
X595221158Y-346400500D01*
X595378844Y-346400500D01*
X595378845Y-346400499D01*
X595533497Y-346369737D01*
X595624782Y-346331926D01*
X595677864Y-346309939D01*
X595686040Y-346308312D01*
X595690381Y-346305523D01*
X595725316Y-346300500D01*
X595913445Y-346300500D01*
X595980484Y-346320185D01*
G37*
%TD.AperFunction*%
%TA.AperFunction,Conductor*%
G36*
X615281444Y-315853999D02*
G01*
X615320486Y-315899056D01*
X615324951Y-315907820D01*
X615449890Y-316079786D01*
X615600213Y-316230109D01*
X615772179Y-316355048D01*
X615772181Y-316355049D01*
X615772184Y-316355051D01*
X615961588Y-316451557D01*
X616163757Y-316517246D01*
X616373713Y-316550500D01*
X616373714Y-316550500D01*
X616586286Y-316550500D01*
X616586287Y-316550500D01*
X616796243Y-316517246D01*
X616838523Y-316503507D01*
X616908362Y-316501511D01*
X616964522Y-316533757D01*
X629263181Y-328832416D01*
X629296666Y-328893739D01*
X629299500Y-328920097D01*
X629299500Y-348499903D01*
X629279815Y-348566942D01*
X629263181Y-348587584D01*
X628287584Y-349563181D01*
X628226261Y-349596666D01*
X628199903Y-349599500D01*
X617379057Y-349599500D01*
X617220943Y-349599500D01*
X617068215Y-349640423D01*
X617068214Y-349640423D01*
X617068212Y-349640424D01*
X617068209Y-349640425D01*
X617018096Y-349669359D01*
X617018095Y-349669360D01*
X617008990Y-349674617D01*
X616931285Y-349719479D01*
X616931282Y-349719481D01*
X613119481Y-353531282D01*
X613119480Y-353531284D01*
X613078851Y-353601656D01*
X613040423Y-353668215D01*
X612999499Y-353820943D01*
X612999499Y-353820945D01*
X612999499Y-353989046D01*
X612999500Y-353989059D01*
X612999500Y-354799903D01*
X612979815Y-354866942D01*
X612963181Y-354887584D01*
X609735960Y-358114804D01*
X609674637Y-358148289D01*
X609604945Y-358143305D01*
X609549012Y-358101433D01*
X609526662Y-358051315D01*
X609519738Y-358016508D01*
X609519737Y-358016507D01*
X609519737Y-358016503D01*
X609515818Y-358007042D01*
X609459397Y-357870827D01*
X609459390Y-357870814D01*
X609371789Y-357739711D01*
X609371786Y-357739707D01*
X609335819Y-357703740D01*
X609302334Y-357642417D01*
X609299500Y-357616059D01*
X609299500Y-348585258D01*
X613149500Y-348585258D01*
X613149500Y-348814741D01*
X613169972Y-348970234D01*
X613179452Y-349042238D01*
X613213907Y-349170827D01*
X613238842Y-349263887D01*
X613326650Y-349475876D01*
X613326657Y-349475890D01*
X613441392Y-349674617D01*
X613581081Y-349856661D01*
X613581089Y-349856670D01*
X613743330Y-350018911D01*
X613743338Y-350018918D01*
X613743339Y-350018919D01*
X613761390Y-350032770D01*
X613925382Y-350158607D01*
X613925385Y-350158608D01*
X613925388Y-350158611D01*
X614124112Y-350273344D01*
X614124117Y-350273346D01*
X614124123Y-350273349D01*
X614189672Y-350300500D01*
X614336113Y-350361158D01*
X614557762Y-350420548D01*
X614785266Y-350450500D01*
X614785273Y-350450500D01*
X615014727Y-350450500D01*
X615014734Y-350450500D01*
X615242238Y-350420548D01*
X615463887Y-350361158D01*
X615675888Y-350273344D01*
X615874612Y-350158611D01*
X616056661Y-350018919D01*
X616056665Y-350018914D01*
X616056670Y-350018911D01*
X616218911Y-349856670D01*
X616218914Y-349856665D01*
X616218919Y-349856661D01*
X616358611Y-349674612D01*
X616473344Y-349475888D01*
X616561158Y-349263887D01*
X616620548Y-349042238D01*
X616650500Y-348814734D01*
X616650500Y-348585266D01*
X616620548Y-348357762D01*
X616561158Y-348136113D01*
X616484712Y-347951557D01*
X616473349Y-347924123D01*
X616473346Y-347924117D01*
X616473344Y-347924112D01*
X616358611Y-347725388D01*
X616358608Y-347725385D01*
X616358607Y-347725382D01*
X616247484Y-347580566D01*
X616218919Y-347543339D01*
X616218918Y-347543338D01*
X616218911Y-347543330D01*
X616056670Y-347381089D01*
X616056661Y-347381081D01*
X615874617Y-347241392D01*
X615865551Y-347236158D01*
X615790620Y-347192896D01*
X615675890Y-347126657D01*
X615675876Y-347126650D01*
X615463887Y-347038842D01*
X615379545Y-347016243D01*
X615242238Y-346979452D01*
X615204215Y-346974446D01*
X615014741Y-346949500D01*
X615014734Y-346949500D01*
X614785266Y-346949500D01*
X614785258Y-346949500D01*
X614568715Y-346978009D01*
X614557762Y-346979452D01*
X614464076Y-347004554D01*
X614336112Y-347038842D01*
X614124123Y-347126650D01*
X614124109Y-347126657D01*
X613925382Y-347241392D01*
X613743338Y-347381081D01*
X613581081Y-347543338D01*
X613441392Y-347725382D01*
X613326657Y-347924109D01*
X613326650Y-347924123D01*
X613238842Y-348136112D01*
X613179453Y-348357759D01*
X613179451Y-348357770D01*
X613149500Y-348585258D01*
X609299500Y-348585258D01*
X609299500Y-345802135D01*
X619749500Y-345802135D01*
X619749500Y-347597870D01*
X619749501Y-347597876D01*
X619755908Y-347657483D01*
X619806202Y-347792328D01*
X619806206Y-347792335D01*
X619892452Y-347907544D01*
X619892455Y-347907547D01*
X620007664Y-347993793D01*
X620007671Y-347993797D01*
X620142517Y-348044091D01*
X620142516Y-348044091D01*
X620149444Y-348044835D01*
X620202127Y-348050500D01*
X621997872Y-348050499D01*
X622057483Y-348044091D01*
X622192331Y-347993796D01*
X622307546Y-347907546D01*
X622393796Y-347792331D01*
X622442810Y-347660916D01*
X622484681Y-347604984D01*
X622550145Y-347580566D01*
X622618418Y-347595417D01*
X622646673Y-347616569D01*
X622760213Y-347730109D01*
X622932179Y-347855048D01*
X622932181Y-347855049D01*
X622932184Y-347855051D01*
X623121588Y-347951557D01*
X623323757Y-348017246D01*
X623533713Y-348050500D01*
X623533714Y-348050500D01*
X623746286Y-348050500D01*
X623746287Y-348050500D01*
X623956243Y-348017246D01*
X624158412Y-347951557D01*
X624347816Y-347855051D01*
X624434138Y-347792335D01*
X624519786Y-347730109D01*
X624519788Y-347730106D01*
X624519792Y-347730104D01*
X624670104Y-347579792D01*
X624670106Y-347579788D01*
X624670109Y-347579786D01*
X624795048Y-347407820D01*
X624795047Y-347407820D01*
X624795051Y-347407816D01*
X624891557Y-347218412D01*
X624957246Y-347016243D01*
X624990500Y-346806287D01*
X624990500Y-346593713D01*
X624957246Y-346383757D01*
X624891557Y-346181588D01*
X624795051Y-345992184D01*
X624795049Y-345992181D01*
X624795048Y-345992179D01*
X624670109Y-345820213D01*
X624519786Y-345669890D01*
X624347820Y-345544951D01*
X624158414Y-345448444D01*
X624158413Y-345448443D01*
X624158412Y-345448443D01*
X623956243Y-345382754D01*
X623956241Y-345382753D01*
X623956240Y-345382753D01*
X623794957Y-345357208D01*
X623746287Y-345349500D01*
X623533713Y-345349500D01*
X623485042Y-345357208D01*
X623323760Y-345382753D01*
X623121585Y-345448444D01*
X622932179Y-345544951D01*
X622760215Y-345669889D01*
X622646673Y-345783431D01*
X622585350Y-345816915D01*
X622515658Y-345811931D01*
X622459725Y-345770059D01*
X622442810Y-345739082D01*
X622393797Y-345607671D01*
X622393793Y-345607664D01*
X622307547Y-345492455D01*
X622307544Y-345492452D01*
X622192335Y-345406206D01*
X622192328Y-345406202D01*
X622057482Y-345355908D01*
X622057483Y-345355908D01*
X621997883Y-345349501D01*
X621997881Y-345349500D01*
X621997873Y-345349500D01*
X621997864Y-345349500D01*
X620202129Y-345349500D01*
X620202123Y-345349501D01*
X620142516Y-345355908D01*
X620007671Y-345406202D01*
X620007664Y-345406206D01*
X619892455Y-345492452D01*
X619892452Y-345492455D01*
X619806206Y-345607664D01*
X619806202Y-345607671D01*
X619755908Y-345742517D01*
X619749501Y-345802116D01*
X619749500Y-345802135D01*
X609299500Y-345802135D01*
X609299500Y-343785258D01*
X613149500Y-343785258D01*
X613149500Y-344014741D01*
X613174446Y-344204215D01*
X613179452Y-344242238D01*
X613226635Y-344418330D01*
X613238842Y-344463887D01*
X613326650Y-344675876D01*
X613326657Y-344675890D01*
X613441392Y-344874617D01*
X613581081Y-345056661D01*
X613581089Y-345056670D01*
X613743330Y-345218911D01*
X613743338Y-345218918D01*
X613743339Y-345218919D01*
X613761390Y-345232770D01*
X613925382Y-345358607D01*
X613925385Y-345358608D01*
X613925388Y-345358611D01*
X614124112Y-345473344D01*
X614124117Y-345473346D01*
X614124123Y-345473349D01*
X614215480Y-345511190D01*
X614336113Y-345561158D01*
X614557762Y-345620548D01*
X614785266Y-345650500D01*
X614785273Y-345650500D01*
X615014727Y-345650500D01*
X615014734Y-345650500D01*
X615242238Y-345620548D01*
X615463887Y-345561158D01*
X615675888Y-345473344D01*
X615874612Y-345358611D01*
X616056661Y-345218919D01*
X616056665Y-345218914D01*
X616056670Y-345218911D01*
X616218911Y-345056670D01*
X616218914Y-345056665D01*
X616218919Y-345056661D01*
X616358611Y-344874612D01*
X616473344Y-344675888D01*
X616561158Y-344463887D01*
X616620548Y-344242238D01*
X616650500Y-344014734D01*
X616650500Y-343785266D01*
X616620548Y-343557762D01*
X616561158Y-343336113D01*
X616500885Y-343190602D01*
X616473349Y-343124123D01*
X616473346Y-343124117D01*
X616473344Y-343124112D01*
X616358611Y-342925388D01*
X616358608Y-342925385D01*
X616358607Y-342925382D01*
X616218918Y-342743338D01*
X616218911Y-342743330D01*
X616056670Y-342581089D01*
X616056661Y-342581081D01*
X615874617Y-342441392D01*
X615675890Y-342326657D01*
X615675876Y-342326650D01*
X615463887Y-342238842D01*
X615443909Y-342233489D01*
X615242238Y-342179452D01*
X615204215Y-342174446D01*
X615014741Y-342149500D01*
X615014734Y-342149500D01*
X614785266Y-342149500D01*
X614785258Y-342149500D01*
X614568715Y-342178009D01*
X614557762Y-342179452D01*
X614479213Y-342200499D01*
X614336112Y-342238842D01*
X614124123Y-342326650D01*
X614124109Y-342326657D01*
X613925382Y-342441392D01*
X613743338Y-342581081D01*
X613581081Y-342743338D01*
X613441392Y-342925382D01*
X613326657Y-343124109D01*
X613326650Y-343124123D01*
X613238842Y-343336112D01*
X613179453Y-343557759D01*
X613179451Y-343557770D01*
X613149500Y-343785258D01*
X609299500Y-343785258D01*
X609299500Y-342918046D01*
X609319185Y-342851007D01*
X609371989Y-342805252D01*
X609399309Y-342796429D01*
X609428848Y-342790552D01*
X609533497Y-342769737D01*
X609679179Y-342709394D01*
X609810289Y-342621789D01*
X609921789Y-342510289D01*
X610009394Y-342379179D01*
X610069737Y-342233497D01*
X610100500Y-342078842D01*
X610100500Y-342024500D01*
X610120185Y-341957461D01*
X610172989Y-341911706D01*
X610224500Y-341900500D01*
X615413331Y-341900500D01*
X615413347Y-341900501D01*
X615420943Y-341900501D01*
X615579054Y-341900501D01*
X615579057Y-341900501D01*
X615731785Y-341859577D01*
X615781904Y-341830639D01*
X615868716Y-341780520D01*
X615980520Y-341668716D01*
X615980520Y-341668714D01*
X615990728Y-341658507D01*
X615990730Y-341658504D01*
X621928713Y-335720521D01*
X621928716Y-335720520D01*
X622040520Y-335608716D01*
X622090639Y-335521904D01*
X622119577Y-335471785D01*
X622160500Y-335319057D01*
X622160500Y-335160943D01*
X622160500Y-333285718D01*
X622180185Y-333218679D01*
X622228207Y-333175233D01*
X622267815Y-333155052D01*
X622267815Y-333155051D01*
X622267816Y-333155051D01*
X622359193Y-333088661D01*
X622439786Y-333030109D01*
X622439788Y-333030106D01*
X622439792Y-333030104D01*
X622590104Y-332879792D01*
X622590106Y-332879788D01*
X622590109Y-332879786D01*
X622715048Y-332707820D01*
X622715047Y-332707820D01*
X622715051Y-332707816D01*
X622719514Y-332699054D01*
X622767488Y-332648259D01*
X622835308Y-332631463D01*
X622901444Y-332653999D01*
X622940486Y-332699056D01*
X622944951Y-332707820D01*
X623069890Y-332879786D01*
X623220213Y-333030109D01*
X623392179Y-333155048D01*
X623392181Y-333155049D01*
X623392184Y-333155051D01*
X623581588Y-333251557D01*
X623783757Y-333317246D01*
X623993713Y-333350500D01*
X623993714Y-333350500D01*
X624206286Y-333350500D01*
X624206287Y-333350500D01*
X624416243Y-333317246D01*
X624618412Y-333251557D01*
X624807816Y-333155051D01*
X624829789Y-333139086D01*
X624979786Y-333030109D01*
X624979788Y-333030106D01*
X624979792Y-333030104D01*
X625130104Y-332879792D01*
X625130106Y-332879788D01*
X625130109Y-332879786D01*
X625255048Y-332707820D01*
X625255047Y-332707820D01*
X625255051Y-332707816D01*
X625351557Y-332518412D01*
X625417246Y-332316243D01*
X625450500Y-332106287D01*
X625450500Y-331893713D01*
X625417246Y-331683757D01*
X625351557Y-331481588D01*
X625255051Y-331292184D01*
X625255049Y-331292181D01*
X625255048Y-331292179D01*
X625130109Y-331120213D01*
X624979786Y-330969890D01*
X624807820Y-330844951D01*
X624618414Y-330748444D01*
X624618413Y-330748443D01*
X624618412Y-330748443D01*
X624416243Y-330682754D01*
X624416241Y-330682753D01*
X624416240Y-330682753D01*
X624254957Y-330657208D01*
X624206287Y-330649500D01*
X623993713Y-330649500D01*
X623945042Y-330657208D01*
X623783760Y-330682753D01*
X623581585Y-330748444D01*
X623392179Y-330844951D01*
X623220213Y-330969890D01*
X623069890Y-331120213D01*
X622944949Y-331292182D01*
X622940484Y-331300946D01*
X622892509Y-331351742D01*
X622824688Y-331368536D01*
X622758553Y-331345998D01*
X622719516Y-331300946D01*
X622715050Y-331292182D01*
X622590109Y-331120213D01*
X622439786Y-330969890D01*
X622267820Y-330844951D01*
X622078414Y-330748444D01*
X622078413Y-330748443D01*
X622078412Y-330748443D01*
X621876243Y-330682754D01*
X621876241Y-330682753D01*
X621876240Y-330682753D01*
X621714957Y-330657208D01*
X621666287Y-330649500D01*
X621453713Y-330649500D01*
X621405042Y-330657208D01*
X621243760Y-330682753D01*
X621041585Y-330748444D01*
X620852179Y-330844951D01*
X620680213Y-330969890D01*
X620529890Y-331120213D01*
X620404949Y-331292182D01*
X620400484Y-331300946D01*
X620352509Y-331351742D01*
X620284688Y-331368536D01*
X620218553Y-331345998D01*
X620179516Y-331300946D01*
X620175050Y-331292182D01*
X620050109Y-331120213D01*
X619899786Y-330969890D01*
X619727820Y-330844951D01*
X619538414Y-330748444D01*
X619538413Y-330748443D01*
X619538412Y-330748443D01*
X619336243Y-330682754D01*
X619336241Y-330682753D01*
X619336240Y-330682753D01*
X619174957Y-330657208D01*
X619126287Y-330649500D01*
X618913713Y-330649500D01*
X618865042Y-330657208D01*
X618703760Y-330682753D01*
X618501585Y-330748444D01*
X618312179Y-330844951D01*
X618140213Y-330969890D01*
X617989890Y-331120213D01*
X617864949Y-331292182D01*
X617860484Y-331300946D01*
X617812509Y-331351742D01*
X617744688Y-331368536D01*
X617678553Y-331345998D01*
X617639516Y-331300946D01*
X617635050Y-331292182D01*
X617510109Y-331120213D01*
X617359786Y-330969890D01*
X617187820Y-330844951D01*
X616998414Y-330748444D01*
X616998413Y-330748443D01*
X616998412Y-330748443D01*
X616796243Y-330682754D01*
X616796241Y-330682753D01*
X616796240Y-330682753D01*
X616634957Y-330657208D01*
X616586287Y-330649500D01*
X616373713Y-330649500D01*
X616325042Y-330657208D01*
X616163760Y-330682753D01*
X615961585Y-330748444D01*
X615772179Y-330844951D01*
X615600213Y-330969890D01*
X615449890Y-331120213D01*
X615324949Y-331292182D01*
X615320484Y-331300946D01*
X615272509Y-331351742D01*
X615204688Y-331368536D01*
X615138553Y-331345998D01*
X615099516Y-331300946D01*
X615095050Y-331292182D01*
X614970109Y-331120213D01*
X614819786Y-330969890D01*
X614647820Y-330844951D01*
X614458414Y-330748444D01*
X614458413Y-330748443D01*
X614458412Y-330748443D01*
X614256243Y-330682754D01*
X614256241Y-330682753D01*
X614256240Y-330682753D01*
X614094957Y-330657208D01*
X614046287Y-330649500D01*
X613833713Y-330649500D01*
X613785042Y-330657208D01*
X613623760Y-330682753D01*
X613421585Y-330748444D01*
X613232179Y-330844951D01*
X613060213Y-330969890D01*
X612909890Y-331120213D01*
X612784949Y-331292182D01*
X612780484Y-331300946D01*
X612732509Y-331351742D01*
X612664688Y-331368536D01*
X612598553Y-331345998D01*
X612559516Y-331300946D01*
X612555050Y-331292182D01*
X612430109Y-331120213D01*
X612279786Y-330969890D01*
X612107820Y-330844951D01*
X611918414Y-330748444D01*
X611918413Y-330748443D01*
X611918412Y-330748443D01*
X611716243Y-330682754D01*
X611716241Y-330682753D01*
X611716240Y-330682753D01*
X611554957Y-330657208D01*
X611506287Y-330649500D01*
X611293713Y-330649500D01*
X611245042Y-330657208D01*
X611083760Y-330682753D01*
X610881585Y-330748444D01*
X610692179Y-330844951D01*
X610520213Y-330969890D01*
X610369890Y-331120213D01*
X610244949Y-331292182D01*
X610240484Y-331300946D01*
X610192509Y-331351742D01*
X610124688Y-331368536D01*
X610058553Y-331345998D01*
X610019516Y-331300946D01*
X610015050Y-331292182D01*
X609890109Y-331120213D01*
X609739786Y-330969890D01*
X609567820Y-330844951D01*
X609378414Y-330748444D01*
X609378413Y-330748443D01*
X609378412Y-330748443D01*
X609176243Y-330682754D01*
X609176241Y-330682753D01*
X609176240Y-330682753D01*
X609014957Y-330657208D01*
X608966287Y-330649500D01*
X608753713Y-330649500D01*
X608714202Y-330655757D01*
X608543759Y-330682753D01*
X608362818Y-330741545D01*
X608292977Y-330743540D01*
X608233144Y-330707460D01*
X608202316Y-330644759D01*
X608200500Y-330623614D01*
X608200500Y-316576385D01*
X608220185Y-316509346D01*
X608272989Y-316463591D01*
X608342147Y-316453647D01*
X608362803Y-316458450D01*
X608543757Y-316517246D01*
X608753713Y-316550500D01*
X608753714Y-316550500D01*
X608966286Y-316550500D01*
X608966287Y-316550500D01*
X609176243Y-316517246D01*
X609378412Y-316451557D01*
X609567816Y-316355051D01*
X609654138Y-316292335D01*
X609739786Y-316230109D01*
X609739788Y-316230106D01*
X609739792Y-316230104D01*
X609890104Y-316079792D01*
X609890106Y-316079788D01*
X609890109Y-316079786D01*
X610015048Y-315907820D01*
X610015049Y-315907819D01*
X610015051Y-315907816D01*
X610019514Y-315899054D01*
X610067488Y-315848259D01*
X610135308Y-315831463D01*
X610201444Y-315853999D01*
X610240486Y-315899056D01*
X610244951Y-315907820D01*
X610369890Y-316079786D01*
X610520213Y-316230109D01*
X610692179Y-316355048D01*
X610692181Y-316355049D01*
X610692184Y-316355051D01*
X610881588Y-316451557D01*
X611083757Y-316517246D01*
X611293713Y-316550500D01*
X611293714Y-316550500D01*
X611506286Y-316550500D01*
X611506287Y-316550500D01*
X611716243Y-316517246D01*
X611918412Y-316451557D01*
X612107816Y-316355051D01*
X612194138Y-316292335D01*
X612279786Y-316230109D01*
X612279788Y-316230106D01*
X612279792Y-316230104D01*
X612430104Y-316079792D01*
X612430106Y-316079788D01*
X612430109Y-316079786D01*
X612555048Y-315907820D01*
X612555049Y-315907819D01*
X612555051Y-315907816D01*
X612559514Y-315899054D01*
X612607488Y-315848259D01*
X612675308Y-315831463D01*
X612741444Y-315853999D01*
X612780486Y-315899056D01*
X612784951Y-315907820D01*
X612909890Y-316079786D01*
X613060213Y-316230109D01*
X613232179Y-316355048D01*
X613232181Y-316355049D01*
X613232184Y-316355051D01*
X613421588Y-316451557D01*
X613623757Y-316517246D01*
X613833713Y-316550500D01*
X613833714Y-316550500D01*
X614046286Y-316550500D01*
X614046287Y-316550500D01*
X614256243Y-316517246D01*
X614458412Y-316451557D01*
X614647816Y-316355051D01*
X614734138Y-316292335D01*
X614819786Y-316230109D01*
X614819788Y-316230106D01*
X614819792Y-316230104D01*
X614970104Y-316079792D01*
X614970106Y-316079788D01*
X614970109Y-316079786D01*
X615095048Y-315907820D01*
X615095049Y-315907819D01*
X615095051Y-315907816D01*
X615099514Y-315899054D01*
X615147488Y-315848259D01*
X615215308Y-315831463D01*
X615281444Y-315853999D01*
G37*
%TD.AperFunction*%
%TA.AperFunction,Conductor*%
G36*
X606922941Y-333356631D02*
G01*
X606944662Y-333358048D01*
X606955805Y-333366281D01*
X606969097Y-333370184D01*
X606983348Y-333386631D01*
X607000857Y-333399567D01*
X607012036Y-333419738D01*
X607014852Y-333422988D01*
X607016726Y-333428200D01*
X607017966Y-333430438D01*
X607020201Y-333436318D01*
X607040423Y-333511785D01*
X607060227Y-333546086D01*
X607119479Y-333648714D01*
X607119481Y-333648717D01*
X607238349Y-333767585D01*
X607238355Y-333767590D01*
X607564181Y-334093416D01*
X607597666Y-334154739D01*
X607600500Y-334181097D01*
X607600500Y-346575500D01*
X607597949Y-346584185D01*
X607599238Y-346593147D01*
X607588259Y-346617187D01*
X607580815Y-346642539D01*
X607573974Y-346648466D01*
X607570213Y-346656703D01*
X607547978Y-346670992D01*
X607528011Y-346688294D01*
X607517496Y-346690581D01*
X607511435Y-346694477D01*
X607476500Y-346699500D01*
X607424500Y-346699500D01*
X607357461Y-346679815D01*
X607311706Y-346627011D01*
X607300500Y-346575500D01*
X607300500Y-346439059D01*
X607300501Y-346439046D01*
X607300501Y-346270945D01*
X607300501Y-346270943D01*
X607259577Y-346118215D01*
X607219904Y-346049500D01*
X607180520Y-345981284D01*
X607068716Y-345869480D01*
X607064385Y-345865149D01*
X607064374Y-345865139D01*
X606884574Y-345685339D01*
X606851089Y-345624016D01*
X606850638Y-345621849D01*
X606824899Y-345492454D01*
X606819737Y-345466503D01*
X606812256Y-345448443D01*
X606759397Y-345320827D01*
X606759390Y-345320814D01*
X606671789Y-345189711D01*
X606671786Y-345189707D01*
X606560292Y-345078213D01*
X606560288Y-345078210D01*
X606429185Y-344990609D01*
X606429172Y-344990602D01*
X606283501Y-344930264D01*
X606283489Y-344930261D01*
X606128845Y-344899500D01*
X606128842Y-344899500D01*
X605971158Y-344899500D01*
X605971153Y-344899500D01*
X605848691Y-344923859D01*
X605779099Y-344917632D01*
X605723922Y-344874768D01*
X605700678Y-344808879D01*
X605700500Y-344802242D01*
X605700500Y-333520097D01*
X605720185Y-333453058D01*
X605736819Y-333432416D01*
X605782417Y-333386818D01*
X605843740Y-333353333D01*
X605870098Y-333350499D01*
X606902058Y-333350499D01*
X606922941Y-333356631D01*
G37*
%TD.AperFunction*%
%TA.AperFunction,Conductor*%
G36*
X620361444Y-332653999D02*
G01*
X620400486Y-332699056D01*
X620404951Y-332707820D01*
X620529890Y-332879786D01*
X620680213Y-333030109D01*
X620852184Y-333155051D01*
X620852184Y-333155052D01*
X620891793Y-333175233D01*
X620942590Y-333223206D01*
X620959500Y-333285718D01*
X620959500Y-334939902D01*
X620939815Y-335006941D01*
X620923181Y-335027583D01*
X616862181Y-339088583D01*
X616800858Y-339122068D01*
X616731166Y-339117084D01*
X616675233Y-339075212D01*
X616650816Y-339009748D01*
X616650500Y-339000902D01*
X616650500Y-338985272D01*
X616650499Y-338985258D01*
X616649057Y-338974312D01*
X616620548Y-338757762D01*
X616561158Y-338536113D01*
X616511190Y-338415480D01*
X616473349Y-338324123D01*
X616473346Y-338324117D01*
X616473344Y-338324112D01*
X616358611Y-338125388D01*
X616358608Y-338125385D01*
X616358607Y-338125382D01*
X616218918Y-337943338D01*
X616218911Y-337943330D01*
X616056670Y-337781089D01*
X616056661Y-337781081D01*
X615874617Y-337641392D01*
X615675890Y-337526657D01*
X615675876Y-337526650D01*
X615463887Y-337438842D01*
X615242238Y-337379452D01*
X615204215Y-337374446D01*
X615014741Y-337349500D01*
X615014734Y-337349500D01*
X614819096Y-337349500D01*
X614752057Y-337329815D01*
X614706302Y-337277011D01*
X614696358Y-337207853D01*
X614725383Y-337144297D01*
X614731415Y-337137819D01*
X616597677Y-335271557D01*
X618535478Y-333333755D01*
X618596799Y-333300272D01*
X618661473Y-333303506D01*
X618703757Y-333317246D01*
X618913713Y-333350500D01*
X618913714Y-333350500D01*
X619126286Y-333350500D01*
X619126287Y-333350500D01*
X619336243Y-333317246D01*
X619538412Y-333251557D01*
X619727816Y-333155051D01*
X619749789Y-333139086D01*
X619899786Y-333030109D01*
X619899788Y-333030106D01*
X619899792Y-333030104D01*
X620050104Y-332879792D01*
X620050106Y-332879788D01*
X620050109Y-332879786D01*
X620175048Y-332707820D01*
X620175047Y-332707820D01*
X620175051Y-332707816D01*
X620179514Y-332699054D01*
X620227488Y-332648259D01*
X620295308Y-332631463D01*
X620361444Y-332653999D01*
G37*
%TD.AperFunction*%
%TA.AperFunction,Conductor*%
G36*
X605021824Y-315777553D02*
G01*
X605049930Y-315776349D01*
X605056206Y-315780012D01*
X605063456Y-315780531D01*
X605085977Y-315797390D01*
X605110272Y-315811571D01*
X605116250Y-315820052D01*
X605119390Y-315822402D01*
X605130608Y-315840418D01*
X605160207Y-315898510D01*
X605164951Y-315907819D01*
X605289890Y-316079786D01*
X605440213Y-316230109D01*
X605612179Y-316355048D01*
X605612181Y-316355049D01*
X605612184Y-316355051D01*
X605801588Y-316451557D01*
X606003757Y-316517246D01*
X606213713Y-316550500D01*
X606213714Y-316550500D01*
X606426286Y-316550500D01*
X606426287Y-316550500D01*
X606636243Y-316517246D01*
X606678523Y-316503507D01*
X606693734Y-316503072D01*
X606707995Y-316497754D01*
X606727948Y-316502094D01*
X606748362Y-316501511D01*
X606762449Y-316509600D01*
X606776268Y-316512606D01*
X606804522Y-316533757D01*
X606963181Y-316692416D01*
X606996666Y-316753739D01*
X606999500Y-316780097D01*
X606999500Y-330525500D01*
X606979815Y-330592539D01*
X606927011Y-330638294D01*
X606875500Y-330649500D01*
X605422129Y-330649500D01*
X605422123Y-330649501D01*
X605362516Y-330655908D01*
X605227671Y-330706202D01*
X605227664Y-330706206D01*
X605112455Y-330792452D01*
X605112452Y-330792455D01*
X605026206Y-330907664D01*
X605026202Y-330907671D01*
X604975908Y-331042517D01*
X604969501Y-331102116D01*
X604969500Y-331102135D01*
X604969500Y-332449901D01*
X604949815Y-332516940D01*
X604933181Y-332537582D01*
X604912181Y-332558582D01*
X604850858Y-332592067D01*
X604781166Y-332587083D01*
X604725233Y-332545211D01*
X604700816Y-332479747D01*
X604700500Y-332470901D01*
X604700500Y-316092337D01*
X604720185Y-316025298D01*
X604736819Y-316004656D01*
X604833928Y-315907547D01*
X604932444Y-315809030D01*
X604957128Y-315795551D01*
X604980125Y-315779341D01*
X604987386Y-315779029D01*
X604993765Y-315775547D01*
X605021824Y-315777553D01*
G37*
%TD.AperFunction*%
%TA.AperFunction,Conductor*%
G36*
X620827748Y-302370185D02*
G01*
X620873503Y-302422989D01*
X620883447Y-302492147D01*
X620854422Y-302555703D01*
X620817004Y-302584985D01*
X620728310Y-302630177D01*
X620621403Y-302707849D01*
X620621402Y-302707850D01*
X621179437Y-303265885D01*
X621177374Y-303266740D01*
X621038156Y-303359762D01*
X620919762Y-303478156D01*
X620826740Y-303617374D01*
X620825885Y-303619437D01*
X620267850Y-303061402D01*
X620267849Y-303061403D01*
X620190177Y-303168310D01*
X620074052Y-303396215D01*
X620074051Y-303396218D01*
X619995013Y-303639476D01*
X619955000Y-303892110D01*
X619955000Y-304147889D01*
X619995013Y-304400523D01*
X620074051Y-304643781D01*
X620074052Y-304643784D01*
X620190175Y-304871686D01*
X620267850Y-304978595D01*
X620267850Y-304978596D01*
X620825884Y-304420561D01*
X620826740Y-304422626D01*
X620919762Y-304561844D01*
X621038156Y-304680238D01*
X621177374Y-304773260D01*
X621179437Y-304774114D01*
X620621402Y-305332148D01*
X620728313Y-305409824D01*
X620956215Y-305525947D01*
X620956218Y-305525948D01*
X621199476Y-305604986D01*
X621452111Y-305645000D01*
X621707889Y-305645000D01*
X621960523Y-305604986D01*
X622203781Y-305525948D01*
X622203784Y-305525947D01*
X622431685Y-305409825D01*
X622538595Y-305332148D01*
X622538596Y-305332148D01*
X621980562Y-304774114D01*
X621982626Y-304773260D01*
X622121844Y-304680238D01*
X622240238Y-304561844D01*
X622333260Y-304422626D01*
X622334114Y-304420562D01*
X622892148Y-304978596D01*
X622892148Y-304978595D01*
X622969825Y-304871685D01*
X623085947Y-304643784D01*
X623085948Y-304643781D01*
X623164986Y-304400523D01*
X623205000Y-304147889D01*
X623205000Y-303892110D01*
X623164986Y-303639476D01*
X623085948Y-303396218D01*
X623085947Y-303396215D01*
X622969824Y-303168313D01*
X622892148Y-303061403D01*
X622892148Y-303061402D01*
X622334114Y-303619436D01*
X622333260Y-303617374D01*
X622240238Y-303478156D01*
X622121844Y-303359762D01*
X621982626Y-303266740D01*
X621980560Y-303265884D01*
X622538596Y-302707850D01*
X622431686Y-302630175D01*
X622342996Y-302584985D01*
X622292200Y-302537010D01*
X622275405Y-302469189D01*
X622297943Y-302403054D01*
X622352658Y-302359603D01*
X622399291Y-302350500D01*
X625840709Y-302350500D01*
X625907748Y-302370185D01*
X625953503Y-302422989D01*
X625963447Y-302492147D01*
X625934422Y-302555703D01*
X625897004Y-302584985D01*
X625808310Y-302630177D01*
X625701403Y-302707849D01*
X625701402Y-302707850D01*
X626259437Y-303265885D01*
X626257374Y-303266740D01*
X626118156Y-303359762D01*
X625999762Y-303478156D01*
X625906740Y-303617374D01*
X625905885Y-303619437D01*
X625347850Y-303061402D01*
X625347849Y-303061403D01*
X625270177Y-303168310D01*
X625154052Y-303396215D01*
X625154051Y-303396218D01*
X625075013Y-303639476D01*
X625035000Y-303892110D01*
X625035000Y-304147889D01*
X625075013Y-304400523D01*
X625154051Y-304643781D01*
X625154052Y-304643784D01*
X625270175Y-304871686D01*
X625347850Y-304978595D01*
X625347850Y-304978596D01*
X625905884Y-304420561D01*
X625906740Y-304422626D01*
X625999762Y-304561844D01*
X626118156Y-304680238D01*
X626257374Y-304773260D01*
X626259437Y-304774114D01*
X625701402Y-305332148D01*
X625808313Y-305409824D01*
X626036215Y-305525947D01*
X626036218Y-305525948D01*
X626279476Y-305604986D01*
X626532111Y-305645000D01*
X626787889Y-305645000D01*
X627040523Y-305604986D01*
X627283781Y-305525948D01*
X627283784Y-305525947D01*
X627511685Y-305409825D01*
X627618595Y-305332148D01*
X627618596Y-305332148D01*
X627060562Y-304774114D01*
X627062626Y-304773260D01*
X627201844Y-304680238D01*
X627320238Y-304561844D01*
X627413260Y-304422626D01*
X627414114Y-304420562D01*
X627972148Y-304978596D01*
X627972148Y-304978595D01*
X628049825Y-304871685D01*
X628165947Y-304643784D01*
X628165948Y-304643781D01*
X628244986Y-304400523D01*
X628285000Y-304147889D01*
X628285000Y-303892110D01*
X628244986Y-303639476D01*
X628165948Y-303396218D01*
X628165947Y-303396215D01*
X628049824Y-303168313D01*
X627972148Y-303061403D01*
X627972148Y-303061402D01*
X627414114Y-303619436D01*
X627413260Y-303617374D01*
X627320238Y-303478156D01*
X627201844Y-303359762D01*
X627062626Y-303266740D01*
X627060560Y-303265884D01*
X627618596Y-302707850D01*
X627511686Y-302630175D01*
X627422996Y-302584985D01*
X627372200Y-302537010D01*
X627355405Y-302469189D01*
X627377943Y-302403054D01*
X627432658Y-302359603D01*
X627479291Y-302350500D01*
X631075500Y-302350500D01*
X631142539Y-302370185D01*
X631188294Y-302422989D01*
X631199500Y-302474500D01*
X631199500Y-375325500D01*
X631179815Y-375392539D01*
X631127011Y-375438294D01*
X631075500Y-375449500D01*
X576624500Y-375449500D01*
X576557461Y-375429815D01*
X576511706Y-375377011D01*
X576500500Y-375325500D01*
X576500500Y-373143713D01*
X577399500Y-373143713D01*
X577399500Y-373356286D01*
X577432753Y-373566239D01*
X577498444Y-373768414D01*
X577594951Y-373957820D01*
X577719890Y-374129786D01*
X577870213Y-374280109D01*
X578042179Y-374405048D01*
X578042181Y-374405049D01*
X578042184Y-374405051D01*
X578231588Y-374501557D01*
X578433757Y-374567246D01*
X578643713Y-374600500D01*
X578643714Y-374600500D01*
X578856286Y-374600500D01*
X578856287Y-374600500D01*
X579066243Y-374567246D01*
X579268412Y-374501557D01*
X579457816Y-374405051D01*
X579479789Y-374389086D01*
X579629786Y-374280109D01*
X579629788Y-374280106D01*
X579629792Y-374280104D01*
X579780104Y-374129792D01*
X579780106Y-374129788D01*
X579780109Y-374129786D01*
X579905048Y-373957820D01*
X579905047Y-373957820D01*
X579905051Y-373957816D01*
X580001557Y-373768412D01*
X580067246Y-373566243D01*
X580100500Y-373356287D01*
X580100500Y-373143713D01*
X580067246Y-372933757D01*
X580001557Y-372731588D01*
X579905051Y-372542184D01*
X579905049Y-372542181D01*
X579905048Y-372542179D01*
X579780109Y-372370213D01*
X579629786Y-372219890D01*
X579457820Y-372094951D01*
X579268414Y-371998444D01*
X579268413Y-371998443D01*
X579268412Y-371998443D01*
X579066243Y-371932754D01*
X579066241Y-371932753D01*
X579066240Y-371932753D01*
X578904957Y-371907208D01*
X578856287Y-371899500D01*
X578643713Y-371899500D01*
X578595042Y-371907208D01*
X578433760Y-371932753D01*
X578231585Y-371998444D01*
X578042179Y-372094951D01*
X577870213Y-372219890D01*
X577719890Y-372370213D01*
X577594951Y-372542179D01*
X577498444Y-372731585D01*
X577432753Y-372933760D01*
X577399500Y-373143713D01*
X576500500Y-373143713D01*
X576500500Y-371579054D01*
X580499498Y-371579054D01*
X580540423Y-371731785D01*
X580569358Y-371781900D01*
X580569359Y-371781904D01*
X580569360Y-371781904D01*
X580619479Y-371868714D01*
X580619481Y-371868717D01*
X580738349Y-371987585D01*
X580738354Y-371987589D01*
X583431284Y-374680520D01*
X583431286Y-374680521D01*
X583431290Y-374680524D01*
X583568209Y-374759573D01*
X583568216Y-374759577D01*
X583720943Y-374800501D01*
X583720945Y-374800501D01*
X583886654Y-374800501D01*
X583886670Y-374800500D01*
X603813331Y-374800500D01*
X603813347Y-374800501D01*
X603820943Y-374800501D01*
X603979054Y-374800501D01*
X603979057Y-374800501D01*
X604131785Y-374759577D01*
X604181904Y-374730639D01*
X604268716Y-374680520D01*
X604380520Y-374568716D01*
X604380520Y-374568714D01*
X604390728Y-374558507D01*
X604390729Y-374558504D01*
X605805521Y-373143713D01*
X627549500Y-373143713D01*
X627549500Y-373356286D01*
X627582753Y-373566239D01*
X627648444Y-373768414D01*
X627744951Y-373957820D01*
X627869890Y-374129786D01*
X628020213Y-374280109D01*
X628192179Y-374405048D01*
X628192181Y-374405049D01*
X628192184Y-374405051D01*
X628381588Y-374501557D01*
X628583757Y-374567246D01*
X628793713Y-374600500D01*
X628793714Y-374600500D01*
X629006286Y-374600500D01*
X629006287Y-374600500D01*
X629216243Y-374567246D01*
X629418412Y-374501557D01*
X629607816Y-374405051D01*
X629629789Y-374389086D01*
X629779786Y-374280109D01*
X629779788Y-374280106D01*
X629779792Y-374280104D01*
X629930104Y-374129792D01*
X629930106Y-374129788D01*
X629930109Y-374129786D01*
X630055048Y-373957820D01*
X630055047Y-373957820D01*
X630055051Y-373957816D01*
X630151557Y-373768412D01*
X630217246Y-373566243D01*
X630250500Y-373356287D01*
X630250500Y-373143713D01*
X630217246Y-372933757D01*
X630151557Y-372731588D01*
X630055051Y-372542184D01*
X630055049Y-372542181D01*
X630055048Y-372542179D01*
X629930109Y-372370213D01*
X629779786Y-372219890D01*
X629607820Y-372094951D01*
X629418414Y-371998444D01*
X629418413Y-371998443D01*
X629418412Y-371998443D01*
X629216243Y-371932754D01*
X629216241Y-371932753D01*
X629216240Y-371932753D01*
X629054957Y-371907208D01*
X629006287Y-371899500D01*
X628793713Y-371899500D01*
X628745042Y-371907208D01*
X628583760Y-371932753D01*
X628381585Y-371998444D01*
X628192179Y-372094951D01*
X628020213Y-372219890D01*
X627869890Y-372370213D01*
X627744951Y-372542179D01*
X627648444Y-372731585D01*
X627582753Y-372933760D01*
X627549500Y-373143713D01*
X605805521Y-373143713D01*
X608628083Y-370321153D01*
X613499500Y-370321153D01*
X613499500Y-370478846D01*
X613530261Y-370633489D01*
X613530264Y-370633501D01*
X613590602Y-370779172D01*
X613590609Y-370779185D01*
X613678210Y-370910288D01*
X613678213Y-370910292D01*
X613789707Y-371021786D01*
X613789711Y-371021789D01*
X613920814Y-371109390D01*
X613920827Y-371109397D01*
X614066498Y-371169735D01*
X614066503Y-371169737D01*
X614218152Y-371199902D01*
X614221153Y-371200499D01*
X614221156Y-371200500D01*
X614221158Y-371200500D01*
X614378844Y-371200500D01*
X614378845Y-371200499D01*
X614533497Y-371169737D01*
X614679179Y-371109394D01*
X614810289Y-371021789D01*
X614921789Y-370910289D01*
X615009394Y-370779179D01*
X615069737Y-370633497D01*
X615100500Y-370478842D01*
X615100500Y-370321158D01*
X615100500Y-370321155D01*
X615100499Y-370321153D01*
X615074531Y-370190606D01*
X615069737Y-370166503D01*
X615069735Y-370166498D01*
X615009397Y-370020827D01*
X615009390Y-370020814D01*
X614921789Y-369889711D01*
X614921786Y-369889707D01*
X614810292Y-369778213D01*
X614810288Y-369778210D01*
X614679185Y-369690609D01*
X614679172Y-369690602D01*
X614533501Y-369630264D01*
X614533489Y-369630261D01*
X614378845Y-369599500D01*
X614378842Y-369599500D01*
X614221158Y-369599500D01*
X614221155Y-369599500D01*
X614066510Y-369630261D01*
X614066498Y-369630264D01*
X613920827Y-369690602D01*
X613920814Y-369690609D01*
X613789711Y-369778210D01*
X613789707Y-369778213D01*
X613678213Y-369889707D01*
X613678210Y-369889711D01*
X613590609Y-370020814D01*
X613590602Y-370020827D01*
X613530264Y-370166498D01*
X613530261Y-370166510D01*
X613499500Y-370321153D01*
X608628083Y-370321153D01*
X609080520Y-369868716D01*
X609159577Y-369731784D01*
X609200501Y-369579057D01*
X609200501Y-369420942D01*
X609200501Y-369413347D01*
X609200500Y-369413329D01*
X609200500Y-365921153D01*
X613899500Y-365921153D01*
X613899500Y-366078846D01*
X613930261Y-366233489D01*
X613930264Y-366233501D01*
X613990602Y-366379172D01*
X613990609Y-366379185D01*
X614078210Y-366510288D01*
X614078213Y-366510292D01*
X614189707Y-366621786D01*
X614189711Y-366621789D01*
X614320814Y-366709390D01*
X614320827Y-366709397D01*
X614466498Y-366769735D01*
X614466503Y-366769737D01*
X614621153Y-366800499D01*
X614621156Y-366800500D01*
X614621158Y-366800500D01*
X614778844Y-366800500D01*
X614778845Y-366800499D01*
X614933497Y-366769737D01*
X615079179Y-366709394D01*
X615210289Y-366621789D01*
X615321789Y-366510289D01*
X615409394Y-366379179D01*
X615469737Y-366233497D01*
X615500500Y-366078842D01*
X615500500Y-365921158D01*
X615500500Y-365921155D01*
X615500499Y-365921153D01*
X615478269Y-365809397D01*
X615469737Y-365766503D01*
X615451215Y-365721786D01*
X615409397Y-365620827D01*
X615409390Y-365620814D01*
X615321789Y-365489711D01*
X615321786Y-365489707D01*
X615210292Y-365378213D01*
X615210288Y-365378210D01*
X615124897Y-365321153D01*
X619499500Y-365321153D01*
X619499500Y-365478846D01*
X619530261Y-365633489D01*
X619530264Y-365633501D01*
X619590602Y-365779172D01*
X619590609Y-365779185D01*
X619678210Y-365910288D01*
X619678213Y-365910292D01*
X619789707Y-366021786D01*
X619789711Y-366021789D01*
X619920814Y-366109390D01*
X619920827Y-366109397D01*
X620066498Y-366169735D01*
X620066503Y-366169737D01*
X620221153Y-366200499D01*
X620221156Y-366200500D01*
X620221158Y-366200500D01*
X620378844Y-366200500D01*
X620378845Y-366200499D01*
X620533497Y-366169737D01*
X620679179Y-366109394D01*
X620810289Y-366021789D01*
X620921789Y-365910289D01*
X621009394Y-365779179D01*
X621069737Y-365633497D01*
X621100500Y-365478842D01*
X621100500Y-365321158D01*
X621100500Y-365321155D01*
X621100499Y-365321153D01*
X621092126Y-365279060D01*
X621069737Y-365166503D01*
X621067163Y-365160288D01*
X621009397Y-365020827D01*
X621009390Y-365020814D01*
X620921789Y-364889711D01*
X620921786Y-364889707D01*
X620810292Y-364778213D01*
X620810288Y-364778210D01*
X620679185Y-364690609D01*
X620679172Y-364690602D01*
X620533501Y-364630264D01*
X620533489Y-364630261D01*
X620378845Y-364599500D01*
X620378842Y-364599500D01*
X620221158Y-364599500D01*
X620221155Y-364599500D01*
X620066510Y-364630261D01*
X620066498Y-364630264D01*
X619920827Y-364690602D01*
X619920814Y-364690609D01*
X619789711Y-364778210D01*
X619789707Y-364778213D01*
X619678213Y-364889707D01*
X619678210Y-364889711D01*
X619590609Y-365020814D01*
X619590602Y-365020827D01*
X619530264Y-365166498D01*
X619530261Y-365166510D01*
X619499500Y-365321153D01*
X615124897Y-365321153D01*
X615079185Y-365290609D01*
X615079172Y-365290602D01*
X614933501Y-365230264D01*
X614933489Y-365230261D01*
X614778845Y-365199500D01*
X614778842Y-365199500D01*
X614621158Y-365199500D01*
X614621155Y-365199500D01*
X614466510Y-365230261D01*
X614466498Y-365230264D01*
X614320827Y-365290602D01*
X614320814Y-365290609D01*
X614189711Y-365378210D01*
X614189707Y-365378213D01*
X614078213Y-365489707D01*
X614078210Y-365489711D01*
X613990609Y-365620814D01*
X613990602Y-365620827D01*
X613930264Y-365766498D01*
X613930261Y-365766510D01*
X613899500Y-365921153D01*
X609200500Y-365921153D01*
X609200500Y-365574500D01*
X609220185Y-365507461D01*
X609272989Y-365461706D01*
X609324500Y-365450500D01*
X609428844Y-365450500D01*
X609428845Y-365450499D01*
X609583497Y-365419737D01*
X609729179Y-365359394D01*
X609860289Y-365271789D01*
X609971789Y-365160289D01*
X610059394Y-365029179D01*
X610062719Y-365021153D01*
X610084648Y-364968209D01*
X610119737Y-364883497D01*
X610150500Y-364728842D01*
X610150500Y-364571158D01*
X610150500Y-364571155D01*
X610150499Y-364571153D01*
X610132012Y-364478213D01*
X610119737Y-364416503D01*
X610110769Y-364394853D01*
X610059397Y-364270827D01*
X610059390Y-364270814D01*
X609971789Y-364139711D01*
X609971786Y-364139707D01*
X609860292Y-364028213D01*
X609860288Y-364028210D01*
X609729185Y-363940609D01*
X609729172Y-363940602D01*
X609583501Y-363880264D01*
X609583489Y-363880261D01*
X609428845Y-363849500D01*
X609428842Y-363849500D01*
X609271158Y-363849500D01*
X609271155Y-363849500D01*
X609116510Y-363880261D01*
X609116498Y-363880264D01*
X608970827Y-363940602D01*
X608970814Y-363940609D01*
X608839711Y-364028210D01*
X608839707Y-364028213D01*
X608728213Y-364139707D01*
X608728210Y-364139711D01*
X608640609Y-364270814D01*
X608640601Y-364270829D01*
X608622227Y-364315188D01*
X608595348Y-364355415D01*
X608231286Y-364719478D01*
X608119481Y-364831282D01*
X608119479Y-364831285D01*
X608073887Y-364910255D01*
X608073885Y-364910257D01*
X608040425Y-364968209D01*
X608040423Y-364968212D01*
X608024089Y-365029172D01*
X607999499Y-365120943D01*
X607999499Y-365120945D01*
X607999499Y-365289046D01*
X607999500Y-365289059D01*
X607999500Y-369199902D01*
X607979815Y-369266941D01*
X607963181Y-369287583D01*
X603687584Y-373563181D01*
X603626261Y-373596666D01*
X603599903Y-373599500D01*
X584100098Y-373599500D01*
X584033059Y-373579815D01*
X584012417Y-373563181D01*
X581736819Y-371287583D01*
X581703334Y-371226260D01*
X581700500Y-371199902D01*
X581700500Y-370821153D01*
X591699500Y-370821153D01*
X591699500Y-370978846D01*
X591730261Y-371133489D01*
X591730264Y-371133501D01*
X591790602Y-371279172D01*
X591790609Y-371279185D01*
X591878210Y-371410288D01*
X591878213Y-371410292D01*
X591989707Y-371521786D01*
X591989711Y-371521789D01*
X592120814Y-371609390D01*
X592120827Y-371609397D01*
X592266498Y-371669735D01*
X592266503Y-371669737D01*
X592421153Y-371700499D01*
X592421156Y-371700500D01*
X592421158Y-371700500D01*
X592578844Y-371700500D01*
X592578845Y-371700499D01*
X592733497Y-371669737D01*
X592879179Y-371609394D01*
X593010289Y-371521789D01*
X593121789Y-371410289D01*
X593209394Y-371279179D01*
X593269737Y-371133497D01*
X593300500Y-370978842D01*
X593300500Y-370821158D01*
X593300500Y-370821155D01*
X593300499Y-370821153D01*
X593269738Y-370666510D01*
X593269737Y-370666503D01*
X593256062Y-370633489D01*
X593209397Y-370520827D01*
X593209390Y-370520814D01*
X593121789Y-370389711D01*
X593121786Y-370389707D01*
X593010292Y-370278213D01*
X593010288Y-370278210D01*
X592879185Y-370190609D01*
X592879172Y-370190602D01*
X592733501Y-370130264D01*
X592733489Y-370130261D01*
X592578845Y-370099500D01*
X592578842Y-370099500D01*
X592421158Y-370099500D01*
X592421155Y-370099500D01*
X592266510Y-370130261D01*
X592266498Y-370130264D01*
X592120827Y-370190602D01*
X592120814Y-370190609D01*
X591989711Y-370278210D01*
X591989707Y-370278213D01*
X591878213Y-370389707D01*
X591878210Y-370389711D01*
X591790609Y-370520814D01*
X591790602Y-370520827D01*
X591730264Y-370666498D01*
X591730261Y-370666510D01*
X591699500Y-370821153D01*
X581700500Y-370821153D01*
X581700500Y-368093713D01*
X593409500Y-368093713D01*
X593409500Y-368306286D01*
X593442753Y-368516239D01*
X593508444Y-368718414D01*
X593604951Y-368907820D01*
X593729890Y-369079786D01*
X593880213Y-369230109D01*
X594052179Y-369355048D01*
X594052181Y-369355049D01*
X594052184Y-369355051D01*
X594241588Y-369451557D01*
X594443757Y-369517246D01*
X594653713Y-369550500D01*
X594653714Y-369550500D01*
X594866286Y-369550500D01*
X594866287Y-369550500D01*
X595076243Y-369517246D01*
X595278412Y-369451557D01*
X595467816Y-369355051D01*
X595639792Y-369230104D01*
X595753329Y-369116566D01*
X595814648Y-369083084D01*
X595884340Y-369088068D01*
X595940274Y-369129939D01*
X595957189Y-369160917D01*
X596006202Y-369292328D01*
X596006206Y-369292335D01*
X596092452Y-369407544D01*
X596092455Y-369407547D01*
X596207664Y-369493793D01*
X596207671Y-369493797D01*
X596342517Y-369544091D01*
X596342516Y-369544091D01*
X596349444Y-369544835D01*
X596402127Y-369550500D01*
X598197872Y-369550499D01*
X598257483Y-369544091D01*
X598392331Y-369493796D01*
X598507546Y-369407546D01*
X598593796Y-369292331D01*
X598644091Y-369157483D01*
X598650500Y-369097873D01*
X598650499Y-367302128D01*
X598644091Y-367242517D01*
X598642810Y-367239083D01*
X598593797Y-367107671D01*
X598593793Y-367107664D01*
X598507547Y-366992455D01*
X598507544Y-366992452D01*
X598392335Y-366906206D01*
X598392328Y-366906202D01*
X598257482Y-366855908D01*
X598257483Y-366855908D01*
X598197883Y-366849501D01*
X598197881Y-366849500D01*
X598197873Y-366849500D01*
X598197864Y-366849500D01*
X596402129Y-366849500D01*
X596402123Y-366849501D01*
X596342516Y-366855908D01*
X596207671Y-366906202D01*
X596207664Y-366906206D01*
X596092455Y-366992452D01*
X596092452Y-366992455D01*
X596006206Y-367107664D01*
X596006203Y-367107669D01*
X595957189Y-367239083D01*
X595915317Y-367295016D01*
X595849853Y-367319433D01*
X595781580Y-367304581D01*
X595753326Y-367283430D01*
X595639786Y-367169890D01*
X595467820Y-367044951D01*
X595278414Y-366948444D01*
X595278413Y-366948443D01*
X595278412Y-366948443D01*
X595076243Y-366882754D01*
X595076241Y-366882753D01*
X595076240Y-366882753D01*
X594914957Y-366857208D01*
X594866287Y-366849500D01*
X594653713Y-366849500D01*
X594605042Y-366857208D01*
X594443760Y-366882753D01*
X594241585Y-366948444D01*
X594052179Y-367044951D01*
X593880213Y-367169890D01*
X593729890Y-367320213D01*
X593604951Y-367492179D01*
X593508444Y-367681585D01*
X593442753Y-367883760D01*
X593409500Y-368093713D01*
X581700500Y-368093713D01*
X581700500Y-365021153D01*
X588899500Y-365021153D01*
X588899500Y-365178846D01*
X588930261Y-365333489D01*
X588930264Y-365333501D01*
X588990602Y-365479172D01*
X588990609Y-365479185D01*
X589078210Y-365610288D01*
X589078213Y-365610292D01*
X589189707Y-365721786D01*
X589189711Y-365721789D01*
X589320814Y-365809390D01*
X589320827Y-365809397D01*
X589466498Y-365869735D01*
X589466503Y-365869737D01*
X589621153Y-365900499D01*
X589621156Y-365900500D01*
X589621158Y-365900500D01*
X589778844Y-365900500D01*
X589778845Y-365900499D01*
X589933497Y-365869737D01*
X590079179Y-365809394D01*
X590210289Y-365721789D01*
X590321789Y-365610289D01*
X590409394Y-365479179D01*
X590416632Y-365461706D01*
X590469735Y-365333501D01*
X590469737Y-365333497D01*
X590500500Y-365178842D01*
X590500500Y-365021158D01*
X590500500Y-365021155D01*
X590500499Y-365021153D01*
X590474353Y-364889711D01*
X590469737Y-364866503D01*
X590469735Y-364866498D01*
X590409397Y-364720827D01*
X590409390Y-364720814D01*
X590321789Y-364589711D01*
X590321786Y-364589707D01*
X590210292Y-364478213D01*
X590210288Y-364478210D01*
X590079185Y-364390609D01*
X590079172Y-364390602D01*
X589933501Y-364330264D01*
X589933489Y-364330261D01*
X589778845Y-364299500D01*
X589778842Y-364299500D01*
X589621158Y-364299500D01*
X589621155Y-364299500D01*
X589466510Y-364330261D01*
X589466498Y-364330264D01*
X589320827Y-364390602D01*
X589320814Y-364390609D01*
X589189711Y-364478210D01*
X589189707Y-364478213D01*
X589078213Y-364589707D01*
X589078210Y-364589711D01*
X588990609Y-364720814D01*
X588990602Y-364720827D01*
X588930264Y-364866498D01*
X588930261Y-364866510D01*
X588899500Y-365021153D01*
X581700500Y-365021153D01*
X581700500Y-362669896D01*
X581720185Y-362602857D01*
X581772989Y-362557102D01*
X581842147Y-362547158D01*
X581871950Y-362555334D01*
X581888165Y-362562051D01*
X581888169Y-362562051D01*
X581888170Y-362562052D01*
X582081456Y-362600500D01*
X582081459Y-362600500D01*
X582278543Y-362600500D01*
X582408582Y-362574632D01*
X582471835Y-362562051D01*
X582653914Y-362486632D01*
X582653919Y-362486628D01*
X582653922Y-362486627D01*
X582694526Y-362459496D01*
X582746559Y-362424728D01*
X582813234Y-362403850D01*
X582880614Y-362422334D01*
X582884341Y-362424728D01*
X582976321Y-362486188D01*
X582976328Y-362486192D01*
X583158306Y-362561569D01*
X583158318Y-362561572D01*
X583351504Y-362599999D01*
X583351508Y-362600000D01*
X583548492Y-362600000D01*
X583548495Y-362599999D01*
X583741681Y-362561572D01*
X583741693Y-362561569D01*
X583923673Y-362486191D01*
X583923676Y-362486189D01*
X584015657Y-362424729D01*
X584082334Y-362403850D01*
X584149715Y-362422334D01*
X584153440Y-362424728D01*
X584246079Y-362486628D01*
X584246092Y-362486635D01*
X584428160Y-362562049D01*
X584428165Y-362562051D01*
X584428169Y-362562051D01*
X584428170Y-362562052D01*
X584621456Y-362600500D01*
X584621459Y-362600500D01*
X584818543Y-362600500D01*
X584948582Y-362574632D01*
X585011835Y-362562051D01*
X585193914Y-362486632D01*
X585193919Y-362486628D01*
X585193922Y-362486627D01*
X585234526Y-362459496D01*
X585286559Y-362424728D01*
X585353234Y-362403850D01*
X585420614Y-362422334D01*
X585424341Y-362424728D01*
X585516321Y-362486188D01*
X585516328Y-362486192D01*
X585698306Y-362561569D01*
X585698318Y-362561572D01*
X585891504Y-362599999D01*
X585891508Y-362600000D01*
X586088492Y-362600000D01*
X586088495Y-362599999D01*
X586281681Y-362561572D01*
X586281693Y-362561569D01*
X586463676Y-362486190D01*
X586463680Y-362486187D01*
X586499019Y-362462573D01*
X586499019Y-362462571D01*
X585986447Y-361950000D01*
X586036078Y-361950000D01*
X586125095Y-361926148D01*
X586204905Y-361880070D01*
X586270070Y-361814905D01*
X586316148Y-361735095D01*
X586340000Y-361646078D01*
X586340000Y-361553922D01*
X586316148Y-361464905D01*
X586270070Y-361385095D01*
X586204905Y-361319930D01*
X586188703Y-361310576D01*
X586276943Y-361293024D01*
X586281835Y-361292051D01*
X586336959Y-361269217D01*
X586406427Y-361261749D01*
X586468907Y-361293024D01*
X586504559Y-361353113D01*
X586502065Y-361422938D01*
X586472093Y-361471460D01*
X586343553Y-361600000D01*
X586625000Y-361881446D01*
X586625001Y-361881446D01*
X586906446Y-361600001D01*
X586906446Y-361600000D01*
X586777905Y-361471459D01*
X586744421Y-361410136D01*
X586749405Y-361340444D01*
X586791277Y-361284511D01*
X586856741Y-361260094D01*
X586913037Y-361269216D01*
X586968165Y-361292051D01*
X586968169Y-361292051D01*
X586968170Y-361292052D01*
X587061296Y-361310576D01*
X587045095Y-361319930D01*
X586979930Y-361385095D01*
X586933852Y-361464905D01*
X586910000Y-361553922D01*
X586910000Y-361646078D01*
X586933852Y-361735095D01*
X586979930Y-361814905D01*
X587045095Y-361880070D01*
X587124905Y-361926148D01*
X587213922Y-361950000D01*
X587263552Y-361950000D01*
X586750978Y-362462571D01*
X586786328Y-362486192D01*
X586968306Y-362561569D01*
X586968318Y-362561572D01*
X587161504Y-362599999D01*
X587161508Y-362600000D01*
X587358492Y-362600000D01*
X587358495Y-362599999D01*
X587551681Y-362561572D01*
X587551693Y-362561569D01*
X587733673Y-362486191D01*
X587733676Y-362486189D01*
X587825657Y-362424729D01*
X587892334Y-362403850D01*
X587959715Y-362422334D01*
X587963440Y-362424728D01*
X588056079Y-362486628D01*
X588056092Y-362486635D01*
X588238160Y-362562049D01*
X588238165Y-362562051D01*
X588238169Y-362562051D01*
X588238170Y-362562052D01*
X588431456Y-362600500D01*
X588431459Y-362600500D01*
X588628543Y-362600500D01*
X588758582Y-362574632D01*
X588821835Y-362562051D01*
X588924126Y-362519680D01*
X588993590Y-362512212D01*
X589045887Y-362534976D01*
X589057668Y-362543795D01*
X589057671Y-362543797D01*
X589192517Y-362594091D01*
X589192516Y-362594091D01*
X589199444Y-362594835D01*
X589252127Y-362600500D01*
X590347872Y-362600499D01*
X590407483Y-362594091D01*
X590542331Y-362543796D01*
X590657546Y-362457546D01*
X590743796Y-362342331D01*
X590794091Y-362207483D01*
X590800500Y-362147873D01*
X590800499Y-361052128D01*
X590794220Y-360993716D01*
X590794091Y-360992516D01*
X590743797Y-360857671D01*
X590743795Y-360857668D01*
X590734976Y-360845887D01*
X590710558Y-360780423D01*
X590719679Y-360724128D01*
X590762051Y-360621835D01*
X590800500Y-360428541D01*
X590800500Y-360231459D01*
X590800500Y-360231456D01*
X590762052Y-360038170D01*
X590762051Y-360038169D01*
X590762051Y-360038165D01*
X590717917Y-359931615D01*
X590686635Y-359856092D01*
X590686628Y-359856079D01*
X590577139Y-359692218D01*
X590577136Y-359692214D01*
X590437785Y-359552863D01*
X590437781Y-359552860D01*
X590273920Y-359443371D01*
X590273907Y-359443364D01*
X590091839Y-359367950D01*
X590091829Y-359367947D01*
X589898543Y-359329500D01*
X589898541Y-359329500D01*
X589701459Y-359329500D01*
X589701457Y-359329500D01*
X589508170Y-359367947D01*
X589508160Y-359367950D01*
X589326089Y-359443366D01*
X589233890Y-359504971D01*
X589167213Y-359525848D01*
X589099833Y-359507363D01*
X589096110Y-359504971D01*
X589058019Y-359479520D01*
X589003914Y-359443368D01*
X589003911Y-359443366D01*
X589003910Y-359443366D01*
X588821839Y-359367950D01*
X588821829Y-359367947D01*
X588628543Y-359329500D01*
X588628541Y-359329500D01*
X588431459Y-359329500D01*
X588431457Y-359329500D01*
X588238170Y-359367947D01*
X588238160Y-359367950D01*
X588056089Y-359443366D01*
X587963890Y-359504971D01*
X587897213Y-359525848D01*
X587829833Y-359507363D01*
X587826110Y-359504971D01*
X587788019Y-359479520D01*
X587733914Y-359443368D01*
X587733911Y-359443366D01*
X587733910Y-359443366D01*
X587551839Y-359367950D01*
X587551829Y-359367947D01*
X587358543Y-359329500D01*
X587358541Y-359329500D01*
X587161459Y-359329500D01*
X587161457Y-359329500D01*
X586968170Y-359367947D01*
X586968160Y-359367950D01*
X586786089Y-359443366D01*
X586693890Y-359504971D01*
X586627213Y-359525848D01*
X586559833Y-359507363D01*
X586556110Y-359504971D01*
X586518019Y-359479520D01*
X586463914Y-359443368D01*
X586463911Y-359443366D01*
X586463910Y-359443366D01*
X586281839Y-359367950D01*
X586281829Y-359367947D01*
X586088543Y-359329500D01*
X586088541Y-359329500D01*
X585891459Y-359329500D01*
X585891457Y-359329500D01*
X585698170Y-359367947D01*
X585698160Y-359367950D01*
X585516089Y-359443366D01*
X585423890Y-359504971D01*
X585357213Y-359525848D01*
X585289833Y-359507363D01*
X585286110Y-359504971D01*
X585248019Y-359479520D01*
X585193914Y-359443368D01*
X585193911Y-359443366D01*
X585193910Y-359443366D01*
X585011839Y-359367950D01*
X585011829Y-359367947D01*
X584818543Y-359329500D01*
X584818541Y-359329500D01*
X584621459Y-359329500D01*
X584621457Y-359329500D01*
X584428170Y-359367947D01*
X584428160Y-359367950D01*
X584246089Y-359443366D01*
X584153890Y-359504971D01*
X584087213Y-359525848D01*
X584019833Y-359507363D01*
X584016110Y-359504971D01*
X583978019Y-359479520D01*
X583923914Y-359443368D01*
X583923911Y-359443366D01*
X583923910Y-359443366D01*
X583741839Y-359367950D01*
X583741829Y-359367947D01*
X583548543Y-359329500D01*
X583548541Y-359329500D01*
X583351459Y-359329500D01*
X583351457Y-359329500D01*
X583158170Y-359367947D01*
X583158160Y-359367950D01*
X582976089Y-359443366D01*
X582883890Y-359504971D01*
X582817213Y-359525848D01*
X582749833Y-359507363D01*
X582746110Y-359504971D01*
X582708019Y-359479520D01*
X582653914Y-359443368D01*
X582653911Y-359443366D01*
X582653910Y-359443366D01*
X582471839Y-359367950D01*
X582471829Y-359367947D01*
X582278543Y-359329500D01*
X582278541Y-359329500D01*
X582081459Y-359329500D01*
X582081457Y-359329500D01*
X581888170Y-359367947D01*
X581888160Y-359367950D01*
X581706092Y-359443364D01*
X581706079Y-359443371D01*
X581542218Y-359552860D01*
X581542214Y-359552863D01*
X581402863Y-359692214D01*
X581402860Y-359692218D01*
X581293371Y-359856079D01*
X581293364Y-359856092D01*
X581217950Y-360038160D01*
X581217947Y-360038170D01*
X581201784Y-360119426D01*
X581169398Y-360181337D01*
X581167848Y-360182915D01*
X580731286Y-360619478D01*
X580619481Y-360731282D01*
X580619480Y-360731284D01*
X580579519Y-360800500D01*
X580569361Y-360818094D01*
X580569359Y-360818096D01*
X580540425Y-360868209D01*
X580540424Y-360868210D01*
X580524870Y-360926260D01*
X580499499Y-361020943D01*
X580499499Y-361179057D01*
X580499499Y-361179059D01*
X580499500Y-361189053D01*
X580499500Y-371413330D01*
X580499499Y-371413348D01*
X580499499Y-371579054D01*
X580499498Y-371579054D01*
X576500500Y-371579054D01*
X576500500Y-350260258D01*
X581749500Y-350260258D01*
X581749500Y-350489741D01*
X581759898Y-350568716D01*
X581779452Y-350717238D01*
X581838842Y-350938887D01*
X581926650Y-351150876D01*
X581926657Y-351150890D01*
X582041392Y-351349617D01*
X582181081Y-351531661D01*
X582181089Y-351531670D01*
X582343330Y-351693911D01*
X582343338Y-351693918D01*
X582525382Y-351833607D01*
X582525385Y-351833608D01*
X582525388Y-351833611D01*
X582724112Y-351948344D01*
X582724117Y-351948346D01*
X582724123Y-351948349D01*
X582815480Y-351986190D01*
X582936113Y-352036158D01*
X583106037Y-352081688D01*
X583111217Y-352084846D01*
X583117272Y-352085279D01*
X583140699Y-352102816D01*
X583165693Y-352118050D01*
X583168345Y-352123510D01*
X583173206Y-352127149D01*
X583183434Y-352154571D01*
X583196223Y-352180897D01*
X583195502Y-352186924D01*
X583197624Y-352192613D01*
X583191403Y-352221209D01*
X583187929Y-352250273D01*
X583183732Y-352256472D01*
X583182773Y-352260886D01*
X583161623Y-352289141D01*
X583131286Y-352319478D01*
X583019481Y-352431282D01*
X583019479Y-352431285D01*
X582969361Y-352518094D01*
X582969359Y-352518096D01*
X582940425Y-352568209D01*
X582940424Y-352568210D01*
X582940423Y-352568215D01*
X582899499Y-352720943D01*
X582899499Y-352720945D01*
X582899499Y-352889046D01*
X582899500Y-352889059D01*
X582899500Y-353446153D01*
X582879815Y-353513192D01*
X582827011Y-353558947D01*
X582822963Y-353560709D01*
X582724112Y-353601656D01*
X582724109Y-353601657D01*
X582724101Y-353601661D01*
X582525382Y-353716392D01*
X582343338Y-353856081D01*
X582181081Y-354018338D01*
X582041392Y-354200382D01*
X581926657Y-354399109D01*
X581926650Y-354399123D01*
X581838842Y-354611112D01*
X581824087Y-354666181D01*
X581788097Y-354800500D01*
X581779453Y-354832759D01*
X581779451Y-354832770D01*
X581749500Y-355060258D01*
X581749500Y-355289741D01*
X581768248Y-355432135D01*
X581779452Y-355517238D01*
X581829283Y-355703211D01*
X581838842Y-355738887D01*
X581926650Y-355950876D01*
X581926655Y-355950886D01*
X581926656Y-355950888D01*
X582032085Y-356133497D01*
X582041392Y-356149617D01*
X582181081Y-356331661D01*
X582181089Y-356331670D01*
X582343330Y-356493911D01*
X582343338Y-356493918D01*
X582525382Y-356633607D01*
X582525385Y-356633608D01*
X582525388Y-356633611D01*
X582724112Y-356748344D01*
X582724117Y-356748346D01*
X582724123Y-356748349D01*
X582815480Y-356786190D01*
X582936113Y-356836158D01*
X583157762Y-356895548D01*
X583385266Y-356925500D01*
X583385273Y-356925500D01*
X583614727Y-356925500D01*
X583614734Y-356925500D01*
X583842238Y-356895548D01*
X584063887Y-356836158D01*
X584275888Y-356748344D01*
X584474612Y-356633611D01*
X584656661Y-356493919D01*
X584656665Y-356493914D01*
X584656670Y-356493911D01*
X584818911Y-356331670D01*
X584818914Y-356331665D01*
X584818919Y-356331661D01*
X584958611Y-356149612D01*
X585073344Y-355950888D01*
X585161158Y-355738887D01*
X585220548Y-355517238D01*
X585250500Y-355289734D01*
X585250500Y-355060266D01*
X585220548Y-354832762D01*
X585161158Y-354611113D01*
X585123895Y-354521153D01*
X587999500Y-354521153D01*
X587999500Y-354678846D01*
X588030261Y-354833489D01*
X588030264Y-354833501D01*
X588090602Y-354979172D01*
X588090609Y-354979185D01*
X588178210Y-355110288D01*
X588178213Y-355110292D01*
X588289707Y-355221786D01*
X588289711Y-355221789D01*
X588420814Y-355309390D01*
X588420827Y-355309397D01*
X588566498Y-355369735D01*
X588566503Y-355369737D01*
X588721153Y-355400499D01*
X588721156Y-355400500D01*
X588721158Y-355400500D01*
X588878844Y-355400500D01*
X588878845Y-355400499D01*
X589033497Y-355369737D01*
X589179179Y-355309394D01*
X589310289Y-355221789D01*
X589421789Y-355110289D01*
X589509394Y-354979179D01*
X589569737Y-354833497D01*
X589600500Y-354678842D01*
X589600500Y-354521158D01*
X589600500Y-354521155D01*
X589600499Y-354521153D01*
X589586246Y-354449500D01*
X589569737Y-354366503D01*
X589569735Y-354366498D01*
X589509397Y-354220827D01*
X589509390Y-354220814D01*
X589421789Y-354089711D01*
X589421786Y-354089707D01*
X589310292Y-353978213D01*
X589310288Y-353978210D01*
X589179185Y-353890609D01*
X589179172Y-353890602D01*
X589033501Y-353830264D01*
X589033489Y-353830261D01*
X588878845Y-353799500D01*
X588878842Y-353799500D01*
X588721158Y-353799500D01*
X588721155Y-353799500D01*
X588566510Y-353830261D01*
X588566498Y-353830264D01*
X588420827Y-353890602D01*
X588420814Y-353890609D01*
X588289711Y-353978210D01*
X588289707Y-353978213D01*
X588178213Y-354089707D01*
X588178210Y-354089711D01*
X588090609Y-354220814D01*
X588090602Y-354220827D01*
X588030264Y-354366498D01*
X588030261Y-354366510D01*
X587999500Y-354521153D01*
X585123895Y-354521153D01*
X585097365Y-354457104D01*
X585073349Y-354399123D01*
X585073346Y-354399117D01*
X585073344Y-354399112D01*
X584958611Y-354200388D01*
X584958608Y-354200385D01*
X584958607Y-354200382D01*
X584827867Y-354030000D01*
X584818919Y-354018339D01*
X584818918Y-354018338D01*
X584818911Y-354018330D01*
X584656670Y-353856089D01*
X584656661Y-353856081D01*
X584474617Y-353716392D01*
X584275898Y-353601661D01*
X584275893Y-353601659D01*
X584275888Y-353601656D01*
X584177045Y-353560713D01*
X584122643Y-353516872D01*
X584100579Y-353450577D01*
X584100500Y-353446153D01*
X584100500Y-353100097D01*
X584120185Y-353033058D01*
X584136819Y-353012416D01*
X592612417Y-344536819D01*
X592673740Y-344503334D01*
X592700098Y-344500500D01*
X593020234Y-344500500D01*
X593087273Y-344520185D01*
X593089125Y-344521398D01*
X593220814Y-344609390D01*
X593220827Y-344609397D01*
X593337812Y-344657853D01*
X593366503Y-344669737D01*
X593455071Y-344687354D01*
X593498690Y-344696031D01*
X593526818Y-344710744D01*
X593555700Y-344723934D01*
X593557557Y-344726823D01*
X593560601Y-344728416D01*
X593576309Y-344756002D01*
X593593476Y-344782712D01*
X593594136Y-344787307D01*
X593595175Y-344789131D01*
X593598499Y-344817646D01*
X593598499Y-344880057D01*
X593598499Y-344880059D01*
X593598500Y-344890053D01*
X593598500Y-358912330D01*
X593598499Y-358912348D01*
X593598499Y-359078054D01*
X593598498Y-359078054D01*
X593639423Y-359230786D01*
X593639424Y-359230787D01*
X593656046Y-359259577D01*
X593718481Y-359367717D01*
X593837349Y-359486585D01*
X593837355Y-359486590D01*
X597438583Y-363087819D01*
X597472068Y-363149142D01*
X597467084Y-363218834D01*
X597425212Y-363274767D01*
X597359748Y-363299184D01*
X597350902Y-363299500D01*
X595500098Y-363299500D01*
X595433059Y-363279815D01*
X595412417Y-363263181D01*
X593136819Y-360987583D01*
X593103334Y-360926260D01*
X593100500Y-360899902D01*
X593100500Y-356479765D01*
X593120185Y-356412726D01*
X593121398Y-356410874D01*
X593209390Y-356279185D01*
X593209390Y-356279184D01*
X593209394Y-356279179D01*
X593269737Y-356133497D01*
X593300500Y-355978842D01*
X593300500Y-355821158D01*
X593300500Y-355821155D01*
X593300499Y-355821153D01*
X593278858Y-355712357D01*
X593269737Y-355666503D01*
X593269391Y-355665667D01*
X593209397Y-355520827D01*
X593209390Y-355520814D01*
X593121789Y-355389711D01*
X593121786Y-355389707D01*
X593010292Y-355278213D01*
X593010288Y-355278210D01*
X592879185Y-355190609D01*
X592879172Y-355190602D01*
X592733501Y-355130264D01*
X592733489Y-355130261D01*
X592578845Y-355099500D01*
X592578842Y-355099500D01*
X592421158Y-355099500D01*
X592421155Y-355099500D01*
X592266510Y-355130261D01*
X592266498Y-355130264D01*
X592120827Y-355190602D01*
X592120814Y-355190609D01*
X591989711Y-355278210D01*
X591989707Y-355278213D01*
X591878213Y-355389707D01*
X591878210Y-355389711D01*
X591790609Y-355520814D01*
X591790602Y-355520827D01*
X591730264Y-355666498D01*
X591730261Y-355666510D01*
X591699500Y-355821153D01*
X591699500Y-355978846D01*
X591730261Y-356133489D01*
X591730264Y-356133501D01*
X591790602Y-356279172D01*
X591790609Y-356279185D01*
X591878602Y-356410874D01*
X591899480Y-356477551D01*
X591899500Y-356479765D01*
X591899500Y-361113330D01*
X591899499Y-361113348D01*
X591899499Y-361279054D01*
X591899498Y-361279054D01*
X591905245Y-361300500D01*
X591940423Y-361431785D01*
X591967786Y-361479179D01*
X591967786Y-361479180D01*
X592019475Y-361568709D01*
X592019481Y-361568717D01*
X592138349Y-361687585D01*
X592138354Y-361687589D01*
X594831284Y-364380520D01*
X594831286Y-364380521D01*
X594831290Y-364380524D01*
X594914108Y-364428338D01*
X594968216Y-364459577D01*
X595120943Y-364500501D01*
X595120945Y-364500501D01*
X595286654Y-364500501D01*
X595286670Y-364500500D01*
X597420234Y-364500500D01*
X597487273Y-364520185D01*
X597489125Y-364521398D01*
X597620814Y-364609390D01*
X597620827Y-364609397D01*
X597766498Y-364669735D01*
X597766503Y-364669737D01*
X597921153Y-364700499D01*
X597921156Y-364700500D01*
X597921158Y-364700500D01*
X598078844Y-364700500D01*
X598078845Y-364700499D01*
X598233497Y-364669737D01*
X598379179Y-364609394D01*
X598510289Y-364521789D01*
X598603741Y-364428336D01*
X598665062Y-364394853D01*
X598734754Y-364399837D01*
X598779102Y-364428338D01*
X599031284Y-364680520D01*
X599031286Y-364680521D01*
X599031290Y-364680524D01*
X599168209Y-364759573D01*
X599168212Y-364759575D01*
X599168216Y-364759577D01*
X599320943Y-364800501D01*
X599320945Y-364800501D01*
X599486654Y-364800501D01*
X599486670Y-364800500D01*
X606463331Y-364800500D01*
X606463347Y-364800501D01*
X606470943Y-364800501D01*
X606629054Y-364800501D01*
X606629057Y-364800501D01*
X606781785Y-364759577D01*
X606848912Y-364720821D01*
X606918716Y-364680520D01*
X606968787Y-364630448D01*
X606976010Y-364625067D01*
X607000666Y-364615933D01*
X607023740Y-364603334D01*
X607039150Y-364601677D01*
X607041529Y-364600796D01*
X607043438Y-364601215D01*
X607050098Y-364600500D01*
X607128844Y-364600500D01*
X607128845Y-364600499D01*
X607283497Y-364569737D01*
X607429179Y-364509394D01*
X607560289Y-364421789D01*
X607671789Y-364310289D01*
X607759394Y-364179179D01*
X607819737Y-364033497D01*
X607850500Y-363878842D01*
X607850500Y-363721158D01*
X607850500Y-363721155D01*
X607850499Y-363721153D01*
X607819737Y-363566503D01*
X607782043Y-363475500D01*
X607759397Y-363420827D01*
X607759390Y-363420814D01*
X607671789Y-363289711D01*
X607671786Y-363289707D01*
X607560292Y-363178213D01*
X607560288Y-363178210D01*
X607429185Y-363090609D01*
X607429172Y-363090602D01*
X607283501Y-363030264D01*
X607283489Y-363030261D01*
X607128845Y-362999500D01*
X607128842Y-362999500D01*
X606971158Y-362999500D01*
X606971155Y-362999500D01*
X606816510Y-363030261D01*
X606816498Y-363030264D01*
X606670827Y-363090602D01*
X606670814Y-363090609D01*
X606539711Y-363178210D01*
X606539707Y-363178213D01*
X606428213Y-363289707D01*
X606428210Y-363289711D01*
X606340609Y-363420814D01*
X606340602Y-363420827D01*
X606298302Y-363522952D01*
X606254462Y-363577356D01*
X606188167Y-363599421D01*
X606183741Y-363599500D01*
X605324500Y-363599500D01*
X605257461Y-363579815D01*
X605211706Y-363527011D01*
X605200500Y-363475500D01*
X605200500Y-363321155D01*
X605200499Y-363321153D01*
X605191272Y-363274767D01*
X605169737Y-363166503D01*
X605138298Y-363090602D01*
X605109397Y-363020827D01*
X605109388Y-363020811D01*
X605106598Y-363016635D01*
X605085718Y-362949958D01*
X605104201Y-362882578D01*
X605122018Y-362860060D01*
X605171786Y-362810292D01*
X605171789Y-362810289D01*
X605259394Y-362679179D01*
X605319737Y-362533497D01*
X605350500Y-362378842D01*
X605350500Y-362221158D01*
X605340324Y-362170000D01*
X623147106Y-362170000D01*
X623949980Y-362170000D01*
X623932763Y-362179940D01*
X623876908Y-362235795D01*
X623837412Y-362304204D01*
X623816968Y-362380504D01*
X623816968Y-362459496D01*
X623837412Y-362535796D01*
X623876908Y-362604205D01*
X623932763Y-362660060D01*
X623949980Y-362670000D01*
X623147106Y-362670000D01*
X623155398Y-362711690D01*
X623155398Y-362711692D01*
X623230775Y-362893671D01*
X623230782Y-362893684D01*
X623340216Y-363057462D01*
X623340219Y-363057466D01*
X623479501Y-363196748D01*
X623479505Y-363196751D01*
X623643283Y-363306185D01*
X623643296Y-363306192D01*
X623825274Y-363381569D01*
X623825286Y-363381572D01*
X624018472Y-363419999D01*
X624018476Y-363420000D01*
X624416968Y-363420000D01*
X624416968Y-362720000D01*
X624916968Y-362720000D01*
X624916968Y-363420000D01*
X625315460Y-363420000D01*
X625315463Y-363419999D01*
X625508649Y-363381572D01*
X625508661Y-363381569D01*
X625690639Y-363306192D01*
X625690652Y-363306185D01*
X625854430Y-363196751D01*
X625854434Y-363196748D01*
X625993716Y-363057466D01*
X625993719Y-363057462D01*
X626103153Y-362893684D01*
X626103160Y-362893671D01*
X626178537Y-362711692D01*
X626178537Y-362711690D01*
X626186830Y-362670000D01*
X625383956Y-362670000D01*
X625401173Y-362660060D01*
X625457028Y-362604205D01*
X625496524Y-362535796D01*
X625516968Y-362459496D01*
X625516968Y-362380504D01*
X625496524Y-362304204D01*
X625457028Y-362235795D01*
X625401173Y-362179940D01*
X625383956Y-362170000D01*
X626186830Y-362170000D01*
X627497106Y-362170000D01*
X628299980Y-362170000D01*
X628282763Y-362179940D01*
X628226908Y-362235795D01*
X628187412Y-362304204D01*
X628166968Y-362380504D01*
X628166968Y-362459496D01*
X628187412Y-362535796D01*
X628226908Y-362604205D01*
X628282763Y-362660060D01*
X628299980Y-362670000D01*
X627497106Y-362670000D01*
X627505398Y-362711690D01*
X627505398Y-362711692D01*
X627580775Y-362893671D01*
X627580782Y-362893684D01*
X627690216Y-363057462D01*
X627690219Y-363057466D01*
X627829501Y-363196748D01*
X627829505Y-363196751D01*
X627993283Y-363306185D01*
X627993296Y-363306192D01*
X628175274Y-363381569D01*
X628175286Y-363381572D01*
X628368472Y-363419999D01*
X628368476Y-363420000D01*
X628616968Y-363420000D01*
X628616968Y-362720000D01*
X629116968Y-362720000D01*
X629116968Y-363420000D01*
X629365460Y-363420000D01*
X629365463Y-363419999D01*
X629558649Y-363381572D01*
X629558661Y-363381569D01*
X629740639Y-363306192D01*
X629740652Y-363306185D01*
X629904430Y-363196751D01*
X629904434Y-363196748D01*
X630043716Y-363057466D01*
X630043719Y-363057462D01*
X630153153Y-362893684D01*
X630153160Y-362893671D01*
X630228537Y-362711692D01*
X630228537Y-362711690D01*
X630236830Y-362670000D01*
X629433956Y-362670000D01*
X629451173Y-362660060D01*
X629507028Y-362604205D01*
X629546524Y-362535796D01*
X629566968Y-362459496D01*
X629566968Y-362380504D01*
X629546524Y-362304204D01*
X629507028Y-362235795D01*
X629451173Y-362179940D01*
X629433956Y-362170000D01*
X630236830Y-362170000D01*
X630228537Y-362128309D01*
X630228537Y-362128307D01*
X630153160Y-361946328D01*
X630153153Y-361946315D01*
X630043719Y-361782537D01*
X630043716Y-361782533D01*
X629904434Y-361643251D01*
X629904430Y-361643248D01*
X629740652Y-361533814D01*
X629740639Y-361533807D01*
X629558661Y-361458430D01*
X629558649Y-361458427D01*
X629365463Y-361420000D01*
X629116968Y-361420000D01*
X629116968Y-362120000D01*
X628616968Y-362120000D01*
X628616968Y-361420000D01*
X628368472Y-361420000D01*
X628175286Y-361458427D01*
X628175274Y-361458430D01*
X627993296Y-361533807D01*
X627993283Y-361533814D01*
X627829505Y-361643248D01*
X627829501Y-361643251D01*
X627690219Y-361782533D01*
X627690216Y-361782537D01*
X627580782Y-361946315D01*
X627580775Y-361946328D01*
X627505398Y-362128307D01*
X627505398Y-362128309D01*
X627497106Y-362170000D01*
X626186830Y-362170000D01*
X626178537Y-362128309D01*
X626178537Y-362128307D01*
X626103160Y-361946328D01*
X626103153Y-361946315D01*
X625993719Y-361782537D01*
X625993716Y-361782533D01*
X625854434Y-361643251D01*
X625854430Y-361643248D01*
X625690648Y-361533812D01*
X625685303Y-361530955D01*
X625635457Y-361481994D01*
X625619995Y-361413857D01*
X625643824Y-361348177D01*
X625645380Y-361346105D01*
X625647474Y-361343373D01*
X625647483Y-361343365D01*
X625723249Y-361212135D01*
X625762468Y-361065766D01*
X625762468Y-360914234D01*
X625723249Y-360767865D01*
X625647483Y-360636635D01*
X625540333Y-360529485D01*
X625474718Y-360491602D01*
X625409104Y-360453719D01*
X625287582Y-360421158D01*
X625262734Y-360414500D01*
X625111202Y-360414500D01*
X624964831Y-360453719D01*
X624833603Y-360529485D01*
X624833600Y-360529487D01*
X624726455Y-360636632D01*
X624726453Y-360636635D01*
X624650687Y-360767863D01*
X624620863Y-360879172D01*
X624611468Y-360914234D01*
X624611468Y-361065766D01*
X624626478Y-361121786D01*
X624650687Y-361212136D01*
X624653283Y-361216632D01*
X624726453Y-361343365D01*
X624833603Y-361450515D01*
X624854968Y-361462850D01*
X624903184Y-361513417D01*
X624916968Y-361570237D01*
X624916968Y-362120000D01*
X624416968Y-362120000D01*
X624416968Y-361420000D01*
X624018472Y-361420000D01*
X623825286Y-361458427D01*
X623825274Y-361458430D01*
X623643296Y-361533807D01*
X623643283Y-361533814D01*
X623479505Y-361643248D01*
X623479501Y-361643251D01*
X623340219Y-361782533D01*
X623340216Y-361782537D01*
X623230782Y-361946315D01*
X623230775Y-361946328D01*
X623155398Y-362128307D01*
X623155398Y-362128309D01*
X623147106Y-362170000D01*
X605340324Y-362170000D01*
X605319737Y-362066503D01*
X605284807Y-361982175D01*
X605277339Y-361912709D01*
X605308614Y-361850229D01*
X605368703Y-361814577D01*
X605438528Y-361817070D01*
X605446821Y-361820164D01*
X605519406Y-361850229D01*
X605566503Y-361869737D01*
X605721153Y-361900499D01*
X605721156Y-361900500D01*
X605721158Y-361900500D01*
X605878844Y-361900500D01*
X605878845Y-361900499D01*
X606033497Y-361869737D01*
X606179179Y-361809394D01*
X606310289Y-361721789D01*
X606421789Y-361610289D01*
X606509394Y-361479179D01*
X606569737Y-361333497D01*
X606600500Y-361178842D01*
X606600500Y-361178840D01*
X606600637Y-361178152D01*
X606633021Y-361116241D01*
X606634573Y-361114661D01*
X606643713Y-361105521D01*
X606643716Y-361105520D01*
X606755520Y-360993716D01*
X606834577Y-360856784D01*
X606847140Y-360809896D01*
X606883503Y-360750239D01*
X606946350Y-360719709D01*
X607014366Y-360727431D01*
X607116498Y-360769735D01*
X607116503Y-360769737D01*
X607271153Y-360800499D01*
X607271156Y-360800500D01*
X607271158Y-360800500D01*
X607428844Y-360800500D01*
X607509331Y-360784490D01*
X607509331Y-360784489D01*
X607583497Y-360769737D01*
X607729179Y-360709394D01*
X607824501Y-360645702D01*
X607860875Y-360621398D01*
X607927553Y-360600520D01*
X607929766Y-360600500D01*
X608613331Y-360600500D01*
X608613347Y-360600501D01*
X608620943Y-360600501D01*
X608779054Y-360600501D01*
X608779057Y-360600501D01*
X608931785Y-360559577D01*
X608994211Y-360523535D01*
X609068716Y-360480520D01*
X609180520Y-360368716D01*
X609180520Y-360368714D01*
X609190724Y-360358511D01*
X609190728Y-360358506D01*
X611928081Y-357621153D01*
X615191468Y-357621153D01*
X615191468Y-357778846D01*
X615222229Y-357933489D01*
X615222232Y-357933501D01*
X615282570Y-358079172D01*
X615282577Y-358079185D01*
X615370570Y-358210874D01*
X615376220Y-358228920D01*
X615386445Y-358244830D01*
X615390896Y-358275789D01*
X615391448Y-358277551D01*
X615391468Y-358279765D01*
X615391468Y-358420234D01*
X615371783Y-358487273D01*
X615370570Y-358489125D01*
X615282577Y-358620814D01*
X615282570Y-358620827D01*
X615222232Y-358766498D01*
X615222229Y-358766510D01*
X615191468Y-358921153D01*
X615191468Y-359078846D01*
X615222229Y-359233489D01*
X615222232Y-359233501D01*
X615282570Y-359379172D01*
X615282577Y-359379185D01*
X615370178Y-359510288D01*
X615370181Y-359510292D01*
X615481675Y-359621786D01*
X615481679Y-359621789D01*
X615612782Y-359709390D01*
X615612795Y-359709397D01*
X615758466Y-359769735D01*
X615758471Y-359769737D01*
X615913121Y-359800499D01*
X615913124Y-359800500D01*
X615913126Y-359800500D01*
X616070812Y-359800500D01*
X616070813Y-359800499D01*
X616225465Y-359769737D01*
X616371147Y-359709394D01*
X616502257Y-359621789D01*
X616613757Y-359510289D01*
X616701362Y-359379179D01*
X616761705Y-359233497D01*
X616772710Y-359178167D01*
X616805093Y-359116258D01*
X616865809Y-359081683D01*
X616870086Y-359080752D01*
X616925465Y-359069737D01*
X617071147Y-359009394D01*
X617202257Y-358921789D01*
X617313757Y-358810289D01*
X617401362Y-358679179D01*
X617461705Y-358533497D01*
X617492468Y-358378842D01*
X617492468Y-358221158D01*
X617492468Y-358221155D01*
X617492467Y-358221153D01*
X617490306Y-358210289D01*
X617461705Y-358066503D01*
X617452689Y-358044737D01*
X617401365Y-357920827D01*
X617401361Y-357920820D01*
X617385302Y-357896786D01*
X617333252Y-357818888D01*
X617312376Y-357752214D01*
X617330860Y-357684834D01*
X617333225Y-357681152D01*
X617401362Y-357579179D01*
X617461705Y-357433497D01*
X617492468Y-357278842D01*
X617492468Y-357171153D01*
X620991468Y-357171153D01*
X620991468Y-357328846D01*
X621022229Y-357483489D01*
X621022232Y-357483501D01*
X621082570Y-357629172D01*
X621082577Y-357629185D01*
X621170570Y-357760874D01*
X621176220Y-357778920D01*
X621186445Y-357794830D01*
X621190896Y-357825789D01*
X621191448Y-357827551D01*
X621191468Y-357829765D01*
X621191468Y-357870234D01*
X621171783Y-357937273D01*
X621170570Y-357939125D01*
X621082577Y-358070814D01*
X621082570Y-358070827D01*
X621022232Y-358216498D01*
X621022229Y-358216510D01*
X620991468Y-358371153D01*
X620991468Y-358528846D01*
X621022229Y-358683489D01*
X621022232Y-358683501D01*
X621082570Y-358829172D01*
X621082577Y-358829185D01*
X621170178Y-358960288D01*
X621170181Y-358960292D01*
X621281675Y-359071786D01*
X621281679Y-359071789D01*
X621412782Y-359159390D01*
X621412795Y-359159397D01*
X621509614Y-359199500D01*
X621558471Y-359219737D01*
X621659108Y-359239755D01*
X621713121Y-359250499D01*
X621713124Y-359250500D01*
X621846419Y-359250500D01*
X621913458Y-359270185D01*
X621959213Y-359322989D01*
X621960980Y-359327047D01*
X621982572Y-359379176D01*
X621982577Y-359379185D01*
X622070178Y-359510288D01*
X622070181Y-359510292D01*
X622181675Y-359621786D01*
X622181679Y-359621789D01*
X622312782Y-359709390D01*
X622312795Y-359709397D01*
X622458466Y-359769735D01*
X622458471Y-359769737D01*
X622613121Y-359800499D01*
X622613124Y-359800500D01*
X622613126Y-359800500D01*
X622770812Y-359800500D01*
X622770813Y-359800499D01*
X622925465Y-359769737D01*
X623071147Y-359709394D01*
X623202257Y-359621789D01*
X623313757Y-359510289D01*
X623401362Y-359379179D01*
X623461705Y-359233497D01*
X623492468Y-359078842D01*
X623492468Y-358921158D01*
X623492468Y-358921155D01*
X623492467Y-358921153D01*
X623474172Y-358829179D01*
X623461705Y-358766503D01*
X623425537Y-358679185D01*
X623401365Y-358620827D01*
X623401358Y-358620814D01*
X623313366Y-358489125D01*
X623307715Y-358471078D01*
X623297491Y-358455169D01*
X623293039Y-358424207D01*
X623292488Y-358422447D01*
X623292468Y-358420234D01*
X623292468Y-358329765D01*
X623312153Y-358262726D01*
X623313366Y-358260874D01*
X623339904Y-358221158D01*
X623401362Y-358129179D01*
X623461705Y-357983497D01*
X623492468Y-357828842D01*
X623492468Y-357671158D01*
X623492468Y-357671155D01*
X623492467Y-357671153D01*
X623474172Y-357579179D01*
X623461705Y-357516503D01*
X623461703Y-357516498D01*
X623401365Y-357370827D01*
X623401358Y-357370814D01*
X623313757Y-357239711D01*
X623313754Y-357239707D01*
X623202260Y-357128213D01*
X623202256Y-357128210D01*
X623071153Y-357040609D01*
X623071140Y-357040602D01*
X622925469Y-356980264D01*
X622925457Y-356980261D01*
X622770813Y-356949500D01*
X622770810Y-356949500D01*
X622616806Y-356949500D01*
X622549767Y-356929815D01*
X622504012Y-356877011D01*
X622502246Y-356872954D01*
X622501366Y-356870830D01*
X622501364Y-356870827D01*
X622501362Y-356870821D01*
X622467957Y-356820827D01*
X622413757Y-356739710D01*
X622302260Y-356628213D01*
X622302256Y-356628210D01*
X622171153Y-356540609D01*
X622171140Y-356540602D01*
X622025469Y-356480264D01*
X622025457Y-356480261D01*
X621870813Y-356449500D01*
X621870810Y-356449500D01*
X621713126Y-356449500D01*
X621713123Y-356449500D01*
X621558478Y-356480261D01*
X621558466Y-356480264D01*
X621412795Y-356540602D01*
X621412782Y-356540609D01*
X621281679Y-356628210D01*
X621281675Y-356628213D01*
X621170181Y-356739707D01*
X621170178Y-356739711D01*
X621082577Y-356870814D01*
X621082570Y-356870827D01*
X621022232Y-357016498D01*
X621022229Y-357016510D01*
X620991468Y-357171153D01*
X617492468Y-357171153D01*
X617492468Y-357121158D01*
X617492468Y-357121155D01*
X617492467Y-357121153D01*
X617487213Y-357094738D01*
X617461705Y-356966503D01*
X617452875Y-356945185D01*
X617401365Y-356820827D01*
X617401358Y-356820814D01*
X617313757Y-356689711D01*
X617313754Y-356689707D01*
X617202260Y-356578213D01*
X617202256Y-356578210D01*
X617071153Y-356490609D01*
X617071140Y-356490602D01*
X616925469Y-356430264D01*
X616925457Y-356430261D01*
X616770813Y-356399500D01*
X616770810Y-356399500D01*
X616613126Y-356399500D01*
X616613123Y-356399500D01*
X616458478Y-356430261D01*
X616458466Y-356430264D01*
X616312795Y-356490602D01*
X616312782Y-356490609D01*
X616181679Y-356578210D01*
X616181675Y-356578213D01*
X616070181Y-356689707D01*
X616070178Y-356689711D01*
X615982577Y-356820814D01*
X615982571Y-356820826D01*
X615978656Y-356830278D01*
X615934814Y-356884681D01*
X615888288Y-356904440D01*
X615758476Y-356930261D01*
X615758466Y-356930264D01*
X615612795Y-356990602D01*
X615612782Y-356990609D01*
X615481679Y-357078210D01*
X615481675Y-357078213D01*
X615370181Y-357189707D01*
X615370178Y-357189711D01*
X615282577Y-357320814D01*
X615282570Y-357320827D01*
X615222232Y-357466498D01*
X615222229Y-357466510D01*
X615191468Y-357621153D01*
X611928081Y-357621153D01*
X613958506Y-355590728D01*
X613958511Y-355590724D01*
X613968714Y-355580520D01*
X613968716Y-355580520D01*
X614080520Y-355468716D01*
X614159577Y-355331784D01*
X614190008Y-355218215D01*
X614200500Y-355179058D01*
X614200500Y-355020943D01*
X614200500Y-354794168D01*
X614220185Y-354727129D01*
X614272989Y-354681374D01*
X614342147Y-354671430D01*
X614393392Y-354691067D01*
X614420812Y-354709389D01*
X614420827Y-354709397D01*
X614517612Y-354749486D01*
X614566503Y-354769737D01*
X614707630Y-354797809D01*
X614721153Y-354800499D01*
X614721156Y-354800500D01*
X614721158Y-354800500D01*
X614878844Y-354800500D01*
X614878845Y-354800499D01*
X615033497Y-354769737D01*
X615151592Y-354720821D01*
X615179172Y-354709397D01*
X615179172Y-354709396D01*
X615179179Y-354709394D01*
X615310289Y-354621789D01*
X615421789Y-354510289D01*
X615509394Y-354379179D01*
X615569737Y-354233497D01*
X615600500Y-354078842D01*
X615600500Y-353921158D01*
X615600500Y-353921155D01*
X615600499Y-353921153D01*
X615580278Y-353819496D01*
X615569737Y-353766503D01*
X615509394Y-353620821D01*
X615509393Y-353620819D01*
X615509392Y-353620817D01*
X615448709Y-353530000D01*
X623147106Y-353530000D01*
X623949980Y-353530000D01*
X623932763Y-353539940D01*
X623876908Y-353595795D01*
X623837412Y-353664204D01*
X623816968Y-353740504D01*
X623816968Y-353819496D01*
X623837412Y-353895796D01*
X623876908Y-353964205D01*
X623932763Y-354020060D01*
X623949980Y-354030000D01*
X623147106Y-354030000D01*
X623155398Y-354071690D01*
X623155398Y-354071692D01*
X623230775Y-354253671D01*
X623230782Y-354253684D01*
X623340216Y-354417462D01*
X623340219Y-354417466D01*
X623479501Y-354556748D01*
X623479505Y-354556751D01*
X623643283Y-354666185D01*
X623643296Y-354666192D01*
X623825274Y-354741569D01*
X623825286Y-354741572D01*
X624018472Y-354779999D01*
X624018476Y-354780000D01*
X624416968Y-354780000D01*
X624416968Y-354080000D01*
X624916968Y-354080000D01*
X624916968Y-354629762D01*
X624897283Y-354696801D01*
X624854971Y-354737148D01*
X624833601Y-354749486D01*
X624726453Y-354856635D01*
X624650687Y-354987863D01*
X624631287Y-355060266D01*
X624611468Y-355134234D01*
X624611468Y-355285766D01*
X624612531Y-355289734D01*
X624650687Y-355432136D01*
X624677844Y-355479172D01*
X624726453Y-355563365D01*
X624833603Y-355670515D01*
X624964833Y-355746281D01*
X625111202Y-355785500D01*
X625111204Y-355785500D01*
X625262732Y-355785500D01*
X625262734Y-355785500D01*
X625409103Y-355746281D01*
X625540333Y-355670515D01*
X625647483Y-355563365D01*
X625723249Y-355432135D01*
X625762468Y-355285766D01*
X625762468Y-355134234D01*
X625723249Y-354987865D01*
X625647483Y-354856635D01*
X625647481Y-354856633D01*
X625645380Y-354853895D01*
X625644324Y-354851165D01*
X625643419Y-354849597D01*
X625643663Y-354849455D01*
X625620182Y-354788727D01*
X625634217Y-354720282D01*
X625683029Y-354670290D01*
X625685314Y-354669037D01*
X625690658Y-354666181D01*
X625854430Y-354556751D01*
X625854434Y-354556748D01*
X625993716Y-354417466D01*
X625993719Y-354417462D01*
X626103153Y-354253684D01*
X626103160Y-354253671D01*
X626178537Y-354071692D01*
X626178537Y-354071690D01*
X626186830Y-354030000D01*
X625383956Y-354030000D01*
X625401173Y-354020060D01*
X625457028Y-353964205D01*
X625496524Y-353895796D01*
X625516968Y-353819496D01*
X625516968Y-353740504D01*
X625496524Y-353664204D01*
X625457028Y-353595795D01*
X625401173Y-353539940D01*
X625383956Y-353530000D01*
X626186830Y-353530000D01*
X627497106Y-353530000D01*
X628299980Y-353530000D01*
X628282763Y-353539940D01*
X628226908Y-353595795D01*
X628187412Y-353664204D01*
X628166968Y-353740504D01*
X628166968Y-353819496D01*
X628187412Y-353895796D01*
X628226908Y-353964205D01*
X628282763Y-354020060D01*
X628299980Y-354030000D01*
X627497106Y-354030000D01*
X627505398Y-354071690D01*
X627505398Y-354071692D01*
X627580775Y-354253671D01*
X627580782Y-354253684D01*
X627690216Y-354417462D01*
X627690219Y-354417466D01*
X627829501Y-354556748D01*
X627829505Y-354556751D01*
X627993283Y-354666185D01*
X627993296Y-354666192D01*
X628175274Y-354741569D01*
X628175286Y-354741572D01*
X628368472Y-354779999D01*
X628368476Y-354780000D01*
X628616968Y-354780000D01*
X628616968Y-354080000D01*
X629116968Y-354080000D01*
X629116968Y-354780000D01*
X629365460Y-354780000D01*
X629365463Y-354779999D01*
X629558649Y-354741572D01*
X629558661Y-354741569D01*
X629740639Y-354666192D01*
X629740652Y-354666185D01*
X629904430Y-354556751D01*
X629904434Y-354556748D01*
X630043716Y-354417466D01*
X630043719Y-354417462D01*
X630153153Y-354253684D01*
X630153160Y-354253671D01*
X630228537Y-354071692D01*
X630228537Y-354071690D01*
X630236830Y-354030000D01*
X629433956Y-354030000D01*
X629451173Y-354020060D01*
X629507028Y-353964205D01*
X629546524Y-353895796D01*
X629566968Y-353819496D01*
X629566968Y-353740504D01*
X629546524Y-353664204D01*
X629507028Y-353595795D01*
X629451173Y-353539940D01*
X629433956Y-353530000D01*
X630236830Y-353530000D01*
X630228537Y-353488309D01*
X630228537Y-353488307D01*
X630153160Y-353306328D01*
X630153153Y-353306315D01*
X630043719Y-353142537D01*
X630043716Y-353142533D01*
X629904434Y-353003251D01*
X629904430Y-353003248D01*
X629740652Y-352893814D01*
X629740639Y-352893807D01*
X629558661Y-352818430D01*
X629558649Y-352818427D01*
X629365463Y-352780000D01*
X629116968Y-352780000D01*
X629116968Y-353480000D01*
X628616968Y-353480000D01*
X628616968Y-352780000D01*
X628368472Y-352780000D01*
X628175286Y-352818427D01*
X628175274Y-352818430D01*
X627993296Y-352893807D01*
X627993283Y-352893814D01*
X627829505Y-353003248D01*
X627829501Y-353003251D01*
X627690219Y-353142533D01*
X627690216Y-353142537D01*
X627580782Y-353306315D01*
X627580775Y-353306328D01*
X627505398Y-353488307D01*
X627505398Y-353488309D01*
X627497106Y-353530000D01*
X626186830Y-353530000D01*
X626178537Y-353488309D01*
X626178537Y-353488307D01*
X626103160Y-353306328D01*
X626103153Y-353306315D01*
X625993719Y-353142537D01*
X625993716Y-353142533D01*
X625854434Y-353003251D01*
X625854430Y-353003248D01*
X625690652Y-352893814D01*
X625690639Y-352893807D01*
X625508661Y-352818430D01*
X625508649Y-352818427D01*
X625315463Y-352780000D01*
X624916968Y-352780000D01*
X624916968Y-353480000D01*
X624416968Y-353480000D01*
X624416968Y-352780000D01*
X624018472Y-352780000D01*
X623825286Y-352818427D01*
X623825274Y-352818430D01*
X623643296Y-352893807D01*
X623643283Y-352893814D01*
X623479505Y-353003248D01*
X623479501Y-353003251D01*
X623340219Y-353142533D01*
X623340216Y-353142537D01*
X623230782Y-353306315D01*
X623230775Y-353306328D01*
X623155398Y-353488307D01*
X623155398Y-353488309D01*
X623147106Y-353530000D01*
X615448709Y-353530000D01*
X615421789Y-353489711D01*
X615421786Y-353489707D01*
X615310291Y-353378212D01*
X615282563Y-353359685D01*
X615232542Y-353326262D01*
X615187738Y-353272652D01*
X615179031Y-353203327D01*
X615209185Y-353140299D01*
X615213733Y-353135500D01*
X617512416Y-350836819D01*
X617573739Y-350803334D01*
X617600097Y-350800500D01*
X628413331Y-350800500D01*
X628413347Y-350800501D01*
X628420943Y-350800501D01*
X628579054Y-350800501D01*
X628579057Y-350800501D01*
X628731785Y-350759577D01*
X628805118Y-350717238D01*
X628868716Y-350680520D01*
X628980520Y-350568716D01*
X628980520Y-350568714D01*
X628990724Y-350558511D01*
X628990728Y-350558506D01*
X630268713Y-349280521D01*
X630268716Y-349280520D01*
X630380520Y-349168716D01*
X630430639Y-349081904D01*
X630459577Y-349031785D01*
X630500501Y-348879057D01*
X630500501Y-348720943D01*
X630500501Y-348713348D01*
X630500500Y-348713330D01*
X630500500Y-328709059D01*
X630500501Y-328709046D01*
X630500501Y-328540945D01*
X630500501Y-328540943D01*
X630459577Y-328388215D01*
X630409926Y-328302218D01*
X630380520Y-328251284D01*
X630268716Y-328139480D01*
X630268715Y-328139479D01*
X630264385Y-328135149D01*
X630264374Y-328135139D01*
X618891416Y-316762181D01*
X618857931Y-316700858D01*
X618862915Y-316631166D01*
X618904787Y-316575233D01*
X618970251Y-316550816D01*
X618979097Y-316550500D01*
X619126286Y-316550500D01*
X619126287Y-316550500D01*
X619336243Y-316517246D01*
X619538412Y-316451557D01*
X619727816Y-316355051D01*
X619814138Y-316292335D01*
X619899786Y-316230109D01*
X619899788Y-316230106D01*
X619899792Y-316230104D01*
X620050104Y-316079792D01*
X620050106Y-316079788D01*
X620050109Y-316079786D01*
X620117515Y-315987007D01*
X620175051Y-315907816D01*
X620179793Y-315898508D01*
X620227763Y-315847711D01*
X620295583Y-315830911D01*
X620361719Y-315853445D01*
X620400763Y-315898500D01*
X620405373Y-315907547D01*
X620444728Y-315961716D01*
X621077036Y-315329407D01*
X621094075Y-315392993D01*
X621159901Y-315507007D01*
X621252993Y-315600099D01*
X621367007Y-315665925D01*
X621430590Y-315682962D01*
X620798282Y-316315269D01*
X620798282Y-316315270D01*
X620852449Y-316354624D01*
X621041782Y-316451095D01*
X621243870Y-316516757D01*
X621453754Y-316550000D01*
X621666246Y-316550000D01*
X621876127Y-316516757D01*
X621876130Y-316516757D01*
X622078217Y-316451095D01*
X622267554Y-316354622D01*
X622321716Y-316315270D01*
X622321717Y-316315270D01*
X621689408Y-315682962D01*
X621752993Y-315665925D01*
X621867007Y-315600099D01*
X621960099Y-315507007D01*
X622025925Y-315392993D01*
X622042962Y-315329409D01*
X622713181Y-315999628D01*
X622746666Y-316060951D01*
X622749500Y-316087300D01*
X622749500Y-316097865D01*
X622749501Y-316097876D01*
X622755908Y-316157483D01*
X622806202Y-316292328D01*
X622806206Y-316292335D01*
X622892452Y-316407544D01*
X622892455Y-316407547D01*
X623007664Y-316493793D01*
X623007671Y-316493797D01*
X623142517Y-316544091D01*
X623142516Y-316544091D01*
X623149444Y-316544835D01*
X623202127Y-316550500D01*
X624997872Y-316550499D01*
X625057483Y-316544091D01*
X625192331Y-316493796D01*
X625307546Y-316407546D01*
X625393796Y-316292331D01*
X625444091Y-316157483D01*
X625450500Y-316097873D01*
X625450499Y-314302128D01*
X625444091Y-314242517D01*
X625393796Y-314107669D01*
X625393795Y-314107668D01*
X625393793Y-314107664D01*
X625307547Y-313992455D01*
X625307544Y-313992452D01*
X625192335Y-313906206D01*
X625192328Y-313906202D01*
X625057482Y-313855908D01*
X625057483Y-313855908D01*
X624997883Y-313849501D01*
X624997881Y-313849500D01*
X624997873Y-313849500D01*
X624997864Y-313849500D01*
X623202129Y-313849500D01*
X623202123Y-313849501D01*
X623142516Y-313855908D01*
X623007671Y-313906202D01*
X623007664Y-313906206D01*
X622892455Y-313992452D01*
X622892452Y-313992455D01*
X622806206Y-314107664D01*
X622806202Y-314107671D01*
X622755908Y-314242517D01*
X622749501Y-314302116D01*
X622749501Y-314302123D01*
X622749500Y-314302135D01*
X622749500Y-314312690D01*
X622729815Y-314379729D01*
X622713181Y-314400371D01*
X622042962Y-315070590D01*
X622025925Y-315007007D01*
X621960099Y-314892993D01*
X621867007Y-314799901D01*
X621752993Y-314734075D01*
X621689409Y-314717037D01*
X622321716Y-314084728D01*
X622267550Y-314045375D01*
X622078217Y-313948904D01*
X621876129Y-313883242D01*
X621666246Y-313850000D01*
X621453754Y-313850000D01*
X621243872Y-313883242D01*
X621243869Y-313883242D01*
X621041782Y-313948904D01*
X620852439Y-314045380D01*
X620798282Y-314084727D01*
X620798282Y-314084728D01*
X621430591Y-314717037D01*
X621367007Y-314734075D01*
X621252993Y-314799901D01*
X621159901Y-314892993D01*
X621094075Y-315007007D01*
X621077037Y-315070591D01*
X620444728Y-314438282D01*
X620444727Y-314438282D01*
X620405380Y-314492440D01*
X620405376Y-314492446D01*
X620400760Y-314501505D01*
X620352781Y-314552297D01*
X620284959Y-314569087D01*
X620218826Y-314546543D01*
X620179794Y-314501493D01*
X620175051Y-314492184D01*
X620175049Y-314492181D01*
X620175048Y-314492179D01*
X620050109Y-314320213D01*
X619899786Y-314169890D01*
X619727820Y-314044951D01*
X619538414Y-313948444D01*
X619538413Y-313948443D01*
X619538412Y-313948443D01*
X619336243Y-313882754D01*
X619336241Y-313882753D01*
X619336240Y-313882753D01*
X619174957Y-313857208D01*
X619126287Y-313849500D01*
X618913713Y-313849500D01*
X618865042Y-313857208D01*
X618703760Y-313882753D01*
X618501585Y-313948444D01*
X618312179Y-314044951D01*
X618140213Y-314169890D01*
X617989890Y-314320213D01*
X617864949Y-314492182D01*
X617860484Y-314500946D01*
X617812509Y-314551742D01*
X617744688Y-314568536D01*
X617678553Y-314545998D01*
X617639516Y-314500946D01*
X617635050Y-314492182D01*
X617510109Y-314320213D01*
X617359786Y-314169890D01*
X617187820Y-314044951D01*
X616998414Y-313948444D01*
X616998413Y-313948443D01*
X616998412Y-313948443D01*
X616796243Y-313882754D01*
X616796241Y-313882753D01*
X616796240Y-313882753D01*
X616634957Y-313857208D01*
X616586287Y-313849500D01*
X616373713Y-313849500D01*
X616325042Y-313857208D01*
X616163760Y-313882753D01*
X615961585Y-313948444D01*
X615772179Y-314044951D01*
X615600213Y-314169890D01*
X615449890Y-314320213D01*
X615324949Y-314492182D01*
X615320484Y-314500946D01*
X615272509Y-314551742D01*
X615204688Y-314568536D01*
X615138553Y-314545998D01*
X615099516Y-314500946D01*
X615095050Y-314492182D01*
X614970109Y-314320213D01*
X614819786Y-314169890D01*
X614647820Y-314044951D01*
X614458414Y-313948444D01*
X614458413Y-313948443D01*
X614458412Y-313948443D01*
X614256243Y-313882754D01*
X614256241Y-313882753D01*
X614256240Y-313882753D01*
X614094957Y-313857208D01*
X614046287Y-313849500D01*
X613833713Y-313849500D01*
X613805006Y-313854046D01*
X613623757Y-313882753D01*
X613581473Y-313896492D01*
X613511632Y-313898486D01*
X613455476Y-313866241D01*
X613276590Y-313687355D01*
X613276588Y-313687352D01*
X613157717Y-313568481D01*
X613157716Y-313568480D01*
X613070904Y-313518360D01*
X613070904Y-313518359D01*
X613070900Y-313518358D01*
X613020785Y-313489423D01*
X612868057Y-313448499D01*
X612709943Y-313448499D01*
X612702347Y-313448499D01*
X612702331Y-313448500D01*
X605929910Y-313448500D01*
X605929894Y-313448499D01*
X605922298Y-313448499D01*
X605764183Y-313448499D01*
X605687819Y-313468961D01*
X605611454Y-313489423D01*
X605611449Y-313489426D01*
X605474530Y-313568475D01*
X605474522Y-313568481D01*
X603619480Y-315423523D01*
X603617009Y-315427803D01*
X603614711Y-315431785D01*
X603540423Y-315560455D01*
X603499499Y-315713183D01*
X603499499Y-315713185D01*
X603499499Y-315881286D01*
X603499500Y-315881299D01*
X603499500Y-344813444D01*
X603479815Y-344880483D01*
X603427011Y-344926238D01*
X603357853Y-344936182D01*
X603339575Y-344931202D01*
X603339324Y-344932031D01*
X603333500Y-344930264D01*
X603333497Y-344930263D01*
X603333492Y-344930262D01*
X603333489Y-344930261D01*
X603178845Y-344899500D01*
X603178842Y-344899500D01*
X603021158Y-344899500D01*
X603021155Y-344899500D01*
X602866510Y-344930261D01*
X602866498Y-344930264D01*
X602720827Y-344990602D01*
X602720814Y-344990609D01*
X602589125Y-345078602D01*
X602522447Y-345099480D01*
X602520234Y-345099500D01*
X595982940Y-345099500D01*
X595915901Y-345079815D01*
X595895263Y-345063185D01*
X595810289Y-344978211D01*
X595810288Y-344978210D01*
X595810287Y-344978209D01*
X595679185Y-344890609D01*
X595679172Y-344890602D01*
X595533501Y-344830264D01*
X595533489Y-344830261D01*
X595378845Y-344799500D01*
X595378842Y-344799500D01*
X595349096Y-344799500D01*
X595282057Y-344779815D01*
X595236302Y-344727011D01*
X595226358Y-344657853D01*
X595255383Y-344594297D01*
X595261415Y-344587819D01*
X595732845Y-344116389D01*
X598180520Y-341668716D01*
X598259577Y-341531784D01*
X598300501Y-341379057D01*
X598300501Y-341220942D01*
X598300501Y-341213347D01*
X598300500Y-341213329D01*
X598300500Y-340574499D01*
X598320185Y-340507460D01*
X598372989Y-340461705D01*
X598424500Y-340450499D01*
X598597871Y-340450499D01*
X598597872Y-340450499D01*
X598657483Y-340444091D01*
X598792331Y-340393796D01*
X598907546Y-340307546D01*
X598993796Y-340192331D01*
X599044091Y-340057483D01*
X599050500Y-339997873D01*
X599050499Y-338202128D01*
X599044091Y-338142517D01*
X599037702Y-338125388D01*
X598993797Y-338007671D01*
X598993793Y-338007664D01*
X598907547Y-337892455D01*
X598907544Y-337892452D01*
X598792335Y-337806206D01*
X598792328Y-337806202D01*
X598660917Y-337757189D01*
X598604983Y-337715318D01*
X598580566Y-337649853D01*
X598595418Y-337581580D01*
X598616563Y-337553332D01*
X598730104Y-337439792D01*
X598855051Y-337267816D01*
X598951557Y-337078412D01*
X599017246Y-336876243D01*
X599050500Y-336666287D01*
X599050500Y-336453713D01*
X599017246Y-336243757D01*
X598951557Y-336041588D01*
X598855051Y-335852184D01*
X598855049Y-335852181D01*
X598855048Y-335852179D01*
X598730109Y-335680213D01*
X598579786Y-335529890D01*
X598407820Y-335404951D01*
X598407115Y-335404591D01*
X598399054Y-335400485D01*
X598348259Y-335352512D01*
X598331463Y-335284692D01*
X598353999Y-335218556D01*
X598399054Y-335179515D01*
X598407816Y-335175051D01*
X598429789Y-335159086D01*
X598579786Y-335050109D01*
X598579788Y-335050106D01*
X598579792Y-335050104D01*
X598730104Y-334899792D01*
X598730106Y-334899788D01*
X598730109Y-334899786D01*
X598855048Y-334727820D01*
X598855047Y-334727820D01*
X598855051Y-334727816D01*
X598951557Y-334538412D01*
X599017246Y-334336243D01*
X599050500Y-334126287D01*
X599050500Y-333913713D01*
X599017246Y-333703757D01*
X598951557Y-333501588D01*
X598855051Y-333312184D01*
X598855049Y-333312181D01*
X598855048Y-333312179D01*
X598730109Y-333140213D01*
X598579786Y-332989890D01*
X598407820Y-332864951D01*
X598407115Y-332864591D01*
X598399054Y-332860485D01*
X598348259Y-332812512D01*
X598331463Y-332744692D01*
X598353999Y-332678556D01*
X598399054Y-332639515D01*
X598407816Y-332635051D01*
X598473839Y-332587083D01*
X598579786Y-332510109D01*
X598579788Y-332510106D01*
X598579792Y-332510104D01*
X598730104Y-332359792D01*
X598730106Y-332359788D01*
X598730109Y-332359786D01*
X598855048Y-332187820D01*
X598855047Y-332187820D01*
X598855051Y-332187816D01*
X598951557Y-331998412D01*
X599017246Y-331796243D01*
X599050500Y-331586287D01*
X599050500Y-331373713D01*
X599017246Y-331163757D01*
X598951557Y-330961588D01*
X598855051Y-330772184D01*
X598855049Y-330772181D01*
X598855048Y-330772179D01*
X598730109Y-330600213D01*
X598579786Y-330449890D01*
X598407820Y-330324951D01*
X598407115Y-330324591D01*
X598399054Y-330320485D01*
X598348259Y-330272512D01*
X598331463Y-330204692D01*
X598353999Y-330138556D01*
X598399054Y-330099515D01*
X598407816Y-330095051D01*
X598429789Y-330079086D01*
X598579786Y-329970109D01*
X598579788Y-329970106D01*
X598579792Y-329970104D01*
X598730104Y-329819792D01*
X598730106Y-329819788D01*
X598730109Y-329819786D01*
X598855048Y-329647820D01*
X598855047Y-329647820D01*
X598855051Y-329647816D01*
X598951557Y-329458412D01*
X599017246Y-329256243D01*
X599050500Y-329046287D01*
X599050500Y-328833713D01*
X599017246Y-328623757D01*
X598951557Y-328421588D01*
X598855051Y-328232184D01*
X598855049Y-328232181D01*
X598855048Y-328232179D01*
X598730109Y-328060213D01*
X598579786Y-327909890D01*
X598407820Y-327784951D01*
X598407115Y-327784591D01*
X598399054Y-327780485D01*
X598348259Y-327732512D01*
X598331463Y-327664692D01*
X598353999Y-327598556D01*
X598399054Y-327559515D01*
X598407816Y-327555051D01*
X598429789Y-327539086D01*
X598579786Y-327430109D01*
X598579788Y-327430106D01*
X598579792Y-327430104D01*
X598730104Y-327279792D01*
X598730106Y-327279788D01*
X598730109Y-327279786D01*
X598855048Y-327107820D01*
X598855047Y-327107820D01*
X598855051Y-327107816D01*
X598951557Y-326918412D01*
X599017246Y-326716243D01*
X599050500Y-326506287D01*
X599050500Y-326293713D01*
X599017246Y-326083757D01*
X598951557Y-325881588D01*
X598855051Y-325692184D01*
X598855049Y-325692181D01*
X598855048Y-325692179D01*
X598730109Y-325520213D01*
X598579786Y-325369890D01*
X598407820Y-325244951D01*
X598407115Y-325244591D01*
X598399054Y-325240485D01*
X598348259Y-325192512D01*
X598331463Y-325124692D01*
X598353999Y-325058556D01*
X598399054Y-325019515D01*
X598407816Y-325015051D01*
X598462572Y-324975269D01*
X598579786Y-324890109D01*
X598579788Y-324890106D01*
X598579792Y-324890104D01*
X598730104Y-324739792D01*
X598730106Y-324739788D01*
X598730109Y-324739786D01*
X598855048Y-324567820D01*
X598855047Y-324567820D01*
X598855051Y-324567816D01*
X598951557Y-324378412D01*
X599017246Y-324176243D01*
X599050500Y-323966287D01*
X599050500Y-323753713D01*
X599017246Y-323543757D01*
X598951557Y-323341588D01*
X598855051Y-323152184D01*
X598855049Y-323152181D01*
X598855048Y-323152179D01*
X598730109Y-322980213D01*
X598579786Y-322829890D01*
X598407820Y-322704951D01*
X598407115Y-322704591D01*
X598399054Y-322700485D01*
X598348259Y-322652512D01*
X598331463Y-322584692D01*
X598353999Y-322518556D01*
X598399054Y-322479515D01*
X598407816Y-322475051D01*
X598494138Y-322412335D01*
X598579786Y-322350109D01*
X598579788Y-322350106D01*
X598579792Y-322350104D01*
X598730104Y-322199792D01*
X598730106Y-322199788D01*
X598730109Y-322199786D01*
X598855048Y-322027820D01*
X598855047Y-322027820D01*
X598855051Y-322027816D01*
X598951557Y-321838412D01*
X599017246Y-321636243D01*
X599050500Y-321426287D01*
X599050500Y-321213713D01*
X599017246Y-321003757D01*
X598951557Y-320801588D01*
X598855051Y-320612184D01*
X598855049Y-320612181D01*
X598855048Y-320612179D01*
X598730109Y-320440213D01*
X598579786Y-320289890D01*
X598407820Y-320164951D01*
X598218414Y-320068444D01*
X598218413Y-320068443D01*
X598218412Y-320068443D01*
X598016243Y-320002754D01*
X598016241Y-320002753D01*
X598016240Y-320002753D01*
X597854957Y-319977208D01*
X597806287Y-319969500D01*
X597593713Y-319969500D01*
X597545042Y-319977208D01*
X597383760Y-320002753D01*
X597181585Y-320068444D01*
X596992179Y-320164951D01*
X596820213Y-320289890D01*
X596669890Y-320440213D01*
X596544951Y-320612179D01*
X596448444Y-320801585D01*
X596382753Y-321003760D01*
X596349500Y-321213713D01*
X596349500Y-321426286D01*
X596382753Y-321636239D01*
X596448444Y-321838414D01*
X596544951Y-322027820D01*
X596669890Y-322199786D01*
X596820213Y-322350109D01*
X596992182Y-322475050D01*
X597000946Y-322479516D01*
X597051742Y-322527491D01*
X597068536Y-322595312D01*
X597045998Y-322661447D01*
X597000946Y-322700484D01*
X596992182Y-322704949D01*
X596820213Y-322829890D01*
X596669890Y-322980213D01*
X596544951Y-323152179D01*
X596448444Y-323341585D01*
X596382753Y-323543760D01*
X596349500Y-323753713D01*
X596349500Y-323966286D01*
X596382753Y-324176239D01*
X596448444Y-324378414D01*
X596544951Y-324567820D01*
X596669890Y-324739786D01*
X596820213Y-324890109D01*
X596992182Y-325015050D01*
X597000946Y-325019516D01*
X597051742Y-325067491D01*
X597068536Y-325135312D01*
X597045998Y-325201447D01*
X597000946Y-325240484D01*
X596992182Y-325244949D01*
X596820213Y-325369890D01*
X596669890Y-325520213D01*
X596544951Y-325692179D01*
X596448444Y-325881585D01*
X596382753Y-326083760D01*
X596349500Y-326293713D01*
X596349500Y-326506286D01*
X596382753Y-326716239D01*
X596448444Y-326918414D01*
X596544951Y-327107820D01*
X596669890Y-327279786D01*
X596820213Y-327430109D01*
X596992182Y-327555050D01*
X597000946Y-327559516D01*
X597051742Y-327607491D01*
X597068536Y-327675312D01*
X597045998Y-327741447D01*
X597000946Y-327780484D01*
X596992182Y-327784949D01*
X596820213Y-327909890D01*
X596669890Y-328060213D01*
X596544951Y-328232179D01*
X596448444Y-328421585D01*
X596382753Y-328623760D01*
X596349500Y-328833713D01*
X596349500Y-329046286D01*
X596382753Y-329256239D01*
X596448444Y-329458414D01*
X596544951Y-329647820D01*
X596669890Y-329819786D01*
X596820213Y-329970109D01*
X596992182Y-330095050D01*
X597000946Y-330099516D01*
X597051742Y-330147491D01*
X597068536Y-330215312D01*
X597045998Y-330281447D01*
X597000946Y-330320484D01*
X596992182Y-330324949D01*
X596820213Y-330449890D01*
X596669890Y-330600213D01*
X596544951Y-330772179D01*
X596448444Y-330961585D01*
X596382753Y-331163760D01*
X596349500Y-331373713D01*
X596349500Y-331586286D01*
X596382754Y-331796244D01*
X596382754Y-331796247D01*
X596396491Y-331838523D01*
X596398486Y-331908364D01*
X596366241Y-331964522D01*
X595131286Y-333199478D01*
X595019481Y-333311282D01*
X595019475Y-333311290D01*
X594978527Y-333382216D01*
X594978527Y-333382218D01*
X594940423Y-333448214D01*
X594928651Y-333492147D01*
X594899499Y-333600943D01*
X594899499Y-333600945D01*
X594899499Y-333769046D01*
X594899500Y-333769059D01*
X594899500Y-340820234D01*
X594879815Y-340887273D01*
X594878602Y-340889125D01*
X594790609Y-341020814D01*
X594790602Y-341020827D01*
X594730264Y-341166498D01*
X594730261Y-341166510D01*
X594699500Y-341321153D01*
X594699500Y-341478846D01*
X594730261Y-341633489D01*
X594730264Y-341633501D01*
X594790602Y-341779172D01*
X594790609Y-341779185D01*
X594878210Y-341910288D01*
X594878213Y-341910292D01*
X594989707Y-342021786D01*
X594989711Y-342021789D01*
X595120814Y-342109390D01*
X595120827Y-342109397D01*
X595217646Y-342149500D01*
X595266503Y-342169737D01*
X595421153Y-342200499D01*
X595421156Y-342200500D01*
X595421158Y-342200500D01*
X595578844Y-342200500D01*
X595641569Y-342188023D01*
X595711161Y-342194250D01*
X595766338Y-342237113D01*
X595789583Y-342303002D01*
X595773515Y-342370999D01*
X595753442Y-342397321D01*
X594534504Y-343616258D01*
X594473181Y-343649743D01*
X594403489Y-343644759D01*
X594347556Y-343602887D01*
X594332262Y-343576029D01*
X594309397Y-343520827D01*
X594309390Y-343520814D01*
X594221789Y-343389711D01*
X594221786Y-343389707D01*
X594110292Y-343278213D01*
X594110288Y-343278210D01*
X593979185Y-343190609D01*
X593979172Y-343190602D01*
X593833501Y-343130264D01*
X593833489Y-343130261D01*
X593678845Y-343099500D01*
X593678842Y-343099500D01*
X593521158Y-343099500D01*
X593521155Y-343099500D01*
X593366510Y-343130261D01*
X593366498Y-343130264D01*
X593220827Y-343190602D01*
X593220814Y-343190609D01*
X593089125Y-343278602D01*
X593022447Y-343299480D01*
X593020234Y-343299500D01*
X592486670Y-343299500D01*
X592486654Y-343299499D01*
X592479058Y-343299499D01*
X592320943Y-343299499D01*
X592244579Y-343319961D01*
X592168214Y-343340423D01*
X592168209Y-343340426D01*
X592031290Y-343419475D01*
X592031282Y-343419481D01*
X585414142Y-350036621D01*
X585352819Y-350070106D01*
X585283127Y-350065122D01*
X585227194Y-350023250D01*
X585206689Y-349981039D01*
X585161158Y-349811113D01*
X585102441Y-349669359D01*
X585073349Y-349599123D01*
X585073346Y-349599117D01*
X585073344Y-349599112D01*
X584958611Y-349400388D01*
X584958608Y-349400385D01*
X584958607Y-349400382D01*
X584818918Y-349218338D01*
X584818911Y-349218330D01*
X584656670Y-349056089D01*
X584656661Y-349056081D01*
X584474617Y-348916392D01*
X584275890Y-348801657D01*
X584275876Y-348801650D01*
X584063887Y-348713842D01*
X584061976Y-348713330D01*
X583842238Y-348654452D01*
X583804215Y-348649446D01*
X583614741Y-348624500D01*
X583614734Y-348624500D01*
X583385266Y-348624500D01*
X583385258Y-348624500D01*
X583168715Y-348653009D01*
X583157762Y-348654452D01*
X583064076Y-348679554D01*
X582936112Y-348713842D01*
X582724123Y-348801650D01*
X582724109Y-348801657D01*
X582525382Y-348916392D01*
X582343338Y-349056081D01*
X582181081Y-349218338D01*
X582041392Y-349400382D01*
X581926657Y-349599109D01*
X581926650Y-349599123D01*
X581838842Y-349811112D01*
X581826635Y-349856670D01*
X581783162Y-350018918D01*
X581779453Y-350032759D01*
X581779451Y-350032770D01*
X581749500Y-350260258D01*
X576500500Y-350260258D01*
X576500500Y-345460258D01*
X581749500Y-345460258D01*
X581749500Y-345689741D01*
X581766678Y-345820213D01*
X581779452Y-345917238D01*
X581833303Y-346118215D01*
X581838842Y-346138887D01*
X581926650Y-346350876D01*
X581926657Y-346350890D01*
X582041392Y-346549617D01*
X582181081Y-346731661D01*
X582181089Y-346731670D01*
X582343330Y-346893911D01*
X582343338Y-346893918D01*
X582525382Y-347033607D01*
X582525385Y-347033608D01*
X582525388Y-347033611D01*
X582724112Y-347148344D01*
X582724117Y-347148346D01*
X582724123Y-347148349D01*
X582815480Y-347186190D01*
X582936113Y-347236158D01*
X583157762Y-347295548D01*
X583385266Y-347325500D01*
X583385273Y-347325500D01*
X583614727Y-347325500D01*
X583614734Y-347325500D01*
X583842238Y-347295548D01*
X584063887Y-347236158D01*
X584275888Y-347148344D01*
X584474612Y-347033611D01*
X584656661Y-346893919D01*
X584656665Y-346893914D01*
X584656670Y-346893911D01*
X584818911Y-346731670D01*
X584818914Y-346731665D01*
X584818919Y-346731661D01*
X584958611Y-346549612D01*
X585073344Y-346350888D01*
X585161158Y-346138887D01*
X585220548Y-345917238D01*
X585250500Y-345689734D01*
X585250500Y-345460266D01*
X585220548Y-345232762D01*
X585161158Y-345011113D01*
X585086248Y-344830264D01*
X585073349Y-344799123D01*
X585073346Y-344799117D01*
X585073344Y-344799112D01*
X584958611Y-344600388D01*
X584958608Y-344600385D01*
X584958607Y-344600382D01*
X584818918Y-344418338D01*
X584818911Y-344418330D01*
X584656670Y-344256089D01*
X584656661Y-344256081D01*
X584474617Y-344116392D01*
X584275890Y-344001657D01*
X584275876Y-344001650D01*
X584063887Y-343913842D01*
X583842238Y-343854452D01*
X583804215Y-343849446D01*
X583614741Y-343824500D01*
X583614734Y-343824500D01*
X583385266Y-343824500D01*
X583385258Y-343824500D01*
X583168715Y-343853009D01*
X583157762Y-343854452D01*
X583064076Y-343879554D01*
X582936112Y-343913842D01*
X582724123Y-344001650D01*
X582724109Y-344001657D01*
X582525382Y-344116392D01*
X582343338Y-344256081D01*
X582181081Y-344418338D01*
X582041392Y-344600382D01*
X581926657Y-344799109D01*
X581926650Y-344799123D01*
X581838842Y-345011112D01*
X581817782Y-345089711D01*
X581783162Y-345218918D01*
X581779453Y-345232759D01*
X581779451Y-345232770D01*
X581749500Y-345460258D01*
X576500500Y-345460258D01*
X576500500Y-320422135D01*
X579549500Y-320422135D01*
X579549500Y-322217870D01*
X579549501Y-322217876D01*
X579555908Y-322277483D01*
X579606202Y-322412328D01*
X579606206Y-322412335D01*
X579692452Y-322527544D01*
X579692455Y-322527547D01*
X579807664Y-322613793D01*
X579807671Y-322613797D01*
X579852618Y-322630561D01*
X579942517Y-322664091D01*
X580002127Y-322670500D01*
X580012685Y-322670499D01*
X580079723Y-322690179D01*
X580100372Y-322706818D01*
X580770591Y-323377037D01*
X580707007Y-323394075D01*
X580592993Y-323459901D01*
X580499901Y-323552993D01*
X580434075Y-323667007D01*
X580417037Y-323730590D01*
X579784728Y-323098282D01*
X579784727Y-323098282D01*
X579745380Y-323152439D01*
X579648904Y-323341782D01*
X579583242Y-323543869D01*
X579583242Y-323543872D01*
X579550000Y-323753753D01*
X579550000Y-323966246D01*
X579583242Y-324176127D01*
X579583242Y-324176130D01*
X579648904Y-324378217D01*
X579745375Y-324567550D01*
X579784728Y-324621716D01*
X580417037Y-323989408D01*
X580434075Y-324052993D01*
X580499901Y-324167007D01*
X580592993Y-324260099D01*
X580707007Y-324325925D01*
X580770590Y-324342962D01*
X580138282Y-324975269D01*
X580138282Y-324975270D01*
X580192452Y-325014626D01*
X580192451Y-325014626D01*
X580201495Y-325019234D01*
X580252292Y-325067208D01*
X580269087Y-325135029D01*
X580246550Y-325201164D01*
X580201499Y-325240202D01*
X580192182Y-325244949D01*
X580020213Y-325369890D01*
X579869890Y-325520213D01*
X579744951Y-325692179D01*
X579648444Y-325881585D01*
X579582753Y-326083760D01*
X579549500Y-326293713D01*
X579549500Y-326506286D01*
X579582753Y-326716239D01*
X579648444Y-326918414D01*
X579744951Y-327107820D01*
X579869890Y-327279786D01*
X580020213Y-327430109D01*
X580192182Y-327555050D01*
X580200946Y-327559516D01*
X580251742Y-327607491D01*
X580268536Y-327675312D01*
X580245998Y-327741447D01*
X580200946Y-327780484D01*
X580192182Y-327784949D01*
X580020213Y-327909890D01*
X579869890Y-328060213D01*
X579744951Y-328232179D01*
X579648444Y-328421585D01*
X579582753Y-328623760D01*
X579549500Y-328833713D01*
X579549500Y-329046286D01*
X579582753Y-329256239D01*
X579648444Y-329458414D01*
X579744951Y-329647820D01*
X579869890Y-329819786D01*
X580020213Y-329970109D01*
X580192182Y-330095050D01*
X580200946Y-330099516D01*
X580251742Y-330147491D01*
X580268536Y-330215312D01*
X580245998Y-330281447D01*
X580200946Y-330320484D01*
X580192182Y-330324949D01*
X580020213Y-330449890D01*
X579869890Y-330600213D01*
X579744951Y-330772179D01*
X579648444Y-330961585D01*
X579582753Y-331163760D01*
X579562414Y-331292179D01*
X579549500Y-331373713D01*
X579549500Y-331586287D01*
X579582754Y-331796243D01*
X579637431Y-331964522D01*
X579648444Y-331998414D01*
X579744951Y-332187820D01*
X579869890Y-332359786D01*
X580020213Y-332510109D01*
X580192182Y-332635050D01*
X580200946Y-332639516D01*
X580251742Y-332687491D01*
X580268536Y-332755312D01*
X580245998Y-332821447D01*
X580200946Y-332860484D01*
X580192182Y-332864949D01*
X580020213Y-332989890D01*
X579869890Y-333140213D01*
X579744951Y-333312179D01*
X579648444Y-333501585D01*
X579582753Y-333703760D01*
X579549500Y-333913713D01*
X579549500Y-334126286D01*
X579582753Y-334336239D01*
X579648444Y-334538414D01*
X579744951Y-334727820D01*
X579869890Y-334899786D01*
X580020213Y-335050109D01*
X580192182Y-335175050D01*
X580200946Y-335179516D01*
X580251742Y-335227491D01*
X580268536Y-335295312D01*
X580245998Y-335361447D01*
X580200946Y-335400484D01*
X580192182Y-335404949D01*
X580020213Y-335529890D01*
X579869890Y-335680213D01*
X579744951Y-335852179D01*
X579648444Y-336041585D01*
X579582753Y-336243760D01*
X579549500Y-336453713D01*
X579549500Y-336666286D01*
X579582753Y-336876239D01*
X579648444Y-337078414D01*
X579744951Y-337267820D01*
X579869890Y-337439786D01*
X580020213Y-337590109D01*
X580192182Y-337715050D01*
X580200946Y-337719516D01*
X580251742Y-337767491D01*
X580268536Y-337835312D01*
X580245998Y-337901447D01*
X580200946Y-337940484D01*
X580192182Y-337944949D01*
X580020213Y-338069890D01*
X579869890Y-338220213D01*
X579744951Y-338392179D01*
X579648444Y-338581585D01*
X579582753Y-338783760D01*
X579549500Y-338993713D01*
X579549500Y-339206286D01*
X579575915Y-339373067D01*
X579582754Y-339416243D01*
X579631377Y-339565890D01*
X579648444Y-339618414D01*
X579744951Y-339807820D01*
X579869890Y-339979786D01*
X580020213Y-340130109D01*
X580192179Y-340255048D01*
X580192181Y-340255049D01*
X580192184Y-340255051D01*
X580381588Y-340351557D01*
X580583757Y-340417246D01*
X580793713Y-340450500D01*
X580793714Y-340450500D01*
X581006286Y-340450500D01*
X581006287Y-340450500D01*
X581216243Y-340417246D01*
X581418412Y-340351557D01*
X581607816Y-340255051D01*
X581694138Y-340192335D01*
X581779786Y-340130109D01*
X581779788Y-340130106D01*
X581779792Y-340130104D01*
X581930104Y-339979792D01*
X581930106Y-339979788D01*
X581930109Y-339979786D01*
X582055048Y-339807820D01*
X582055047Y-339807820D01*
X582055051Y-339807816D01*
X582151557Y-339618412D01*
X582217246Y-339416243D01*
X582250500Y-339206287D01*
X582250500Y-338993713D01*
X582217246Y-338783757D01*
X582151557Y-338581588D01*
X582055051Y-338392184D01*
X582055049Y-338392181D01*
X582055048Y-338392179D01*
X581930109Y-338220213D01*
X581779786Y-338069890D01*
X581607820Y-337944951D01*
X581604654Y-337943338D01*
X581599054Y-337940485D01*
X581548259Y-337892512D01*
X581531463Y-337824692D01*
X581553999Y-337758556D01*
X581599054Y-337719515D01*
X581607816Y-337715051D01*
X581709204Y-337641389D01*
X581779786Y-337590109D01*
X581779788Y-337590106D01*
X581779792Y-337590104D01*
X581930104Y-337439792D01*
X581930106Y-337439788D01*
X581930109Y-337439786D01*
X582055048Y-337267820D01*
X582055047Y-337267820D01*
X582055051Y-337267816D01*
X582151557Y-337078412D01*
X582217246Y-336876243D01*
X582250500Y-336666287D01*
X582250500Y-336453713D01*
X582217246Y-336243757D01*
X582151557Y-336041588D01*
X582055051Y-335852184D01*
X582055049Y-335852181D01*
X582055048Y-335852179D01*
X581930109Y-335680213D01*
X581779786Y-335529890D01*
X581607820Y-335404951D01*
X581607115Y-335404591D01*
X581599054Y-335400485D01*
X581548259Y-335352512D01*
X581531463Y-335284692D01*
X581553999Y-335218556D01*
X581599054Y-335179515D01*
X581607816Y-335175051D01*
X581629789Y-335159086D01*
X581779786Y-335050109D01*
X581779788Y-335050106D01*
X581779792Y-335050104D01*
X581930104Y-334899792D01*
X581930106Y-334899788D01*
X581930109Y-334899786D01*
X582055048Y-334727820D01*
X582055047Y-334727820D01*
X582055051Y-334727816D01*
X582151557Y-334538412D01*
X582217246Y-334336243D01*
X582250500Y-334126287D01*
X582250500Y-333913713D01*
X582217246Y-333703757D01*
X582151557Y-333501588D01*
X582055051Y-333312184D01*
X582055049Y-333312181D01*
X582055048Y-333312179D01*
X581930109Y-333140213D01*
X581779786Y-332989890D01*
X581607820Y-332864951D01*
X581607115Y-332864591D01*
X581599054Y-332860485D01*
X581548259Y-332812512D01*
X581531463Y-332744692D01*
X581553999Y-332678556D01*
X581599054Y-332639515D01*
X581607816Y-332635051D01*
X581673839Y-332587083D01*
X581779786Y-332510109D01*
X581779788Y-332510106D01*
X581779792Y-332510104D01*
X581930104Y-332359792D01*
X581930106Y-332359788D01*
X581930109Y-332359786D01*
X582055048Y-332187820D01*
X582055047Y-332187820D01*
X582055051Y-332187816D01*
X582151557Y-331998412D01*
X582217246Y-331796243D01*
X582250500Y-331586287D01*
X582250500Y-331373713D01*
X582217246Y-331163757D01*
X582151557Y-330961588D01*
X582055051Y-330772184D01*
X582055049Y-330772181D01*
X582055048Y-330772179D01*
X581930109Y-330600213D01*
X581779786Y-330449890D01*
X581607820Y-330324951D01*
X581607115Y-330324591D01*
X581599054Y-330320485D01*
X581548259Y-330272512D01*
X581531463Y-330204692D01*
X581553999Y-330138556D01*
X581599054Y-330099515D01*
X581607816Y-330095051D01*
X581629789Y-330079086D01*
X581779786Y-329970109D01*
X581779788Y-329970106D01*
X581779792Y-329970104D01*
X581930104Y-329819792D01*
X581930106Y-329819788D01*
X581930109Y-329819786D01*
X582055048Y-329647820D01*
X582055047Y-329647820D01*
X582055051Y-329647816D01*
X582151557Y-329458412D01*
X582217246Y-329256243D01*
X582250500Y-329046287D01*
X582250500Y-328833713D01*
X582217246Y-328623757D01*
X582151557Y-328421588D01*
X582055051Y-328232184D01*
X582055049Y-328232181D01*
X582055048Y-328232179D01*
X581930109Y-328060213D01*
X581779786Y-327909890D01*
X581607820Y-327784951D01*
X581607115Y-327784591D01*
X581599054Y-327780485D01*
X581548259Y-327732512D01*
X581531463Y-327664692D01*
X581553999Y-327598556D01*
X581599054Y-327559515D01*
X581607816Y-327555051D01*
X581629789Y-327539086D01*
X581779786Y-327430109D01*
X581779788Y-327430106D01*
X581779792Y-327430104D01*
X581930104Y-327279792D01*
X581930106Y-327279788D01*
X581930109Y-327279786D01*
X582055048Y-327107820D01*
X582055047Y-327107820D01*
X582055051Y-327107816D01*
X582151557Y-326918412D01*
X582217246Y-326716243D01*
X582250500Y-326506287D01*
X582250500Y-326293713D01*
X582217246Y-326083757D01*
X582151557Y-325881588D01*
X582055051Y-325692184D01*
X582055049Y-325692181D01*
X582055048Y-325692179D01*
X581930109Y-325520213D01*
X581779786Y-325369890D01*
X581607817Y-325244949D01*
X581598504Y-325240204D01*
X581547707Y-325192230D01*
X581530912Y-325124409D01*
X581553449Y-325058274D01*
X581598507Y-325019232D01*
X581607555Y-325014622D01*
X581661716Y-324975270D01*
X581661717Y-324975270D01*
X581029408Y-324342962D01*
X581092993Y-324325925D01*
X581207007Y-324260099D01*
X581300099Y-324167007D01*
X581365925Y-324052993D01*
X581382962Y-323989408D01*
X582015270Y-324621717D01*
X582015270Y-324621716D01*
X582054622Y-324567554D01*
X582151095Y-324378217D01*
X582216757Y-324176130D01*
X582216757Y-324176127D01*
X582250000Y-323966246D01*
X582250000Y-323753753D01*
X582216757Y-323543872D01*
X582216757Y-323543869D01*
X582151095Y-323341782D01*
X582054624Y-323152449D01*
X582015270Y-323098282D01*
X582015269Y-323098282D01*
X581382962Y-323730590D01*
X581365925Y-323667007D01*
X581300099Y-323552993D01*
X581207007Y-323459901D01*
X581092993Y-323394075D01*
X581029409Y-323377037D01*
X581699627Y-322706818D01*
X581760950Y-322673333D01*
X581787307Y-322670499D01*
X581797872Y-322670499D01*
X581857483Y-322664091D01*
X581992331Y-322613796D01*
X582107546Y-322527546D01*
X582193796Y-322412331D01*
X582244091Y-322277483D01*
X582250500Y-322217873D01*
X582250499Y-320422128D01*
X582244091Y-320362517D01*
X582193796Y-320227669D01*
X582193795Y-320227668D01*
X582193793Y-320227664D01*
X582107547Y-320112455D01*
X582107544Y-320112452D01*
X581992335Y-320026206D01*
X581992328Y-320026202D01*
X581857482Y-319975908D01*
X581857483Y-319975908D01*
X581797883Y-319969501D01*
X581797881Y-319969500D01*
X581797873Y-319969500D01*
X581797864Y-319969500D01*
X580002129Y-319969500D01*
X580002123Y-319969501D01*
X579942516Y-319975908D01*
X579807671Y-320026202D01*
X579807664Y-320026206D01*
X579692455Y-320112452D01*
X579692452Y-320112455D01*
X579606206Y-320227664D01*
X579606202Y-320227671D01*
X579555908Y-320362517D01*
X579549501Y-320422116D01*
X579549501Y-320422123D01*
X579549500Y-320422135D01*
X576500500Y-320422135D01*
X576500500Y-310622110D01*
X579045000Y-310622110D01*
X579045000Y-310877889D01*
X579085013Y-311130523D01*
X579164051Y-311373781D01*
X579164052Y-311373784D01*
X579280175Y-311601686D01*
X579357850Y-311708595D01*
X579357850Y-311708596D01*
X579915884Y-311150561D01*
X579916740Y-311152626D01*
X580009762Y-311291844D01*
X580128156Y-311410238D01*
X580267374Y-311503260D01*
X580269437Y-311504114D01*
X579711402Y-312062148D01*
X579818313Y-312139824D01*
X580046215Y-312255947D01*
X580046218Y-312255948D01*
X580289476Y-312334986D01*
X580542111Y-312375000D01*
X580797889Y-312375000D01*
X581050523Y-312334986D01*
X581293781Y-312255948D01*
X581293784Y-312255947D01*
X581521685Y-312139825D01*
X581628595Y-312062148D01*
X581628596Y-312062148D01*
X581070562Y-311504114D01*
X581072626Y-311503260D01*
X581211844Y-311410238D01*
X581330238Y-311291844D01*
X581423260Y-311152626D01*
X581424114Y-311150562D01*
X581982148Y-311708596D01*
X581982148Y-311708595D01*
X582059825Y-311601685D01*
X582175947Y-311373784D01*
X582175948Y-311373781D01*
X582254986Y-311130523D01*
X582295000Y-310877889D01*
X582295000Y-310622110D01*
X584125000Y-310622110D01*
X584125000Y-310877889D01*
X584165013Y-311130523D01*
X584244051Y-311373781D01*
X584244052Y-311373784D01*
X584360175Y-311601686D01*
X584437850Y-311708595D01*
X584437850Y-311708596D01*
X584995884Y-311150561D01*
X584996740Y-311152626D01*
X585089762Y-311291844D01*
X585208156Y-311410238D01*
X585347374Y-311503260D01*
X585349437Y-311504114D01*
X584791402Y-312062148D01*
X584898313Y-312139824D01*
X585126215Y-312255947D01*
X585126218Y-312255948D01*
X585369476Y-312334986D01*
X585622111Y-312375000D01*
X585877889Y-312375000D01*
X586130523Y-312334986D01*
X586373781Y-312255948D01*
X586373784Y-312255947D01*
X586601685Y-312139825D01*
X586708595Y-312062148D01*
X586708596Y-312062148D01*
X586150562Y-311504114D01*
X586152626Y-311503260D01*
X586291844Y-311410238D01*
X586410238Y-311291844D01*
X586503260Y-311152626D01*
X586504114Y-311150562D01*
X587062148Y-311708596D01*
X587062148Y-311708595D01*
X587139825Y-311601685D01*
X587255947Y-311373784D01*
X587255948Y-311373781D01*
X587298210Y-311243713D01*
X590734500Y-311243713D01*
X590734500Y-311456287D01*
X590767754Y-311666243D01*
X590781515Y-311708596D01*
X590833444Y-311868414D01*
X590929951Y-312057820D01*
X591054890Y-312229786D01*
X591205213Y-312380109D01*
X591377179Y-312505048D01*
X591377181Y-312505049D01*
X591377184Y-312505051D01*
X591566588Y-312601557D01*
X591768757Y-312667246D01*
X591978713Y-312700500D01*
X591978714Y-312700500D01*
X592191286Y-312700500D01*
X592191287Y-312700500D01*
X592401243Y-312667246D01*
X592603412Y-312601557D01*
X592792816Y-312505051D01*
X592964792Y-312380104D01*
X593078329Y-312266566D01*
X593139648Y-312233084D01*
X593209340Y-312238068D01*
X593265274Y-312279939D01*
X593282189Y-312310917D01*
X593331202Y-312442328D01*
X593331206Y-312442335D01*
X593417452Y-312557544D01*
X593417455Y-312557547D01*
X593532664Y-312643793D01*
X593532671Y-312643797D01*
X593667517Y-312694091D01*
X593667516Y-312694091D01*
X593674444Y-312694835D01*
X593727127Y-312700500D01*
X595522872Y-312700499D01*
X595582483Y-312694091D01*
X595717331Y-312643796D01*
X595832546Y-312557546D01*
X595918796Y-312442331D01*
X595969091Y-312307483D01*
X595975500Y-312247873D01*
X595975499Y-310452128D01*
X595969091Y-310392517D01*
X595967810Y-310389083D01*
X595918797Y-310257671D01*
X595918793Y-310257664D01*
X595832547Y-310142455D01*
X595832544Y-310142452D01*
X595717335Y-310056206D01*
X595717328Y-310056202D01*
X595582482Y-310005908D01*
X595582483Y-310005908D01*
X595522883Y-309999501D01*
X595522881Y-309999500D01*
X595522873Y-309999500D01*
X595522864Y-309999500D01*
X593727129Y-309999500D01*
X593727123Y-309999501D01*
X593667516Y-310005908D01*
X593532671Y-310056202D01*
X593532664Y-310056206D01*
X593417455Y-310142452D01*
X593417452Y-310142455D01*
X593331206Y-310257664D01*
X593331203Y-310257669D01*
X593282189Y-310389083D01*
X593240317Y-310445016D01*
X593174853Y-310469433D01*
X593106580Y-310454581D01*
X593078326Y-310433430D01*
X592964786Y-310319890D01*
X592792820Y-310194951D01*
X592603414Y-310098444D01*
X592603413Y-310098443D01*
X592603412Y-310098443D01*
X592401243Y-310032754D01*
X592401241Y-310032753D01*
X592401240Y-310032753D01*
X592239957Y-310007208D01*
X592191287Y-309999500D01*
X591978713Y-309999500D01*
X591930042Y-310007208D01*
X591768760Y-310032753D01*
X591566585Y-310098444D01*
X591377179Y-310194951D01*
X591205213Y-310319890D01*
X591054890Y-310470213D01*
X590929951Y-310642179D01*
X590833444Y-310831585D01*
X590767753Y-311033760D01*
X590748927Y-311152626D01*
X590734500Y-311243713D01*
X587298210Y-311243713D01*
X587312243Y-311200523D01*
X587334986Y-311130523D01*
X587375000Y-310877889D01*
X587375000Y-310622110D01*
X587334986Y-310369476D01*
X587255948Y-310126218D01*
X587255947Y-310126215D01*
X587139824Y-309898313D01*
X587062148Y-309791403D01*
X587062148Y-309791402D01*
X586504114Y-310349436D01*
X586503260Y-310347374D01*
X586410238Y-310208156D01*
X586291844Y-310089762D01*
X586152626Y-309996740D01*
X586150560Y-309995884D01*
X586708596Y-309437850D01*
X586601686Y-309360175D01*
X586373784Y-309244052D01*
X586373781Y-309244051D01*
X586130523Y-309165013D01*
X585877889Y-309125000D01*
X585622111Y-309125000D01*
X585369476Y-309165013D01*
X585126218Y-309244051D01*
X585126215Y-309244052D01*
X584898310Y-309360177D01*
X584791403Y-309437849D01*
X584791402Y-309437850D01*
X585349437Y-309995885D01*
X585347374Y-309996740D01*
X585208156Y-310089762D01*
X585089762Y-310208156D01*
X584996740Y-310347374D01*
X584995885Y-310349437D01*
X584437850Y-309791402D01*
X584437849Y-309791403D01*
X584360177Y-309898310D01*
X584244052Y-310126215D01*
X584244051Y-310126218D01*
X584165013Y-310369476D01*
X584125000Y-310622110D01*
X582295000Y-310622110D01*
X582254986Y-310369476D01*
X582175948Y-310126218D01*
X582175947Y-310126215D01*
X582059824Y-309898313D01*
X581982148Y-309791403D01*
X581982148Y-309791402D01*
X581424114Y-310349436D01*
X581423260Y-310347374D01*
X581330238Y-310208156D01*
X581211844Y-310089762D01*
X581072626Y-309996740D01*
X581070560Y-309995884D01*
X581628596Y-309437850D01*
X581521686Y-309360175D01*
X581293784Y-309244052D01*
X581293781Y-309244051D01*
X581050523Y-309165013D01*
X580797889Y-309125000D01*
X580542111Y-309125000D01*
X580289476Y-309165013D01*
X580046218Y-309244051D01*
X580046215Y-309244052D01*
X579818310Y-309360177D01*
X579711403Y-309437849D01*
X579711402Y-309437850D01*
X580269437Y-309995885D01*
X580267374Y-309996740D01*
X580128156Y-310089762D01*
X580009762Y-310208156D01*
X579916740Y-310347374D01*
X579915885Y-310349437D01*
X579357850Y-309791402D01*
X579357849Y-309791403D01*
X579280177Y-309898310D01*
X579164052Y-310126215D01*
X579164051Y-310126218D01*
X579085013Y-310369476D01*
X579045000Y-310622110D01*
X576500500Y-310622110D01*
X576500500Y-308089941D01*
X581684500Y-308089941D01*
X581684500Y-308330058D01*
X581722063Y-308567222D01*
X581796265Y-308795593D01*
X581886206Y-308972110D01*
X581905276Y-309009536D01*
X582046414Y-309203796D01*
X582216204Y-309373586D01*
X582410464Y-309514724D01*
X582511543Y-309566226D01*
X582624406Y-309623734D01*
X582624408Y-309623734D01*
X582624411Y-309623736D01*
X582852778Y-309697937D01*
X583089941Y-309735500D01*
X583089942Y-309735500D01*
X583330058Y-309735500D01*
X583330059Y-309735500D01*
X583567222Y-309697937D01*
X583795589Y-309623736D01*
X584009536Y-309514724D01*
X584203796Y-309373586D01*
X584373586Y-309203796D01*
X584514724Y-309009536D01*
X584623736Y-308795589D01*
X584697937Y-308567222D01*
X584735500Y-308330059D01*
X584735500Y-308089941D01*
X584729512Y-308052135D01*
X609674500Y-308052135D01*
X609674500Y-309847870D01*
X609674501Y-309847876D01*
X609680908Y-309907483D01*
X609731202Y-310042328D01*
X609731206Y-310042335D01*
X609817452Y-310157544D01*
X609817455Y-310157547D01*
X609932664Y-310243793D01*
X609932671Y-310243797D01*
X610067517Y-310294091D01*
X610067516Y-310294091D01*
X610074444Y-310294835D01*
X610127127Y-310300500D01*
X611922872Y-310300499D01*
X611982483Y-310294091D01*
X612117331Y-310243796D01*
X612232546Y-310157546D01*
X612318796Y-310042331D01*
X612367810Y-309910916D01*
X612409681Y-309854984D01*
X612475145Y-309830566D01*
X612543418Y-309845417D01*
X612571673Y-309866569D01*
X612685213Y-309980109D01*
X612857179Y-310105048D01*
X612857181Y-310105049D01*
X612857184Y-310105051D01*
X613046588Y-310201557D01*
X613248757Y-310267246D01*
X613458713Y-310300500D01*
X613458714Y-310300500D01*
X613671286Y-310300500D01*
X613671287Y-310300500D01*
X613881243Y-310267246D01*
X614083412Y-310201557D01*
X614272816Y-310105051D01*
X614294789Y-310089086D01*
X614444786Y-309980109D01*
X614444788Y-309980106D01*
X614444792Y-309980104D01*
X614595104Y-309829792D01*
X614595106Y-309829788D01*
X614595109Y-309829786D01*
X614720048Y-309657820D01*
X614720047Y-309657820D01*
X614720051Y-309657816D01*
X614816557Y-309468412D01*
X614882246Y-309266243D01*
X614915500Y-309056287D01*
X614915500Y-308972110D01*
X619955000Y-308972110D01*
X619955000Y-309227889D01*
X619995013Y-309480523D01*
X620074051Y-309723781D01*
X620074052Y-309723784D01*
X620190175Y-309951686D01*
X620267850Y-310058595D01*
X620267850Y-310058596D01*
X620825884Y-309500561D01*
X620826740Y-309502626D01*
X620919762Y-309641844D01*
X621038156Y-309760238D01*
X621177374Y-309853260D01*
X621179437Y-309854114D01*
X620621402Y-310412148D01*
X620728313Y-310489824D01*
X620956215Y-310605947D01*
X620956218Y-310605948D01*
X621199476Y-310684986D01*
X621452111Y-310725000D01*
X621707889Y-310725000D01*
X621960523Y-310684986D01*
X622203781Y-310605948D01*
X622203784Y-310605947D01*
X622431685Y-310489825D01*
X622538595Y-310412148D01*
X622538596Y-310412148D01*
X621980562Y-309854114D01*
X621982626Y-309853260D01*
X622121844Y-309760238D01*
X622240238Y-309641844D01*
X622333260Y-309502626D01*
X622334114Y-309500562D01*
X622892148Y-310058596D01*
X622892148Y-310058595D01*
X622969825Y-309951685D01*
X623085947Y-309723784D01*
X623085948Y-309723781D01*
X623164986Y-309480523D01*
X623205000Y-309227889D01*
X623205000Y-308972110D01*
X625035000Y-308972110D01*
X625035000Y-309227889D01*
X625075013Y-309480523D01*
X625154051Y-309723781D01*
X625154052Y-309723784D01*
X625270175Y-309951686D01*
X625347850Y-310058595D01*
X625347850Y-310058596D01*
X625905884Y-309500561D01*
X625906740Y-309502626D01*
X625999762Y-309641844D01*
X626118156Y-309760238D01*
X626257374Y-309853260D01*
X626259437Y-309854114D01*
X625701402Y-310412148D01*
X625808313Y-310489824D01*
X626036215Y-310605947D01*
X626036218Y-310605948D01*
X626279476Y-310684986D01*
X626532111Y-310725000D01*
X626787889Y-310725000D01*
X627040523Y-310684986D01*
X627283781Y-310605948D01*
X627283784Y-310605947D01*
X627511685Y-310489825D01*
X627618595Y-310412148D01*
X627618596Y-310412148D01*
X627060562Y-309854114D01*
X627062626Y-309853260D01*
X627201844Y-309760238D01*
X627320238Y-309641844D01*
X627413260Y-309502626D01*
X627414114Y-309500562D01*
X627972148Y-310058596D01*
X627972148Y-310058595D01*
X628049825Y-309951685D01*
X628165947Y-309723784D01*
X628165948Y-309723781D01*
X628244986Y-309480523D01*
X628285000Y-309227889D01*
X628285000Y-308972110D01*
X628244986Y-308719476D01*
X628165948Y-308476218D01*
X628165947Y-308476215D01*
X628049824Y-308248313D01*
X627972148Y-308141403D01*
X627972148Y-308141402D01*
X627414114Y-308699436D01*
X627413260Y-308697374D01*
X627320238Y-308558156D01*
X627201844Y-308439762D01*
X627062626Y-308346740D01*
X627060560Y-308345884D01*
X627618596Y-307787850D01*
X627511686Y-307710175D01*
X627283784Y-307594052D01*
X627283781Y-307594051D01*
X627040523Y-307515013D01*
X626787889Y-307475000D01*
X626532111Y-307475000D01*
X626279476Y-307515013D01*
X626036218Y-307594051D01*
X626036215Y-307594052D01*
X625808310Y-307710177D01*
X625701403Y-307787849D01*
X625701402Y-307787850D01*
X626259437Y-308345885D01*
X626257374Y-308346740D01*
X626118156Y-308439762D01*
X625999762Y-308558156D01*
X625906740Y-308697374D01*
X625905885Y-308699437D01*
X625347850Y-308141402D01*
X625347849Y-308141403D01*
X625270177Y-308248310D01*
X625154052Y-308476215D01*
X625154051Y-308476218D01*
X625075013Y-308719476D01*
X625035000Y-308972110D01*
X623205000Y-308972110D01*
X623164986Y-308719476D01*
X623085948Y-308476218D01*
X623085947Y-308476215D01*
X622969824Y-308248313D01*
X622892148Y-308141403D01*
X622892148Y-308141402D01*
X622334114Y-308699436D01*
X622333260Y-308697374D01*
X622240238Y-308558156D01*
X622121844Y-308439762D01*
X621982626Y-308346740D01*
X621980560Y-308345884D01*
X622538596Y-307787850D01*
X622431686Y-307710175D01*
X622203784Y-307594052D01*
X622203781Y-307594051D01*
X621960523Y-307515013D01*
X621707889Y-307475000D01*
X621452111Y-307475000D01*
X621199476Y-307515013D01*
X620956218Y-307594051D01*
X620956215Y-307594052D01*
X620728310Y-307710177D01*
X620621403Y-307787849D01*
X620621402Y-307787850D01*
X621179437Y-308345885D01*
X621177374Y-308346740D01*
X621038156Y-308439762D01*
X620919762Y-308558156D01*
X620826740Y-308697374D01*
X620825885Y-308699437D01*
X620267850Y-308141402D01*
X620267849Y-308141403D01*
X620190177Y-308248310D01*
X620074052Y-308476215D01*
X620074051Y-308476218D01*
X619995013Y-308719476D01*
X619955000Y-308972110D01*
X614915500Y-308972110D01*
X614915500Y-308843713D01*
X614882246Y-308633757D01*
X614816557Y-308431588D01*
X614720051Y-308242184D01*
X614720049Y-308242181D01*
X614720048Y-308242179D01*
X614595109Y-308070213D01*
X614444786Y-307919890D01*
X614272820Y-307794951D01*
X614083414Y-307698444D01*
X614083413Y-307698443D01*
X614083412Y-307698443D01*
X613881243Y-307632754D01*
X613881241Y-307632753D01*
X613881240Y-307632753D01*
X613719957Y-307607208D01*
X613671287Y-307599500D01*
X613458713Y-307599500D01*
X613410042Y-307607208D01*
X613248760Y-307632753D01*
X613046585Y-307698444D01*
X612857179Y-307794951D01*
X612685215Y-307919889D01*
X612571673Y-308033431D01*
X612510350Y-308066915D01*
X612440658Y-308061931D01*
X612384725Y-308020059D01*
X612367810Y-307989082D01*
X612318797Y-307857671D01*
X612318793Y-307857664D01*
X612232547Y-307742455D01*
X612232544Y-307742452D01*
X612117335Y-307656206D01*
X612117328Y-307656202D01*
X611982482Y-307605908D01*
X611982483Y-307605908D01*
X611922883Y-307599501D01*
X611922881Y-307599500D01*
X611922873Y-307599500D01*
X611922864Y-307599500D01*
X610127129Y-307599500D01*
X610127123Y-307599501D01*
X610067516Y-307605908D01*
X609932671Y-307656202D01*
X609932664Y-307656206D01*
X609817455Y-307742452D01*
X609817452Y-307742455D01*
X609731206Y-307857664D01*
X609731202Y-307857671D01*
X609680908Y-307992517D01*
X609674501Y-308052116D01*
X609674500Y-308052135D01*
X584729512Y-308052135D01*
X584697937Y-307852778D01*
X584623736Y-307624411D01*
X584623734Y-307624408D01*
X584623734Y-307624406D01*
X584514723Y-307410463D01*
X584373586Y-307216204D01*
X584203796Y-307046414D01*
X584009536Y-306905276D01*
X583795593Y-306796265D01*
X583567222Y-306722063D01*
X583330059Y-306684500D01*
X583089941Y-306684500D01*
X582971359Y-306703281D01*
X582852777Y-306722063D01*
X582624406Y-306796265D01*
X582410463Y-306905276D01*
X582216201Y-307046416D01*
X582046416Y-307216201D01*
X581905276Y-307410463D01*
X581796265Y-307624406D01*
X581722063Y-307852777D01*
X581684500Y-308089941D01*
X576500500Y-308089941D01*
X576500500Y-305542110D01*
X579045000Y-305542110D01*
X579045000Y-305797889D01*
X579085013Y-306050523D01*
X579164051Y-306293781D01*
X579164052Y-306293784D01*
X579280175Y-306521686D01*
X579357850Y-306628595D01*
X579357850Y-306628596D01*
X579915884Y-306070561D01*
X579916740Y-306072626D01*
X580009762Y-306211844D01*
X580128156Y-306330238D01*
X580267374Y-306423260D01*
X580269437Y-306424114D01*
X579711402Y-306982148D01*
X579818313Y-307059824D01*
X580046215Y-307175947D01*
X580046218Y-307175948D01*
X580289476Y-307254986D01*
X580542111Y-307295000D01*
X580797889Y-307295000D01*
X581050523Y-307254986D01*
X581293781Y-307175948D01*
X581293784Y-307175947D01*
X581521685Y-307059825D01*
X581628595Y-306982148D01*
X581628596Y-306982148D01*
X581070562Y-306424114D01*
X581072626Y-306423260D01*
X581211844Y-306330238D01*
X581330238Y-306211844D01*
X581423260Y-306072626D01*
X581424114Y-306070562D01*
X581982148Y-306628596D01*
X581982148Y-306628595D01*
X582059825Y-306521685D01*
X582175947Y-306293784D01*
X582175948Y-306293781D01*
X582254986Y-306050523D01*
X582295000Y-305797889D01*
X582295000Y-305542110D01*
X584125000Y-305542110D01*
X584125000Y-305797889D01*
X584165013Y-306050523D01*
X584244051Y-306293781D01*
X584244052Y-306293784D01*
X584360175Y-306521686D01*
X584437850Y-306628595D01*
X584437850Y-306628596D01*
X584995884Y-306070561D01*
X584996740Y-306072626D01*
X585089762Y-306211844D01*
X585208156Y-306330238D01*
X585347374Y-306423260D01*
X585349437Y-306424114D01*
X584791402Y-306982148D01*
X584898313Y-307059824D01*
X585126215Y-307175947D01*
X585126218Y-307175948D01*
X585369476Y-307254986D01*
X585622111Y-307295000D01*
X585877889Y-307295000D01*
X586130523Y-307254986D01*
X586373781Y-307175948D01*
X586373784Y-307175947D01*
X586601685Y-307059825D01*
X586708595Y-306982148D01*
X586708596Y-306982148D01*
X586150562Y-306424114D01*
X586152626Y-306423260D01*
X586291844Y-306330238D01*
X586410238Y-306211844D01*
X586503260Y-306072626D01*
X586504114Y-306070562D01*
X587062148Y-306628596D01*
X587062148Y-306628595D01*
X587139825Y-306521685D01*
X587181476Y-306439941D01*
X622594500Y-306439941D01*
X622594500Y-306680059D01*
X622601153Y-306722063D01*
X622632063Y-306917222D01*
X622706265Y-307145593D01*
X622782393Y-307295000D01*
X622815276Y-307359536D01*
X622956414Y-307553796D01*
X623126204Y-307723586D01*
X623320464Y-307864724D01*
X623421543Y-307916226D01*
X623534406Y-307973734D01*
X623534408Y-307973734D01*
X623534411Y-307973736D01*
X623762778Y-308047937D01*
X623999941Y-308085500D01*
X623999942Y-308085500D01*
X624240058Y-308085500D01*
X624240059Y-308085500D01*
X624477222Y-308047937D01*
X624705589Y-307973736D01*
X624919536Y-307864724D01*
X625113796Y-307723586D01*
X625283586Y-307553796D01*
X625424724Y-307359536D01*
X625533736Y-307145589D01*
X625607937Y-306917222D01*
X625645500Y-306680059D01*
X625645500Y-306439941D01*
X625607937Y-306202778D01*
X625533736Y-305974411D01*
X625533734Y-305974408D01*
X625533734Y-305974406D01*
X625424723Y-305760463D01*
X625283586Y-305566204D01*
X625113796Y-305396414D01*
X624919536Y-305255276D01*
X624705593Y-305146265D01*
X624477222Y-305072063D01*
X624314024Y-305046215D01*
X624240059Y-305034500D01*
X623999941Y-305034500D01*
X623925976Y-305046215D01*
X623762777Y-305072063D01*
X623534406Y-305146265D01*
X623320463Y-305255276D01*
X623126201Y-305396416D01*
X622956416Y-305566201D01*
X622815276Y-305760463D01*
X622706265Y-305974406D01*
X622632063Y-306202777D01*
X622617649Y-306293784D01*
X622594500Y-306439941D01*
X587181476Y-306439941D01*
X587212642Y-306378774D01*
X587255947Y-306293784D01*
X587255948Y-306293781D01*
X587334986Y-306050523D01*
X587375000Y-305797889D01*
X587375000Y-305542110D01*
X587334986Y-305289476D01*
X587255948Y-305046218D01*
X587255947Y-305046215D01*
X587139824Y-304818313D01*
X587062148Y-304711403D01*
X587062148Y-304711402D01*
X586504114Y-305269436D01*
X586503260Y-305267374D01*
X586410238Y-305128156D01*
X586291844Y-305009762D01*
X586152626Y-304916740D01*
X586150560Y-304915884D01*
X586708596Y-304357850D01*
X586601686Y-304280175D01*
X586541141Y-304249326D01*
X586373784Y-304164052D01*
X586373781Y-304164051D01*
X586311186Y-304143713D01*
X602549500Y-304143713D01*
X602549500Y-304356287D01*
X602582754Y-304566243D01*
X602629919Y-304711402D01*
X602648444Y-304768414D01*
X602744951Y-304957820D01*
X602869890Y-305129786D01*
X603020213Y-305280109D01*
X603192179Y-305405048D01*
X603192181Y-305405049D01*
X603192184Y-305405051D01*
X603381588Y-305501557D01*
X603583757Y-305567246D01*
X603793713Y-305600500D01*
X603793714Y-305600500D01*
X604006286Y-305600500D01*
X604006287Y-305600500D01*
X604216243Y-305567246D01*
X604418412Y-305501557D01*
X604607816Y-305405051D01*
X604635129Y-305385207D01*
X604779786Y-305280109D01*
X604779788Y-305280106D01*
X604779792Y-305280104D01*
X604930104Y-305129792D01*
X604930106Y-305129788D01*
X604930109Y-305129786D01*
X605055048Y-304957820D01*
X605055047Y-304957820D01*
X605055051Y-304957816D01*
X605151557Y-304768412D01*
X605217246Y-304566243D01*
X605250500Y-304356287D01*
X605250500Y-304143713D01*
X605217246Y-303933757D01*
X605151557Y-303731588D01*
X605055051Y-303542184D01*
X605055049Y-303542181D01*
X605055048Y-303542179D01*
X604930109Y-303370213D01*
X604779786Y-303219890D01*
X604607820Y-303094951D01*
X604418414Y-302998444D01*
X604418413Y-302998443D01*
X604418412Y-302998443D01*
X604216243Y-302932754D01*
X604216241Y-302932753D01*
X604216240Y-302932753D01*
X604054957Y-302907208D01*
X604006287Y-302899500D01*
X603793713Y-302899500D01*
X603745042Y-302907208D01*
X603583760Y-302932753D01*
X603381585Y-302998444D01*
X603192179Y-303094951D01*
X603020213Y-303219890D01*
X602869890Y-303370213D01*
X602744951Y-303542179D01*
X602648444Y-303731585D01*
X602648443Y-303731587D01*
X602648443Y-303731588D01*
X602615598Y-303832672D01*
X602582753Y-303933760D01*
X602558797Y-304085013D01*
X602549500Y-304143713D01*
X586311186Y-304143713D01*
X586130523Y-304085013D01*
X585877889Y-304045000D01*
X585622111Y-304045000D01*
X585369476Y-304085013D01*
X585126218Y-304164051D01*
X585126215Y-304164052D01*
X584898310Y-304280177D01*
X584791403Y-304357849D01*
X584791402Y-304357850D01*
X585349437Y-304915885D01*
X585347374Y-304916740D01*
X585208156Y-305009762D01*
X585089762Y-305128156D01*
X584996740Y-305267374D01*
X584995885Y-305269437D01*
X584437850Y-304711402D01*
X584437849Y-304711403D01*
X584360177Y-304818310D01*
X584244052Y-305046215D01*
X584244051Y-305046218D01*
X584165013Y-305289476D01*
X584125000Y-305542110D01*
X582295000Y-305542110D01*
X582254986Y-305289476D01*
X582175948Y-305046218D01*
X582175947Y-305046215D01*
X582059824Y-304818313D01*
X581982148Y-304711403D01*
X581982148Y-304711402D01*
X581424114Y-305269436D01*
X581423260Y-305267374D01*
X581330238Y-305128156D01*
X581211844Y-305009762D01*
X581072626Y-304916740D01*
X581070560Y-304915884D01*
X581628596Y-304357850D01*
X581521686Y-304280175D01*
X581293784Y-304164052D01*
X581293781Y-304164051D01*
X581050523Y-304085013D01*
X580797889Y-304045000D01*
X580542111Y-304045000D01*
X580289476Y-304085013D01*
X580046218Y-304164051D01*
X580046215Y-304164052D01*
X579818310Y-304280177D01*
X579711403Y-304357849D01*
X579711402Y-304357850D01*
X580269437Y-304915885D01*
X580267374Y-304916740D01*
X580128156Y-305009762D01*
X580009762Y-305128156D01*
X579916740Y-305267374D01*
X579915885Y-305269437D01*
X579357850Y-304711402D01*
X579357849Y-304711403D01*
X579280177Y-304818310D01*
X579164052Y-305046215D01*
X579164051Y-305046218D01*
X579085013Y-305289476D01*
X579045000Y-305542110D01*
X576500500Y-305542110D01*
X576500500Y-302474500D01*
X576520185Y-302407461D01*
X576572989Y-302361706D01*
X576624500Y-302350500D01*
X620760709Y-302350500D01*
X620827748Y-302370185D01*
G37*
%TD.AperFunction*%
%TD*%
M02*
