%TF.GenerationSoftware,KiCad,Pcbnew,9.0.6*%
%TF.CreationDate,2026-05-15T00:55:16+01:00*%
%TF.ProjectId,rf_controller,72665f63-6f6e-4747-926f-6c6c65722e6b,rev?*%
%TF.SameCoordinates,Original*%
%TF.FileFunction,Legend,Top*%
%TF.FilePolarity,Positive*%
%FSLAX46Y46*%
G04 Gerber Fmt 4.6, Leading zero omitted, Abs format (unit mm)*
G04 Created by KiCad (PCBNEW 9.0.6) date 2026-05-15 00:55:16*
%MOMM*%
%LPD*%
G01*
G04 APERTURE LIST*
%ADD10C,0.150000*%
%ADD11C,0.120000*%
%ADD12C,0.100000*%
%ADD13C,0.152400*%
%ADD14C,0.127000*%
%ADD15C,0.200000*%
G04 APERTURE END LIST*
D10*
X578359580Y-329062857D02*
X578407200Y-329110476D01*
X578407200Y-329110476D02*
X578454819Y-329253333D01*
X578454819Y-329253333D02*
X578454819Y-329348571D01*
X578454819Y-329348571D02*
X578407200Y-329491428D01*
X578407200Y-329491428D02*
X578311961Y-329586666D01*
X578311961Y-329586666D02*
X578216723Y-329634285D01*
X578216723Y-329634285D02*
X578026247Y-329681904D01*
X578026247Y-329681904D02*
X577883390Y-329681904D01*
X577883390Y-329681904D02*
X577692914Y-329634285D01*
X577692914Y-329634285D02*
X577597676Y-329586666D01*
X577597676Y-329586666D02*
X577502438Y-329491428D01*
X577502438Y-329491428D02*
X577454819Y-329348571D01*
X577454819Y-329348571D02*
X577454819Y-329253333D01*
X577454819Y-329253333D02*
X577502438Y-329110476D01*
X577502438Y-329110476D02*
X577550057Y-329062857D01*
X577454819Y-328729523D02*
X577454819Y-328110476D01*
X577454819Y-328110476D02*
X577835771Y-328443809D01*
X577835771Y-328443809D02*
X577835771Y-328300952D01*
X577835771Y-328300952D02*
X577883390Y-328205714D01*
X577883390Y-328205714D02*
X577931009Y-328158095D01*
X577931009Y-328158095D02*
X578026247Y-328110476D01*
X578026247Y-328110476D02*
X578264342Y-328110476D01*
X578264342Y-328110476D02*
X578359580Y-328158095D01*
X578359580Y-328158095D02*
X578407200Y-328205714D01*
X578407200Y-328205714D02*
X578454819Y-328300952D01*
X578454819Y-328300952D02*
X578454819Y-328586666D01*
X578454819Y-328586666D02*
X578407200Y-328681904D01*
X578407200Y-328681904D02*
X578359580Y-328729523D01*
X577454819Y-327205714D02*
X577454819Y-327681904D01*
X577454819Y-327681904D02*
X577931009Y-327729523D01*
X577931009Y-327729523D02*
X577883390Y-327681904D01*
X577883390Y-327681904D02*
X577835771Y-327586666D01*
X577835771Y-327586666D02*
X577835771Y-327348571D01*
X577835771Y-327348571D02*
X577883390Y-327253333D01*
X577883390Y-327253333D02*
X577931009Y-327205714D01*
X577931009Y-327205714D02*
X578026247Y-327158095D01*
X578026247Y-327158095D02*
X578264342Y-327158095D01*
X578264342Y-327158095D02*
X578359580Y-327205714D01*
X578359580Y-327205714D02*
X578407200Y-327253333D01*
X578407200Y-327253333D02*
X578454819Y-327348571D01*
X578454819Y-327348571D02*
X578454819Y-327586666D01*
X578454819Y-327586666D02*
X578407200Y-327681904D01*
X578407200Y-327681904D02*
X578359580Y-327729523D01*
X626480952Y-369754819D02*
X626480952Y-370564342D01*
X626480952Y-370564342D02*
X626528571Y-370659580D01*
X626528571Y-370659580D02*
X626576190Y-370707200D01*
X626576190Y-370707200D02*
X626671428Y-370754819D01*
X626671428Y-370754819D02*
X626861904Y-370754819D01*
X626861904Y-370754819D02*
X626957142Y-370707200D01*
X626957142Y-370707200D02*
X627004761Y-370659580D01*
X627004761Y-370659580D02*
X627052380Y-370564342D01*
X627052380Y-370564342D02*
X627052380Y-369754819D01*
X628004761Y-370754819D02*
X627528571Y-370754819D01*
X627528571Y-370754819D02*
X627528571Y-369754819D01*
X628338095Y-370231009D02*
X628671428Y-370231009D01*
X628814285Y-370754819D02*
X628338095Y-370754819D01*
X628338095Y-370754819D02*
X628338095Y-369754819D01*
X628338095Y-369754819D02*
X628814285Y-369754819D01*
X629242857Y-370754819D02*
X629242857Y-369754819D01*
X629242857Y-369754819D02*
X629480952Y-369754819D01*
X629480952Y-369754819D02*
X629623809Y-369802438D01*
X629623809Y-369802438D02*
X629719047Y-369897676D01*
X629719047Y-369897676D02*
X629766666Y-369992914D01*
X629766666Y-369992914D02*
X629814285Y-370183390D01*
X629814285Y-370183390D02*
X629814285Y-370326247D01*
X629814285Y-370326247D02*
X629766666Y-370516723D01*
X629766666Y-370516723D02*
X629719047Y-370611961D01*
X629719047Y-370611961D02*
X629623809Y-370707200D01*
X629623809Y-370707200D02*
X629480952Y-370754819D01*
X629480952Y-370754819D02*
X629242857Y-370754819D01*
X630766666Y-370754819D02*
X630195238Y-370754819D01*
X630480952Y-370754819D02*
X630480952Y-369754819D01*
X630480952Y-369754819D02*
X630385714Y-369897676D01*
X630385714Y-369897676D02*
X630290476Y-369992914D01*
X630290476Y-369992914D02*
X630195238Y-370040533D01*
X621066666Y-336601009D02*
X620733333Y-336601009D01*
X620733333Y-337124819D02*
X620733333Y-336124819D01*
X620733333Y-336124819D02*
X621209523Y-336124819D01*
X621542857Y-336220057D02*
X621590476Y-336172438D01*
X621590476Y-336172438D02*
X621685714Y-336124819D01*
X621685714Y-336124819D02*
X621923809Y-336124819D01*
X621923809Y-336124819D02*
X622019047Y-336172438D01*
X622019047Y-336172438D02*
X622066666Y-336220057D01*
X622066666Y-336220057D02*
X622114285Y-336315295D01*
X622114285Y-336315295D02*
X622114285Y-336410533D01*
X622114285Y-336410533D02*
X622066666Y-336553390D01*
X622066666Y-336553390D02*
X621495238Y-337124819D01*
X621495238Y-337124819D02*
X622114285Y-337124819D01*
X598621429Y-310004819D02*
X599192857Y-310004819D01*
X598907143Y-311004819D02*
X598907143Y-310004819D01*
X599526191Y-311004819D02*
X599526191Y-310004819D01*
X599526191Y-310004819D02*
X599907143Y-310004819D01*
X599907143Y-310004819D02*
X600002381Y-310052438D01*
X600002381Y-310052438D02*
X600050000Y-310100057D01*
X600050000Y-310100057D02*
X600097619Y-310195295D01*
X600097619Y-310195295D02*
X600097619Y-310338152D01*
X600097619Y-310338152D02*
X600050000Y-310433390D01*
X600050000Y-310433390D02*
X600002381Y-310481009D01*
X600002381Y-310481009D02*
X599907143Y-310528628D01*
X599907143Y-310528628D02*
X599526191Y-310528628D01*
X600526191Y-310623866D02*
X601288096Y-310623866D01*
X602288095Y-310052438D02*
X602192857Y-310004819D01*
X602192857Y-310004819D02*
X602050000Y-310004819D01*
X602050000Y-310004819D02*
X601907143Y-310052438D01*
X601907143Y-310052438D02*
X601811905Y-310147676D01*
X601811905Y-310147676D02*
X601764286Y-310242914D01*
X601764286Y-310242914D02*
X601716667Y-310433390D01*
X601716667Y-310433390D02*
X601716667Y-310576247D01*
X601716667Y-310576247D02*
X601764286Y-310766723D01*
X601764286Y-310766723D02*
X601811905Y-310861961D01*
X601811905Y-310861961D02*
X601907143Y-310957200D01*
X601907143Y-310957200D02*
X602050000Y-311004819D01*
X602050000Y-311004819D02*
X602145238Y-311004819D01*
X602145238Y-311004819D02*
X602288095Y-310957200D01*
X602288095Y-310957200D02*
X602335714Y-310909580D01*
X602335714Y-310909580D02*
X602335714Y-310576247D01*
X602335714Y-310576247D02*
X602145238Y-310576247D01*
X602764286Y-311004819D02*
X602764286Y-310004819D01*
X602764286Y-310004819D02*
X603335714Y-311004819D01*
X603335714Y-311004819D02*
X603335714Y-310004819D01*
X603811905Y-311004819D02*
X603811905Y-310004819D01*
X603811905Y-310004819D02*
X604050000Y-310004819D01*
X604050000Y-310004819D02*
X604192857Y-310052438D01*
X604192857Y-310052438D02*
X604288095Y-310147676D01*
X604288095Y-310147676D02*
X604335714Y-310242914D01*
X604335714Y-310242914D02*
X604383333Y-310433390D01*
X604383333Y-310433390D02*
X604383333Y-310576247D01*
X604383333Y-310576247D02*
X604335714Y-310766723D01*
X604335714Y-310766723D02*
X604288095Y-310861961D01*
X604288095Y-310861961D02*
X604192857Y-310957200D01*
X604192857Y-310957200D02*
X604050000Y-311004819D01*
X604050000Y-311004819D02*
X603811905Y-311004819D01*
X585132143Y-371054819D02*
X585132143Y-371864342D01*
X585132143Y-371864342D02*
X585179762Y-371959580D01*
X585179762Y-371959580D02*
X585227381Y-372007200D01*
X585227381Y-372007200D02*
X585322619Y-372054819D01*
X585322619Y-372054819D02*
X585513095Y-372054819D01*
X585513095Y-372054819D02*
X585608333Y-372007200D01*
X585608333Y-372007200D02*
X585655952Y-371959580D01*
X585655952Y-371959580D02*
X585703571Y-371864342D01*
X585703571Y-371864342D02*
X585703571Y-371054819D01*
X586513095Y-371531009D02*
X586655952Y-371578628D01*
X586655952Y-371578628D02*
X586703571Y-371626247D01*
X586703571Y-371626247D02*
X586751190Y-371721485D01*
X586751190Y-371721485D02*
X586751190Y-371864342D01*
X586751190Y-371864342D02*
X586703571Y-371959580D01*
X586703571Y-371959580D02*
X586655952Y-372007200D01*
X586655952Y-372007200D02*
X586560714Y-372054819D01*
X586560714Y-372054819D02*
X586179762Y-372054819D01*
X586179762Y-372054819D02*
X586179762Y-371054819D01*
X586179762Y-371054819D02*
X586513095Y-371054819D01*
X586513095Y-371054819D02*
X586608333Y-371102438D01*
X586608333Y-371102438D02*
X586655952Y-371150057D01*
X586655952Y-371150057D02*
X586703571Y-371245295D01*
X586703571Y-371245295D02*
X586703571Y-371340533D01*
X586703571Y-371340533D02*
X586655952Y-371435771D01*
X586655952Y-371435771D02*
X586608333Y-371483390D01*
X586608333Y-371483390D02*
X586513095Y-371531009D01*
X586513095Y-371531009D02*
X586179762Y-371531009D01*
X587036905Y-371054819D02*
X587608333Y-371054819D01*
X587322619Y-372054819D02*
X587322619Y-371054819D01*
X587894048Y-371150057D02*
X587941667Y-371102438D01*
X587941667Y-371102438D02*
X588036905Y-371054819D01*
X588036905Y-371054819D02*
X588275000Y-371054819D01*
X588275000Y-371054819D02*
X588370238Y-371102438D01*
X588370238Y-371102438D02*
X588417857Y-371150057D01*
X588417857Y-371150057D02*
X588465476Y-371245295D01*
X588465476Y-371245295D02*
X588465476Y-371340533D01*
X588465476Y-371340533D02*
X588417857Y-371483390D01*
X588417857Y-371483390D02*
X587846429Y-372054819D01*
X587846429Y-372054819D02*
X588465476Y-372054819D01*
X591429819Y-372666666D02*
X590953628Y-372999999D01*
X591429819Y-373238094D02*
X590429819Y-373238094D01*
X590429819Y-373238094D02*
X590429819Y-372857142D01*
X590429819Y-372857142D02*
X590477438Y-372761904D01*
X590477438Y-372761904D02*
X590525057Y-372714285D01*
X590525057Y-372714285D02*
X590620295Y-372666666D01*
X590620295Y-372666666D02*
X590763152Y-372666666D01*
X590763152Y-372666666D02*
X590858390Y-372714285D01*
X590858390Y-372714285D02*
X590906009Y-372761904D01*
X590906009Y-372761904D02*
X590953628Y-372857142D01*
X590953628Y-372857142D02*
X590953628Y-373238094D01*
X590429819Y-372333332D02*
X590429819Y-371714285D01*
X590429819Y-371714285D02*
X590810771Y-372047618D01*
X590810771Y-372047618D02*
X590810771Y-371904761D01*
X590810771Y-371904761D02*
X590858390Y-371809523D01*
X590858390Y-371809523D02*
X590906009Y-371761904D01*
X590906009Y-371761904D02*
X591001247Y-371714285D01*
X591001247Y-371714285D02*
X591239342Y-371714285D01*
X591239342Y-371714285D02*
X591334580Y-371761904D01*
X591334580Y-371761904D02*
X591382200Y-371809523D01*
X591382200Y-371809523D02*
X591429819Y-371904761D01*
X591429819Y-371904761D02*
X591429819Y-372190475D01*
X591429819Y-372190475D02*
X591382200Y-372285713D01*
X591382200Y-372285713D02*
X591334580Y-372333332D01*
X608333333Y-353254819D02*
X608000000Y-352778628D01*
X607761905Y-353254819D02*
X607761905Y-352254819D01*
X607761905Y-352254819D02*
X608142857Y-352254819D01*
X608142857Y-352254819D02*
X608238095Y-352302438D01*
X608238095Y-352302438D02*
X608285714Y-352350057D01*
X608285714Y-352350057D02*
X608333333Y-352445295D01*
X608333333Y-352445295D02*
X608333333Y-352588152D01*
X608333333Y-352588152D02*
X608285714Y-352683390D01*
X608285714Y-352683390D02*
X608238095Y-352731009D01*
X608238095Y-352731009D02*
X608142857Y-352778628D01*
X608142857Y-352778628D02*
X607761905Y-352778628D01*
X609190476Y-352588152D02*
X609190476Y-353254819D01*
X608952381Y-352207200D02*
X608714286Y-352921485D01*
X608714286Y-352921485D02*
X609333333Y-352921485D01*
X615957142Y-354159580D02*
X615909523Y-354207200D01*
X615909523Y-354207200D02*
X615766666Y-354254819D01*
X615766666Y-354254819D02*
X615671428Y-354254819D01*
X615671428Y-354254819D02*
X615528571Y-354207200D01*
X615528571Y-354207200D02*
X615433333Y-354111961D01*
X615433333Y-354111961D02*
X615385714Y-354016723D01*
X615385714Y-354016723D02*
X615338095Y-353826247D01*
X615338095Y-353826247D02*
X615338095Y-353683390D01*
X615338095Y-353683390D02*
X615385714Y-353492914D01*
X615385714Y-353492914D02*
X615433333Y-353397676D01*
X615433333Y-353397676D02*
X615528571Y-353302438D01*
X615528571Y-353302438D02*
X615671428Y-353254819D01*
X615671428Y-353254819D02*
X615766666Y-353254819D01*
X615766666Y-353254819D02*
X615909523Y-353302438D01*
X615909523Y-353302438D02*
X615957142Y-353350057D01*
X616909523Y-354254819D02*
X616338095Y-354254819D01*
X616623809Y-354254819D02*
X616623809Y-353254819D01*
X616623809Y-353254819D02*
X616528571Y-353397676D01*
X616528571Y-353397676D02*
X616433333Y-353492914D01*
X616433333Y-353492914D02*
X616338095Y-353540533D01*
X617528571Y-353254819D02*
X617623809Y-353254819D01*
X617623809Y-353254819D02*
X617719047Y-353302438D01*
X617719047Y-353302438D02*
X617766666Y-353350057D01*
X617766666Y-353350057D02*
X617814285Y-353445295D01*
X617814285Y-353445295D02*
X617861904Y-353635771D01*
X617861904Y-353635771D02*
X617861904Y-353873866D01*
X617861904Y-353873866D02*
X617814285Y-354064342D01*
X617814285Y-354064342D02*
X617766666Y-354159580D01*
X617766666Y-354159580D02*
X617719047Y-354207200D01*
X617719047Y-354207200D02*
X617623809Y-354254819D01*
X617623809Y-354254819D02*
X617528571Y-354254819D01*
X617528571Y-354254819D02*
X617433333Y-354207200D01*
X617433333Y-354207200D02*
X617385714Y-354159580D01*
X617385714Y-354159580D02*
X617338095Y-354064342D01*
X617338095Y-354064342D02*
X617290476Y-353873866D01*
X617290476Y-353873866D02*
X617290476Y-353635771D01*
X617290476Y-353635771D02*
X617338095Y-353445295D01*
X617338095Y-353445295D02*
X617385714Y-353350057D01*
X617385714Y-353350057D02*
X617433333Y-353302438D01*
X617433333Y-353302438D02*
X617528571Y-353254819D01*
X605121904Y-329954819D02*
X604645714Y-329954819D01*
X604645714Y-329954819D02*
X604645714Y-328954819D01*
X605883809Y-328954819D02*
X605693333Y-328954819D01*
X605693333Y-328954819D02*
X605598095Y-329002438D01*
X605598095Y-329002438D02*
X605550476Y-329050057D01*
X605550476Y-329050057D02*
X605455238Y-329192914D01*
X605455238Y-329192914D02*
X605407619Y-329383390D01*
X605407619Y-329383390D02*
X605407619Y-329764342D01*
X605407619Y-329764342D02*
X605455238Y-329859580D01*
X605455238Y-329859580D02*
X605502857Y-329907200D01*
X605502857Y-329907200D02*
X605598095Y-329954819D01*
X605598095Y-329954819D02*
X605788571Y-329954819D01*
X605788571Y-329954819D02*
X605883809Y-329907200D01*
X605883809Y-329907200D02*
X605931428Y-329859580D01*
X605931428Y-329859580D02*
X605979047Y-329764342D01*
X605979047Y-329764342D02*
X605979047Y-329526247D01*
X605979047Y-329526247D02*
X605931428Y-329431009D01*
X605931428Y-329431009D02*
X605883809Y-329383390D01*
X605883809Y-329383390D02*
X605788571Y-329335771D01*
X605788571Y-329335771D02*
X605598095Y-329335771D01*
X605598095Y-329335771D02*
X605502857Y-329383390D01*
X605502857Y-329383390D02*
X605455238Y-329431009D01*
X605455238Y-329431009D02*
X605407619Y-329526247D01*
X606360000Y-329050057D02*
X606407619Y-329002438D01*
X606407619Y-329002438D02*
X606502857Y-328954819D01*
X606502857Y-328954819D02*
X606740952Y-328954819D01*
X606740952Y-328954819D02*
X606836190Y-329002438D01*
X606836190Y-329002438D02*
X606883809Y-329050057D01*
X606883809Y-329050057D02*
X606931428Y-329145295D01*
X606931428Y-329145295D02*
X606931428Y-329240533D01*
X606931428Y-329240533D02*
X606883809Y-329383390D01*
X606883809Y-329383390D02*
X606312381Y-329954819D01*
X606312381Y-329954819D02*
X606931428Y-329954819D01*
X607360000Y-329573866D02*
X608121905Y-329573866D01*
X608550476Y-329050057D02*
X608598095Y-329002438D01*
X608598095Y-329002438D02*
X608693333Y-328954819D01*
X608693333Y-328954819D02*
X608931428Y-328954819D01*
X608931428Y-328954819D02*
X609026666Y-329002438D01*
X609026666Y-329002438D02*
X609074285Y-329050057D01*
X609074285Y-329050057D02*
X609121904Y-329145295D01*
X609121904Y-329145295D02*
X609121904Y-329240533D01*
X609121904Y-329240533D02*
X609074285Y-329383390D01*
X609074285Y-329383390D02*
X608502857Y-329954819D01*
X608502857Y-329954819D02*
X609121904Y-329954819D01*
X591040476Y-308004819D02*
X591040476Y-308719104D01*
X591040476Y-308719104D02*
X590992857Y-308861961D01*
X590992857Y-308861961D02*
X590897619Y-308957200D01*
X590897619Y-308957200D02*
X590754762Y-309004819D01*
X590754762Y-309004819D02*
X590659524Y-309004819D01*
X591564286Y-309004819D02*
X591754762Y-309004819D01*
X591754762Y-309004819D02*
X591850000Y-308957200D01*
X591850000Y-308957200D02*
X591897619Y-308909580D01*
X591897619Y-308909580D02*
X591992857Y-308766723D01*
X591992857Y-308766723D02*
X592040476Y-308576247D01*
X592040476Y-308576247D02*
X592040476Y-308195295D01*
X592040476Y-308195295D02*
X591992857Y-308100057D01*
X591992857Y-308100057D02*
X591945238Y-308052438D01*
X591945238Y-308052438D02*
X591850000Y-308004819D01*
X591850000Y-308004819D02*
X591659524Y-308004819D01*
X591659524Y-308004819D02*
X591564286Y-308052438D01*
X591564286Y-308052438D02*
X591516667Y-308100057D01*
X591516667Y-308100057D02*
X591469048Y-308195295D01*
X591469048Y-308195295D02*
X591469048Y-308433390D01*
X591469048Y-308433390D02*
X591516667Y-308528628D01*
X591516667Y-308528628D02*
X591564286Y-308576247D01*
X591564286Y-308576247D02*
X591659524Y-308623866D01*
X591659524Y-308623866D02*
X591850000Y-308623866D01*
X591850000Y-308623866D02*
X591945238Y-308576247D01*
X591945238Y-308576247D02*
X591992857Y-308528628D01*
X591992857Y-308528628D02*
X592040476Y-308433390D01*
X592469048Y-308623866D02*
X593230953Y-308623866D01*
X594183333Y-309004819D02*
X593707143Y-309004819D01*
X593707143Y-309004819D02*
X593707143Y-308004819D01*
X594659524Y-308433390D02*
X594564286Y-308385771D01*
X594564286Y-308385771D02*
X594516667Y-308338152D01*
X594516667Y-308338152D02*
X594469048Y-308242914D01*
X594469048Y-308242914D02*
X594469048Y-308195295D01*
X594469048Y-308195295D02*
X594516667Y-308100057D01*
X594516667Y-308100057D02*
X594564286Y-308052438D01*
X594564286Y-308052438D02*
X594659524Y-308004819D01*
X594659524Y-308004819D02*
X594850000Y-308004819D01*
X594850000Y-308004819D02*
X594945238Y-308052438D01*
X594945238Y-308052438D02*
X594992857Y-308100057D01*
X594992857Y-308100057D02*
X595040476Y-308195295D01*
X595040476Y-308195295D02*
X595040476Y-308242914D01*
X595040476Y-308242914D02*
X594992857Y-308338152D01*
X594992857Y-308338152D02*
X594945238Y-308385771D01*
X594945238Y-308385771D02*
X594850000Y-308433390D01*
X594850000Y-308433390D02*
X594659524Y-308433390D01*
X594659524Y-308433390D02*
X594564286Y-308481009D01*
X594564286Y-308481009D02*
X594516667Y-308528628D01*
X594516667Y-308528628D02*
X594469048Y-308623866D01*
X594469048Y-308623866D02*
X594469048Y-308814342D01*
X594469048Y-308814342D02*
X594516667Y-308909580D01*
X594516667Y-308909580D02*
X594564286Y-308957200D01*
X594564286Y-308957200D02*
X594659524Y-309004819D01*
X594659524Y-309004819D02*
X594850000Y-309004819D01*
X594850000Y-309004819D02*
X594945238Y-308957200D01*
X594945238Y-308957200D02*
X594992857Y-308909580D01*
X594992857Y-308909580D02*
X595040476Y-308814342D01*
X595040476Y-308814342D02*
X595040476Y-308623866D01*
X595040476Y-308623866D02*
X594992857Y-308528628D01*
X594992857Y-308528628D02*
X594945238Y-308481009D01*
X594945238Y-308481009D02*
X594850000Y-308433390D01*
X595659524Y-308004819D02*
X595754762Y-308004819D01*
X595754762Y-308004819D02*
X595850000Y-308052438D01*
X595850000Y-308052438D02*
X595897619Y-308100057D01*
X595897619Y-308100057D02*
X595945238Y-308195295D01*
X595945238Y-308195295D02*
X595992857Y-308385771D01*
X595992857Y-308385771D02*
X595992857Y-308623866D01*
X595992857Y-308623866D02*
X595945238Y-308814342D01*
X595945238Y-308814342D02*
X595897619Y-308909580D01*
X595897619Y-308909580D02*
X595850000Y-308957200D01*
X595850000Y-308957200D02*
X595754762Y-309004819D01*
X595754762Y-309004819D02*
X595659524Y-309004819D01*
X595659524Y-309004819D02*
X595564286Y-308957200D01*
X595564286Y-308957200D02*
X595516667Y-308909580D01*
X595516667Y-308909580D02*
X595469048Y-308814342D01*
X595469048Y-308814342D02*
X595421429Y-308623866D01*
X595421429Y-308623866D02*
X595421429Y-308385771D01*
X595421429Y-308385771D02*
X595469048Y-308195295D01*
X595469048Y-308195295D02*
X595516667Y-308100057D01*
X595516667Y-308100057D02*
X595564286Y-308052438D01*
X595564286Y-308052438D02*
X595659524Y-308004819D01*
X606257142Y-372159580D02*
X606209523Y-372207200D01*
X606209523Y-372207200D02*
X606066666Y-372254819D01*
X606066666Y-372254819D02*
X605971428Y-372254819D01*
X605971428Y-372254819D02*
X605828571Y-372207200D01*
X605828571Y-372207200D02*
X605733333Y-372111961D01*
X605733333Y-372111961D02*
X605685714Y-372016723D01*
X605685714Y-372016723D02*
X605638095Y-371826247D01*
X605638095Y-371826247D02*
X605638095Y-371683390D01*
X605638095Y-371683390D02*
X605685714Y-371492914D01*
X605685714Y-371492914D02*
X605733333Y-371397676D01*
X605733333Y-371397676D02*
X605828571Y-371302438D01*
X605828571Y-371302438D02*
X605971428Y-371254819D01*
X605971428Y-371254819D02*
X606066666Y-371254819D01*
X606066666Y-371254819D02*
X606209523Y-371302438D01*
X606209523Y-371302438D02*
X606257142Y-371350057D01*
X607209523Y-372254819D02*
X606638095Y-372254819D01*
X606923809Y-372254819D02*
X606923809Y-371254819D01*
X606923809Y-371254819D02*
X606828571Y-371397676D01*
X606828571Y-371397676D02*
X606733333Y-371492914D01*
X606733333Y-371492914D02*
X606638095Y-371540533D01*
X608066666Y-371254819D02*
X607876190Y-371254819D01*
X607876190Y-371254819D02*
X607780952Y-371302438D01*
X607780952Y-371302438D02*
X607733333Y-371350057D01*
X607733333Y-371350057D02*
X607638095Y-371492914D01*
X607638095Y-371492914D02*
X607590476Y-371683390D01*
X607590476Y-371683390D02*
X607590476Y-372064342D01*
X607590476Y-372064342D02*
X607638095Y-372159580D01*
X607638095Y-372159580D02*
X607685714Y-372207200D01*
X607685714Y-372207200D02*
X607780952Y-372254819D01*
X607780952Y-372254819D02*
X607971428Y-372254819D01*
X607971428Y-372254819D02*
X608066666Y-372207200D01*
X608066666Y-372207200D02*
X608114285Y-372159580D01*
X608114285Y-372159580D02*
X608161904Y-372064342D01*
X608161904Y-372064342D02*
X608161904Y-371826247D01*
X608161904Y-371826247D02*
X608114285Y-371731009D01*
X608114285Y-371731009D02*
X608066666Y-371683390D01*
X608066666Y-371683390D02*
X607971428Y-371635771D01*
X607971428Y-371635771D02*
X607780952Y-371635771D01*
X607780952Y-371635771D02*
X607685714Y-371683390D01*
X607685714Y-371683390D02*
X607638095Y-371731009D01*
X607638095Y-371731009D02*
X607590476Y-371826247D01*
X616257142Y-372059580D02*
X616209523Y-372107200D01*
X616209523Y-372107200D02*
X616066666Y-372154819D01*
X616066666Y-372154819D02*
X615971428Y-372154819D01*
X615971428Y-372154819D02*
X615828571Y-372107200D01*
X615828571Y-372107200D02*
X615733333Y-372011961D01*
X615733333Y-372011961D02*
X615685714Y-371916723D01*
X615685714Y-371916723D02*
X615638095Y-371726247D01*
X615638095Y-371726247D02*
X615638095Y-371583390D01*
X615638095Y-371583390D02*
X615685714Y-371392914D01*
X615685714Y-371392914D02*
X615733333Y-371297676D01*
X615733333Y-371297676D02*
X615828571Y-371202438D01*
X615828571Y-371202438D02*
X615971428Y-371154819D01*
X615971428Y-371154819D02*
X616066666Y-371154819D01*
X616066666Y-371154819D02*
X616209523Y-371202438D01*
X616209523Y-371202438D02*
X616257142Y-371250057D01*
X617209523Y-372154819D02*
X616638095Y-372154819D01*
X616923809Y-372154819D02*
X616923809Y-371154819D01*
X616923809Y-371154819D02*
X616828571Y-371297676D01*
X616828571Y-371297676D02*
X616733333Y-371392914D01*
X616733333Y-371392914D02*
X616638095Y-371440533D01*
X617542857Y-371154819D02*
X618161904Y-371154819D01*
X618161904Y-371154819D02*
X617828571Y-371535771D01*
X617828571Y-371535771D02*
X617971428Y-371535771D01*
X617971428Y-371535771D02*
X618066666Y-371583390D01*
X618066666Y-371583390D02*
X618114285Y-371631009D01*
X618114285Y-371631009D02*
X618161904Y-371726247D01*
X618161904Y-371726247D02*
X618161904Y-371964342D01*
X618161904Y-371964342D02*
X618114285Y-372059580D01*
X618114285Y-372059580D02*
X618066666Y-372107200D01*
X618066666Y-372107200D02*
X617971428Y-372154819D01*
X617971428Y-372154819D02*
X617685714Y-372154819D01*
X617685714Y-372154819D02*
X617590476Y-372107200D01*
X617590476Y-372107200D02*
X617542857Y-372059580D01*
X598914286Y-306904819D02*
X599485714Y-306904819D01*
X599200000Y-307904819D02*
X599200000Y-306904819D01*
X599819048Y-307904819D02*
X599819048Y-306904819D01*
X599819048Y-306904819D02*
X600200000Y-306904819D01*
X600200000Y-306904819D02*
X600295238Y-306952438D01*
X600295238Y-306952438D02*
X600342857Y-307000057D01*
X600342857Y-307000057D02*
X600390476Y-307095295D01*
X600390476Y-307095295D02*
X600390476Y-307238152D01*
X600390476Y-307238152D02*
X600342857Y-307333390D01*
X600342857Y-307333390D02*
X600295238Y-307381009D01*
X600295238Y-307381009D02*
X600200000Y-307428628D01*
X600200000Y-307428628D02*
X599819048Y-307428628D01*
X600819048Y-307523866D02*
X601580953Y-307523866D01*
X601961905Y-306904819D02*
X602580952Y-306904819D01*
X602580952Y-306904819D02*
X602247619Y-307285771D01*
X602247619Y-307285771D02*
X602390476Y-307285771D01*
X602390476Y-307285771D02*
X602485714Y-307333390D01*
X602485714Y-307333390D02*
X602533333Y-307381009D01*
X602533333Y-307381009D02*
X602580952Y-307476247D01*
X602580952Y-307476247D02*
X602580952Y-307714342D01*
X602580952Y-307714342D02*
X602533333Y-307809580D01*
X602533333Y-307809580D02*
X602485714Y-307857200D01*
X602485714Y-307857200D02*
X602390476Y-307904819D01*
X602390476Y-307904819D02*
X602104762Y-307904819D01*
X602104762Y-307904819D02*
X602009524Y-307857200D01*
X602009524Y-307857200D02*
X601961905Y-307809580D01*
X602866667Y-306904819D02*
X603200000Y-307904819D01*
X603200000Y-307904819D02*
X603533333Y-306904819D01*
X603771429Y-306904819D02*
X604390476Y-306904819D01*
X604390476Y-306904819D02*
X604057143Y-307285771D01*
X604057143Y-307285771D02*
X604200000Y-307285771D01*
X604200000Y-307285771D02*
X604295238Y-307333390D01*
X604295238Y-307333390D02*
X604342857Y-307381009D01*
X604342857Y-307381009D02*
X604390476Y-307476247D01*
X604390476Y-307476247D02*
X604390476Y-307714342D01*
X604390476Y-307714342D02*
X604342857Y-307809580D01*
X604342857Y-307809580D02*
X604295238Y-307857200D01*
X604295238Y-307857200D02*
X604200000Y-307904819D01*
X604200000Y-307904819D02*
X603914286Y-307904819D01*
X603914286Y-307904819D02*
X603819048Y-307857200D01*
X603819048Y-307857200D02*
X603771429Y-307809580D01*
X616066666Y-373531009D02*
X615733333Y-373531009D01*
X615733333Y-374054819D02*
X615733333Y-373054819D01*
X615733333Y-373054819D02*
X616209523Y-373054819D01*
X616923809Y-373531009D02*
X617066666Y-373578628D01*
X617066666Y-373578628D02*
X617114285Y-373626247D01*
X617114285Y-373626247D02*
X617161904Y-373721485D01*
X617161904Y-373721485D02*
X617161904Y-373864342D01*
X617161904Y-373864342D02*
X617114285Y-373959580D01*
X617114285Y-373959580D02*
X617066666Y-374007200D01*
X617066666Y-374007200D02*
X616971428Y-374054819D01*
X616971428Y-374054819D02*
X616590476Y-374054819D01*
X616590476Y-374054819D02*
X616590476Y-373054819D01*
X616590476Y-373054819D02*
X616923809Y-373054819D01*
X616923809Y-373054819D02*
X617019047Y-373102438D01*
X617019047Y-373102438D02*
X617066666Y-373150057D01*
X617066666Y-373150057D02*
X617114285Y-373245295D01*
X617114285Y-373245295D02*
X617114285Y-373340533D01*
X617114285Y-373340533D02*
X617066666Y-373435771D01*
X617066666Y-373435771D02*
X617019047Y-373483390D01*
X617019047Y-373483390D02*
X616923809Y-373531009D01*
X616923809Y-373531009D02*
X616590476Y-373531009D01*
X618114285Y-374054819D02*
X617542857Y-374054819D01*
X617828571Y-374054819D02*
X617828571Y-373054819D01*
X617828571Y-373054819D02*
X617733333Y-373197676D01*
X617733333Y-373197676D02*
X617638095Y-373292914D01*
X617638095Y-373292914D02*
X617542857Y-373340533D01*
X619957142Y-351059580D02*
X619909523Y-351107200D01*
X619909523Y-351107200D02*
X619766666Y-351154819D01*
X619766666Y-351154819D02*
X619671428Y-351154819D01*
X619671428Y-351154819D02*
X619528571Y-351107200D01*
X619528571Y-351107200D02*
X619433333Y-351011961D01*
X619433333Y-351011961D02*
X619385714Y-350916723D01*
X619385714Y-350916723D02*
X619338095Y-350726247D01*
X619338095Y-350726247D02*
X619338095Y-350583390D01*
X619338095Y-350583390D02*
X619385714Y-350392914D01*
X619385714Y-350392914D02*
X619433333Y-350297676D01*
X619433333Y-350297676D02*
X619528571Y-350202438D01*
X619528571Y-350202438D02*
X619671428Y-350154819D01*
X619671428Y-350154819D02*
X619766666Y-350154819D01*
X619766666Y-350154819D02*
X619909523Y-350202438D01*
X619909523Y-350202438D02*
X619957142Y-350250057D01*
X620338095Y-350250057D02*
X620385714Y-350202438D01*
X620385714Y-350202438D02*
X620480952Y-350154819D01*
X620480952Y-350154819D02*
X620719047Y-350154819D01*
X620719047Y-350154819D02*
X620814285Y-350202438D01*
X620814285Y-350202438D02*
X620861904Y-350250057D01*
X620861904Y-350250057D02*
X620909523Y-350345295D01*
X620909523Y-350345295D02*
X620909523Y-350440533D01*
X620909523Y-350440533D02*
X620861904Y-350583390D01*
X620861904Y-350583390D02*
X620290476Y-351154819D01*
X620290476Y-351154819D02*
X620909523Y-351154819D01*
X621814285Y-350154819D02*
X621338095Y-350154819D01*
X621338095Y-350154819D02*
X621290476Y-350631009D01*
X621290476Y-350631009D02*
X621338095Y-350583390D01*
X621338095Y-350583390D02*
X621433333Y-350535771D01*
X621433333Y-350535771D02*
X621671428Y-350535771D01*
X621671428Y-350535771D02*
X621766666Y-350583390D01*
X621766666Y-350583390D02*
X621814285Y-350631009D01*
X621814285Y-350631009D02*
X621861904Y-350726247D01*
X621861904Y-350726247D02*
X621861904Y-350964342D01*
X621861904Y-350964342D02*
X621814285Y-351059580D01*
X621814285Y-351059580D02*
X621766666Y-351107200D01*
X621766666Y-351107200D02*
X621671428Y-351154819D01*
X621671428Y-351154819D02*
X621433333Y-351154819D01*
X621433333Y-351154819D02*
X621338095Y-351107200D01*
X621338095Y-351107200D02*
X621290476Y-351059580D01*
X579031009Y-353260714D02*
X579078628Y-353117857D01*
X579078628Y-353117857D02*
X579126247Y-353070238D01*
X579126247Y-353070238D02*
X579221485Y-353022619D01*
X579221485Y-353022619D02*
X579364342Y-353022619D01*
X579364342Y-353022619D02*
X579459580Y-353070238D01*
X579459580Y-353070238D02*
X579507200Y-353117857D01*
X579507200Y-353117857D02*
X579554819Y-353213095D01*
X579554819Y-353213095D02*
X579554819Y-353594047D01*
X579554819Y-353594047D02*
X578554819Y-353594047D01*
X578554819Y-353594047D02*
X578554819Y-353260714D01*
X578554819Y-353260714D02*
X578602438Y-353165476D01*
X578602438Y-353165476D02*
X578650057Y-353117857D01*
X578650057Y-353117857D02*
X578745295Y-353070238D01*
X578745295Y-353070238D02*
X578840533Y-353070238D01*
X578840533Y-353070238D02*
X578935771Y-353117857D01*
X578935771Y-353117857D02*
X578983390Y-353165476D01*
X578983390Y-353165476D02*
X579031009Y-353260714D01*
X579031009Y-353260714D02*
X579031009Y-353594047D01*
X578554819Y-352403571D02*
X578554819Y-352213095D01*
X578554819Y-352213095D02*
X578602438Y-352117857D01*
X578602438Y-352117857D02*
X578697676Y-352022619D01*
X578697676Y-352022619D02*
X578888152Y-351975000D01*
X578888152Y-351975000D02*
X579221485Y-351975000D01*
X579221485Y-351975000D02*
X579411961Y-352022619D01*
X579411961Y-352022619D02*
X579507200Y-352117857D01*
X579507200Y-352117857D02*
X579554819Y-352213095D01*
X579554819Y-352213095D02*
X579554819Y-352403571D01*
X579554819Y-352403571D02*
X579507200Y-352498809D01*
X579507200Y-352498809D02*
X579411961Y-352594047D01*
X579411961Y-352594047D02*
X579221485Y-352641666D01*
X579221485Y-352641666D02*
X578888152Y-352641666D01*
X578888152Y-352641666D02*
X578697676Y-352594047D01*
X578697676Y-352594047D02*
X578602438Y-352498809D01*
X578602438Y-352498809D02*
X578554819Y-352403571D01*
X578554819Y-351355952D02*
X578554819Y-351165476D01*
X578554819Y-351165476D02*
X578602438Y-351070238D01*
X578602438Y-351070238D02*
X578697676Y-350975000D01*
X578697676Y-350975000D02*
X578888152Y-350927381D01*
X578888152Y-350927381D02*
X579221485Y-350927381D01*
X579221485Y-350927381D02*
X579411961Y-350975000D01*
X579411961Y-350975000D02*
X579507200Y-351070238D01*
X579507200Y-351070238D02*
X579554819Y-351165476D01*
X579554819Y-351165476D02*
X579554819Y-351355952D01*
X579554819Y-351355952D02*
X579507200Y-351451190D01*
X579507200Y-351451190D02*
X579411961Y-351546428D01*
X579411961Y-351546428D02*
X579221485Y-351594047D01*
X579221485Y-351594047D02*
X578888152Y-351594047D01*
X578888152Y-351594047D02*
X578697676Y-351546428D01*
X578697676Y-351546428D02*
X578602438Y-351451190D01*
X578602438Y-351451190D02*
X578554819Y-351355952D01*
X578554819Y-350641666D02*
X578554819Y-350070238D01*
X579554819Y-350355952D02*
X578554819Y-350355952D01*
X579650057Y-349975000D02*
X579650057Y-349213095D01*
X579507200Y-349022618D02*
X579554819Y-348879761D01*
X579554819Y-348879761D02*
X579554819Y-348641666D01*
X579554819Y-348641666D02*
X579507200Y-348546428D01*
X579507200Y-348546428D02*
X579459580Y-348498809D01*
X579459580Y-348498809D02*
X579364342Y-348451190D01*
X579364342Y-348451190D02*
X579269104Y-348451190D01*
X579269104Y-348451190D02*
X579173866Y-348498809D01*
X579173866Y-348498809D02*
X579126247Y-348546428D01*
X579126247Y-348546428D02*
X579078628Y-348641666D01*
X579078628Y-348641666D02*
X579031009Y-348832142D01*
X579031009Y-348832142D02*
X578983390Y-348927380D01*
X578983390Y-348927380D02*
X578935771Y-348974999D01*
X578935771Y-348974999D02*
X578840533Y-349022618D01*
X578840533Y-349022618D02*
X578745295Y-349022618D01*
X578745295Y-349022618D02*
X578650057Y-348974999D01*
X578650057Y-348974999D02*
X578602438Y-348927380D01*
X578602438Y-348927380D02*
X578554819Y-348832142D01*
X578554819Y-348832142D02*
X578554819Y-348594047D01*
X578554819Y-348594047D02*
X578602438Y-348451190D01*
X578554819Y-348117856D02*
X579554819Y-347879761D01*
X579554819Y-347879761D02*
X578840533Y-347689285D01*
X578840533Y-347689285D02*
X579554819Y-347498809D01*
X579554819Y-347498809D02*
X578554819Y-347260714D01*
X616317142Y-312759580D02*
X616269523Y-312807200D01*
X616269523Y-312807200D02*
X616126666Y-312854819D01*
X616126666Y-312854819D02*
X616031428Y-312854819D01*
X616031428Y-312854819D02*
X615888571Y-312807200D01*
X615888571Y-312807200D02*
X615793333Y-312711961D01*
X615793333Y-312711961D02*
X615745714Y-312616723D01*
X615745714Y-312616723D02*
X615698095Y-312426247D01*
X615698095Y-312426247D02*
X615698095Y-312283390D01*
X615698095Y-312283390D02*
X615745714Y-312092914D01*
X615745714Y-312092914D02*
X615793333Y-311997676D01*
X615793333Y-311997676D02*
X615888571Y-311902438D01*
X615888571Y-311902438D02*
X616031428Y-311854819D01*
X616031428Y-311854819D02*
X616126666Y-311854819D01*
X616126666Y-311854819D02*
X616269523Y-311902438D01*
X616269523Y-311902438D02*
X616317142Y-311950057D01*
X616650476Y-311854819D02*
X617269523Y-311854819D01*
X617269523Y-311854819D02*
X616936190Y-312235771D01*
X616936190Y-312235771D02*
X617079047Y-312235771D01*
X617079047Y-312235771D02*
X617174285Y-312283390D01*
X617174285Y-312283390D02*
X617221904Y-312331009D01*
X617221904Y-312331009D02*
X617269523Y-312426247D01*
X617269523Y-312426247D02*
X617269523Y-312664342D01*
X617269523Y-312664342D02*
X617221904Y-312759580D01*
X617221904Y-312759580D02*
X617174285Y-312807200D01*
X617174285Y-312807200D02*
X617079047Y-312854819D01*
X617079047Y-312854819D02*
X616793333Y-312854819D01*
X616793333Y-312854819D02*
X616698095Y-312807200D01*
X616698095Y-312807200D02*
X616650476Y-312759580D01*
X618126666Y-312188152D02*
X618126666Y-312854819D01*
X617888571Y-311807200D02*
X617650476Y-312521485D01*
X617650476Y-312521485D02*
X618269523Y-312521485D01*
X590457142Y-364459580D02*
X590409523Y-364507200D01*
X590409523Y-364507200D02*
X590266666Y-364554819D01*
X590266666Y-364554819D02*
X590171428Y-364554819D01*
X590171428Y-364554819D02*
X590028571Y-364507200D01*
X590028571Y-364507200D02*
X589933333Y-364411961D01*
X589933333Y-364411961D02*
X589885714Y-364316723D01*
X589885714Y-364316723D02*
X589838095Y-364126247D01*
X589838095Y-364126247D02*
X589838095Y-363983390D01*
X589838095Y-363983390D02*
X589885714Y-363792914D01*
X589885714Y-363792914D02*
X589933333Y-363697676D01*
X589933333Y-363697676D02*
X590028571Y-363602438D01*
X590028571Y-363602438D02*
X590171428Y-363554819D01*
X590171428Y-363554819D02*
X590266666Y-363554819D01*
X590266666Y-363554819D02*
X590409523Y-363602438D01*
X590409523Y-363602438D02*
X590457142Y-363650057D01*
X590790476Y-363554819D02*
X591409523Y-363554819D01*
X591409523Y-363554819D02*
X591076190Y-363935771D01*
X591076190Y-363935771D02*
X591219047Y-363935771D01*
X591219047Y-363935771D02*
X591314285Y-363983390D01*
X591314285Y-363983390D02*
X591361904Y-364031009D01*
X591361904Y-364031009D02*
X591409523Y-364126247D01*
X591409523Y-364126247D02*
X591409523Y-364364342D01*
X591409523Y-364364342D02*
X591361904Y-364459580D01*
X591361904Y-364459580D02*
X591314285Y-364507200D01*
X591314285Y-364507200D02*
X591219047Y-364554819D01*
X591219047Y-364554819D02*
X590933333Y-364554819D01*
X590933333Y-364554819D02*
X590838095Y-364507200D01*
X590838095Y-364507200D02*
X590790476Y-364459580D01*
X592266666Y-363554819D02*
X592076190Y-363554819D01*
X592076190Y-363554819D02*
X591980952Y-363602438D01*
X591980952Y-363602438D02*
X591933333Y-363650057D01*
X591933333Y-363650057D02*
X591838095Y-363792914D01*
X591838095Y-363792914D02*
X591790476Y-363983390D01*
X591790476Y-363983390D02*
X591790476Y-364364342D01*
X591790476Y-364364342D02*
X591838095Y-364459580D01*
X591838095Y-364459580D02*
X591885714Y-364507200D01*
X591885714Y-364507200D02*
X591980952Y-364554819D01*
X591980952Y-364554819D02*
X592171428Y-364554819D01*
X592171428Y-364554819D02*
X592266666Y-364507200D01*
X592266666Y-364507200D02*
X592314285Y-364459580D01*
X592314285Y-364459580D02*
X592361904Y-364364342D01*
X592361904Y-364364342D02*
X592361904Y-364126247D01*
X592361904Y-364126247D02*
X592314285Y-364031009D01*
X592314285Y-364031009D02*
X592266666Y-363983390D01*
X592266666Y-363983390D02*
X592171428Y-363935771D01*
X592171428Y-363935771D02*
X591980952Y-363935771D01*
X591980952Y-363935771D02*
X591885714Y-363983390D01*
X591885714Y-363983390D02*
X591838095Y-364031009D01*
X591838095Y-364031009D02*
X591790476Y-364126247D01*
X588954819Y-352622619D02*
X588478628Y-352955952D01*
X588954819Y-353194047D02*
X587954819Y-353194047D01*
X587954819Y-353194047D02*
X587954819Y-352813095D01*
X587954819Y-352813095D02*
X588002438Y-352717857D01*
X588002438Y-352717857D02*
X588050057Y-352670238D01*
X588050057Y-352670238D02*
X588145295Y-352622619D01*
X588145295Y-352622619D02*
X588288152Y-352622619D01*
X588288152Y-352622619D02*
X588383390Y-352670238D01*
X588383390Y-352670238D02*
X588431009Y-352717857D01*
X588431009Y-352717857D02*
X588478628Y-352813095D01*
X588478628Y-352813095D02*
X588478628Y-353194047D01*
X588907200Y-352241666D02*
X588954819Y-352098809D01*
X588954819Y-352098809D02*
X588954819Y-351860714D01*
X588954819Y-351860714D02*
X588907200Y-351765476D01*
X588907200Y-351765476D02*
X588859580Y-351717857D01*
X588859580Y-351717857D02*
X588764342Y-351670238D01*
X588764342Y-351670238D02*
X588669104Y-351670238D01*
X588669104Y-351670238D02*
X588573866Y-351717857D01*
X588573866Y-351717857D02*
X588526247Y-351765476D01*
X588526247Y-351765476D02*
X588478628Y-351860714D01*
X588478628Y-351860714D02*
X588431009Y-352051190D01*
X588431009Y-352051190D02*
X588383390Y-352146428D01*
X588383390Y-352146428D02*
X588335771Y-352194047D01*
X588335771Y-352194047D02*
X588240533Y-352241666D01*
X588240533Y-352241666D02*
X588145295Y-352241666D01*
X588145295Y-352241666D02*
X588050057Y-352194047D01*
X588050057Y-352194047D02*
X588002438Y-352146428D01*
X588002438Y-352146428D02*
X587954819Y-352051190D01*
X587954819Y-352051190D02*
X587954819Y-351813095D01*
X587954819Y-351813095D02*
X588002438Y-351670238D01*
X587954819Y-351384523D02*
X587954819Y-350813095D01*
X588954819Y-351098809D02*
X587954819Y-351098809D01*
X622495179Y-341541095D02*
X621685656Y-341541095D01*
X621685656Y-341541095D02*
X621590418Y-341588714D01*
X621590418Y-341588714D02*
X621542799Y-341636333D01*
X621542799Y-341636333D02*
X621495179Y-341731571D01*
X621495179Y-341731571D02*
X621495179Y-341922047D01*
X621495179Y-341922047D02*
X621542799Y-342017285D01*
X621542799Y-342017285D02*
X621590418Y-342064904D01*
X621590418Y-342064904D02*
X621685656Y-342112523D01*
X621685656Y-342112523D02*
X622495179Y-342112523D01*
X621495179Y-343112523D02*
X621495179Y-342541095D01*
X621495179Y-342826809D02*
X622495179Y-342826809D01*
X622495179Y-342826809D02*
X622352322Y-342731571D01*
X622352322Y-342731571D02*
X622257084Y-342636333D01*
X622257084Y-342636333D02*
X622209465Y-342541095D01*
X595654819Y-340258095D02*
X595654819Y-340734285D01*
X595654819Y-340734285D02*
X594654819Y-340734285D01*
X595083390Y-339781904D02*
X595035771Y-339877142D01*
X595035771Y-339877142D02*
X594988152Y-339924761D01*
X594988152Y-339924761D02*
X594892914Y-339972380D01*
X594892914Y-339972380D02*
X594845295Y-339972380D01*
X594845295Y-339972380D02*
X594750057Y-339924761D01*
X594750057Y-339924761D02*
X594702438Y-339877142D01*
X594702438Y-339877142D02*
X594654819Y-339781904D01*
X594654819Y-339781904D02*
X594654819Y-339591428D01*
X594654819Y-339591428D02*
X594702438Y-339496190D01*
X594702438Y-339496190D02*
X594750057Y-339448571D01*
X594750057Y-339448571D02*
X594845295Y-339400952D01*
X594845295Y-339400952D02*
X594892914Y-339400952D01*
X594892914Y-339400952D02*
X594988152Y-339448571D01*
X594988152Y-339448571D02*
X595035771Y-339496190D01*
X595035771Y-339496190D02*
X595083390Y-339591428D01*
X595083390Y-339591428D02*
X595083390Y-339781904D01*
X595083390Y-339781904D02*
X595131009Y-339877142D01*
X595131009Y-339877142D02*
X595178628Y-339924761D01*
X595178628Y-339924761D02*
X595273866Y-339972380D01*
X595273866Y-339972380D02*
X595464342Y-339972380D01*
X595464342Y-339972380D02*
X595559580Y-339924761D01*
X595559580Y-339924761D02*
X595607200Y-339877142D01*
X595607200Y-339877142D02*
X595654819Y-339781904D01*
X595654819Y-339781904D02*
X595654819Y-339591428D01*
X595654819Y-339591428D02*
X595607200Y-339496190D01*
X595607200Y-339496190D02*
X595559580Y-339448571D01*
X595559580Y-339448571D02*
X595464342Y-339400952D01*
X595464342Y-339400952D02*
X595273866Y-339400952D01*
X595273866Y-339400952D02*
X595178628Y-339448571D01*
X595178628Y-339448571D02*
X595131009Y-339496190D01*
X595131009Y-339496190D02*
X595083390Y-339591428D01*
X594654819Y-338781904D02*
X594654819Y-338686666D01*
X594654819Y-338686666D02*
X594702438Y-338591428D01*
X594702438Y-338591428D02*
X594750057Y-338543809D01*
X594750057Y-338543809D02*
X594845295Y-338496190D01*
X594845295Y-338496190D02*
X595035771Y-338448571D01*
X595035771Y-338448571D02*
X595273866Y-338448571D01*
X595273866Y-338448571D02*
X595464342Y-338496190D01*
X595464342Y-338496190D02*
X595559580Y-338543809D01*
X595559580Y-338543809D02*
X595607200Y-338591428D01*
X595607200Y-338591428D02*
X595654819Y-338686666D01*
X595654819Y-338686666D02*
X595654819Y-338781904D01*
X595654819Y-338781904D02*
X595607200Y-338877142D01*
X595607200Y-338877142D02*
X595559580Y-338924761D01*
X595559580Y-338924761D02*
X595464342Y-338972380D01*
X595464342Y-338972380D02*
X595273866Y-339019999D01*
X595273866Y-339019999D02*
X595035771Y-339019999D01*
X595035771Y-339019999D02*
X594845295Y-338972380D01*
X594845295Y-338972380D02*
X594750057Y-338924761D01*
X594750057Y-338924761D02*
X594702438Y-338877142D01*
X594702438Y-338877142D02*
X594654819Y-338781904D01*
X595273866Y-338019999D02*
X595273866Y-337258095D01*
X594750057Y-336829523D02*
X594702438Y-336781904D01*
X594702438Y-336781904D02*
X594654819Y-336686666D01*
X594654819Y-336686666D02*
X594654819Y-336448571D01*
X594654819Y-336448571D02*
X594702438Y-336353333D01*
X594702438Y-336353333D02*
X594750057Y-336305714D01*
X594750057Y-336305714D02*
X594845295Y-336258095D01*
X594845295Y-336258095D02*
X594940533Y-336258095D01*
X594940533Y-336258095D02*
X595083390Y-336305714D01*
X595083390Y-336305714D02*
X595654819Y-336877142D01*
X595654819Y-336877142D02*
X595654819Y-336258095D01*
X627957142Y-365254819D02*
X627623809Y-364778628D01*
X627385714Y-365254819D02*
X627385714Y-364254819D01*
X627385714Y-364254819D02*
X627766666Y-364254819D01*
X627766666Y-364254819D02*
X627861904Y-364302438D01*
X627861904Y-364302438D02*
X627909523Y-364350057D01*
X627909523Y-364350057D02*
X627957142Y-364445295D01*
X627957142Y-364445295D02*
X627957142Y-364588152D01*
X627957142Y-364588152D02*
X627909523Y-364683390D01*
X627909523Y-364683390D02*
X627861904Y-364731009D01*
X627861904Y-364731009D02*
X627766666Y-364778628D01*
X627766666Y-364778628D02*
X627385714Y-364778628D01*
X628338095Y-364350057D02*
X628385714Y-364302438D01*
X628385714Y-364302438D02*
X628480952Y-364254819D01*
X628480952Y-364254819D02*
X628719047Y-364254819D01*
X628719047Y-364254819D02*
X628814285Y-364302438D01*
X628814285Y-364302438D02*
X628861904Y-364350057D01*
X628861904Y-364350057D02*
X628909523Y-364445295D01*
X628909523Y-364445295D02*
X628909523Y-364540533D01*
X628909523Y-364540533D02*
X628861904Y-364683390D01*
X628861904Y-364683390D02*
X628290476Y-365254819D01*
X628290476Y-365254819D02*
X628909523Y-365254819D01*
X629528571Y-364254819D02*
X629623809Y-364254819D01*
X629623809Y-364254819D02*
X629719047Y-364302438D01*
X629719047Y-364302438D02*
X629766666Y-364350057D01*
X629766666Y-364350057D02*
X629814285Y-364445295D01*
X629814285Y-364445295D02*
X629861904Y-364635771D01*
X629861904Y-364635771D02*
X629861904Y-364873866D01*
X629861904Y-364873866D02*
X629814285Y-365064342D01*
X629814285Y-365064342D02*
X629766666Y-365159580D01*
X629766666Y-365159580D02*
X629719047Y-365207200D01*
X629719047Y-365207200D02*
X629623809Y-365254819D01*
X629623809Y-365254819D02*
X629528571Y-365254819D01*
X629528571Y-365254819D02*
X629433333Y-365207200D01*
X629433333Y-365207200D02*
X629385714Y-365159580D01*
X629385714Y-365159580D02*
X629338095Y-365064342D01*
X629338095Y-365064342D02*
X629290476Y-364873866D01*
X629290476Y-364873866D02*
X629290476Y-364635771D01*
X629290476Y-364635771D02*
X629338095Y-364445295D01*
X629338095Y-364445295D02*
X629385714Y-364350057D01*
X629385714Y-364350057D02*
X629433333Y-364302438D01*
X629433333Y-364302438D02*
X629528571Y-364254819D01*
X624666666Y-343454819D02*
X624666666Y-344169104D01*
X624666666Y-344169104D02*
X624619047Y-344311961D01*
X624619047Y-344311961D02*
X624523809Y-344407200D01*
X624523809Y-344407200D02*
X624380952Y-344454819D01*
X624380952Y-344454819D02*
X624285714Y-344454819D01*
X625666666Y-344454819D02*
X625095238Y-344454819D01*
X625380952Y-344454819D02*
X625380952Y-343454819D01*
X625380952Y-343454819D02*
X625285714Y-343597676D01*
X625285714Y-343597676D02*
X625190476Y-343692914D01*
X625190476Y-343692914D02*
X625095238Y-343740533D01*
X626095238Y-344073866D02*
X626857143Y-344073866D01*
X627238095Y-343454819D02*
X627857142Y-343454819D01*
X627857142Y-343454819D02*
X627523809Y-343835771D01*
X627523809Y-343835771D02*
X627666666Y-343835771D01*
X627666666Y-343835771D02*
X627761904Y-343883390D01*
X627761904Y-343883390D02*
X627809523Y-343931009D01*
X627809523Y-343931009D02*
X627857142Y-344026247D01*
X627857142Y-344026247D02*
X627857142Y-344264342D01*
X627857142Y-344264342D02*
X627809523Y-344359580D01*
X627809523Y-344359580D02*
X627761904Y-344407200D01*
X627761904Y-344407200D02*
X627666666Y-344454819D01*
X627666666Y-344454819D02*
X627380952Y-344454819D01*
X627380952Y-344454819D02*
X627285714Y-344407200D01*
X627285714Y-344407200D02*
X627238095Y-344359580D01*
X628142857Y-343454819D02*
X628476190Y-344454819D01*
X628476190Y-344454819D02*
X628809523Y-343454819D01*
X629047619Y-343454819D02*
X629666666Y-343454819D01*
X629666666Y-343454819D02*
X629333333Y-343835771D01*
X629333333Y-343835771D02*
X629476190Y-343835771D01*
X629476190Y-343835771D02*
X629571428Y-343883390D01*
X629571428Y-343883390D02*
X629619047Y-343931009D01*
X629619047Y-343931009D02*
X629666666Y-344026247D01*
X629666666Y-344026247D02*
X629666666Y-344264342D01*
X629666666Y-344264342D02*
X629619047Y-344359580D01*
X629619047Y-344359580D02*
X629571428Y-344407200D01*
X629571428Y-344407200D02*
X629476190Y-344454819D01*
X629476190Y-344454819D02*
X629190476Y-344454819D01*
X629190476Y-344454819D02*
X629095238Y-344407200D01*
X629095238Y-344407200D02*
X629047619Y-344359580D01*
X594759580Y-359642857D02*
X594807200Y-359690476D01*
X594807200Y-359690476D02*
X594854819Y-359833333D01*
X594854819Y-359833333D02*
X594854819Y-359928571D01*
X594854819Y-359928571D02*
X594807200Y-360071428D01*
X594807200Y-360071428D02*
X594711961Y-360166666D01*
X594711961Y-360166666D02*
X594616723Y-360214285D01*
X594616723Y-360214285D02*
X594426247Y-360261904D01*
X594426247Y-360261904D02*
X594283390Y-360261904D01*
X594283390Y-360261904D02*
X594092914Y-360214285D01*
X594092914Y-360214285D02*
X593997676Y-360166666D01*
X593997676Y-360166666D02*
X593902438Y-360071428D01*
X593902438Y-360071428D02*
X593854819Y-359928571D01*
X593854819Y-359928571D02*
X593854819Y-359833333D01*
X593854819Y-359833333D02*
X593902438Y-359690476D01*
X593902438Y-359690476D02*
X593950057Y-359642857D01*
X593950057Y-359261904D02*
X593902438Y-359214285D01*
X593902438Y-359214285D02*
X593854819Y-359119047D01*
X593854819Y-359119047D02*
X593854819Y-358880952D01*
X593854819Y-358880952D02*
X593902438Y-358785714D01*
X593902438Y-358785714D02*
X593950057Y-358738095D01*
X593950057Y-358738095D02*
X594045295Y-358690476D01*
X594045295Y-358690476D02*
X594140533Y-358690476D01*
X594140533Y-358690476D02*
X594283390Y-358738095D01*
X594283390Y-358738095D02*
X594854819Y-359309523D01*
X594854819Y-359309523D02*
X594854819Y-358690476D01*
X593854819Y-358071428D02*
X593854819Y-357976190D01*
X593854819Y-357976190D02*
X593902438Y-357880952D01*
X593902438Y-357880952D02*
X593950057Y-357833333D01*
X593950057Y-357833333D02*
X594045295Y-357785714D01*
X594045295Y-357785714D02*
X594235771Y-357738095D01*
X594235771Y-357738095D02*
X594473866Y-357738095D01*
X594473866Y-357738095D02*
X594664342Y-357785714D01*
X594664342Y-357785714D02*
X594759580Y-357833333D01*
X594759580Y-357833333D02*
X594807200Y-357880952D01*
X594807200Y-357880952D02*
X594854819Y-357976190D01*
X594854819Y-357976190D02*
X594854819Y-358071428D01*
X594854819Y-358071428D02*
X594807200Y-358166666D01*
X594807200Y-358166666D02*
X594759580Y-358214285D01*
X594759580Y-358214285D02*
X594664342Y-358261904D01*
X594664342Y-358261904D02*
X594473866Y-358309523D01*
X594473866Y-358309523D02*
X594235771Y-358309523D01*
X594235771Y-358309523D02*
X594045295Y-358261904D01*
X594045295Y-358261904D02*
X593950057Y-358214285D01*
X593950057Y-358214285D02*
X593902438Y-358166666D01*
X593902438Y-358166666D02*
X593854819Y-358071428D01*
X593959580Y-349542857D02*
X594007200Y-349590476D01*
X594007200Y-349590476D02*
X594054819Y-349733333D01*
X594054819Y-349733333D02*
X594054819Y-349828571D01*
X594054819Y-349828571D02*
X594007200Y-349971428D01*
X594007200Y-349971428D02*
X593911961Y-350066666D01*
X593911961Y-350066666D02*
X593816723Y-350114285D01*
X593816723Y-350114285D02*
X593626247Y-350161904D01*
X593626247Y-350161904D02*
X593483390Y-350161904D01*
X593483390Y-350161904D02*
X593292914Y-350114285D01*
X593292914Y-350114285D02*
X593197676Y-350066666D01*
X593197676Y-350066666D02*
X593102438Y-349971428D01*
X593102438Y-349971428D02*
X593054819Y-349828571D01*
X593054819Y-349828571D02*
X593054819Y-349733333D01*
X593054819Y-349733333D02*
X593102438Y-349590476D01*
X593102438Y-349590476D02*
X593150057Y-349542857D01*
X594054819Y-348590476D02*
X594054819Y-349161904D01*
X594054819Y-348876190D02*
X593054819Y-348876190D01*
X593054819Y-348876190D02*
X593197676Y-348971428D01*
X593197676Y-348971428D02*
X593292914Y-349066666D01*
X593292914Y-349066666D02*
X593340533Y-349161904D01*
X594054819Y-348114285D02*
X594054819Y-347923809D01*
X594054819Y-347923809D02*
X594007200Y-347828571D01*
X594007200Y-347828571D02*
X593959580Y-347780952D01*
X593959580Y-347780952D02*
X593816723Y-347685714D01*
X593816723Y-347685714D02*
X593626247Y-347638095D01*
X593626247Y-347638095D02*
X593245295Y-347638095D01*
X593245295Y-347638095D02*
X593150057Y-347685714D01*
X593150057Y-347685714D02*
X593102438Y-347733333D01*
X593102438Y-347733333D02*
X593054819Y-347828571D01*
X593054819Y-347828571D02*
X593054819Y-348019047D01*
X593054819Y-348019047D02*
X593102438Y-348114285D01*
X593102438Y-348114285D02*
X593150057Y-348161904D01*
X593150057Y-348161904D02*
X593245295Y-348209523D01*
X593245295Y-348209523D02*
X593483390Y-348209523D01*
X593483390Y-348209523D02*
X593578628Y-348161904D01*
X593578628Y-348161904D02*
X593626247Y-348114285D01*
X593626247Y-348114285D02*
X593673866Y-348019047D01*
X593673866Y-348019047D02*
X593673866Y-347828571D01*
X593673866Y-347828571D02*
X593626247Y-347733333D01*
X593626247Y-347733333D02*
X593578628Y-347685714D01*
X593578628Y-347685714D02*
X593483390Y-347638095D01*
X596757142Y-355559580D02*
X596709523Y-355607200D01*
X596709523Y-355607200D02*
X596566666Y-355654819D01*
X596566666Y-355654819D02*
X596471428Y-355654819D01*
X596471428Y-355654819D02*
X596328571Y-355607200D01*
X596328571Y-355607200D02*
X596233333Y-355511961D01*
X596233333Y-355511961D02*
X596185714Y-355416723D01*
X596185714Y-355416723D02*
X596138095Y-355226247D01*
X596138095Y-355226247D02*
X596138095Y-355083390D01*
X596138095Y-355083390D02*
X596185714Y-354892914D01*
X596185714Y-354892914D02*
X596233333Y-354797676D01*
X596233333Y-354797676D02*
X596328571Y-354702438D01*
X596328571Y-354702438D02*
X596471428Y-354654819D01*
X596471428Y-354654819D02*
X596566666Y-354654819D01*
X596566666Y-354654819D02*
X596709523Y-354702438D01*
X596709523Y-354702438D02*
X596757142Y-354750057D01*
X597709523Y-355654819D02*
X597138095Y-355654819D01*
X597423809Y-355654819D02*
X597423809Y-354654819D01*
X597423809Y-354654819D02*
X597328571Y-354797676D01*
X597328571Y-354797676D02*
X597233333Y-354892914D01*
X597233333Y-354892914D02*
X597138095Y-354940533D01*
X598661904Y-355654819D02*
X598090476Y-355654819D01*
X598376190Y-355654819D02*
X598376190Y-354654819D01*
X598376190Y-354654819D02*
X598280952Y-354797676D01*
X598280952Y-354797676D02*
X598185714Y-354892914D01*
X598185714Y-354892914D02*
X598090476Y-354940533D01*
X628059580Y-336642857D02*
X628107200Y-336690476D01*
X628107200Y-336690476D02*
X628154819Y-336833333D01*
X628154819Y-336833333D02*
X628154819Y-336928571D01*
X628154819Y-336928571D02*
X628107200Y-337071428D01*
X628107200Y-337071428D02*
X628011961Y-337166666D01*
X628011961Y-337166666D02*
X627916723Y-337214285D01*
X627916723Y-337214285D02*
X627726247Y-337261904D01*
X627726247Y-337261904D02*
X627583390Y-337261904D01*
X627583390Y-337261904D02*
X627392914Y-337214285D01*
X627392914Y-337214285D02*
X627297676Y-337166666D01*
X627297676Y-337166666D02*
X627202438Y-337071428D01*
X627202438Y-337071428D02*
X627154819Y-336928571D01*
X627154819Y-336928571D02*
X627154819Y-336833333D01*
X627154819Y-336833333D02*
X627202438Y-336690476D01*
X627202438Y-336690476D02*
X627250057Y-336642857D01*
X627250057Y-336261904D02*
X627202438Y-336214285D01*
X627202438Y-336214285D02*
X627154819Y-336119047D01*
X627154819Y-336119047D02*
X627154819Y-335880952D01*
X627154819Y-335880952D02*
X627202438Y-335785714D01*
X627202438Y-335785714D02*
X627250057Y-335738095D01*
X627250057Y-335738095D02*
X627345295Y-335690476D01*
X627345295Y-335690476D02*
X627440533Y-335690476D01*
X627440533Y-335690476D02*
X627583390Y-335738095D01*
X627583390Y-335738095D02*
X628154819Y-336309523D01*
X628154819Y-336309523D02*
X628154819Y-335690476D01*
X627488152Y-334833333D02*
X628154819Y-334833333D01*
X627107200Y-335071428D02*
X627821485Y-335309523D01*
X627821485Y-335309523D02*
X627821485Y-334690476D01*
X600857142Y-367489580D02*
X600809523Y-367537200D01*
X600809523Y-367537200D02*
X600666666Y-367584819D01*
X600666666Y-367584819D02*
X600571428Y-367584819D01*
X600571428Y-367584819D02*
X600428571Y-367537200D01*
X600428571Y-367537200D02*
X600333333Y-367441961D01*
X600333333Y-367441961D02*
X600285714Y-367346723D01*
X600285714Y-367346723D02*
X600238095Y-367156247D01*
X600238095Y-367156247D02*
X600238095Y-367013390D01*
X600238095Y-367013390D02*
X600285714Y-366822914D01*
X600285714Y-366822914D02*
X600333333Y-366727676D01*
X600333333Y-366727676D02*
X600428571Y-366632438D01*
X600428571Y-366632438D02*
X600571428Y-366584819D01*
X600571428Y-366584819D02*
X600666666Y-366584819D01*
X600666666Y-366584819D02*
X600809523Y-366632438D01*
X600809523Y-366632438D02*
X600857142Y-366680057D01*
X601809523Y-367584819D02*
X601238095Y-367584819D01*
X601523809Y-367584819D02*
X601523809Y-366584819D01*
X601523809Y-366584819D02*
X601428571Y-366727676D01*
X601428571Y-366727676D02*
X601333333Y-366822914D01*
X601333333Y-366822914D02*
X601238095Y-366870533D01*
X602142857Y-366584819D02*
X602809523Y-366584819D01*
X602809523Y-366584819D02*
X602380952Y-367584819D01*
X618769104Y-309452380D02*
X618769104Y-308976190D01*
X619054819Y-309547618D02*
X618054819Y-309214285D01*
X618054819Y-309214285D02*
X619054819Y-308880952D01*
X619054819Y-308547618D02*
X618054819Y-308547618D01*
X618054819Y-308547618D02*
X619054819Y-307976190D01*
X619054819Y-307976190D02*
X618054819Y-307976190D01*
X618054819Y-307642856D02*
X618054819Y-307071428D01*
X619054819Y-307357142D02*
X618054819Y-307357142D01*
X619150057Y-306976190D02*
X619150057Y-306214285D01*
X618483390Y-305833332D02*
X618435771Y-305928570D01*
X618435771Y-305928570D02*
X618388152Y-305976189D01*
X618388152Y-305976189D02*
X618292914Y-306023808D01*
X618292914Y-306023808D02*
X618245295Y-306023808D01*
X618245295Y-306023808D02*
X618150057Y-305976189D01*
X618150057Y-305976189D02*
X618102438Y-305928570D01*
X618102438Y-305928570D02*
X618054819Y-305833332D01*
X618054819Y-305833332D02*
X618054819Y-305642856D01*
X618054819Y-305642856D02*
X618102438Y-305547618D01*
X618102438Y-305547618D02*
X618150057Y-305499999D01*
X618150057Y-305499999D02*
X618245295Y-305452380D01*
X618245295Y-305452380D02*
X618292914Y-305452380D01*
X618292914Y-305452380D02*
X618388152Y-305499999D01*
X618388152Y-305499999D02*
X618435771Y-305547618D01*
X618435771Y-305547618D02*
X618483390Y-305642856D01*
X618483390Y-305642856D02*
X618483390Y-305833332D01*
X618483390Y-305833332D02*
X618531009Y-305928570D01*
X618531009Y-305928570D02*
X618578628Y-305976189D01*
X618578628Y-305976189D02*
X618673866Y-306023808D01*
X618673866Y-306023808D02*
X618864342Y-306023808D01*
X618864342Y-306023808D02*
X618959580Y-305976189D01*
X618959580Y-305976189D02*
X619007200Y-305928570D01*
X619007200Y-305928570D02*
X619054819Y-305833332D01*
X619054819Y-305833332D02*
X619054819Y-305642856D01*
X619054819Y-305642856D02*
X619007200Y-305547618D01*
X619007200Y-305547618D02*
X618959580Y-305499999D01*
X618959580Y-305499999D02*
X618864342Y-305452380D01*
X618864342Y-305452380D02*
X618673866Y-305452380D01*
X618673866Y-305452380D02*
X618578628Y-305499999D01*
X618578628Y-305499999D02*
X618531009Y-305547618D01*
X618531009Y-305547618D02*
X618483390Y-305642856D01*
X618054819Y-304595237D02*
X618054819Y-304785713D01*
X618054819Y-304785713D02*
X618102438Y-304880951D01*
X618102438Y-304880951D02*
X618150057Y-304928570D01*
X618150057Y-304928570D02*
X618292914Y-305023808D01*
X618292914Y-305023808D02*
X618483390Y-305071427D01*
X618483390Y-305071427D02*
X618864342Y-305071427D01*
X618864342Y-305071427D02*
X618959580Y-305023808D01*
X618959580Y-305023808D02*
X619007200Y-304976189D01*
X619007200Y-304976189D02*
X619054819Y-304880951D01*
X619054819Y-304880951D02*
X619054819Y-304690475D01*
X619054819Y-304690475D02*
X619007200Y-304595237D01*
X619007200Y-304595237D02*
X618959580Y-304547618D01*
X618959580Y-304547618D02*
X618864342Y-304499999D01*
X618864342Y-304499999D02*
X618626247Y-304499999D01*
X618626247Y-304499999D02*
X618531009Y-304547618D01*
X618531009Y-304547618D02*
X618483390Y-304595237D01*
X618483390Y-304595237D02*
X618435771Y-304690475D01*
X618435771Y-304690475D02*
X618435771Y-304880951D01*
X618435771Y-304880951D02*
X618483390Y-304976189D01*
X618483390Y-304976189D02*
X618531009Y-305023808D01*
X618531009Y-305023808D02*
X618626247Y-305071427D01*
X618483390Y-303928570D02*
X618435771Y-304023808D01*
X618435771Y-304023808D02*
X618388152Y-304071427D01*
X618388152Y-304071427D02*
X618292914Y-304119046D01*
X618292914Y-304119046D02*
X618245295Y-304119046D01*
X618245295Y-304119046D02*
X618150057Y-304071427D01*
X618150057Y-304071427D02*
X618102438Y-304023808D01*
X618102438Y-304023808D02*
X618054819Y-303928570D01*
X618054819Y-303928570D02*
X618054819Y-303738094D01*
X618054819Y-303738094D02*
X618102438Y-303642856D01*
X618102438Y-303642856D02*
X618150057Y-303595237D01*
X618150057Y-303595237D02*
X618245295Y-303547618D01*
X618245295Y-303547618D02*
X618292914Y-303547618D01*
X618292914Y-303547618D02*
X618388152Y-303595237D01*
X618388152Y-303595237D02*
X618435771Y-303642856D01*
X618435771Y-303642856D02*
X618483390Y-303738094D01*
X618483390Y-303738094D02*
X618483390Y-303928570D01*
X618483390Y-303928570D02*
X618531009Y-304023808D01*
X618531009Y-304023808D02*
X618578628Y-304071427D01*
X618578628Y-304071427D02*
X618673866Y-304119046D01*
X618673866Y-304119046D02*
X618864342Y-304119046D01*
X618864342Y-304119046D02*
X618959580Y-304071427D01*
X618959580Y-304071427D02*
X619007200Y-304023808D01*
X619007200Y-304023808D02*
X619054819Y-303928570D01*
X619054819Y-303928570D02*
X619054819Y-303738094D01*
X619054819Y-303738094D02*
X619007200Y-303642856D01*
X619007200Y-303642856D02*
X618959580Y-303595237D01*
X618959580Y-303595237D02*
X618864342Y-303547618D01*
X618864342Y-303547618D02*
X618673866Y-303547618D01*
X618673866Y-303547618D02*
X618578628Y-303595237D01*
X618578628Y-303595237D02*
X618531009Y-303642856D01*
X618531009Y-303642856D02*
X618483390Y-303738094D01*
X612038095Y-336754819D02*
X612038095Y-335754819D01*
X612038095Y-335754819D02*
X612419047Y-335754819D01*
X612419047Y-335754819D02*
X612514285Y-335802438D01*
X612514285Y-335802438D02*
X612561904Y-335850057D01*
X612561904Y-335850057D02*
X612609523Y-335945295D01*
X612609523Y-335945295D02*
X612609523Y-336088152D01*
X612609523Y-336088152D02*
X612561904Y-336183390D01*
X612561904Y-336183390D02*
X612514285Y-336231009D01*
X612514285Y-336231009D02*
X612419047Y-336278628D01*
X612419047Y-336278628D02*
X612038095Y-336278628D01*
X612942857Y-335754819D02*
X613180952Y-336754819D01*
X613180952Y-336754819D02*
X613371428Y-336040533D01*
X613371428Y-336040533D02*
X613561904Y-336754819D01*
X613561904Y-336754819D02*
X613800000Y-335754819D01*
X614752380Y-336754819D02*
X614419047Y-336278628D01*
X614180952Y-336754819D02*
X614180952Y-335754819D01*
X614180952Y-335754819D02*
X614561904Y-335754819D01*
X614561904Y-335754819D02*
X614657142Y-335802438D01*
X614657142Y-335802438D02*
X614704761Y-335850057D01*
X614704761Y-335850057D02*
X614752380Y-335945295D01*
X614752380Y-335945295D02*
X614752380Y-336088152D01*
X614752380Y-336088152D02*
X614704761Y-336183390D01*
X614704761Y-336183390D02*
X614657142Y-336231009D01*
X614657142Y-336231009D02*
X614561904Y-336278628D01*
X614561904Y-336278628D02*
X614180952Y-336278628D01*
X614942857Y-336850057D02*
X615704761Y-336850057D01*
X615895238Y-336707200D02*
X616038095Y-336754819D01*
X616038095Y-336754819D02*
X616276190Y-336754819D01*
X616276190Y-336754819D02*
X616371428Y-336707200D01*
X616371428Y-336707200D02*
X616419047Y-336659580D01*
X616419047Y-336659580D02*
X616466666Y-336564342D01*
X616466666Y-336564342D02*
X616466666Y-336469104D01*
X616466666Y-336469104D02*
X616419047Y-336373866D01*
X616419047Y-336373866D02*
X616371428Y-336326247D01*
X616371428Y-336326247D02*
X616276190Y-336278628D01*
X616276190Y-336278628D02*
X616085714Y-336231009D01*
X616085714Y-336231009D02*
X615990476Y-336183390D01*
X615990476Y-336183390D02*
X615942857Y-336135771D01*
X615942857Y-336135771D02*
X615895238Y-336040533D01*
X615895238Y-336040533D02*
X615895238Y-335945295D01*
X615895238Y-335945295D02*
X615942857Y-335850057D01*
X615942857Y-335850057D02*
X615990476Y-335802438D01*
X615990476Y-335802438D02*
X616085714Y-335754819D01*
X616085714Y-335754819D02*
X616323809Y-335754819D01*
X616323809Y-335754819D02*
X616466666Y-335802438D01*
X616800000Y-335754819D02*
X617038095Y-336754819D01*
X617038095Y-336754819D02*
X617228571Y-336040533D01*
X617228571Y-336040533D02*
X617419047Y-336754819D01*
X617419047Y-336754819D02*
X617657143Y-335754819D01*
X605121904Y-313054819D02*
X604645714Y-313054819D01*
X604645714Y-313054819D02*
X604645714Y-312054819D01*
X605883809Y-312054819D02*
X605693333Y-312054819D01*
X605693333Y-312054819D02*
X605598095Y-312102438D01*
X605598095Y-312102438D02*
X605550476Y-312150057D01*
X605550476Y-312150057D02*
X605455238Y-312292914D01*
X605455238Y-312292914D02*
X605407619Y-312483390D01*
X605407619Y-312483390D02*
X605407619Y-312864342D01*
X605407619Y-312864342D02*
X605455238Y-312959580D01*
X605455238Y-312959580D02*
X605502857Y-313007200D01*
X605502857Y-313007200D02*
X605598095Y-313054819D01*
X605598095Y-313054819D02*
X605788571Y-313054819D01*
X605788571Y-313054819D02*
X605883809Y-313007200D01*
X605883809Y-313007200D02*
X605931428Y-312959580D01*
X605931428Y-312959580D02*
X605979047Y-312864342D01*
X605979047Y-312864342D02*
X605979047Y-312626247D01*
X605979047Y-312626247D02*
X605931428Y-312531009D01*
X605931428Y-312531009D02*
X605883809Y-312483390D01*
X605883809Y-312483390D02*
X605788571Y-312435771D01*
X605788571Y-312435771D02*
X605598095Y-312435771D01*
X605598095Y-312435771D02*
X605502857Y-312483390D01*
X605502857Y-312483390D02*
X605455238Y-312531009D01*
X605455238Y-312531009D02*
X605407619Y-312626247D01*
X606360000Y-312150057D02*
X606407619Y-312102438D01*
X606407619Y-312102438D02*
X606502857Y-312054819D01*
X606502857Y-312054819D02*
X606740952Y-312054819D01*
X606740952Y-312054819D02*
X606836190Y-312102438D01*
X606836190Y-312102438D02*
X606883809Y-312150057D01*
X606883809Y-312150057D02*
X606931428Y-312245295D01*
X606931428Y-312245295D02*
X606931428Y-312340533D01*
X606931428Y-312340533D02*
X606883809Y-312483390D01*
X606883809Y-312483390D02*
X606312381Y-313054819D01*
X606312381Y-313054819D02*
X606931428Y-313054819D01*
X607360000Y-312673866D02*
X608121905Y-312673866D01*
X609121904Y-313054819D02*
X608550476Y-313054819D01*
X608836190Y-313054819D02*
X608836190Y-312054819D01*
X608836190Y-312054819D02*
X608740952Y-312197676D01*
X608740952Y-312197676D02*
X608645714Y-312292914D01*
X608645714Y-312292914D02*
X608550476Y-312340533D01*
X608257142Y-351459580D02*
X608209523Y-351507200D01*
X608209523Y-351507200D02*
X608066666Y-351554819D01*
X608066666Y-351554819D02*
X607971428Y-351554819D01*
X607971428Y-351554819D02*
X607828571Y-351507200D01*
X607828571Y-351507200D02*
X607733333Y-351411961D01*
X607733333Y-351411961D02*
X607685714Y-351316723D01*
X607685714Y-351316723D02*
X607638095Y-351126247D01*
X607638095Y-351126247D02*
X607638095Y-350983390D01*
X607638095Y-350983390D02*
X607685714Y-350792914D01*
X607685714Y-350792914D02*
X607733333Y-350697676D01*
X607733333Y-350697676D02*
X607828571Y-350602438D01*
X607828571Y-350602438D02*
X607971428Y-350554819D01*
X607971428Y-350554819D02*
X608066666Y-350554819D01*
X608066666Y-350554819D02*
X608209523Y-350602438D01*
X608209523Y-350602438D02*
X608257142Y-350650057D01*
X608638095Y-350650057D02*
X608685714Y-350602438D01*
X608685714Y-350602438D02*
X608780952Y-350554819D01*
X608780952Y-350554819D02*
X609019047Y-350554819D01*
X609019047Y-350554819D02*
X609114285Y-350602438D01*
X609114285Y-350602438D02*
X609161904Y-350650057D01*
X609161904Y-350650057D02*
X609209523Y-350745295D01*
X609209523Y-350745295D02*
X609209523Y-350840533D01*
X609209523Y-350840533D02*
X609161904Y-350983390D01*
X609161904Y-350983390D02*
X608590476Y-351554819D01*
X608590476Y-351554819D02*
X609209523Y-351554819D01*
X609590476Y-350650057D02*
X609638095Y-350602438D01*
X609638095Y-350602438D02*
X609733333Y-350554819D01*
X609733333Y-350554819D02*
X609971428Y-350554819D01*
X609971428Y-350554819D02*
X610066666Y-350602438D01*
X610066666Y-350602438D02*
X610114285Y-350650057D01*
X610114285Y-350650057D02*
X610161904Y-350745295D01*
X610161904Y-350745295D02*
X610161904Y-350840533D01*
X610161904Y-350840533D02*
X610114285Y-350983390D01*
X610114285Y-350983390D02*
X609542857Y-351554819D01*
X609542857Y-351554819D02*
X610161904Y-351554819D01*
X580673809Y-303519104D02*
X581149999Y-303519104D01*
X580578571Y-303804819D02*
X580911904Y-302804819D01*
X580911904Y-302804819D02*
X581245237Y-303804819D01*
X581578571Y-303804819D02*
X581578571Y-302804819D01*
X581578571Y-302804819D02*
X582149999Y-303804819D01*
X582149999Y-303804819D02*
X582149999Y-302804819D01*
X582483333Y-302804819D02*
X583054761Y-302804819D01*
X582769047Y-303804819D02*
X582769047Y-302804819D01*
X583150000Y-303900057D02*
X583911904Y-303900057D01*
X584102381Y-302900057D02*
X584150000Y-302852438D01*
X584150000Y-302852438D02*
X584245238Y-302804819D01*
X584245238Y-302804819D02*
X584483333Y-302804819D01*
X584483333Y-302804819D02*
X584578571Y-302852438D01*
X584578571Y-302852438D02*
X584626190Y-302900057D01*
X584626190Y-302900057D02*
X584673809Y-302995295D01*
X584673809Y-302995295D02*
X584673809Y-303090533D01*
X584673809Y-303090533D02*
X584626190Y-303233390D01*
X584626190Y-303233390D02*
X584054762Y-303804819D01*
X584054762Y-303804819D02*
X584673809Y-303804819D01*
X585530952Y-303138152D02*
X585530952Y-303804819D01*
X585292857Y-302757200D02*
X585054762Y-303471485D01*
X585054762Y-303471485D02*
X585673809Y-303471485D01*
X603559580Y-350742857D02*
X603607200Y-350790476D01*
X603607200Y-350790476D02*
X603654819Y-350933333D01*
X603654819Y-350933333D02*
X603654819Y-351028571D01*
X603654819Y-351028571D02*
X603607200Y-351171428D01*
X603607200Y-351171428D02*
X603511961Y-351266666D01*
X603511961Y-351266666D02*
X603416723Y-351314285D01*
X603416723Y-351314285D02*
X603226247Y-351361904D01*
X603226247Y-351361904D02*
X603083390Y-351361904D01*
X603083390Y-351361904D02*
X602892914Y-351314285D01*
X602892914Y-351314285D02*
X602797676Y-351266666D01*
X602797676Y-351266666D02*
X602702438Y-351171428D01*
X602702438Y-351171428D02*
X602654819Y-351028571D01*
X602654819Y-351028571D02*
X602654819Y-350933333D01*
X602654819Y-350933333D02*
X602702438Y-350790476D01*
X602702438Y-350790476D02*
X602750057Y-350742857D01*
X603654819Y-349790476D02*
X603654819Y-350361904D01*
X603654819Y-350076190D02*
X602654819Y-350076190D01*
X602654819Y-350076190D02*
X602797676Y-350171428D01*
X602797676Y-350171428D02*
X602892914Y-350266666D01*
X602892914Y-350266666D02*
X602940533Y-350361904D01*
X602750057Y-349409523D02*
X602702438Y-349361904D01*
X602702438Y-349361904D02*
X602654819Y-349266666D01*
X602654819Y-349266666D02*
X602654819Y-349028571D01*
X602654819Y-349028571D02*
X602702438Y-348933333D01*
X602702438Y-348933333D02*
X602750057Y-348885714D01*
X602750057Y-348885714D02*
X602845295Y-348838095D01*
X602845295Y-348838095D02*
X602940533Y-348838095D01*
X602940533Y-348838095D02*
X603083390Y-348885714D01*
X603083390Y-348885714D02*
X603654819Y-349457142D01*
X603654819Y-349457142D02*
X603654819Y-348838095D01*
X600733333Y-369054819D02*
X600400000Y-368578628D01*
X600161905Y-369054819D02*
X600161905Y-368054819D01*
X600161905Y-368054819D02*
X600542857Y-368054819D01*
X600542857Y-368054819D02*
X600638095Y-368102438D01*
X600638095Y-368102438D02*
X600685714Y-368150057D01*
X600685714Y-368150057D02*
X600733333Y-368245295D01*
X600733333Y-368245295D02*
X600733333Y-368388152D01*
X600733333Y-368388152D02*
X600685714Y-368483390D01*
X600685714Y-368483390D02*
X600638095Y-368531009D01*
X600638095Y-368531009D02*
X600542857Y-368578628D01*
X600542857Y-368578628D02*
X600161905Y-368578628D01*
X601638095Y-368054819D02*
X601161905Y-368054819D01*
X601161905Y-368054819D02*
X601114286Y-368531009D01*
X601114286Y-368531009D02*
X601161905Y-368483390D01*
X601161905Y-368483390D02*
X601257143Y-368435771D01*
X601257143Y-368435771D02*
X601495238Y-368435771D01*
X601495238Y-368435771D02*
X601590476Y-368483390D01*
X601590476Y-368483390D02*
X601638095Y-368531009D01*
X601638095Y-368531009D02*
X601685714Y-368626247D01*
X601685714Y-368626247D02*
X601685714Y-368864342D01*
X601685714Y-368864342D02*
X601638095Y-368959580D01*
X601638095Y-368959580D02*
X601590476Y-369007200D01*
X601590476Y-369007200D02*
X601495238Y-369054819D01*
X601495238Y-369054819D02*
X601257143Y-369054819D01*
X601257143Y-369054819D02*
X601161905Y-369007200D01*
X601161905Y-369007200D02*
X601114286Y-368959580D01*
X595823809Y-361678628D02*
X595823809Y-362154819D01*
X595490476Y-361154819D02*
X595823809Y-361678628D01*
X595823809Y-361678628D02*
X596157142Y-361154819D01*
X597014285Y-362154819D02*
X596442857Y-362154819D01*
X596728571Y-362154819D02*
X596728571Y-361154819D01*
X596728571Y-361154819D02*
X596633333Y-361297676D01*
X596633333Y-361297676D02*
X596538095Y-361392914D01*
X596538095Y-361392914D02*
X596442857Y-361440533D01*
X626233333Y-348654819D02*
X625900000Y-348178628D01*
X625661905Y-348654819D02*
X625661905Y-347654819D01*
X625661905Y-347654819D02*
X626042857Y-347654819D01*
X626042857Y-347654819D02*
X626138095Y-347702438D01*
X626138095Y-347702438D02*
X626185714Y-347750057D01*
X626185714Y-347750057D02*
X626233333Y-347845295D01*
X626233333Y-347845295D02*
X626233333Y-347988152D01*
X626233333Y-347988152D02*
X626185714Y-348083390D01*
X626185714Y-348083390D02*
X626138095Y-348131009D01*
X626138095Y-348131009D02*
X626042857Y-348178628D01*
X626042857Y-348178628D02*
X625661905Y-348178628D01*
X627090476Y-347654819D02*
X626900000Y-347654819D01*
X626900000Y-347654819D02*
X626804762Y-347702438D01*
X626804762Y-347702438D02*
X626757143Y-347750057D01*
X626757143Y-347750057D02*
X626661905Y-347892914D01*
X626661905Y-347892914D02*
X626614286Y-348083390D01*
X626614286Y-348083390D02*
X626614286Y-348464342D01*
X626614286Y-348464342D02*
X626661905Y-348559580D01*
X626661905Y-348559580D02*
X626709524Y-348607200D01*
X626709524Y-348607200D02*
X626804762Y-348654819D01*
X626804762Y-348654819D02*
X626995238Y-348654819D01*
X626995238Y-348654819D02*
X627090476Y-348607200D01*
X627090476Y-348607200D02*
X627138095Y-348559580D01*
X627138095Y-348559580D02*
X627185714Y-348464342D01*
X627185714Y-348464342D02*
X627185714Y-348226247D01*
X627185714Y-348226247D02*
X627138095Y-348131009D01*
X627138095Y-348131009D02*
X627090476Y-348083390D01*
X627090476Y-348083390D02*
X626995238Y-348035771D01*
X626995238Y-348035771D02*
X626804762Y-348035771D01*
X626804762Y-348035771D02*
X626709524Y-348083390D01*
X626709524Y-348083390D02*
X626661905Y-348131009D01*
X626661905Y-348131009D02*
X626614286Y-348226247D01*
X618124819Y-366977857D02*
X617648628Y-367311190D01*
X618124819Y-367549285D02*
X617124819Y-367549285D01*
X617124819Y-367549285D02*
X617124819Y-367168333D01*
X617124819Y-367168333D02*
X617172438Y-367073095D01*
X617172438Y-367073095D02*
X617220057Y-367025476D01*
X617220057Y-367025476D02*
X617315295Y-366977857D01*
X617315295Y-366977857D02*
X617458152Y-366977857D01*
X617458152Y-366977857D02*
X617553390Y-367025476D01*
X617553390Y-367025476D02*
X617601009Y-367073095D01*
X617601009Y-367073095D02*
X617648628Y-367168333D01*
X617648628Y-367168333D02*
X617648628Y-367549285D01*
X618124819Y-366025476D02*
X618124819Y-366596904D01*
X618124819Y-366311190D02*
X617124819Y-366311190D01*
X617124819Y-366311190D02*
X617267676Y-366406428D01*
X617267676Y-366406428D02*
X617362914Y-366501666D01*
X617362914Y-366501666D02*
X617410533Y-366596904D01*
X618124819Y-365549285D02*
X618124819Y-365358809D01*
X618124819Y-365358809D02*
X618077200Y-365263571D01*
X618077200Y-365263571D02*
X618029580Y-365215952D01*
X618029580Y-365215952D02*
X617886723Y-365120714D01*
X617886723Y-365120714D02*
X617696247Y-365073095D01*
X617696247Y-365073095D02*
X617315295Y-365073095D01*
X617315295Y-365073095D02*
X617220057Y-365120714D01*
X617220057Y-365120714D02*
X617172438Y-365168333D01*
X617172438Y-365168333D02*
X617124819Y-365263571D01*
X617124819Y-365263571D02*
X617124819Y-365454047D01*
X617124819Y-365454047D02*
X617172438Y-365549285D01*
X617172438Y-365549285D02*
X617220057Y-365596904D01*
X617220057Y-365596904D02*
X617315295Y-365644523D01*
X617315295Y-365644523D02*
X617553390Y-365644523D01*
X617553390Y-365644523D02*
X617648628Y-365596904D01*
X617648628Y-365596904D02*
X617696247Y-365549285D01*
X617696247Y-365549285D02*
X617743866Y-365454047D01*
X617743866Y-365454047D02*
X617743866Y-365263571D01*
X617743866Y-365263571D02*
X617696247Y-365168333D01*
X617696247Y-365168333D02*
X617648628Y-365120714D01*
X617648628Y-365120714D02*
X617553390Y-365073095D01*
X579719048Y-364507200D02*
X579861905Y-364554819D01*
X579861905Y-364554819D02*
X580100000Y-364554819D01*
X580100000Y-364554819D02*
X580195238Y-364507200D01*
X580195238Y-364507200D02*
X580242857Y-364459580D01*
X580242857Y-364459580D02*
X580290476Y-364364342D01*
X580290476Y-364364342D02*
X580290476Y-364269104D01*
X580290476Y-364269104D02*
X580242857Y-364173866D01*
X580242857Y-364173866D02*
X580195238Y-364126247D01*
X580195238Y-364126247D02*
X580100000Y-364078628D01*
X580100000Y-364078628D02*
X579909524Y-364031009D01*
X579909524Y-364031009D02*
X579814286Y-363983390D01*
X579814286Y-363983390D02*
X579766667Y-363935771D01*
X579766667Y-363935771D02*
X579719048Y-363840533D01*
X579719048Y-363840533D02*
X579719048Y-363745295D01*
X579719048Y-363745295D02*
X579766667Y-363650057D01*
X579766667Y-363650057D02*
X579814286Y-363602438D01*
X579814286Y-363602438D02*
X579909524Y-363554819D01*
X579909524Y-363554819D02*
X580147619Y-363554819D01*
X580147619Y-363554819D02*
X580290476Y-363602438D01*
X580623810Y-363554819D02*
X580861905Y-364554819D01*
X580861905Y-364554819D02*
X581052381Y-363840533D01*
X581052381Y-363840533D02*
X581242857Y-364554819D01*
X581242857Y-364554819D02*
X581480953Y-363554819D01*
X581861905Y-364554819D02*
X581861905Y-363554819D01*
X581861905Y-363554819D02*
X582100000Y-363554819D01*
X582100000Y-363554819D02*
X582242857Y-363602438D01*
X582242857Y-363602438D02*
X582338095Y-363697676D01*
X582338095Y-363697676D02*
X582385714Y-363792914D01*
X582385714Y-363792914D02*
X582433333Y-363983390D01*
X582433333Y-363983390D02*
X582433333Y-364126247D01*
X582433333Y-364126247D02*
X582385714Y-364316723D01*
X582385714Y-364316723D02*
X582338095Y-364411961D01*
X582338095Y-364411961D02*
X582242857Y-364507200D01*
X582242857Y-364507200D02*
X582100000Y-364554819D01*
X582100000Y-364554819D02*
X581861905Y-364554819D01*
X582623810Y-364650057D02*
X583385714Y-364650057D01*
X583623810Y-364554819D02*
X583623810Y-363554819D01*
X584100000Y-364554819D02*
X584100000Y-363554819D01*
X584100000Y-363554819D02*
X584671428Y-364554819D01*
X584671428Y-364554819D02*
X584671428Y-363554819D01*
X585004762Y-363554819D02*
X585576190Y-363554819D01*
X585290476Y-364554819D02*
X585290476Y-363554819D01*
X625659580Y-336642857D02*
X625707200Y-336690476D01*
X625707200Y-336690476D02*
X625754819Y-336833333D01*
X625754819Y-336833333D02*
X625754819Y-336928571D01*
X625754819Y-336928571D02*
X625707200Y-337071428D01*
X625707200Y-337071428D02*
X625611961Y-337166666D01*
X625611961Y-337166666D02*
X625516723Y-337214285D01*
X625516723Y-337214285D02*
X625326247Y-337261904D01*
X625326247Y-337261904D02*
X625183390Y-337261904D01*
X625183390Y-337261904D02*
X624992914Y-337214285D01*
X624992914Y-337214285D02*
X624897676Y-337166666D01*
X624897676Y-337166666D02*
X624802438Y-337071428D01*
X624802438Y-337071428D02*
X624754819Y-336928571D01*
X624754819Y-336928571D02*
X624754819Y-336833333D01*
X624754819Y-336833333D02*
X624802438Y-336690476D01*
X624802438Y-336690476D02*
X624850057Y-336642857D01*
X624850057Y-336261904D02*
X624802438Y-336214285D01*
X624802438Y-336214285D02*
X624754819Y-336119047D01*
X624754819Y-336119047D02*
X624754819Y-335880952D01*
X624754819Y-335880952D02*
X624802438Y-335785714D01*
X624802438Y-335785714D02*
X624850057Y-335738095D01*
X624850057Y-335738095D02*
X624945295Y-335690476D01*
X624945295Y-335690476D02*
X625040533Y-335690476D01*
X625040533Y-335690476D02*
X625183390Y-335738095D01*
X625183390Y-335738095D02*
X625754819Y-336309523D01*
X625754819Y-336309523D02*
X625754819Y-335690476D01*
X624754819Y-335357142D02*
X624754819Y-334738095D01*
X624754819Y-334738095D02*
X625135771Y-335071428D01*
X625135771Y-335071428D02*
X625135771Y-334928571D01*
X625135771Y-334928571D02*
X625183390Y-334833333D01*
X625183390Y-334833333D02*
X625231009Y-334785714D01*
X625231009Y-334785714D02*
X625326247Y-334738095D01*
X625326247Y-334738095D02*
X625564342Y-334738095D01*
X625564342Y-334738095D02*
X625659580Y-334785714D01*
X625659580Y-334785714D02*
X625707200Y-334833333D01*
X625707200Y-334833333D02*
X625754819Y-334928571D01*
X625754819Y-334928571D02*
X625754819Y-335214285D01*
X625754819Y-335214285D02*
X625707200Y-335309523D01*
X625707200Y-335309523D02*
X625659580Y-335357142D01*
X606257142Y-370459580D02*
X606209523Y-370507200D01*
X606209523Y-370507200D02*
X606066666Y-370554819D01*
X606066666Y-370554819D02*
X605971428Y-370554819D01*
X605971428Y-370554819D02*
X605828571Y-370507200D01*
X605828571Y-370507200D02*
X605733333Y-370411961D01*
X605733333Y-370411961D02*
X605685714Y-370316723D01*
X605685714Y-370316723D02*
X605638095Y-370126247D01*
X605638095Y-370126247D02*
X605638095Y-369983390D01*
X605638095Y-369983390D02*
X605685714Y-369792914D01*
X605685714Y-369792914D02*
X605733333Y-369697676D01*
X605733333Y-369697676D02*
X605828571Y-369602438D01*
X605828571Y-369602438D02*
X605971428Y-369554819D01*
X605971428Y-369554819D02*
X606066666Y-369554819D01*
X606066666Y-369554819D02*
X606209523Y-369602438D01*
X606209523Y-369602438D02*
X606257142Y-369650057D01*
X607209523Y-370554819D02*
X606638095Y-370554819D01*
X606923809Y-370554819D02*
X606923809Y-369554819D01*
X606923809Y-369554819D02*
X606828571Y-369697676D01*
X606828571Y-369697676D02*
X606733333Y-369792914D01*
X606733333Y-369792914D02*
X606638095Y-369840533D01*
X608114285Y-369554819D02*
X607638095Y-369554819D01*
X607638095Y-369554819D02*
X607590476Y-370031009D01*
X607590476Y-370031009D02*
X607638095Y-369983390D01*
X607638095Y-369983390D02*
X607733333Y-369935771D01*
X607733333Y-369935771D02*
X607971428Y-369935771D01*
X607971428Y-369935771D02*
X608066666Y-369983390D01*
X608066666Y-369983390D02*
X608114285Y-370031009D01*
X608114285Y-370031009D02*
X608161904Y-370126247D01*
X608161904Y-370126247D02*
X608161904Y-370364342D01*
X608161904Y-370364342D02*
X608114285Y-370459580D01*
X608114285Y-370459580D02*
X608066666Y-370507200D01*
X608066666Y-370507200D02*
X607971428Y-370554819D01*
X607971428Y-370554819D02*
X607733333Y-370554819D01*
X607733333Y-370554819D02*
X607638095Y-370507200D01*
X607638095Y-370507200D02*
X607590476Y-370459580D01*
X627458634Y-357554819D02*
X627458634Y-358269104D01*
X627458634Y-358269104D02*
X627411015Y-358411961D01*
X627411015Y-358411961D02*
X627315777Y-358507200D01*
X627315777Y-358507200D02*
X627172920Y-358554819D01*
X627172920Y-358554819D02*
X627077682Y-358554819D01*
X628458634Y-358554819D02*
X627887206Y-358554819D01*
X628172920Y-358554819D02*
X628172920Y-357554819D01*
X628172920Y-357554819D02*
X628077682Y-357697676D01*
X628077682Y-357697676D02*
X627982444Y-357792914D01*
X627982444Y-357792914D02*
X627887206Y-357840533D01*
X589557142Y-357784819D02*
X589223809Y-357308628D01*
X588985714Y-357784819D02*
X588985714Y-356784819D01*
X588985714Y-356784819D02*
X589366666Y-356784819D01*
X589366666Y-356784819D02*
X589461904Y-356832438D01*
X589461904Y-356832438D02*
X589509523Y-356880057D01*
X589509523Y-356880057D02*
X589557142Y-356975295D01*
X589557142Y-356975295D02*
X589557142Y-357118152D01*
X589557142Y-357118152D02*
X589509523Y-357213390D01*
X589509523Y-357213390D02*
X589461904Y-357261009D01*
X589461904Y-357261009D02*
X589366666Y-357308628D01*
X589366666Y-357308628D02*
X588985714Y-357308628D01*
X590509523Y-357784819D02*
X589938095Y-357784819D01*
X590223809Y-357784819D02*
X590223809Y-356784819D01*
X590223809Y-356784819D02*
X590128571Y-356927676D01*
X590128571Y-356927676D02*
X590033333Y-357022914D01*
X590033333Y-357022914D02*
X589938095Y-357070533D01*
X591080952Y-357213390D02*
X590985714Y-357165771D01*
X590985714Y-357165771D02*
X590938095Y-357118152D01*
X590938095Y-357118152D02*
X590890476Y-357022914D01*
X590890476Y-357022914D02*
X590890476Y-356975295D01*
X590890476Y-356975295D02*
X590938095Y-356880057D01*
X590938095Y-356880057D02*
X590985714Y-356832438D01*
X590985714Y-356832438D02*
X591080952Y-356784819D01*
X591080952Y-356784819D02*
X591271428Y-356784819D01*
X591271428Y-356784819D02*
X591366666Y-356832438D01*
X591366666Y-356832438D02*
X591414285Y-356880057D01*
X591414285Y-356880057D02*
X591461904Y-356975295D01*
X591461904Y-356975295D02*
X591461904Y-357022914D01*
X591461904Y-357022914D02*
X591414285Y-357118152D01*
X591414285Y-357118152D02*
X591366666Y-357165771D01*
X591366666Y-357165771D02*
X591271428Y-357213390D01*
X591271428Y-357213390D02*
X591080952Y-357213390D01*
X591080952Y-357213390D02*
X590985714Y-357261009D01*
X590985714Y-357261009D02*
X590938095Y-357308628D01*
X590938095Y-357308628D02*
X590890476Y-357403866D01*
X590890476Y-357403866D02*
X590890476Y-357594342D01*
X590890476Y-357594342D02*
X590938095Y-357689580D01*
X590938095Y-357689580D02*
X590985714Y-357737200D01*
X590985714Y-357737200D02*
X591080952Y-357784819D01*
X591080952Y-357784819D02*
X591271428Y-357784819D01*
X591271428Y-357784819D02*
X591366666Y-357737200D01*
X591366666Y-357737200D02*
X591414285Y-357689580D01*
X591414285Y-357689580D02*
X591461904Y-357594342D01*
X591461904Y-357594342D02*
X591461904Y-357403866D01*
X591461904Y-357403866D02*
X591414285Y-357308628D01*
X591414285Y-357308628D02*
X591366666Y-357261009D01*
X591366666Y-357261009D02*
X591271428Y-357213390D01*
X606157142Y-368859580D02*
X606109523Y-368907200D01*
X606109523Y-368907200D02*
X605966666Y-368954819D01*
X605966666Y-368954819D02*
X605871428Y-368954819D01*
X605871428Y-368954819D02*
X605728571Y-368907200D01*
X605728571Y-368907200D02*
X605633333Y-368811961D01*
X605633333Y-368811961D02*
X605585714Y-368716723D01*
X605585714Y-368716723D02*
X605538095Y-368526247D01*
X605538095Y-368526247D02*
X605538095Y-368383390D01*
X605538095Y-368383390D02*
X605585714Y-368192914D01*
X605585714Y-368192914D02*
X605633333Y-368097676D01*
X605633333Y-368097676D02*
X605728571Y-368002438D01*
X605728571Y-368002438D02*
X605871428Y-367954819D01*
X605871428Y-367954819D02*
X605966666Y-367954819D01*
X605966666Y-367954819D02*
X606109523Y-368002438D01*
X606109523Y-368002438D02*
X606157142Y-368050057D01*
X607109523Y-368954819D02*
X606538095Y-368954819D01*
X606823809Y-368954819D02*
X606823809Y-367954819D01*
X606823809Y-367954819D02*
X606728571Y-368097676D01*
X606728571Y-368097676D02*
X606633333Y-368192914D01*
X606633333Y-368192914D02*
X606538095Y-368240533D01*
X607966666Y-368288152D02*
X607966666Y-368954819D01*
X607728571Y-367907200D02*
X607490476Y-368621485D01*
X607490476Y-368621485D02*
X608109523Y-368621485D01*
X621457143Y-364154819D02*
X621457143Y-364964342D01*
X621457143Y-364964342D02*
X621504762Y-365059580D01*
X621504762Y-365059580D02*
X621552381Y-365107200D01*
X621552381Y-365107200D02*
X621647619Y-365154819D01*
X621647619Y-365154819D02*
X621838095Y-365154819D01*
X621838095Y-365154819D02*
X621933333Y-365107200D01*
X621933333Y-365107200D02*
X621980952Y-365059580D01*
X621980952Y-365059580D02*
X622028571Y-364964342D01*
X622028571Y-364964342D02*
X622028571Y-364154819D01*
X622838095Y-364631009D02*
X622980952Y-364678628D01*
X622980952Y-364678628D02*
X623028571Y-364726247D01*
X623028571Y-364726247D02*
X623076190Y-364821485D01*
X623076190Y-364821485D02*
X623076190Y-364964342D01*
X623076190Y-364964342D02*
X623028571Y-365059580D01*
X623028571Y-365059580D02*
X622980952Y-365107200D01*
X622980952Y-365107200D02*
X622885714Y-365154819D01*
X622885714Y-365154819D02*
X622504762Y-365154819D01*
X622504762Y-365154819D02*
X622504762Y-364154819D01*
X622504762Y-364154819D02*
X622838095Y-364154819D01*
X622838095Y-364154819D02*
X622933333Y-364202438D01*
X622933333Y-364202438D02*
X622980952Y-364250057D01*
X622980952Y-364250057D02*
X623028571Y-364345295D01*
X623028571Y-364345295D02*
X623028571Y-364440533D01*
X623028571Y-364440533D02*
X622980952Y-364535771D01*
X622980952Y-364535771D02*
X622933333Y-364583390D01*
X622933333Y-364583390D02*
X622838095Y-364631009D01*
X622838095Y-364631009D02*
X622504762Y-364631009D01*
X623361905Y-364154819D02*
X623933333Y-364154819D01*
X623647619Y-365154819D02*
X623647619Y-364154819D01*
X624790476Y-365154819D02*
X624219048Y-365154819D01*
X624504762Y-365154819D02*
X624504762Y-364154819D01*
X624504762Y-364154819D02*
X624409524Y-364297676D01*
X624409524Y-364297676D02*
X624314286Y-364392914D01*
X624314286Y-364392914D02*
X624219048Y-364440533D01*
X609740476Y-306204819D02*
X609740476Y-306919104D01*
X609740476Y-306919104D02*
X609692857Y-307061961D01*
X609692857Y-307061961D02*
X609597619Y-307157200D01*
X609597619Y-307157200D02*
X609454762Y-307204819D01*
X609454762Y-307204819D02*
X609359524Y-307204819D01*
X610359524Y-306633390D02*
X610264286Y-306585771D01*
X610264286Y-306585771D02*
X610216667Y-306538152D01*
X610216667Y-306538152D02*
X610169048Y-306442914D01*
X610169048Y-306442914D02*
X610169048Y-306395295D01*
X610169048Y-306395295D02*
X610216667Y-306300057D01*
X610216667Y-306300057D02*
X610264286Y-306252438D01*
X610264286Y-306252438D02*
X610359524Y-306204819D01*
X610359524Y-306204819D02*
X610550000Y-306204819D01*
X610550000Y-306204819D02*
X610645238Y-306252438D01*
X610645238Y-306252438D02*
X610692857Y-306300057D01*
X610692857Y-306300057D02*
X610740476Y-306395295D01*
X610740476Y-306395295D02*
X610740476Y-306442914D01*
X610740476Y-306442914D02*
X610692857Y-306538152D01*
X610692857Y-306538152D02*
X610645238Y-306585771D01*
X610645238Y-306585771D02*
X610550000Y-306633390D01*
X610550000Y-306633390D02*
X610359524Y-306633390D01*
X610359524Y-306633390D02*
X610264286Y-306681009D01*
X610264286Y-306681009D02*
X610216667Y-306728628D01*
X610216667Y-306728628D02*
X610169048Y-306823866D01*
X610169048Y-306823866D02*
X610169048Y-307014342D01*
X610169048Y-307014342D02*
X610216667Y-307109580D01*
X610216667Y-307109580D02*
X610264286Y-307157200D01*
X610264286Y-307157200D02*
X610359524Y-307204819D01*
X610359524Y-307204819D02*
X610550000Y-307204819D01*
X610550000Y-307204819D02*
X610645238Y-307157200D01*
X610645238Y-307157200D02*
X610692857Y-307109580D01*
X610692857Y-307109580D02*
X610740476Y-307014342D01*
X610740476Y-307014342D02*
X610740476Y-306823866D01*
X610740476Y-306823866D02*
X610692857Y-306728628D01*
X610692857Y-306728628D02*
X610645238Y-306681009D01*
X610645238Y-306681009D02*
X610550000Y-306633390D01*
X611169048Y-306823866D02*
X611930953Y-306823866D01*
X612883333Y-307204819D02*
X612407143Y-307204819D01*
X612407143Y-307204819D02*
X612407143Y-306204819D01*
X613645238Y-306204819D02*
X613454762Y-306204819D01*
X613454762Y-306204819D02*
X613359524Y-306252438D01*
X613359524Y-306252438D02*
X613311905Y-306300057D01*
X613311905Y-306300057D02*
X613216667Y-306442914D01*
X613216667Y-306442914D02*
X613169048Y-306633390D01*
X613169048Y-306633390D02*
X613169048Y-307014342D01*
X613169048Y-307014342D02*
X613216667Y-307109580D01*
X613216667Y-307109580D02*
X613264286Y-307157200D01*
X613264286Y-307157200D02*
X613359524Y-307204819D01*
X613359524Y-307204819D02*
X613550000Y-307204819D01*
X613550000Y-307204819D02*
X613645238Y-307157200D01*
X613645238Y-307157200D02*
X613692857Y-307109580D01*
X613692857Y-307109580D02*
X613740476Y-307014342D01*
X613740476Y-307014342D02*
X613740476Y-306776247D01*
X613740476Y-306776247D02*
X613692857Y-306681009D01*
X613692857Y-306681009D02*
X613645238Y-306633390D01*
X613645238Y-306633390D02*
X613550000Y-306585771D01*
X613550000Y-306585771D02*
X613359524Y-306585771D01*
X613359524Y-306585771D02*
X613264286Y-306633390D01*
X613264286Y-306633390D02*
X613216667Y-306681009D01*
X613216667Y-306681009D02*
X613169048Y-306776247D01*
X614121429Y-306300057D02*
X614169048Y-306252438D01*
X614169048Y-306252438D02*
X614264286Y-306204819D01*
X614264286Y-306204819D02*
X614502381Y-306204819D01*
X614502381Y-306204819D02*
X614597619Y-306252438D01*
X614597619Y-306252438D02*
X614645238Y-306300057D01*
X614645238Y-306300057D02*
X614692857Y-306395295D01*
X614692857Y-306395295D02*
X614692857Y-306490533D01*
X614692857Y-306490533D02*
X614645238Y-306633390D01*
X614645238Y-306633390D02*
X614073810Y-307204819D01*
X614073810Y-307204819D02*
X614692857Y-307204819D01*
X620308333Y-353824819D02*
X619975000Y-353348628D01*
X619736905Y-353824819D02*
X619736905Y-352824819D01*
X619736905Y-352824819D02*
X620117857Y-352824819D01*
X620117857Y-352824819D02*
X620213095Y-352872438D01*
X620213095Y-352872438D02*
X620260714Y-352920057D01*
X620260714Y-352920057D02*
X620308333Y-353015295D01*
X620308333Y-353015295D02*
X620308333Y-353158152D01*
X620308333Y-353158152D02*
X620260714Y-353253390D01*
X620260714Y-353253390D02*
X620213095Y-353301009D01*
X620213095Y-353301009D02*
X620117857Y-353348628D01*
X620117857Y-353348628D02*
X619736905Y-353348628D01*
X620689286Y-352920057D02*
X620736905Y-352872438D01*
X620736905Y-352872438D02*
X620832143Y-352824819D01*
X620832143Y-352824819D02*
X621070238Y-352824819D01*
X621070238Y-352824819D02*
X621165476Y-352872438D01*
X621165476Y-352872438D02*
X621213095Y-352920057D01*
X621213095Y-352920057D02*
X621260714Y-353015295D01*
X621260714Y-353015295D02*
X621260714Y-353110533D01*
X621260714Y-353110533D02*
X621213095Y-353253390D01*
X621213095Y-353253390D02*
X620641667Y-353824819D01*
X620641667Y-353824819D02*
X621260714Y-353824819D01*
X578754819Y-340258095D02*
X578754819Y-340734285D01*
X578754819Y-340734285D02*
X577754819Y-340734285D01*
X578183390Y-339781904D02*
X578135771Y-339877142D01*
X578135771Y-339877142D02*
X578088152Y-339924761D01*
X578088152Y-339924761D02*
X577992914Y-339972380D01*
X577992914Y-339972380D02*
X577945295Y-339972380D01*
X577945295Y-339972380D02*
X577850057Y-339924761D01*
X577850057Y-339924761D02*
X577802438Y-339877142D01*
X577802438Y-339877142D02*
X577754819Y-339781904D01*
X577754819Y-339781904D02*
X577754819Y-339591428D01*
X577754819Y-339591428D02*
X577802438Y-339496190D01*
X577802438Y-339496190D02*
X577850057Y-339448571D01*
X577850057Y-339448571D02*
X577945295Y-339400952D01*
X577945295Y-339400952D02*
X577992914Y-339400952D01*
X577992914Y-339400952D02*
X578088152Y-339448571D01*
X578088152Y-339448571D02*
X578135771Y-339496190D01*
X578135771Y-339496190D02*
X578183390Y-339591428D01*
X578183390Y-339591428D02*
X578183390Y-339781904D01*
X578183390Y-339781904D02*
X578231009Y-339877142D01*
X578231009Y-339877142D02*
X578278628Y-339924761D01*
X578278628Y-339924761D02*
X578373866Y-339972380D01*
X578373866Y-339972380D02*
X578564342Y-339972380D01*
X578564342Y-339972380D02*
X578659580Y-339924761D01*
X578659580Y-339924761D02*
X578707200Y-339877142D01*
X578707200Y-339877142D02*
X578754819Y-339781904D01*
X578754819Y-339781904D02*
X578754819Y-339591428D01*
X578754819Y-339591428D02*
X578707200Y-339496190D01*
X578707200Y-339496190D02*
X578659580Y-339448571D01*
X578659580Y-339448571D02*
X578564342Y-339400952D01*
X578564342Y-339400952D02*
X578373866Y-339400952D01*
X578373866Y-339400952D02*
X578278628Y-339448571D01*
X578278628Y-339448571D02*
X578231009Y-339496190D01*
X578231009Y-339496190D02*
X578183390Y-339591428D01*
X577754819Y-338781904D02*
X577754819Y-338686666D01*
X577754819Y-338686666D02*
X577802438Y-338591428D01*
X577802438Y-338591428D02*
X577850057Y-338543809D01*
X577850057Y-338543809D02*
X577945295Y-338496190D01*
X577945295Y-338496190D02*
X578135771Y-338448571D01*
X578135771Y-338448571D02*
X578373866Y-338448571D01*
X578373866Y-338448571D02*
X578564342Y-338496190D01*
X578564342Y-338496190D02*
X578659580Y-338543809D01*
X578659580Y-338543809D02*
X578707200Y-338591428D01*
X578707200Y-338591428D02*
X578754819Y-338686666D01*
X578754819Y-338686666D02*
X578754819Y-338781904D01*
X578754819Y-338781904D02*
X578707200Y-338877142D01*
X578707200Y-338877142D02*
X578659580Y-338924761D01*
X578659580Y-338924761D02*
X578564342Y-338972380D01*
X578564342Y-338972380D02*
X578373866Y-339019999D01*
X578373866Y-339019999D02*
X578135771Y-339019999D01*
X578135771Y-339019999D02*
X577945295Y-338972380D01*
X577945295Y-338972380D02*
X577850057Y-338924761D01*
X577850057Y-338924761D02*
X577802438Y-338877142D01*
X577802438Y-338877142D02*
X577754819Y-338781904D01*
X578373866Y-338019999D02*
X578373866Y-337258095D01*
X578754819Y-336258095D02*
X578754819Y-336829523D01*
X578754819Y-336543809D02*
X577754819Y-336543809D01*
X577754819Y-336543809D02*
X577897676Y-336639047D01*
X577897676Y-336639047D02*
X577992914Y-336734285D01*
X577992914Y-336734285D02*
X578040533Y-336829523D01*
X593477381Y-365054819D02*
X593477381Y-365769104D01*
X593477381Y-365769104D02*
X593429762Y-365911961D01*
X593429762Y-365911961D02*
X593334524Y-366007200D01*
X593334524Y-366007200D02*
X593191667Y-366054819D01*
X593191667Y-366054819D02*
X593096429Y-366054819D01*
X593905953Y-365150057D02*
X593953572Y-365102438D01*
X593953572Y-365102438D02*
X594048810Y-365054819D01*
X594048810Y-365054819D02*
X594286905Y-365054819D01*
X594286905Y-365054819D02*
X594382143Y-365102438D01*
X594382143Y-365102438D02*
X594429762Y-365150057D01*
X594429762Y-365150057D02*
X594477381Y-365245295D01*
X594477381Y-365245295D02*
X594477381Y-365340533D01*
X594477381Y-365340533D02*
X594429762Y-365483390D01*
X594429762Y-365483390D02*
X593858334Y-366054819D01*
X593858334Y-366054819D02*
X594477381Y-366054819D01*
X594905953Y-365673866D02*
X595667858Y-365673866D01*
X596144048Y-366054819D02*
X596144048Y-365054819D01*
X596144048Y-365054819D02*
X596477381Y-365769104D01*
X596477381Y-365769104D02*
X596810714Y-365054819D01*
X596810714Y-365054819D02*
X596810714Y-366054819D01*
X597858333Y-365959580D02*
X597810714Y-366007200D01*
X597810714Y-366007200D02*
X597667857Y-366054819D01*
X597667857Y-366054819D02*
X597572619Y-366054819D01*
X597572619Y-366054819D02*
X597429762Y-366007200D01*
X597429762Y-366007200D02*
X597334524Y-365911961D01*
X597334524Y-365911961D02*
X597286905Y-365816723D01*
X597286905Y-365816723D02*
X597239286Y-365626247D01*
X597239286Y-365626247D02*
X597239286Y-365483390D01*
X597239286Y-365483390D02*
X597286905Y-365292914D01*
X597286905Y-365292914D02*
X597334524Y-365197676D01*
X597334524Y-365197676D02*
X597429762Y-365102438D01*
X597429762Y-365102438D02*
X597572619Y-365054819D01*
X597572619Y-365054819D02*
X597667857Y-365054819D01*
X597667857Y-365054819D02*
X597810714Y-365102438D01*
X597810714Y-365102438D02*
X597858333Y-365150057D01*
X598286905Y-365054819D02*
X598286905Y-365864342D01*
X598286905Y-365864342D02*
X598334524Y-365959580D01*
X598334524Y-365959580D02*
X598382143Y-366007200D01*
X598382143Y-366007200D02*
X598477381Y-366054819D01*
X598477381Y-366054819D02*
X598667857Y-366054819D01*
X598667857Y-366054819D02*
X598763095Y-366007200D01*
X598763095Y-366007200D02*
X598810714Y-365959580D01*
X598810714Y-365959580D02*
X598858333Y-365864342D01*
X598858333Y-365864342D02*
X598858333Y-365054819D01*
X597180952Y-370554819D02*
X597180952Y-371364342D01*
X597180952Y-371364342D02*
X597228571Y-371459580D01*
X597228571Y-371459580D02*
X597276190Y-371507200D01*
X597276190Y-371507200D02*
X597371428Y-371554819D01*
X597371428Y-371554819D02*
X597561904Y-371554819D01*
X597561904Y-371554819D02*
X597657142Y-371507200D01*
X597657142Y-371507200D02*
X597704761Y-371459580D01*
X597704761Y-371459580D02*
X597752380Y-371364342D01*
X597752380Y-371364342D02*
X597752380Y-370554819D01*
X598704761Y-371554819D02*
X598228571Y-371554819D01*
X598228571Y-371554819D02*
X598228571Y-370554819D01*
X599038095Y-371031009D02*
X599371428Y-371031009D01*
X599514285Y-371554819D02*
X599038095Y-371554819D01*
X599038095Y-371554819D02*
X599038095Y-370554819D01*
X599038095Y-370554819D02*
X599514285Y-370554819D01*
X599942857Y-371554819D02*
X599942857Y-370554819D01*
X599942857Y-370554819D02*
X600180952Y-370554819D01*
X600180952Y-370554819D02*
X600323809Y-370602438D01*
X600323809Y-370602438D02*
X600419047Y-370697676D01*
X600419047Y-370697676D02*
X600466666Y-370792914D01*
X600466666Y-370792914D02*
X600514285Y-370983390D01*
X600514285Y-370983390D02*
X600514285Y-371126247D01*
X600514285Y-371126247D02*
X600466666Y-371316723D01*
X600466666Y-371316723D02*
X600419047Y-371411961D01*
X600419047Y-371411961D02*
X600323809Y-371507200D01*
X600323809Y-371507200D02*
X600180952Y-371554819D01*
X600180952Y-371554819D02*
X599942857Y-371554819D01*
X600895238Y-370650057D02*
X600942857Y-370602438D01*
X600942857Y-370602438D02*
X601038095Y-370554819D01*
X601038095Y-370554819D02*
X601276190Y-370554819D01*
X601276190Y-370554819D02*
X601371428Y-370602438D01*
X601371428Y-370602438D02*
X601419047Y-370650057D01*
X601419047Y-370650057D02*
X601466666Y-370745295D01*
X601466666Y-370745295D02*
X601466666Y-370840533D01*
X601466666Y-370840533D02*
X601419047Y-370983390D01*
X601419047Y-370983390D02*
X600847619Y-371554819D01*
X600847619Y-371554819D02*
X601466666Y-371554819D01*
X620333333Y-363554819D02*
X620000000Y-363078628D01*
X619761905Y-363554819D02*
X619761905Y-362554819D01*
X619761905Y-362554819D02*
X620142857Y-362554819D01*
X620142857Y-362554819D02*
X620238095Y-362602438D01*
X620238095Y-362602438D02*
X620285714Y-362650057D01*
X620285714Y-362650057D02*
X620333333Y-362745295D01*
X620333333Y-362745295D02*
X620333333Y-362888152D01*
X620333333Y-362888152D02*
X620285714Y-362983390D01*
X620285714Y-362983390D02*
X620238095Y-363031009D01*
X620238095Y-363031009D02*
X620142857Y-363078628D01*
X620142857Y-363078628D02*
X619761905Y-363078628D01*
X621285714Y-363554819D02*
X620714286Y-363554819D01*
X621000000Y-363554819D02*
X621000000Y-362554819D01*
X621000000Y-362554819D02*
X620904762Y-362697676D01*
X620904762Y-362697676D02*
X620809524Y-362792914D01*
X620809524Y-362792914D02*
X620714286Y-362840533D01*
X610842857Y-353554819D02*
X610842857Y-352554819D01*
X610842857Y-352554819D02*
X611176190Y-353269104D01*
X611176190Y-353269104D02*
X611509523Y-352554819D01*
X611509523Y-352554819D02*
X611509523Y-353554819D01*
X612557142Y-353459580D02*
X612509523Y-353507200D01*
X612509523Y-353507200D02*
X612366666Y-353554819D01*
X612366666Y-353554819D02*
X612271428Y-353554819D01*
X612271428Y-353554819D02*
X612128571Y-353507200D01*
X612128571Y-353507200D02*
X612033333Y-353411961D01*
X612033333Y-353411961D02*
X611985714Y-353316723D01*
X611985714Y-353316723D02*
X611938095Y-353126247D01*
X611938095Y-353126247D02*
X611938095Y-352983390D01*
X611938095Y-352983390D02*
X611985714Y-352792914D01*
X611985714Y-352792914D02*
X612033333Y-352697676D01*
X612033333Y-352697676D02*
X612128571Y-352602438D01*
X612128571Y-352602438D02*
X612271428Y-352554819D01*
X612271428Y-352554819D02*
X612366666Y-352554819D01*
X612366666Y-352554819D02*
X612509523Y-352602438D01*
X612509523Y-352602438D02*
X612557142Y-352650057D01*
X612985714Y-352554819D02*
X612985714Y-353364342D01*
X612985714Y-353364342D02*
X613033333Y-353459580D01*
X613033333Y-353459580D02*
X613080952Y-353507200D01*
X613080952Y-353507200D02*
X613176190Y-353554819D01*
X613176190Y-353554819D02*
X613366666Y-353554819D01*
X613366666Y-353554819D02*
X613461904Y-353507200D01*
X613461904Y-353507200D02*
X613509523Y-353459580D01*
X613509523Y-353459580D02*
X613557142Y-353364342D01*
X613557142Y-353364342D02*
X613557142Y-352554819D01*
X606357142Y-373859580D02*
X606309523Y-373907200D01*
X606309523Y-373907200D02*
X606166666Y-373954819D01*
X606166666Y-373954819D02*
X606071428Y-373954819D01*
X606071428Y-373954819D02*
X605928571Y-373907200D01*
X605928571Y-373907200D02*
X605833333Y-373811961D01*
X605833333Y-373811961D02*
X605785714Y-373716723D01*
X605785714Y-373716723D02*
X605738095Y-373526247D01*
X605738095Y-373526247D02*
X605738095Y-373383390D01*
X605738095Y-373383390D02*
X605785714Y-373192914D01*
X605785714Y-373192914D02*
X605833333Y-373097676D01*
X605833333Y-373097676D02*
X605928571Y-373002438D01*
X605928571Y-373002438D02*
X606071428Y-372954819D01*
X606071428Y-372954819D02*
X606166666Y-372954819D01*
X606166666Y-372954819D02*
X606309523Y-373002438D01*
X606309523Y-373002438D02*
X606357142Y-373050057D01*
X607309523Y-373954819D02*
X606738095Y-373954819D01*
X607023809Y-373954819D02*
X607023809Y-372954819D01*
X607023809Y-372954819D02*
X606928571Y-373097676D01*
X606928571Y-373097676D02*
X606833333Y-373192914D01*
X606833333Y-373192914D02*
X606738095Y-373240533D01*
X607880952Y-373383390D02*
X607785714Y-373335771D01*
X607785714Y-373335771D02*
X607738095Y-373288152D01*
X607738095Y-373288152D02*
X607690476Y-373192914D01*
X607690476Y-373192914D02*
X607690476Y-373145295D01*
X607690476Y-373145295D02*
X607738095Y-373050057D01*
X607738095Y-373050057D02*
X607785714Y-373002438D01*
X607785714Y-373002438D02*
X607880952Y-372954819D01*
X607880952Y-372954819D02*
X608071428Y-372954819D01*
X608071428Y-372954819D02*
X608166666Y-373002438D01*
X608166666Y-373002438D02*
X608214285Y-373050057D01*
X608214285Y-373050057D02*
X608261904Y-373145295D01*
X608261904Y-373145295D02*
X608261904Y-373192914D01*
X608261904Y-373192914D02*
X608214285Y-373288152D01*
X608214285Y-373288152D02*
X608166666Y-373335771D01*
X608166666Y-373335771D02*
X608071428Y-373383390D01*
X608071428Y-373383390D02*
X607880952Y-373383390D01*
X607880952Y-373383390D02*
X607785714Y-373431009D01*
X607785714Y-373431009D02*
X607738095Y-373478628D01*
X607738095Y-373478628D02*
X607690476Y-373573866D01*
X607690476Y-373573866D02*
X607690476Y-373764342D01*
X607690476Y-373764342D02*
X607738095Y-373859580D01*
X607738095Y-373859580D02*
X607785714Y-373907200D01*
X607785714Y-373907200D02*
X607880952Y-373954819D01*
X607880952Y-373954819D02*
X608071428Y-373954819D01*
X608071428Y-373954819D02*
X608166666Y-373907200D01*
X608166666Y-373907200D02*
X608214285Y-373859580D01*
X608214285Y-373859580D02*
X608261904Y-373764342D01*
X608261904Y-373764342D02*
X608261904Y-373573866D01*
X608261904Y-373573866D02*
X608214285Y-373478628D01*
X608214285Y-373478628D02*
X608166666Y-373431009D01*
X608166666Y-373431009D02*
X608071428Y-373383390D01*
X630254819Y-351871428D02*
X629254819Y-351871428D01*
X629254819Y-351871428D02*
X629254819Y-351490476D01*
X629254819Y-351490476D02*
X629302438Y-351395238D01*
X629302438Y-351395238D02*
X629350057Y-351347619D01*
X629350057Y-351347619D02*
X629445295Y-351300000D01*
X629445295Y-351300000D02*
X629588152Y-351300000D01*
X629588152Y-351300000D02*
X629683390Y-351347619D01*
X629683390Y-351347619D02*
X629731009Y-351395238D01*
X629731009Y-351395238D02*
X629778628Y-351490476D01*
X629778628Y-351490476D02*
X629778628Y-351871428D01*
X629254819Y-350966666D02*
X630254819Y-350728571D01*
X630254819Y-350728571D02*
X629540533Y-350538095D01*
X629540533Y-350538095D02*
X630254819Y-350347619D01*
X630254819Y-350347619D02*
X629254819Y-350109524D01*
X630254819Y-349157143D02*
X629778628Y-349490476D01*
X630254819Y-349728571D02*
X629254819Y-349728571D01*
X629254819Y-349728571D02*
X629254819Y-349347619D01*
X629254819Y-349347619D02*
X629302438Y-349252381D01*
X629302438Y-349252381D02*
X629350057Y-349204762D01*
X629350057Y-349204762D02*
X629445295Y-349157143D01*
X629445295Y-349157143D02*
X629588152Y-349157143D01*
X629588152Y-349157143D02*
X629683390Y-349204762D01*
X629683390Y-349204762D02*
X629731009Y-349252381D01*
X629731009Y-349252381D02*
X629778628Y-349347619D01*
X629778628Y-349347619D02*
X629778628Y-349728571D01*
X630350057Y-348966667D02*
X630350057Y-348204762D01*
X630254819Y-347490476D02*
X630254819Y-347966666D01*
X630254819Y-347966666D02*
X629254819Y-347966666D01*
X629731009Y-347157142D02*
X629731009Y-346823809D01*
X630254819Y-346680952D02*
X630254819Y-347157142D01*
X630254819Y-347157142D02*
X629254819Y-347157142D01*
X629254819Y-347157142D02*
X629254819Y-346680952D01*
X630254819Y-346252380D02*
X629254819Y-346252380D01*
X629254819Y-346252380D02*
X629254819Y-346014285D01*
X629254819Y-346014285D02*
X629302438Y-345871428D01*
X629302438Y-345871428D02*
X629397676Y-345776190D01*
X629397676Y-345776190D02*
X629492914Y-345728571D01*
X629492914Y-345728571D02*
X629683390Y-345680952D01*
X629683390Y-345680952D02*
X629826247Y-345680952D01*
X629826247Y-345680952D02*
X630016723Y-345728571D01*
X630016723Y-345728571D02*
X630111961Y-345776190D01*
X630111961Y-345776190D02*
X630207200Y-345871428D01*
X630207200Y-345871428D02*
X630254819Y-346014285D01*
X630254819Y-346014285D02*
X630254819Y-346252380D01*
X616638095Y-360054819D02*
X616638095Y-360864342D01*
X616638095Y-360864342D02*
X616685714Y-360959580D01*
X616685714Y-360959580D02*
X616733333Y-361007200D01*
X616733333Y-361007200D02*
X616828571Y-361054819D01*
X616828571Y-361054819D02*
X617019047Y-361054819D01*
X617019047Y-361054819D02*
X617114285Y-361007200D01*
X617114285Y-361007200D02*
X617161904Y-360959580D01*
X617161904Y-360959580D02*
X617209523Y-360864342D01*
X617209523Y-360864342D02*
X617209523Y-360054819D01*
X617590476Y-360054819D02*
X618209523Y-360054819D01*
X618209523Y-360054819D02*
X617876190Y-360435771D01*
X617876190Y-360435771D02*
X618019047Y-360435771D01*
X618019047Y-360435771D02*
X618114285Y-360483390D01*
X618114285Y-360483390D02*
X618161904Y-360531009D01*
X618161904Y-360531009D02*
X618209523Y-360626247D01*
X618209523Y-360626247D02*
X618209523Y-360864342D01*
X618209523Y-360864342D02*
X618161904Y-360959580D01*
X618161904Y-360959580D02*
X618114285Y-361007200D01*
X618114285Y-361007200D02*
X618019047Y-361054819D01*
X618019047Y-361054819D02*
X617733333Y-361054819D01*
X617733333Y-361054819D02*
X617638095Y-361007200D01*
X617638095Y-361007200D02*
X617590476Y-360959580D01*
X599357142Y-364059580D02*
X599309523Y-364107200D01*
X599309523Y-364107200D02*
X599166666Y-364154819D01*
X599166666Y-364154819D02*
X599071428Y-364154819D01*
X599071428Y-364154819D02*
X598928571Y-364107200D01*
X598928571Y-364107200D02*
X598833333Y-364011961D01*
X598833333Y-364011961D02*
X598785714Y-363916723D01*
X598785714Y-363916723D02*
X598738095Y-363726247D01*
X598738095Y-363726247D02*
X598738095Y-363583390D01*
X598738095Y-363583390D02*
X598785714Y-363392914D01*
X598785714Y-363392914D02*
X598833333Y-363297676D01*
X598833333Y-363297676D02*
X598928571Y-363202438D01*
X598928571Y-363202438D02*
X599071428Y-363154819D01*
X599071428Y-363154819D02*
X599166666Y-363154819D01*
X599166666Y-363154819D02*
X599309523Y-363202438D01*
X599309523Y-363202438D02*
X599357142Y-363250057D01*
X599738095Y-363250057D02*
X599785714Y-363202438D01*
X599785714Y-363202438D02*
X599880952Y-363154819D01*
X599880952Y-363154819D02*
X600119047Y-363154819D01*
X600119047Y-363154819D02*
X600214285Y-363202438D01*
X600214285Y-363202438D02*
X600261904Y-363250057D01*
X600261904Y-363250057D02*
X600309523Y-363345295D01*
X600309523Y-363345295D02*
X600309523Y-363440533D01*
X600309523Y-363440533D02*
X600261904Y-363583390D01*
X600261904Y-363583390D02*
X599690476Y-364154819D01*
X599690476Y-364154819D02*
X600309523Y-364154819D01*
X601261904Y-364154819D02*
X600690476Y-364154819D01*
X600976190Y-364154819D02*
X600976190Y-363154819D01*
X600976190Y-363154819D02*
X600880952Y-363297676D01*
X600880952Y-363297676D02*
X600785714Y-363392914D01*
X600785714Y-363392914D02*
X600690476Y-363440533D01*
X622557142Y-371894580D02*
X622509523Y-371942200D01*
X622509523Y-371942200D02*
X622366666Y-371989819D01*
X622366666Y-371989819D02*
X622271428Y-371989819D01*
X622271428Y-371989819D02*
X622128571Y-371942200D01*
X622128571Y-371942200D02*
X622033333Y-371846961D01*
X622033333Y-371846961D02*
X621985714Y-371751723D01*
X621985714Y-371751723D02*
X621938095Y-371561247D01*
X621938095Y-371561247D02*
X621938095Y-371418390D01*
X621938095Y-371418390D02*
X621985714Y-371227914D01*
X621985714Y-371227914D02*
X622033333Y-371132676D01*
X622033333Y-371132676D02*
X622128571Y-371037438D01*
X622128571Y-371037438D02*
X622271428Y-370989819D01*
X622271428Y-370989819D02*
X622366666Y-370989819D01*
X622366666Y-370989819D02*
X622509523Y-371037438D01*
X622509523Y-371037438D02*
X622557142Y-371085057D01*
X622890476Y-370989819D02*
X623509523Y-370989819D01*
X623509523Y-370989819D02*
X623176190Y-371370771D01*
X623176190Y-371370771D02*
X623319047Y-371370771D01*
X623319047Y-371370771D02*
X623414285Y-371418390D01*
X623414285Y-371418390D02*
X623461904Y-371466009D01*
X623461904Y-371466009D02*
X623509523Y-371561247D01*
X623509523Y-371561247D02*
X623509523Y-371799342D01*
X623509523Y-371799342D02*
X623461904Y-371894580D01*
X623461904Y-371894580D02*
X623414285Y-371942200D01*
X623414285Y-371942200D02*
X623319047Y-371989819D01*
X623319047Y-371989819D02*
X623033333Y-371989819D01*
X623033333Y-371989819D02*
X622938095Y-371942200D01*
X622938095Y-371942200D02*
X622890476Y-371894580D01*
X624080952Y-371418390D02*
X623985714Y-371370771D01*
X623985714Y-371370771D02*
X623938095Y-371323152D01*
X623938095Y-371323152D02*
X623890476Y-371227914D01*
X623890476Y-371227914D02*
X623890476Y-371180295D01*
X623890476Y-371180295D02*
X623938095Y-371085057D01*
X623938095Y-371085057D02*
X623985714Y-371037438D01*
X623985714Y-371037438D02*
X624080952Y-370989819D01*
X624080952Y-370989819D02*
X624271428Y-370989819D01*
X624271428Y-370989819D02*
X624366666Y-371037438D01*
X624366666Y-371037438D02*
X624414285Y-371085057D01*
X624414285Y-371085057D02*
X624461904Y-371180295D01*
X624461904Y-371180295D02*
X624461904Y-371227914D01*
X624461904Y-371227914D02*
X624414285Y-371323152D01*
X624414285Y-371323152D02*
X624366666Y-371370771D01*
X624366666Y-371370771D02*
X624271428Y-371418390D01*
X624271428Y-371418390D02*
X624080952Y-371418390D01*
X624080952Y-371418390D02*
X623985714Y-371466009D01*
X623985714Y-371466009D02*
X623938095Y-371513628D01*
X623938095Y-371513628D02*
X623890476Y-371608866D01*
X623890476Y-371608866D02*
X623890476Y-371799342D01*
X623890476Y-371799342D02*
X623938095Y-371894580D01*
X623938095Y-371894580D02*
X623985714Y-371942200D01*
X623985714Y-371942200D02*
X624080952Y-371989819D01*
X624080952Y-371989819D02*
X624271428Y-371989819D01*
X624271428Y-371989819D02*
X624366666Y-371942200D01*
X624366666Y-371942200D02*
X624414285Y-371894580D01*
X624414285Y-371894580D02*
X624461904Y-371799342D01*
X624461904Y-371799342D02*
X624461904Y-371608866D01*
X624461904Y-371608866D02*
X624414285Y-371513628D01*
X624414285Y-371513628D02*
X624366666Y-371466009D01*
X624366666Y-371466009D02*
X624271428Y-371418390D01*
X597133333Y-352659580D02*
X597085714Y-352707200D01*
X597085714Y-352707200D02*
X596942857Y-352754819D01*
X596942857Y-352754819D02*
X596847619Y-352754819D01*
X596847619Y-352754819D02*
X596704762Y-352707200D01*
X596704762Y-352707200D02*
X596609524Y-352611961D01*
X596609524Y-352611961D02*
X596561905Y-352516723D01*
X596561905Y-352516723D02*
X596514286Y-352326247D01*
X596514286Y-352326247D02*
X596514286Y-352183390D01*
X596514286Y-352183390D02*
X596561905Y-351992914D01*
X596561905Y-351992914D02*
X596609524Y-351897676D01*
X596609524Y-351897676D02*
X596704762Y-351802438D01*
X596704762Y-351802438D02*
X596847619Y-351754819D01*
X596847619Y-351754819D02*
X596942857Y-351754819D01*
X596942857Y-351754819D02*
X597085714Y-351802438D01*
X597085714Y-351802438D02*
X597133333Y-351850057D01*
X597990476Y-351754819D02*
X597800000Y-351754819D01*
X597800000Y-351754819D02*
X597704762Y-351802438D01*
X597704762Y-351802438D02*
X597657143Y-351850057D01*
X597657143Y-351850057D02*
X597561905Y-351992914D01*
X597561905Y-351992914D02*
X597514286Y-352183390D01*
X597514286Y-352183390D02*
X597514286Y-352564342D01*
X597514286Y-352564342D02*
X597561905Y-352659580D01*
X597561905Y-352659580D02*
X597609524Y-352707200D01*
X597609524Y-352707200D02*
X597704762Y-352754819D01*
X597704762Y-352754819D02*
X597895238Y-352754819D01*
X597895238Y-352754819D02*
X597990476Y-352707200D01*
X597990476Y-352707200D02*
X598038095Y-352659580D01*
X598038095Y-352659580D02*
X598085714Y-352564342D01*
X598085714Y-352564342D02*
X598085714Y-352326247D01*
X598085714Y-352326247D02*
X598038095Y-352231009D01*
X598038095Y-352231009D02*
X597990476Y-352183390D01*
X597990476Y-352183390D02*
X597895238Y-352135771D01*
X597895238Y-352135771D02*
X597704762Y-352135771D01*
X597704762Y-352135771D02*
X597609524Y-352183390D01*
X597609524Y-352183390D02*
X597561905Y-352231009D01*
X597561905Y-352231009D02*
X597514286Y-352326247D01*
X615659580Y-367766666D02*
X615707200Y-367814285D01*
X615707200Y-367814285D02*
X615754819Y-367957142D01*
X615754819Y-367957142D02*
X615754819Y-368052380D01*
X615754819Y-368052380D02*
X615707200Y-368195237D01*
X615707200Y-368195237D02*
X615611961Y-368290475D01*
X615611961Y-368290475D02*
X615516723Y-368338094D01*
X615516723Y-368338094D02*
X615326247Y-368385713D01*
X615326247Y-368385713D02*
X615183390Y-368385713D01*
X615183390Y-368385713D02*
X614992914Y-368338094D01*
X614992914Y-368338094D02*
X614897676Y-368290475D01*
X614897676Y-368290475D02*
X614802438Y-368195237D01*
X614802438Y-368195237D02*
X614754819Y-368052380D01*
X614754819Y-368052380D02*
X614754819Y-367957142D01*
X614754819Y-367957142D02*
X614802438Y-367814285D01*
X614802438Y-367814285D02*
X614850057Y-367766666D01*
X614754819Y-366861904D02*
X614754819Y-367338094D01*
X614754819Y-367338094D02*
X615231009Y-367385713D01*
X615231009Y-367385713D02*
X615183390Y-367338094D01*
X615183390Y-367338094D02*
X615135771Y-367242856D01*
X615135771Y-367242856D02*
X615135771Y-367004761D01*
X615135771Y-367004761D02*
X615183390Y-366909523D01*
X615183390Y-366909523D02*
X615231009Y-366861904D01*
X615231009Y-366861904D02*
X615326247Y-366814285D01*
X615326247Y-366814285D02*
X615564342Y-366814285D01*
X615564342Y-366814285D02*
X615659580Y-366861904D01*
X615659580Y-366861904D02*
X615707200Y-366909523D01*
X615707200Y-366909523D02*
X615754819Y-367004761D01*
X615754819Y-367004761D02*
X615754819Y-367242856D01*
X615754819Y-367242856D02*
X615707200Y-367338094D01*
X615707200Y-367338094D02*
X615659580Y-367385713D01*
X589208333Y-366959580D02*
X589160714Y-367007200D01*
X589160714Y-367007200D02*
X589017857Y-367054819D01*
X589017857Y-367054819D02*
X588922619Y-367054819D01*
X588922619Y-367054819D02*
X588779762Y-367007200D01*
X588779762Y-367007200D02*
X588684524Y-366911961D01*
X588684524Y-366911961D02*
X588636905Y-366816723D01*
X588636905Y-366816723D02*
X588589286Y-366626247D01*
X588589286Y-366626247D02*
X588589286Y-366483390D01*
X588589286Y-366483390D02*
X588636905Y-366292914D01*
X588636905Y-366292914D02*
X588684524Y-366197676D01*
X588684524Y-366197676D02*
X588779762Y-366102438D01*
X588779762Y-366102438D02*
X588922619Y-366054819D01*
X588922619Y-366054819D02*
X589017857Y-366054819D01*
X589017857Y-366054819D02*
X589160714Y-366102438D01*
X589160714Y-366102438D02*
X589208333Y-366150057D01*
X590160714Y-367054819D02*
X589589286Y-367054819D01*
X589875000Y-367054819D02*
X589875000Y-366054819D01*
X589875000Y-366054819D02*
X589779762Y-366197676D01*
X589779762Y-366197676D02*
X589684524Y-366292914D01*
X589684524Y-366292914D02*
X589589286Y-366340533D01*
D11*
%TO.C,C35*%
X577490000Y-324979420D02*
X577490000Y-325260580D01*
X578510000Y-324979420D02*
X578510000Y-325260580D01*
%TO.C,ULED1*%
X626915000Y-367340000D02*
X626915000Y-369260000D01*
X626915000Y-369260000D02*
X629600000Y-369260000D01*
X629600000Y-367340000D02*
X626915000Y-367340000D01*
%TO.C,F2*%
X620797936Y-337590000D02*
X622002064Y-337590000D01*
X620797936Y-339410000D02*
X622002064Y-339410000D01*
%TO.C,TP-GND*%
X606400000Y-310500000D02*
G75*
G02*
X605000000Y-310500000I-700000J0D01*
G01*
X605000000Y-310500000D02*
G75*
G02*
X606400000Y-310500000I700000J0D01*
G01*
%TO.C,UBT2*%
D12*
X588775000Y-370700000D02*
X584775000Y-370700000D01*
X584775000Y-367700000D01*
X588775000Y-367700000D01*
X588775000Y-370700000D01*
D11*
%TO.C,R3*%
X590452500Y-370062258D02*
X590452500Y-369587742D01*
X591497500Y-370062258D02*
X591497500Y-369587742D01*
%TO.C,R4*%
X606037258Y-352277500D02*
X605562742Y-352277500D01*
X606037258Y-353322500D02*
X605562742Y-353322500D01*
%TO.C,C10*%
X615459420Y-354790000D02*
X615740580Y-354790000D01*
X615459420Y-355810000D02*
X615740580Y-355810000D01*
%TO.C,L62-2*%
X604990000Y-330670000D02*
X606320000Y-330670000D01*
X604990000Y-332000000D02*
X604990000Y-330670000D01*
X607590000Y-330670000D02*
X625430000Y-330670000D01*
X607590000Y-333330000D02*
X607590000Y-330670000D01*
X607590000Y-333330000D02*
X625430000Y-333330000D01*
X625430000Y-333330000D02*
X625430000Y-330670000D01*
%TO.C,J9-L80*%
X590705000Y-309970000D02*
X590705000Y-312730000D01*
X593355000Y-309970000D02*
X590705000Y-309970000D01*
X593355000Y-309970000D02*
X593355000Y-312730000D01*
X593355000Y-312730000D02*
X590705000Y-312730000D01*
X594625000Y-309970000D02*
X596005000Y-309970000D01*
X596005000Y-309970000D02*
X596005000Y-311350000D01*
%TO.C,C16*%
X610315580Y-371290000D02*
X610034420Y-371290000D01*
X610315580Y-372310000D02*
X610034420Y-372310000D01*
%TO.C,C13*%
X613740580Y-371190000D02*
X613459420Y-371190000D01*
X613740580Y-372210000D02*
X613459420Y-372210000D01*
%TO.C,TP-3V3*%
X606400000Y-307450000D02*
G75*
G02*
X605000000Y-307450000I-700000J0D01*
G01*
X605000000Y-307450000D02*
G75*
G02*
X606400000Y-307450000I700000J0D01*
G01*
%TO.C,FB1*%
X613437221Y-372990000D02*
X613762779Y-372990000D01*
X613437221Y-374010000D02*
X613762779Y-374010000D01*
%TO.C,C25*%
X622565000Y-350438748D02*
X622565000Y-350961252D01*
X624035000Y-350438748D02*
X624035000Y-350961252D01*
%TO.C,BOOT_SW*%
D12*
X580150000Y-344025000D02*
X586850000Y-344025000D01*
X586850000Y-356725000D01*
X580150000Y-356725000D01*
X580150000Y-344025000D01*
D11*
%TO.C,C34*%
X620400580Y-311790000D02*
X620119420Y-311790000D01*
X620400580Y-312810000D02*
X620119420Y-312810000D01*
%TO.C,C36*%
X587819420Y-363520000D02*
X588100580Y-363520000D01*
X587819420Y-364540000D02*
X588100580Y-364540000D01*
%TO.C,RST*%
D12*
X589500000Y-354000000D02*
X592500000Y-354000000D01*
X592500000Y-350000000D01*
X589500000Y-350000000D01*
X589500000Y-354000000D01*
D13*
%TO.C,U1*%
X620324399Y-340677400D02*
X620324399Y-343928600D01*
X623575599Y-343928600D02*
X623575599Y-340677400D01*
X623001599Y-339498800D02*
G75*
G02*
X622798399Y-339498800I-101600J0D01*
G01*
X622798399Y-339498800D02*
G75*
G02*
X623001599Y-339498800I101600J0D01*
G01*
D11*
%TO.C,L80-2*%
X596370000Y-337830000D02*
X596370000Y-319990000D01*
X596370000Y-340430000D02*
X596370000Y-339100000D01*
X597700000Y-340430000D02*
X596370000Y-340430000D01*
X599030000Y-319990000D02*
X596370000Y-319990000D01*
X599030000Y-337830000D02*
X596370000Y-337830000D01*
X599030000Y-337830000D02*
X599030000Y-319990000D01*
%TO.C,R20*%
X628837258Y-365777500D02*
X628362742Y-365777500D01*
X628837258Y-366822500D02*
X628362742Y-366822500D01*
%TO.C,J1-3V3*%
X619720000Y-348080000D02*
X619720000Y-346700000D01*
X621100000Y-348080000D02*
X619720000Y-348080000D01*
X622370000Y-345320000D02*
X625020000Y-345320000D01*
X622370000Y-348080000D02*
X622370000Y-345320000D01*
X622370000Y-348080000D02*
X625020000Y-348080000D01*
X625020000Y-348080000D02*
X625020000Y-345320000D01*
%TO.C,C20*%
X595490000Y-358859420D02*
X595490000Y-359140580D01*
X596510000Y-358859420D02*
X596510000Y-359140580D01*
%TO.C,C19*%
X593090000Y-352140580D02*
X593090000Y-351859420D01*
X594110000Y-352140580D02*
X594110000Y-351859420D01*
%TO.C,C11*%
X600540580Y-354690000D02*
X600259420Y-354690000D01*
X600540580Y-355710000D02*
X600259420Y-355710000D01*
%TO.C,C24*%
X626965000Y-339238748D02*
X626965000Y-339761252D01*
X628435000Y-339238748D02*
X628435000Y-339761252D01*
%TO.C,C17*%
X601640580Y-365190000D02*
X601359420Y-365190000D01*
X601640580Y-366210000D02*
X601359420Y-366210000D01*
%TO.C,ANT_868*%
X620765000Y-305110000D02*
X620765000Y-308010000D01*
X622670000Y-303205000D02*
X625570000Y-303205000D01*
X622670000Y-309915000D02*
X625570000Y-309915000D01*
X627475000Y-305110000D02*
X627475000Y-308010000D01*
%TO.C,PWR_SW*%
D12*
X611550000Y-337550000D02*
X618250000Y-337550000D01*
X618250000Y-350250000D01*
X611550000Y-350250000D01*
X611550000Y-337550000D01*
D11*
%TO.C,L62-1*%
X604990000Y-313870000D02*
X604990000Y-316530000D01*
X622830000Y-313870000D02*
X604990000Y-313870000D01*
X622830000Y-313870000D02*
X622830000Y-316530000D01*
X622830000Y-316530000D02*
X604990000Y-316530000D01*
X625430000Y-315200000D02*
X625430000Y-316530000D01*
X625430000Y-316530000D02*
X624100000Y-316530000D01*
%TO.C,C22*%
X605940580Y-350590000D02*
X605659420Y-350590000D01*
X605940580Y-351610000D02*
X605659420Y-351610000D01*
%TO.C,ANT_24*%
X579855000Y-309660000D02*
X579855000Y-306760000D01*
X581760000Y-304855000D02*
X584660000Y-304855000D01*
X581760000Y-311565000D02*
X584660000Y-311565000D01*
X586565000Y-309660000D02*
X586565000Y-306760000D01*
%TO.C,C12*%
X602690000Y-353240580D02*
X602690000Y-352959420D01*
X603710000Y-353240580D02*
X603710000Y-352959420D01*
%TO.C,R5*%
X603262742Y-368077500D02*
X603737258Y-368077500D01*
X603262742Y-369122500D02*
X603737258Y-369122500D01*
D14*
%TO.C,Y1*%
X597600000Y-358920000D02*
X597600000Y-359080000D01*
X600100000Y-358920000D02*
X600100000Y-359080000D01*
D15*
X596750000Y-357900000D02*
G75*
G02*
X596550000Y-357900000I-100000J0D01*
G01*
X596550000Y-357900000D02*
G75*
G02*
X596750000Y-357900000I100000J0D01*
G01*
D11*
%TO.C,R6*%
X625077500Y-350462742D02*
X625077500Y-350937258D01*
X626122500Y-350462742D02*
X626122500Y-350937258D01*
%TO.C,R19*%
X618577500Y-366572258D02*
X618577500Y-366097742D01*
X619622500Y-366572258D02*
X619622500Y-366097742D01*
%TO.C,SWD_INT*%
X581485000Y-359380000D02*
X581485000Y-360022470D01*
X581485000Y-360637530D02*
X581485000Y-361292470D01*
X581485000Y-361907530D02*
X581485000Y-362550000D01*
X589165000Y-362360000D02*
X589165000Y-362550000D01*
X589165000Y-362550000D02*
X581485000Y-362550000D01*
X590495000Y-359380000D02*
X581485000Y-359380000D01*
X590495000Y-359380000D02*
X590495000Y-360022470D01*
X590495000Y-360637530D02*
X590495000Y-360840000D01*
X590560000Y-361600000D02*
X590560000Y-362550000D01*
X590560000Y-362550000D02*
X589800000Y-362550000D01*
%TO.C,C23*%
X624565000Y-339238748D02*
X624565000Y-339761252D01*
X626035000Y-339238748D02*
X626035000Y-339761252D01*
%TO.C,C15*%
X610340580Y-369590000D02*
X610059420Y-369590000D01*
X610340580Y-370610000D02*
X610059420Y-370610000D01*
%TO.C,J1*%
X625941968Y-362680000D02*
X627861968Y-362680000D01*
X627861968Y-353520000D02*
X625941968Y-353520000D01*
X629871968Y-353520000D02*
X631576968Y-353520000D01*
X631576968Y-353520000D02*
X631576968Y-362680000D01*
X631576968Y-362680000D02*
X629871968Y-362680000D01*
%TO.C,R18*%
X590437258Y-355377500D02*
X589962742Y-355377500D01*
X590437258Y-356422500D02*
X589962742Y-356422500D01*
%TO.C,C14*%
X610340580Y-367890000D02*
X610059420Y-367890000D01*
X610340580Y-368910000D02*
X610059420Y-368910000D01*
%TO.C,UBT1*%
D12*
X621100000Y-365700000D02*
X625100000Y-365700000D01*
X625100000Y-368700000D01*
X621100000Y-368700000D01*
X621100000Y-365700000D01*
D11*
%TO.C,J8-L62*%
X609645000Y-310330000D02*
X609645000Y-308950000D01*
X611025000Y-310330000D02*
X609645000Y-310330000D01*
X612295000Y-307570000D02*
X614945000Y-307570000D01*
X612295000Y-310330000D02*
X612295000Y-307570000D01*
X612295000Y-310330000D02*
X614945000Y-310330000D01*
X614945000Y-310330000D02*
X614945000Y-307570000D01*
%TO.C,R2*%
X620237742Y-354277500D02*
X620712258Y-354277500D01*
X620237742Y-355322500D02*
X620712258Y-355322500D01*
%TO.C,L80-1*%
X579570000Y-322590000D02*
X579570000Y-340430000D01*
X579570000Y-322590000D02*
X582230000Y-322590000D01*
X579570000Y-340430000D02*
X582230000Y-340430000D01*
X580900000Y-319990000D02*
X582230000Y-319990000D01*
X582230000Y-319990000D02*
X582230000Y-321320000D01*
X582230000Y-322590000D02*
X582230000Y-340430000D01*
%TO.C,J2-MCU*%
X593380000Y-366820000D02*
X593380000Y-369580000D01*
X596030000Y-366820000D02*
X593380000Y-366820000D01*
X596030000Y-366820000D02*
X596030000Y-369580000D01*
X596030000Y-369580000D02*
X593380000Y-369580000D01*
X597300000Y-366820000D02*
X598680000Y-366820000D01*
X598680000Y-366820000D02*
X598680000Y-368200000D01*
%TO.C,ULED2*%
X602600000Y-371460000D02*
X605285000Y-371460000D01*
X605285000Y-369540000D02*
X602600000Y-369540000D01*
X605285000Y-371460000D02*
X605285000Y-369540000D01*
%TO.C,R1*%
X620237742Y-360977500D02*
X620712258Y-360977500D01*
X620237742Y-362022500D02*
X620712258Y-362022500D01*
%TO.C,MCU*%
X603380000Y-355440000D02*
X604330000Y-355440000D01*
X603380000Y-356390000D02*
X603380000Y-355440000D01*
X603380000Y-365660000D02*
X603380000Y-364710000D01*
X604330000Y-365660000D02*
X603380000Y-365660000D01*
X612650000Y-355440000D02*
X613600000Y-355440000D01*
X613600000Y-355440000D02*
X613600000Y-356390000D01*
X613600000Y-364710000D02*
X613600000Y-365660000D01*
X613600000Y-365660000D02*
X612650000Y-365660000D01*
X602740000Y-356390000D02*
X602400000Y-355920000D01*
X603080000Y-355920000D01*
X602740000Y-356390000D01*
G36*
X602740000Y-356390000D02*
G01*
X602400000Y-355920000D01*
X603080000Y-355920000D01*
X602740000Y-356390000D01*
G37*
%TO.C,C18*%
X610340580Y-372990000D02*
X610059420Y-372990000D01*
X610340580Y-374010000D02*
X610059420Y-374010000D01*
%TO.C,PWR_LED*%
X626740000Y-349015000D02*
X626740000Y-351700000D01*
X628660000Y-349015000D02*
X626740000Y-349015000D01*
X628660000Y-351700000D02*
X628660000Y-349015000D01*
%TO.C,U3*%
X618290000Y-356540000D02*
X620110000Y-356540000D01*
X618290000Y-356590000D02*
X618290000Y-356540000D01*
X618290000Y-359660000D02*
X618290000Y-359610000D01*
X620110000Y-356540000D02*
X620110000Y-356590000D01*
X620110000Y-359610000D02*
X620110000Y-359660000D01*
X620110000Y-359660000D02*
X618290000Y-359660000D01*
X620890000Y-359940000D02*
X620410000Y-359940000D01*
X620650000Y-359610000D01*
X620890000Y-359940000D01*
G36*
X620890000Y-359940000D02*
G01*
X620410000Y-359940000D01*
X620650000Y-359610000D01*
X620890000Y-359940000D01*
G37*
%TO.C,C21*%
X599040580Y-361690000D02*
X598759420Y-361690000D01*
X599040580Y-362710000D02*
X598759420Y-362710000D01*
%TO.C,C38*%
X623059420Y-369325000D02*
X623340580Y-369325000D01*
X623059420Y-370345000D02*
X623340580Y-370345000D01*
%TO.C,C6*%
X600461252Y-352265000D02*
X599938748Y-352265000D01*
X600461252Y-353735000D02*
X599938748Y-353735000D01*
%TO.C,C5*%
X613190000Y-367459420D02*
X613190000Y-367740580D01*
X614210000Y-367459420D02*
X614210000Y-367740580D01*
%TO.C,C1*%
X586940580Y-366090000D02*
X586659420Y-366090000D01*
X586940580Y-367110000D02*
X586659420Y-367110000D01*
%TD*%
M02*
