%TF.GenerationSoftware,KiCad,Pcbnew,9.0.6*%
%TF.CreationDate,2026-05-15T00:55:16+01:00*%
%TF.ProjectId,rf_controller,72665f63-6f6e-4747-926f-6c6c65722e6b,rev?*%
%TF.SameCoordinates,Original*%
%TF.FileFunction,Paste,Top*%
%TF.FilePolarity,Positive*%
%FSLAX46Y46*%
G04 Gerber Fmt 4.6, Leading zero omitted, Abs format (unit mm)*
G04 Created by KiCad (PCBNEW 9.0.6) date 2026-05-15 00:55:16*
%MOMM*%
%LPD*%
G01*
G04 APERTURE LIST*
G04 Aperture macros list*
%AMRoundRect*
0 Rectangle with rounded corners*
0 $1 Rounding radius*
0 $2 $3 $4 $5 $6 $7 $8 $9 X,Y pos of 4 corners*
0 Add a 4 corners polygon primitive as box body*
4,1,4,$2,$3,$4,$5,$6,$7,$8,$9,$2,$3,0*
0 Add four circle primitives for the rounded corners*
1,1,$1+$1,$2,$3*
1,1,$1+$1,$4,$5*
1,1,$1+$1,$6,$7*
1,1,$1+$1,$8,$9*
0 Add four rect primitives between the rounded corners*
20,1,$1+$1,$2,$3,$4,$5,0*
20,1,$1+$1,$4,$5,$6,$7,0*
20,1,$1+$1,$6,$7,$8,$9,0*
20,1,$1+$1,$8,$9,$2,$3,0*%
G04 Aperture macros list end*
%ADD10RoundRect,0.225000X-0.250000X0.225000X-0.250000X-0.225000X0.250000X-0.225000X0.250000X0.225000X0*%
%ADD11RoundRect,0.243750X-0.243750X-0.456250X0.243750X-0.456250X0.243750X0.456250X-0.243750X0.456250X0*%
%ADD12RoundRect,0.250000X-0.375000X-0.625000X0.375000X-0.625000X0.375000X0.625000X-0.375000X0.625000X0*%
%ADD13RoundRect,0.157500X0.367500X0.842500X-0.367500X0.842500X-0.367500X-0.842500X0.367500X-0.842500X0*%
%ADD14RoundRect,0.200000X0.275000X-0.200000X0.275000X0.200000X-0.275000X0.200000X-0.275000X-0.200000X0*%
%ADD15RoundRect,0.200000X0.200000X0.275000X-0.200000X0.275000X-0.200000X-0.275000X0.200000X-0.275000X0*%
%ADD16RoundRect,0.225000X-0.225000X-0.250000X0.225000X-0.250000X0.225000X0.250000X-0.225000X0.250000X0*%
%ADD17RoundRect,0.225000X0.225000X0.250000X-0.225000X0.250000X-0.225000X-0.250000X0.225000X-0.250000X0*%
%ADD18RoundRect,0.218750X-0.218750X-0.256250X0.218750X-0.256250X0.218750X0.256250X-0.218750X0.256250X0*%
%ADD19RoundRect,0.250000X-0.475000X0.250000X-0.475000X-0.250000X0.475000X-0.250000X0.475000X0.250000X0*%
%ADD20RoundRect,0.157500X0.842500X-0.367500X0.842500X0.367500X-0.842500X0.367500X-0.842500X-0.367500X0*%
%ADD21R,0.450000X0.500000*%
%ADD22R,2.500000X1.750000*%
%ADD23RoundRect,0.225000X0.250000X-0.225000X0.250000X0.225000X-0.250000X0.225000X-0.250000X-0.225000X0*%
%ADD24RoundRect,0.200000X-0.200000X-0.275000X0.200000X-0.275000X0.200000X0.275000X-0.200000X0.275000X0*%
%ADD25R,1.200000X1.400000*%
%ADD26RoundRect,0.200000X-0.275000X0.200000X-0.275000X-0.200000X0.275000X-0.200000X0.275000X0.200000X0*%
%ADD27R,1.240000X0.600000*%
%ADD28R,1.240000X0.300000*%
%ADD29RoundRect,0.157500X-0.367500X-0.842500X0.367500X-0.842500X0.367500X0.842500X-0.367500X0.842500X0*%
%ADD30RoundRect,0.243750X0.243750X0.456250X-0.243750X0.456250X-0.243750X-0.456250X0.243750X-0.456250X0*%
%ADD31RoundRect,0.075000X-0.700000X-0.075000X0.700000X-0.075000X0.700000X0.075000X-0.700000X0.075000X0*%
%ADD32RoundRect,0.075000X-0.075000X-0.700000X0.075000X-0.700000X0.075000X0.700000X-0.075000X0.700000X0*%
%ADD33RoundRect,0.243750X-0.456250X0.243750X-0.456250X-0.243750X0.456250X-0.243750X0.456250X0.243750X0*%
%ADD34RoundRect,0.150000X0.512500X0.150000X-0.512500X0.150000X-0.512500X-0.150000X0.512500X-0.150000X0*%
%ADD35RoundRect,0.250000X0.250000X0.475000X-0.250000X0.475000X-0.250000X-0.475000X0.250000X-0.475000X0*%
G04 APERTURE END LIST*
D10*
%TO.C,C35*%
X578000000Y-324345000D03*
X578000000Y-325895000D03*
%TD*%
D11*
%TO.C,ULED1*%
X627662500Y-368300000D03*
X629537500Y-368300000D03*
%TD*%
D12*
%TO.C,F2*%
X620000000Y-338500000D03*
X622800000Y-338500000D03*
%TD*%
D13*
%TO.C,UBT2*%
X584550000Y-369200000D03*
X589000000Y-369200000D03*
%TD*%
D14*
%TO.C,R3*%
X590975000Y-370650000D03*
X590975000Y-369000000D03*
%TD*%
D15*
%TO.C,R4*%
X606625000Y-352800000D03*
X604975000Y-352800000D03*
%TD*%
D16*
%TO.C,C10*%
X614825000Y-355300000D03*
X616375000Y-355300000D03*
%TD*%
D17*
%TO.C,C16*%
X610950000Y-371800000D03*
X609400000Y-371800000D03*
%TD*%
%TO.C,C13*%
X614375000Y-371700000D03*
X612825000Y-371700000D03*
%TD*%
D18*
%TO.C,FB1*%
X612812500Y-373500000D03*
X614387500Y-373500000D03*
%TD*%
D19*
%TO.C,C25*%
X623300000Y-349750000D03*
X623300000Y-351650000D03*
%TD*%
D17*
%TO.C,C34*%
X621035000Y-312300000D03*
X619485000Y-312300000D03*
%TD*%
D16*
%TO.C,C36*%
X587185000Y-364030000D03*
X588735000Y-364030000D03*
%TD*%
D20*
%TO.C,RST*%
X591000000Y-349775000D03*
X591000000Y-354225000D03*
%TD*%
D21*
%TO.C,U1*%
X622900000Y-341003000D03*
X621949999Y-341003000D03*
X620999998Y-341003000D03*
X620999998Y-343603000D03*
X621949999Y-343603000D03*
X622900000Y-343603000D03*
D22*
X621949999Y-342303000D03*
%TD*%
D15*
%TO.C,R20*%
X629425000Y-366300000D03*
X627775000Y-366300000D03*
%TD*%
D10*
%TO.C,C20*%
X596000000Y-358225000D03*
X596000000Y-359775000D03*
%TD*%
D23*
%TO.C,C19*%
X593600000Y-352775000D03*
X593600000Y-351225000D03*
%TD*%
D17*
%TO.C,C11*%
X601175000Y-355200000D03*
X599625000Y-355200000D03*
%TD*%
D19*
%TO.C,C24*%
X627700000Y-338550000D03*
X627700000Y-340450000D03*
%TD*%
D17*
%TO.C,C17*%
X602275000Y-365700000D03*
X600725000Y-365700000D03*
%TD*%
%TO.C,C22*%
X606575000Y-351100000D03*
X605025000Y-351100000D03*
%TD*%
D23*
%TO.C,C12*%
X603200000Y-353875000D03*
X603200000Y-352325000D03*
%TD*%
D24*
%TO.C,R5*%
X602675000Y-368600000D03*
X604325000Y-368600000D03*
%TD*%
D25*
%TO.C,Y1*%
X598000000Y-357900000D03*
X598000000Y-360100000D03*
X599700000Y-360100000D03*
X599700000Y-357900000D03*
%TD*%
D26*
%TO.C,R6*%
X625600000Y-349875000D03*
X625600000Y-351525000D03*
%TD*%
D14*
%TO.C,R19*%
X619100000Y-367160000D03*
X619100000Y-365510000D03*
%TD*%
D19*
%TO.C,C23*%
X625300000Y-338550000D03*
X625300000Y-340450000D03*
%TD*%
D17*
%TO.C,C15*%
X610975000Y-370100000D03*
X609425000Y-370100000D03*
%TD*%
D27*
%TO.C,J1*%
X624066968Y-361300000D03*
X624066968Y-360500000D03*
D28*
X624066968Y-359350000D03*
X624066968Y-358350000D03*
X624066968Y-357850000D03*
X624066968Y-356850000D03*
D27*
X624066968Y-355700000D03*
X624066968Y-354900000D03*
X624066968Y-354900000D03*
X624066968Y-355700000D03*
D28*
X624066968Y-356350000D03*
X624066968Y-357350000D03*
X624066968Y-358850000D03*
X624066968Y-359850000D03*
D27*
X624066968Y-360500000D03*
X624066968Y-361300000D03*
%TD*%
D15*
%TO.C,R18*%
X591025000Y-355900000D03*
X589375000Y-355900000D03*
%TD*%
D17*
%TO.C,C14*%
X610975000Y-368400000D03*
X609425000Y-368400000D03*
%TD*%
D29*
%TO.C,UBT1*%
X625325000Y-367200000D03*
X620875000Y-367200000D03*
%TD*%
D24*
%TO.C,R2*%
X619650000Y-354800000D03*
X621300000Y-354800000D03*
%TD*%
D30*
%TO.C,ULED2*%
X604537500Y-370500000D03*
X602662500Y-370500000D03*
%TD*%
D24*
%TO.C,R1*%
X619650000Y-361500000D03*
X621300000Y-361500000D03*
%TD*%
D31*
%TO.C,MCU*%
X602815000Y-356800000D03*
X602815000Y-357300000D03*
X602815000Y-357800000D03*
X602815000Y-358300000D03*
X602815000Y-358800000D03*
X602815000Y-359300000D03*
X602815000Y-359800000D03*
X602815000Y-360300000D03*
X602815000Y-360800000D03*
X602815000Y-361300000D03*
X602815000Y-361800000D03*
X602815000Y-362300000D03*
X602815000Y-362800000D03*
X602815000Y-363300000D03*
X602815000Y-363800000D03*
X602815000Y-364300000D03*
D32*
X604740000Y-366225000D03*
X605240000Y-366225000D03*
X605740000Y-366225000D03*
X606240000Y-366225000D03*
X606740000Y-366225000D03*
X607240000Y-366225000D03*
X607740000Y-366225000D03*
X608240000Y-366225000D03*
X608740000Y-366225000D03*
X609240000Y-366225000D03*
X609740000Y-366225000D03*
X610240000Y-366225000D03*
X610740000Y-366225000D03*
X611240000Y-366225000D03*
X611740000Y-366225000D03*
X612240000Y-366225000D03*
D31*
X614165000Y-364300000D03*
X614165000Y-363800000D03*
X614165000Y-363300000D03*
X614165000Y-362800000D03*
X614165000Y-362300000D03*
X614165000Y-361800000D03*
X614165000Y-361300000D03*
X614165000Y-360800000D03*
X614165000Y-360300000D03*
X614165000Y-359800000D03*
X614165000Y-359300000D03*
X614165000Y-358800000D03*
X614165000Y-358300000D03*
X614165000Y-357800000D03*
X614165000Y-357300000D03*
X614165000Y-356800000D03*
D32*
X612240000Y-354875000D03*
X611740000Y-354875000D03*
X611240000Y-354875000D03*
X610740000Y-354875000D03*
X610240000Y-354875000D03*
X609740000Y-354875000D03*
X609240000Y-354875000D03*
X608740000Y-354875000D03*
X608240000Y-354875000D03*
X607740000Y-354875000D03*
X607240000Y-354875000D03*
X606740000Y-354875000D03*
X606240000Y-354875000D03*
X605740000Y-354875000D03*
X605240000Y-354875000D03*
X604740000Y-354875000D03*
%TD*%
D17*
%TO.C,C18*%
X610975000Y-373500000D03*
X609425000Y-373500000D03*
%TD*%
D33*
%TO.C,PWR_LED*%
X627700000Y-349762500D03*
X627700000Y-351637500D03*
%TD*%
D34*
%TO.C,U3*%
X620337500Y-359050000D03*
X620337500Y-358100000D03*
X620337500Y-357150000D03*
X618062500Y-357150000D03*
X618062500Y-358100000D03*
X618062500Y-359050000D03*
%TD*%
D17*
%TO.C,C21*%
X599675000Y-362200000D03*
X598125000Y-362200000D03*
%TD*%
D16*
%TO.C,C38*%
X622425000Y-369835000D03*
X623975000Y-369835000D03*
%TD*%
D35*
%TO.C,C6*%
X601150000Y-353000000D03*
X599250000Y-353000000D03*
%TD*%
D10*
%TO.C,C5*%
X613700000Y-366825000D03*
X613700000Y-368375000D03*
%TD*%
D17*
%TO.C,C1*%
X587575000Y-366600000D03*
X586025000Y-366600000D03*
%TD*%
M02*
