M48
; DRILL file {KiCad 9.0.6} date 2026-02-10T23:26:10+0000
; FORMAT={-:-/ absolute / metric / decimal}
; #@! TF.CreationDate,2026-02-10T23:26:10+00:00
; #@! TF.GenerationSoftware,Kicad,Pcbnew,9.0.6
; #@! TF.FileFunction,Plated,1,4,PTH
FMAT,2
METRIC
; #@! TA.AperFunction,Plated,PTH,ViaDrill
T1C0.300
; #@! TA.AperFunction,Plated,PTH,ComponentDrill
T2C1.000
; #@! TA.AperFunction,Plated,PTH,ComponentDrill
T3C1.100
; #@! TA.AperFunction,Plated,PTH,ComponentDrill
T4C1.300
; #@! TA.AperFunction,Plated,PTH,ComponentDrill
T5C1.500
; #@! TA.AperFunction,Plated,PTH,ComponentDrill
T6C1.700
%
G90
G05
T1
X123.4Y-82.0
X123.7Y-41.6
X124.0Y-90.1
X124.9Y-99.2
X125.1Y-47.6
X126.1Y-62.0
X126.3Y-53.1
X127.2Y-45.5
X128.2Y-79.8
X129.0Y-36.8
X130.2Y-50.6
X131.2Y-44.9
X131.3Y-55.2
X131.5Y-79.8
X131.9Y-62.0
X132.4Y-82.9
X133.0Y-48.1
X133.0Y-52.9
X133.1Y-34.0
X133.2Y-83.8
X133.6Y-81.8
X133.6Y-98.9
X134.1Y-29.7
X134.7Y-38.1
X134.8Y-61.6
X135.0Y-103.2
X135.8Y-101.0
X136.4Y-44.9
X136.7Y-77.6
X136.7Y-83.7
X136.9Y-53.0
X136.987Y-92.487
X136.987Y-94.087
X136.987Y-95.688
X136.987Y-97.087
X137.3Y-32.8
X137.9Y-73.6
X139.399Y-85.1
X139.5Y-28.2
X139.7Y-61.3
X139.8Y-75.7
X140.1Y-46.8
X140.4Y-85.4
X140.588Y-94.688
X140.6Y-86.4
X140.9Y-89.4
X141.1Y-99.6
X141.6Y-80.65
X142.0Y-74.1
X142.3Y-97.0
X142.6Y-78.9
X142.6Y-93.662
X142.6Y-95.7
X142.8Y-63.3
X143.3Y-92.5
X143.4Y-89.3
X143.6Y-76.0
X144.4Y-95.8
X144.5Y-94.4
X144.9Y-75.9
X145.1Y-50.9
X145.3Y-90.6
X145.7Y-100.502
X146.0Y-61.4
X146.0Y-75.3
X146.2Y-92.2
X146.3Y-93.9
X146.5Y-79.4
X147.2Y-59.0
X147.2Y-61.4
X147.3Y-74.0
X147.3Y-100.502
X147.6Y-92.0
X147.7Y-46.8
X148.0Y-87.6
X148.2Y-59.5
X148.3Y-61.4
X148.3Y-81.65
X148.3Y-83.6
X148.3Y-84.5
X148.3Y-93.9
X148.4Y-86.7
X148.8Y-85.6
X148.9Y-100.502
X149.0Y-57.2
X149.2Y-54.4
X149.3Y-80.9
X150.0Y-41.1
X150.3Y-28.5
X150.5Y-100.502
X150.8Y-84.1
X150.8Y-86.7
X151.0Y-95.6
X151.05Y-91.4
X151.1Y-81.2
X151.1Y-93.0
X151.6Y-50.9
X151.6Y-54.4
X151.6Y-56.8
X151.8Y-63.3
X151.8Y-95.1
X151.9Y-75.2
X152.0Y-94.2
X152.0Y-96.0
X152.0Y-97.8
X152.1Y-88.6
X152.3Y-74.0
X152.6Y-36.4
X152.8Y-80.9
X152.9Y-74.9
X153.2Y-31.6
X153.2Y-84.2
X153.2Y-86.7
X153.4Y-98.6
X153.7Y-75.6
X154.5Y-76.4
X154.6Y-46.8
X155.2Y-73.9
X155.55Y-51.75
X155.7Y-84.2
X155.7Y-86.7
X155.8Y-55.1
X155.9Y-71.7
X155.9Y-91.6
X156.2Y-68.7
X156.2Y-70.4
X156.25Y-52.45
X156.3Y-82.1
X156.8Y-69.6
X157.6Y-93.4
X158.4Y-37.4
X158.4Y-62.3
X158.4Y-91.0
X158.4Y-92.5
X158.5Y-28.7
X158.524Y-73.124
X158.7Y-55.0
X158.8Y-52.8
X158.8Y-78.2
X159.1Y-63.3
X159.2Y-33.1
X159.2Y-46.8
X159.2Y-50.6
X159.2Y-97.6
X159.2Y-99.2
X159.2Y-100.8
X159.5Y-64.7
X159.5Y-71.3
X160.2Y-78.2
X160.7Y-88.9
X160.8Y-80.9
X161.3Y-85.5
X161.3Y-87.15
X161.6Y-50.6
X161.6Y-81.55
X161.7Y-54.9
X161.7Y-92.1
X161.8Y-44.2
X161.8Y-47.9
X162.0Y-75.3
X162.1Y-84.8
X162.1Y-86.1
X162.1Y-87.9
X162.4Y-94.9
X162.7Y-71.6
X162.926Y-81.826
X163.0Y-67.9
X163.2Y-98.4
X163.6Y-103.0
X164.0Y-37.9
X164.1Y-72.9
X164.2Y-82.4
X165.2Y-77.8
X165.3Y-82.7
X165.6Y-33.0
X165.6Y-80.6
X165.6Y-93.8
X165.8Y-48.1
X165.9Y-74.9
X166.4Y-91.605
X166.5Y-74.3
X166.6Y-28.9
X166.7Y-76.0
X166.9Y-68.0
X167.1Y-103.0
X167.2Y-79.5
X167.4Y-92.105
X167.5Y-75.3
X168.2Y-61.0
X168.2Y-73.2
X168.3Y-53.4
X168.4Y-74.9
X168.5Y-91.605
X168.878Y-96.0
X168.9Y-77.8
X169.1Y-70.4
X169.1Y-82.3
X169.178Y-94.4
X169.4Y-45.5
X169.425Y-60.975
X169.8Y-74.299
X170.45Y-79.95
X170.5Y-102.9
X170.578Y-93.5
X170.6Y-61.0
X170.6Y-65.5
X170.64Y-62.24
X171.0Y-83.6
X171.9Y-101.1
X172.1Y-49.4
X172.378Y-93.6
X172.4Y-86.005
X172.4Y-87.205
X173.7Y-71.5
X173.8Y-62.0
X174.3Y-81.7
X174.378Y-93.1
X174.4Y-87.2
X175.7Y-54.0
X176.1Y-46.1
X176.4Y-79.3
X176.778Y-93.0
X177.178Y-91.695
X177.4Y-70.7
X177.4Y-72.5
X178.2Y-38.9
X178.4Y-87.6
X178.4Y-89.4
X178.6Y-66.4
X179.4Y-91.0
X180.0Y-60.6
X180.6Y-81.8
X180.7Y-28.6
X180.8Y-55.3
X181.0Y-77.4
X181.1Y-49.9
X181.4Y-91.0
X181.8Y-35.8
X182.0Y-43.7
X182.4Y-77.4
X182.4Y-87.6
X182.4Y-89.4
X182.5Y-79.2
X182.6Y-31.7
X182.6Y-40.1
X183.0Y-70.2
X183.0Y-71.8
X183.3Y-63.7
X183.6Y-71.0
X184.2Y-70.2
X184.2Y-71.8
X186.0Y-55.9
X186.588Y-31.887
X186.7Y-87.1
X189.4Y-90.1
X190.3Y-52.2
X191.387Y-31.688
X192.9Y-86.8
X192.987Y-45.688
X193.3Y-34.7
X193.6Y-55.7
X194.0Y-38.0
X194.188Y-45.688
X196.387Y-41.087
X196.587Y-39.487
X196.6Y-89.9
X196.787Y-28.688
X198.387Y-29.487
X199.188Y-30.287
X200.2Y-86.6
X200.587Y-30.287
X201.188Y-36.087
X201.587Y-31.287
X202.188Y-32.288
X202.2Y-40.9
X202.5Y-45.0
X203.387Y-32.288
X203.4Y-89.9
X203.587Y-34.688
X204.1Y-29.1
X204.587Y-35.487
X204.787Y-32.288
X205.787Y-32.887
X206.087Y-42.987
X206.587Y-33.688
X207.2Y-86.4
X207.587Y-40.087
X208.387Y-33.887
X208.787Y-38.688
X209.387Y-34.688
X209.387Y-36.087
X210.6Y-89.8
T2
X127.21Y-58.4
X127.24Y-42.2
X129.75Y-58.4
X129.78Y-42.2
X132.29Y-58.4
X132.32Y-42.2
X134.83Y-58.4
X134.86Y-42.2
X136.9Y-67.06
X136.9Y-69.6
X137.37Y-58.4
X137.4Y-42.2
X139.44Y-67.06
X139.44Y-69.6
X139.91Y-58.4
X139.94Y-42.2
X141.98Y-67.06
X141.98Y-69.6
X142.45Y-58.4
X142.48Y-42.2
X144.52Y-67.06
X144.52Y-69.6
X144.99Y-58.4
X145.02Y-42.2
X147.06Y-67.06
X147.06Y-69.6
X149.6Y-67.06
X149.6Y-69.6
X152.14Y-67.06
X152.14Y-69.6
X156.7Y-42.2
X156.725Y-58.375
X159.24Y-42.2
X159.265Y-58.375
X161.78Y-42.2
X161.805Y-58.375
X164.32Y-42.2
X164.345Y-58.375
X166.86Y-42.2
X166.885Y-58.375
X169.4Y-42.2
X169.425Y-58.375
X171.94Y-42.2
X171.965Y-58.375
X174.48Y-42.2
X174.505Y-58.375
T3
X195.1Y-71.0
T4
X183.678Y-99.675
X188.758Y-99.675
X195.72Y-99.672
X200.8Y-99.672
X205.072Y-48.865
X205.072Y-53.945
T5
X129.4Y-64.9
X129.4Y-69.7
X129.4Y-74.5
X131.2Y-86.005
X131.2Y-90.805
X131.2Y-95.605
X145.0Y-33.34
X174.48Y-33.4
X188.75Y-35.987
X188.75Y-40.788
X188.75Y-45.587
T6
X142.46Y-30.8
X142.46Y-35.88
X147.54Y-30.8
X147.54Y-35.88
X171.94Y-30.86
X171.94Y-35.94
X177.02Y-30.86
X177.02Y-35.94
M30
