%TF.GenerationSoftware,KiCad,Pcbnew,9.0.6*%
%TF.CreationDate,2026-02-10T23:26:08+00:00*%
%TF.ProjectId,avionics_dev_board,6176696f-6e69-4637-935f-6465765f626f,rev?*%
%TF.SameCoordinates,Original*%
%TF.FileFunction,Paste,Top*%
%TF.FilePolarity,Positive*%
%FSLAX46Y46*%
G04 Gerber Fmt 4.6, Leading zero omitted, Abs format (unit mm)*
G04 Created by KiCad (PCBNEW 9.0.6) date 2026-02-10 23:26:08*
%MOMM*%
%LPD*%
G01*
G04 APERTURE LIST*
G04 Aperture macros list*
%AMRoundRect*
0 Rectangle with rounded corners*
0 $1 Rounding radius*
0 $2 $3 $4 $5 $6 $7 $8 $9 X,Y pos of 4 corners*
0 Add a 4 corners polygon primitive as box body*
4,1,4,$2,$3,$4,$5,$6,$7,$8,$9,$2,$3,0*
0 Add four circle primitives for the rounded corners*
1,1,$1+$1,$2,$3*
1,1,$1+$1,$4,$5*
1,1,$1+$1,$6,$7*
1,1,$1+$1,$8,$9*
0 Add four rect primitives between the rounded corners*
20,1,$1+$1,$2,$3,$4,$5,0*
20,1,$1+$1,$4,$5,$6,$7,0*
20,1,$1+$1,$6,$7,$8,$9,0*
20,1,$1+$1,$8,$9,$2,$3,0*%
G04 Aperture macros list end*
%ADD10C,0.010000*%
%ADD11RoundRect,0.225000X0.250000X-0.225000X0.250000X0.225000X-0.250000X0.225000X-0.250000X-0.225000X0*%
%ADD12RoundRect,0.150000X-0.825000X-0.150000X0.825000X-0.150000X0.825000X0.150000X-0.825000X0.150000X0*%
%ADD13RoundRect,0.200000X-0.200000X-0.275000X0.200000X-0.275000X0.200000X0.275000X-0.200000X0.275000X0*%
%ADD14RoundRect,0.225000X-0.250000X0.225000X-0.250000X-0.225000X0.250000X-0.225000X0.250000X0.225000X0*%
%ADD15RoundRect,0.250000X-0.475000X0.250000X-0.475000X-0.250000X0.475000X-0.250000X0.475000X0.250000X0*%
%ADD16RoundRect,0.250000X0.475000X-0.250000X0.475000X0.250000X-0.475000X0.250000X-0.475000X-0.250000X0*%
%ADD17RoundRect,0.200000X0.275000X-0.200000X0.275000X0.200000X-0.275000X0.200000X-0.275000X-0.200000X0*%
%ADD18RoundRect,0.218750X0.381250X-0.218750X0.381250X0.218750X-0.381250X0.218750X-0.381250X-0.218750X0*%
%ADD19RoundRect,0.150000X-0.512500X-0.150000X0.512500X-0.150000X0.512500X0.150000X-0.512500X0.150000X0*%
%ADD20RoundRect,0.218750X-0.256250X0.218750X-0.256250X-0.218750X0.256250X-0.218750X0.256250X0.218750X0*%
%ADD21RoundRect,0.250000X-0.300000X0.300000X-0.300000X-0.300000X0.300000X-0.300000X0.300000X0.300000X0*%
%ADD22RoundRect,0.225000X-0.225000X-0.250000X0.225000X-0.250000X0.225000X0.250000X-0.225000X0.250000X0*%
%ADD23RoundRect,0.218750X0.218750X0.256250X-0.218750X0.256250X-0.218750X-0.256250X0.218750X-0.256250X0*%
%ADD24R,0.350000X0.625000*%
%ADD25R,0.625000X0.350000*%
%ADD26R,0.450000X0.300000*%
%ADD27R,0.300000X0.450000*%
%ADD28RoundRect,0.225000X0.225000X0.250000X-0.225000X0.250000X-0.225000X-0.250000X0.225000X-0.250000X0*%
%ADD29RoundRect,0.200000X0.200000X0.275000X-0.200000X0.275000X-0.200000X-0.275000X0.200000X-0.275000X0*%
%ADD30RoundRect,0.150000X0.350000X-0.850000X0.350000X0.850000X-0.350000X0.850000X-0.350000X-0.850000X0*%
%ADD31RoundRect,0.250000X0.250000X0.475000X-0.250000X0.475000X-0.250000X-0.475000X0.250000X-0.475000X0*%
%ADD32R,0.550000X1.145000*%
%ADD33R,1.145000X0.550000*%
%ADD34RoundRect,0.200000X-0.275000X0.200000X-0.275000X-0.200000X0.275000X-0.200000X0.275000X0.200000X0*%
%ADD35RoundRect,0.075000X-0.700000X-0.075000X0.700000X-0.075000X0.700000X0.075000X-0.700000X0.075000X0*%
%ADD36RoundRect,0.075000X-0.075000X-0.700000X0.075000X-0.700000X0.075000X0.700000X-0.075000X0.700000X0*%
%ADD37RoundRect,0.218750X-0.218750X-0.256250X0.218750X-0.256250X0.218750X0.256250X-0.218750X0.256250X0*%
%ADD38R,0.950000X0.450000*%
%ADD39R,3.450000X4.350000*%
%ADD40R,1.200000X1.400000*%
G04 APERTURE END LIST*
D10*
%TO.C,M10S*%
X174350000Y-75400000D02*
X174250000Y-75400000D01*
X174250000Y-76300000D01*
X173750000Y-76300000D01*
X173750000Y-75400000D01*
X173650000Y-75400000D01*
X173650000Y-74000000D01*
X174350000Y-74000000D01*
X174350000Y-75400000D01*
G36*
X174350000Y-75400000D02*
G01*
X174250000Y-75400000D01*
X174250000Y-76300000D01*
X173750000Y-76300000D01*
X173750000Y-75400000D01*
X173650000Y-75400000D01*
X173650000Y-74000000D01*
X174350000Y-74000000D01*
X174350000Y-75400000D01*
G37*
X174250000Y-85100000D02*
X174350000Y-85100000D01*
X174350000Y-86500000D01*
X173650000Y-86500000D01*
X173650000Y-85100000D01*
X173750000Y-85100000D01*
X173750000Y-84200000D01*
X174250000Y-84200000D01*
X174250000Y-85100000D01*
G36*
X174250000Y-85100000D02*
G01*
X174350000Y-85100000D01*
X174350000Y-86500000D01*
X173650000Y-86500000D01*
X173650000Y-85100000D01*
X173750000Y-85100000D01*
X173750000Y-84200000D01*
X174250000Y-84200000D01*
X174250000Y-85100000D01*
G37*
X175500000Y-75400000D02*
X175400000Y-75400000D01*
X175400000Y-76300000D01*
X174800000Y-76300000D01*
X174800000Y-75400000D01*
X174700000Y-75400000D01*
X174700000Y-74000000D01*
X175500000Y-74000000D01*
X175500000Y-75400000D01*
G36*
X175500000Y-75400000D02*
G01*
X175400000Y-75400000D01*
X175400000Y-76300000D01*
X174800000Y-76300000D01*
X174800000Y-75400000D01*
X174700000Y-75400000D01*
X174700000Y-74000000D01*
X175500000Y-74000000D01*
X175500000Y-75400000D01*
G37*
X175400000Y-85100000D02*
X175500000Y-85100000D01*
X175500000Y-86500000D01*
X174700000Y-86500000D01*
X174700000Y-85100000D01*
X174800000Y-85100000D01*
X174800000Y-84200000D01*
X175400000Y-84200000D01*
X175400000Y-85100000D01*
G36*
X175400000Y-85100000D02*
G01*
X175500000Y-85100000D01*
X175500000Y-86500000D01*
X174700000Y-86500000D01*
X174700000Y-85100000D01*
X174800000Y-85100000D01*
X174800000Y-84200000D01*
X175400000Y-84200000D01*
X175400000Y-85100000D01*
G37*
X176600000Y-75400000D02*
X176500000Y-75400000D01*
X176500000Y-76300000D01*
X175900000Y-76300000D01*
X175900000Y-75400000D01*
X175800000Y-75400000D01*
X175800000Y-74000000D01*
X176600000Y-74000000D01*
X176600000Y-75400000D01*
G36*
X176600000Y-75400000D02*
G01*
X176500000Y-75400000D01*
X176500000Y-76300000D01*
X175900000Y-76300000D01*
X175900000Y-75400000D01*
X175800000Y-75400000D01*
X175800000Y-74000000D01*
X176600000Y-74000000D01*
X176600000Y-75400000D01*
G37*
X176500000Y-85100000D02*
X176600000Y-85100000D01*
X176600000Y-86500000D01*
X175800000Y-86500000D01*
X175800000Y-85100000D01*
X175900000Y-85100000D01*
X175900000Y-84200000D01*
X176500000Y-84200000D01*
X176500000Y-85100000D01*
G36*
X176500000Y-85100000D02*
G01*
X176600000Y-85100000D01*
X176600000Y-86500000D01*
X175800000Y-86500000D01*
X175800000Y-85100000D01*
X175900000Y-85100000D01*
X175900000Y-84200000D01*
X176500000Y-84200000D01*
X176500000Y-85100000D01*
G37*
X177700000Y-75400000D02*
X177600000Y-75400000D01*
X177600000Y-76300000D01*
X177000000Y-76300000D01*
X177000000Y-75400000D01*
X176900000Y-75400000D01*
X176900000Y-74000000D01*
X177700000Y-74000000D01*
X177700000Y-75400000D01*
G36*
X177700000Y-75400000D02*
G01*
X177600000Y-75400000D01*
X177600000Y-76300000D01*
X177000000Y-76300000D01*
X177000000Y-75400000D01*
X176900000Y-75400000D01*
X176900000Y-74000000D01*
X177700000Y-74000000D01*
X177700000Y-75400000D01*
G37*
X177600000Y-85100000D02*
X177700000Y-85100000D01*
X177700000Y-86500000D01*
X176900000Y-86500000D01*
X176900000Y-85100000D01*
X177000000Y-85100000D01*
X177000000Y-84200000D01*
X177600000Y-84200000D01*
X177600000Y-85100000D01*
G36*
X177600000Y-85100000D02*
G01*
X177700000Y-85100000D01*
X177700000Y-86500000D01*
X176900000Y-86500000D01*
X176900000Y-85100000D01*
X177000000Y-85100000D01*
X177000000Y-84200000D01*
X177600000Y-84200000D01*
X177600000Y-85100000D01*
G37*
X178800000Y-75400000D02*
X178700000Y-75400000D01*
X178700000Y-76300000D01*
X178100000Y-76300000D01*
X178100000Y-75400000D01*
X178000000Y-75400000D01*
X178000000Y-74000000D01*
X178800000Y-74000000D01*
X178800000Y-75400000D01*
G36*
X178800000Y-75400000D02*
G01*
X178700000Y-75400000D01*
X178700000Y-76300000D01*
X178100000Y-76300000D01*
X178100000Y-75400000D01*
X178000000Y-75400000D01*
X178000000Y-74000000D01*
X178800000Y-74000000D01*
X178800000Y-75400000D01*
G37*
X178700000Y-85100000D02*
X178800000Y-85100000D01*
X178800000Y-86500000D01*
X178000000Y-86500000D01*
X178000000Y-85100000D01*
X178100000Y-85100000D01*
X178100000Y-84200000D01*
X178700000Y-84200000D01*
X178700000Y-85100000D01*
G36*
X178700000Y-85100000D02*
G01*
X178800000Y-85100000D01*
X178800000Y-86500000D01*
X178000000Y-86500000D01*
X178000000Y-85100000D01*
X178100000Y-85100000D01*
X178100000Y-84200000D01*
X178700000Y-84200000D01*
X178700000Y-85100000D01*
G37*
X179900000Y-75400000D02*
X179800000Y-75400000D01*
X179800000Y-76300000D01*
X179200000Y-76300000D01*
X179200000Y-75400000D01*
X179100000Y-75400000D01*
X179100000Y-74000000D01*
X179900000Y-74000000D01*
X179900000Y-75400000D01*
G36*
X179900000Y-75400000D02*
G01*
X179800000Y-75400000D01*
X179800000Y-76300000D01*
X179200000Y-76300000D01*
X179200000Y-75400000D01*
X179100000Y-75400000D01*
X179100000Y-74000000D01*
X179900000Y-74000000D01*
X179900000Y-75400000D01*
G37*
X179800000Y-85100000D02*
X179900000Y-85100000D01*
X179900000Y-86500000D01*
X179100000Y-86500000D01*
X179100000Y-85100000D01*
X179200000Y-85100000D01*
X179200000Y-84200000D01*
X179800000Y-84200000D01*
X179800000Y-85100000D01*
G36*
X179800000Y-85100000D02*
G01*
X179900000Y-85100000D01*
X179900000Y-86500000D01*
X179100000Y-86500000D01*
X179100000Y-85100000D01*
X179200000Y-85100000D01*
X179200000Y-84200000D01*
X179800000Y-84200000D01*
X179800000Y-85100000D01*
G37*
X181000000Y-75400000D02*
X180900000Y-75400000D01*
X180900000Y-76300000D01*
X180300000Y-76300000D01*
X180300000Y-75400000D01*
X180200000Y-75400000D01*
X180200000Y-74000000D01*
X181000000Y-74000000D01*
X181000000Y-75400000D01*
G36*
X181000000Y-75400000D02*
G01*
X180900000Y-75400000D01*
X180900000Y-76300000D01*
X180300000Y-76300000D01*
X180300000Y-75400000D01*
X180200000Y-75400000D01*
X180200000Y-74000000D01*
X181000000Y-74000000D01*
X181000000Y-75400000D01*
G37*
X180900000Y-85100000D02*
X181000000Y-85100000D01*
X181000000Y-86500000D01*
X180200000Y-86500000D01*
X180200000Y-85100000D01*
X180300000Y-85100000D01*
X180300000Y-84200000D01*
X180900000Y-84200000D01*
X180900000Y-85100000D01*
G36*
X180900000Y-85100000D02*
G01*
X181000000Y-85100000D01*
X181000000Y-86500000D01*
X180200000Y-86500000D01*
X180200000Y-85100000D01*
X180300000Y-85100000D01*
X180300000Y-84200000D01*
X180900000Y-84200000D01*
X180900000Y-85100000D01*
G37*
X182100000Y-75400000D02*
X182000000Y-75400000D01*
X182000000Y-76300000D01*
X181400000Y-76300000D01*
X181400000Y-75400000D01*
X181300000Y-75400000D01*
X181300000Y-74000000D01*
X182100000Y-74000000D01*
X182100000Y-75400000D01*
G36*
X182100000Y-75400000D02*
G01*
X182000000Y-75400000D01*
X182000000Y-76300000D01*
X181400000Y-76300000D01*
X181400000Y-75400000D01*
X181300000Y-75400000D01*
X181300000Y-74000000D01*
X182100000Y-74000000D01*
X182100000Y-75400000D01*
G37*
X182000000Y-85100000D02*
X182100000Y-85100000D01*
X182100000Y-86500000D01*
X181300000Y-86500000D01*
X181300000Y-85100000D01*
X181400000Y-85100000D01*
X181400000Y-84200000D01*
X182000000Y-84200000D01*
X182000000Y-85100000D01*
G36*
X182000000Y-85100000D02*
G01*
X182100000Y-85100000D01*
X182100000Y-86500000D01*
X181300000Y-86500000D01*
X181300000Y-85100000D01*
X181400000Y-85100000D01*
X181400000Y-84200000D01*
X182000000Y-84200000D01*
X182000000Y-85100000D01*
G37*
X183150000Y-75400000D02*
X183050000Y-75400000D01*
X183050000Y-76300000D01*
X182550000Y-76300000D01*
X182550000Y-75400000D01*
X182450000Y-75400000D01*
X182450000Y-74000000D01*
X183150000Y-74000000D01*
X183150000Y-75400000D01*
G36*
X183150000Y-75400000D02*
G01*
X183050000Y-75400000D01*
X183050000Y-76300000D01*
X182550000Y-76300000D01*
X182550000Y-75400000D01*
X182450000Y-75400000D01*
X182450000Y-74000000D01*
X183150000Y-74000000D01*
X183150000Y-75400000D01*
G37*
X183050000Y-85100000D02*
X183150000Y-85100000D01*
X183150000Y-86500000D01*
X182450000Y-86500000D01*
X182450000Y-85100000D01*
X182550000Y-85100000D01*
X182550000Y-84200000D01*
X183050000Y-84200000D01*
X183050000Y-85100000D01*
G36*
X183050000Y-85100000D02*
G01*
X183150000Y-85100000D01*
X183150000Y-86500000D01*
X182450000Y-86500000D01*
X182450000Y-85100000D01*
X182550000Y-85100000D01*
X182550000Y-84200000D01*
X183050000Y-84200000D01*
X183050000Y-85100000D01*
G37*
%TO.C,BMP1*%
X166512500Y-79400000D02*
X166287500Y-79400000D01*
X166287500Y-79200000D01*
X166512500Y-79200000D01*
X166512500Y-79400000D01*
G36*
X166512500Y-79400000D02*
G01*
X166287500Y-79400000D01*
X166287500Y-79200000D01*
X166512500Y-79200000D01*
X166512500Y-79400000D01*
G37*
X166512500Y-79900000D02*
X166287500Y-79900000D01*
X166287500Y-79700000D01*
X166512500Y-79700000D01*
X166512500Y-79900000D01*
G36*
X166512500Y-79900000D02*
G01*
X166287500Y-79900000D01*
X166287500Y-79700000D01*
X166512500Y-79700000D01*
X166512500Y-79900000D01*
G37*
X166762500Y-78900000D02*
X166562500Y-78900000D01*
X166562500Y-78675000D01*
X166762500Y-78675000D01*
X166762500Y-78900000D01*
G36*
X166762500Y-78900000D02*
G01*
X166562500Y-78900000D01*
X166562500Y-78675000D01*
X166762500Y-78675000D01*
X166762500Y-78900000D01*
G37*
X166762500Y-80425000D02*
X166562500Y-80425000D01*
X166562500Y-80200000D01*
X166762500Y-80200000D01*
X166762500Y-80425000D01*
G36*
X166762500Y-80425000D02*
G01*
X166562500Y-80425000D01*
X166562500Y-80200000D01*
X166762500Y-80200000D01*
X166762500Y-80425000D01*
G37*
X167262500Y-78900000D02*
X167062500Y-78900000D01*
X167062500Y-78675000D01*
X167262500Y-78675000D01*
X167262500Y-78900000D01*
G36*
X167262500Y-78900000D02*
G01*
X167062500Y-78900000D01*
X167062500Y-78675000D01*
X167262500Y-78675000D01*
X167262500Y-78900000D01*
G37*
X167262500Y-80425000D02*
X167062500Y-80425000D01*
X167062500Y-80200000D01*
X167262500Y-80200000D01*
X167262500Y-80425000D01*
G36*
X167262500Y-80425000D02*
G01*
X167062500Y-80425000D01*
X167062500Y-80200000D01*
X167262500Y-80200000D01*
X167262500Y-80425000D01*
G37*
X167762500Y-78900000D02*
X167562500Y-78900000D01*
X167562500Y-78675000D01*
X167762500Y-78675000D01*
X167762500Y-78900000D01*
G36*
X167762500Y-78900000D02*
G01*
X167562500Y-78900000D01*
X167562500Y-78675000D01*
X167762500Y-78675000D01*
X167762500Y-78900000D01*
G37*
X167762500Y-80425000D02*
X167562500Y-80425000D01*
X167562500Y-80200000D01*
X167762500Y-80200000D01*
X167762500Y-80425000D01*
G36*
X167762500Y-80425000D02*
G01*
X167562500Y-80425000D01*
X167562500Y-80200000D01*
X167762500Y-80200000D01*
X167762500Y-80425000D01*
G37*
X168037500Y-79400000D02*
X167812500Y-79400000D01*
X167812500Y-79200000D01*
X168037500Y-79200000D01*
X168037500Y-79400000D01*
G36*
X168037500Y-79400000D02*
G01*
X167812500Y-79400000D01*
X167812500Y-79200000D01*
X168037500Y-79200000D01*
X168037500Y-79400000D01*
G37*
X168037500Y-79900000D02*
X167812500Y-79900000D01*
X167812500Y-79700000D01*
X168037500Y-79700000D01*
X168037500Y-79900000D01*
G36*
X168037500Y-79900000D02*
G01*
X167812500Y-79900000D01*
X167812500Y-79700000D01*
X168037500Y-79700000D01*
X168037500Y-79900000D01*
G37*
%TD*%
D11*
%TO.C,C37*%
X169078168Y-99370000D03*
X169078168Y-97820000D03*
%TD*%
D12*
%TO.C,Q3*%
X171328168Y-95400000D03*
X171328168Y-96670000D03*
X171328168Y-97940000D03*
X171328168Y-99210000D03*
X176278168Y-99210000D03*
X176278168Y-97940000D03*
X176278168Y-96670000D03*
X176278168Y-95400000D03*
%TD*%
D13*
%TO.C,R12*%
X165653168Y-99395000D03*
X167303168Y-99395000D03*
%TD*%
%TO.C,R11*%
X165653168Y-97595000D03*
X167303168Y-97595000D03*
%TD*%
D14*
%TO.C,C13*%
X158075000Y-99075000D03*
X158075000Y-100625000D03*
%TD*%
D15*
%TO.C,C8*%
X200000000Y-31737500D03*
X200000000Y-33637500D03*
%TD*%
D16*
%TO.C,C1*%
X193600000Y-44037500D03*
X193600000Y-42137500D03*
%TD*%
D17*
%TO.C,R3*%
X195600000Y-33512500D03*
X195600000Y-31862500D03*
%TD*%
D18*
%TO.C,L1*%
X197800000Y-37950000D03*
X197800000Y-35825000D03*
%TD*%
D15*
%TO.C,C2*%
X197600000Y-42137500D03*
X197600000Y-44037500D03*
%TD*%
D19*
%TO.C,BUCK*%
X201525000Y-37087500D03*
X201525000Y-38037500D03*
X201525000Y-38987500D03*
X203800000Y-38987500D03*
X203800000Y-38037500D03*
X203800000Y-37087500D03*
%TD*%
D13*
%TO.C,R1*%
X205975000Y-38887500D03*
X207625000Y-38887500D03*
%TD*%
D20*
%TO.C,F1*%
X195600000Y-42300000D03*
X195600000Y-43875000D03*
%TD*%
D21*
%TO.C,D2*%
X200000000Y-41687500D03*
X200000000Y-44487500D03*
%TD*%
D15*
%TO.C,C9*%
X197800000Y-31737500D03*
X197800000Y-33637500D03*
%TD*%
D14*
%TO.C,C4*%
X207950000Y-35387500D03*
X207950000Y-36937500D03*
%TD*%
D17*
%TO.C,R2*%
X206000000Y-37112500D03*
X206000000Y-35462500D03*
%TD*%
D22*
%TO.C,C3*%
X198025000Y-39687500D03*
X199575000Y-39687500D03*
%TD*%
D23*
%TO.C,PWR_LED*%
X197187500Y-29887500D03*
X195612500Y-29887500D03*
%TD*%
D14*
%TO.C,C7*%
X199600000Y-36312500D03*
X199600000Y-37862500D03*
%TD*%
D24*
%TO.C,LSM6*%
X141387500Y-93662500D03*
X140887500Y-93662500D03*
X140387500Y-93662500D03*
X139887500Y-93667500D03*
D25*
X139662500Y-94387500D03*
X139662500Y-94887500D03*
X139662500Y-95387500D03*
D24*
X139887500Y-96112500D03*
X140387500Y-96112500D03*
X140887500Y-96112500D03*
X141387500Y-96112500D03*
D25*
X141612500Y-95387500D03*
X141612500Y-94887500D03*
X141612500Y-94387500D03*
%TD*%
D26*
%TO.C,MMC*%
X166325000Y-71475000D03*
X166325000Y-70975000D03*
X166325000Y-70475000D03*
X166325000Y-69975000D03*
D27*
X165800000Y-69450000D03*
X165300000Y-69450000D03*
X164800000Y-69450000D03*
X164300000Y-69450000D03*
D26*
X163775000Y-69975000D03*
X163775000Y-70475000D03*
X163775000Y-70975000D03*
X163775000Y-71475000D03*
D27*
X164300000Y-72000000D03*
X164800000Y-72000000D03*
X165300000Y-72000000D03*
X165800000Y-72000000D03*
%TD*%
D28*
%TO.C,C18*%
X154675000Y-97450000D03*
X153125000Y-97450000D03*
%TD*%
D29*
%TO.C,R8*%
X167887500Y-81800000D03*
X166237500Y-81800000D03*
%TD*%
D28*
%TO.C,C21*%
X143450000Y-86050000D03*
X141900000Y-86050000D03*
%TD*%
D11*
%TO.C,C19*%
X139500000Y-78675000D03*
X139500000Y-77125000D03*
%TD*%
D28*
%TO.C,C16*%
X154650000Y-95650000D03*
X153100000Y-95650000D03*
%TD*%
D30*
%TO.C,RST*%
X136675000Y-73750000D03*
X136675000Y-81850000D03*
%TD*%
D28*
%TO.C,C15*%
X154675000Y-93850000D03*
X153125000Y-93850000D03*
%TD*%
%TO.C,C35*%
X142055000Y-39400000D03*
X140505000Y-39400000D03*
%TD*%
%TO.C,C17*%
X146050000Y-89450000D03*
X144500000Y-89450000D03*
%TD*%
%TO.C,C11*%
X145450000Y-79250000D03*
X143900000Y-79250000D03*
%TD*%
D22*
%TO.C,C10*%
X158300000Y-79250000D03*
X159850000Y-79250000D03*
%TD*%
D29*
%TO.C,R4*%
X150300000Y-76650000D03*
X148650000Y-76650000D03*
%TD*%
D31*
%TO.C,C6*%
X145225000Y-77250000D03*
X143325000Y-77250000D03*
%TD*%
D14*
%TO.C,C30*%
X167850000Y-68950000D03*
X167850000Y-70500000D03*
%TD*%
%TO.C,C5*%
X157275000Y-90650000D03*
X157275000Y-92200000D03*
%TD*%
%TO.C,C20*%
X139875000Y-82075000D03*
X139875000Y-83625000D03*
%TD*%
D32*
%TO.C,ADXL*%
X146100000Y-97297500D03*
X146900000Y-97297500D03*
X147700000Y-97297500D03*
X148500000Y-97297500D03*
X149300000Y-97297500D03*
X150100000Y-97297500D03*
D33*
X150197500Y-96200000D03*
D32*
X150100000Y-95102500D03*
X149300000Y-95102500D03*
X148500000Y-95102500D03*
X147700000Y-95102500D03*
X146900000Y-95102500D03*
X146100000Y-95102500D03*
D33*
X146002500Y-96200000D03*
%TD*%
D22*
%TO.C,C25*%
X148900000Y-99200000D03*
X150450000Y-99200000D03*
%TD*%
D34*
%TO.C,R13*%
X181800000Y-71025000D03*
X181800000Y-72675000D03*
%TD*%
D11*
%TO.C,C33*%
X161800000Y-90875000D03*
X161800000Y-89325000D03*
%TD*%
D34*
%TO.C,R7*%
X164600000Y-79762500D03*
X164600000Y-81412500D03*
%TD*%
D11*
%TO.C,C12*%
X147075000Y-78225000D03*
X147075000Y-76675000D03*
%TD*%
D22*
%TO.C,C36*%
X147660000Y-64400000D03*
X149210000Y-64400000D03*
%TD*%
D28*
%TO.C,C34*%
X171455000Y-39400000D03*
X169905000Y-39400000D03*
%TD*%
D14*
%TO.C,C24*%
X138187500Y-92337500D03*
X138187500Y-93887500D03*
%TD*%
D29*
%TO.C,R15*%
X180225000Y-72650000D03*
X178575000Y-72650000D03*
%TD*%
D28*
%TO.C,C14*%
X154675000Y-92050000D03*
X153125000Y-92050000D03*
%TD*%
D11*
%TO.C,C27*%
X169462500Y-81162500D03*
X169462500Y-79612500D03*
%TD*%
D22*
%TO.C,C32*%
X179625000Y-89650000D03*
X181175000Y-89650000D03*
%TD*%
D35*
%TO.C,MCU*%
X146525000Y-80650000D03*
X146525000Y-81150000D03*
X146525000Y-81650000D03*
X146525000Y-82150000D03*
X146525000Y-82650000D03*
X146525000Y-83150000D03*
X146525000Y-83650000D03*
X146525000Y-84150000D03*
X146525000Y-84650000D03*
X146525000Y-85150000D03*
X146525000Y-85650000D03*
X146525000Y-86150000D03*
X146525000Y-86650000D03*
X146525000Y-87150000D03*
X146525000Y-87650000D03*
X146525000Y-88150000D03*
D36*
X148450000Y-90075000D03*
X148950000Y-90075000D03*
X149450000Y-90075000D03*
X149950000Y-90075000D03*
X150450000Y-90075000D03*
X150950000Y-90075000D03*
X151450000Y-90075000D03*
X151950000Y-90075000D03*
X152450000Y-90075000D03*
X152950000Y-90075000D03*
X153450000Y-90075000D03*
X153950000Y-90075000D03*
X154450000Y-90075000D03*
X154950000Y-90075000D03*
X155450000Y-90075000D03*
X155950000Y-90075000D03*
D35*
X157875000Y-88150000D03*
X157875000Y-87650000D03*
X157875000Y-87150000D03*
X157875000Y-86650000D03*
X157875000Y-86150000D03*
X157875000Y-85650000D03*
X157875000Y-85150000D03*
X157875000Y-84650000D03*
X157875000Y-84150000D03*
X157875000Y-83650000D03*
X157875000Y-83150000D03*
X157875000Y-82650000D03*
X157875000Y-82150000D03*
X157875000Y-81650000D03*
X157875000Y-81150000D03*
X157875000Y-80650000D03*
D36*
X155950000Y-78725000D03*
X155450000Y-78725000D03*
X154950000Y-78725000D03*
X154450000Y-78725000D03*
X153950000Y-78725000D03*
X153450000Y-78725000D03*
X152950000Y-78725000D03*
X152450000Y-78725000D03*
X151950000Y-78725000D03*
X151450000Y-78725000D03*
X150950000Y-78725000D03*
X150450000Y-78725000D03*
X149950000Y-78725000D03*
X149450000Y-78725000D03*
X148950000Y-78725000D03*
X148450000Y-78725000D03*
%TD*%
D37*
%TO.C,FB1*%
X156487500Y-97450000D03*
X158062500Y-97450000D03*
%TD*%
D22*
%TO.C,C31*%
X179625000Y-87850000D03*
X181175000Y-87850000D03*
%TD*%
D38*
%TO.C,W25Q*%
X171300000Y-89310000D03*
X171300000Y-88040000D03*
X171300000Y-86770000D03*
X171300000Y-85500000D03*
X163500000Y-85500000D03*
X163500000Y-86770000D03*
X163500000Y-88040000D03*
X163500000Y-89310000D03*
D39*
X167400000Y-87405000D03*
%TD*%
D29*
%TO.C,R14*%
X180225000Y-70900000D03*
X178575000Y-70900000D03*
%TD*%
D28*
%TO.C,C26*%
X147275000Y-99200000D03*
X145725000Y-99200000D03*
%TD*%
%TO.C,C22*%
X148625000Y-75050000D03*
X147075000Y-75050000D03*
%TD*%
D14*
%TO.C,C29*%
X162250000Y-68975000D03*
X162250000Y-70525000D03*
%TD*%
D28*
%TO.C,C28*%
X167837500Y-77387500D03*
X166287500Y-77387500D03*
%TD*%
D14*
%TO.C,C23*%
X138187500Y-95737500D03*
X138187500Y-97287500D03*
%TD*%
D40*
%TO.C,Y1*%
X143475000Y-81850000D03*
X143475000Y-84050000D03*
X141775000Y-84050000D03*
X141775000Y-81850000D03*
%TD*%
M02*
