%TF.GenerationSoftware,KiCad,Pcbnew,9.0.6*%
%TF.CreationDate,2026-02-10T23:26:08+00:00*%
%TF.ProjectId,avionics_dev_board,6176696f-6e69-4637-935f-6465765f626f,rev?*%
%TF.SameCoordinates,Original*%
%TF.FileFunction,Soldermask,Bot*%
%TF.FilePolarity,Negative*%
%FSLAX46Y46*%
G04 Gerber Fmt 4.6, Leading zero omitted, Abs format (unit mm)*
G04 Created by KiCad (PCBNEW 9.0.6) date 2026-02-10 23:26:08*
%MOMM*%
%LPD*%
G01*
G04 APERTURE LIST*
G04 Aperture macros list*
%AMRoundRect*
0 Rectangle with rounded corners*
0 $1 Rounding radius*
0 $2 $3 $4 $5 $6 $7 $8 $9 X,Y pos of 4 corners*
0 Add a 4 corners polygon primitive as box body*
4,1,4,$2,$3,$4,$5,$6,$7,$8,$9,$2,$3,0*
0 Add four circle primitives for the rounded corners*
1,1,$1+$1,$2,$3*
1,1,$1+$1,$4,$5*
1,1,$1+$1,$6,$7*
1,1,$1+$1,$8,$9*
0 Add four rect primitives between the rounded corners*
20,1,$1+$1,$2,$3,$4,$5,0*
20,1,$1+$1,$4,$5,$6,$7,0*
20,1,$1+$1,$6,$7,$8,$9,0*
20,1,$1+$1,$8,$9,$2,$3,0*%
G04 Aperture macros list end*
%ADD10C,2.600000*%
%ADD11RoundRect,0.250000X-1.050000X-1.050000X1.050000X-1.050000X1.050000X1.050000X-1.050000X1.050000X0*%
%ADD12C,2.500000*%
%ADD13RoundRect,0.250000X1.050000X-1.050000X1.050000X1.050000X-1.050000X1.050000X-1.050000X-1.050000X0*%
%ADD14C,2.050000*%
%ADD15C,2.250000*%
%ADD16R,1.700000X1.700000*%
%ADD17C,1.700000*%
%ADD18C,2.200000*%
%ADD19C,1.905000*%
G04 APERTURE END LIST*
D10*
%TO.C,J9-NICH*%
X188758168Y-99675000D03*
D11*
X183678168Y-99675000D03*
%TD*%
D12*
%TO.C,PWR_SW*%
X188750000Y-35987500D03*
X188750000Y-40787500D03*
X188750000Y-45587500D03*
%TD*%
D10*
%TO.C,J1-MBAT*%
X205072500Y-48865000D03*
D13*
X205072500Y-53945000D03*
%TD*%
D14*
%TO.C,ANT_24*%
X145000000Y-33340000D03*
D15*
X142460000Y-30800000D03*
X142460000Y-35880000D03*
X147540000Y-30800000D03*
X147540000Y-35880000D03*
%TD*%
D16*
%TO.C,L62-1*%
X174480000Y-42200000D03*
D17*
X171940000Y-42200000D03*
X169400000Y-42200000D03*
X166860000Y-42200000D03*
X164320000Y-42200000D03*
X161780000Y-42200000D03*
X159240000Y-42200000D03*
X156700000Y-42200000D03*
%TD*%
D16*
%TO.C,L80-2*%
X127210000Y-58400000D03*
D17*
X129750000Y-58400000D03*
X132290000Y-58400000D03*
X134830000Y-58400000D03*
X137370000Y-58400000D03*
X139910000Y-58400000D03*
X142450000Y-58400000D03*
X144990000Y-58400000D03*
%TD*%
D14*
%TO.C,ANT_868*%
X174480000Y-33400000D03*
D15*
X171940000Y-30860000D03*
X171940000Y-35940000D03*
X177020000Y-30860000D03*
X177020000Y-35940000D03*
%TD*%
D16*
%TO.C,L80-1*%
X145020000Y-42200000D03*
D17*
X142480000Y-42200000D03*
X139940000Y-42200000D03*
X137400000Y-42200000D03*
X134860000Y-42200000D03*
X132320000Y-42200000D03*
X129780000Y-42200000D03*
X127240000Y-42200000D03*
%TD*%
D18*
%TO.C,H3*%
X125300000Y-30500000D03*
%TD*%
D12*
%TO.C,PARA_ARM*%
X131200000Y-95605000D03*
X131200000Y-90805000D03*
X131200000Y-86005000D03*
%TD*%
D18*
%TO.C,H4*%
X208400000Y-30600000D03*
%TD*%
D19*
%TO.C,AE1*%
X195100000Y-71000000D03*
%TD*%
D12*
%TO.C,BOOT_SW*%
X129400000Y-64900000D03*
X129400000Y-69700000D03*
X129400000Y-74500000D03*
%TD*%
D18*
%TO.C,H1*%
X125300000Y-101100000D03*
%TD*%
D16*
%TO.C,L62-2*%
X156725000Y-58375000D03*
D17*
X159265000Y-58375000D03*
X161805000Y-58375000D03*
X164345000Y-58375000D03*
X166885000Y-58375000D03*
X169425000Y-58375000D03*
X171965000Y-58375000D03*
X174505000Y-58375000D03*
%TD*%
D16*
%TO.C,SWD_INT*%
X152140000Y-67060000D03*
D17*
X152140000Y-69600000D03*
X149600000Y-67060000D03*
X149600000Y-69600000D03*
X147060000Y-67060000D03*
X147060000Y-69600000D03*
X144520000Y-67060000D03*
X144520000Y-69600000D03*
X141980000Y-67060000D03*
X141980000Y-69600000D03*
X139440000Y-67060000D03*
X139440000Y-69600000D03*
X136900000Y-67060000D03*
X136900000Y-69600000D03*
%TD*%
D11*
%TO.C,J10-PBAT*%
X195720000Y-99672500D03*
D10*
X200800000Y-99672500D03*
%TD*%
D18*
%TO.C,H2*%
X208400000Y-101100000D03*
%TD*%
M02*
